<?xml version="1.0" encoding="UTF-8"?>
<svg version="1.1" xmlns="http://www.w3.org/2000/svg" width="2000" height="2000">
<path d="M0 0 C660 0 1320 0 2000 0 C2000 660 2000 1320 2000 2000 C1340 2000 680 2000 0 2000 C0 1340 0 680 0 0 Z " fill="#AA3428" transform="translate(0,0)"/>
<path d="M0 0 C660 0 1320 0 2000 0 C2000 660 2000 1320 2000 2000 C1340 2000 680 2000 0 2000 C0 1340 0 680 0 0 Z M930.32070923 182.75076294 C928.16526494 182.98225105 926.00956188 183.1880106 923.8503418 183.38061523 C870.3767332 188.21844823 816.81131876 198.20194931 765.53515625 214.22119141 C763.3320017 214.89800795 761.12513831 215.54515205 758.90625 216.16796875 C722.93389859 226.2943319 687.89724183 240.3485817 654.21484375 256.46240234 C651.38096583 257.81779141 648.54180348 259.16141626 645.70057678 260.50131226 C619.96207521 272.65406887 595.18338072 286.16623985 570.99023438 301.14941406 C568.48368536 302.70065847 565.97098843 304.24067363 563.453125 305.7734375 C539.63969142 320.34544067 517.05094236 336.90848043 495 354 C494.38141113 354.47679199 493.76282227 354.95358398 493.12548828 355.44482422 C485.92422876 360.99786024 478.90245795 366.71123745 472.03173828 372.66918945 C468.64084692 375.60831034 465.20165922 378.45778285 461.6875 381.25 C451.47954121 389.53450068 442.05127984 398.84847831 432.83007812 408.20556641 C431.00993989 409.99025371 429.1277273 411.65998702 427.1875 413.3125 C419.82558103 419.65998131 413.04713216 426.64809867 406.7421875 434.0390625 C404.7456211 436.28631885 402.63987054 438.38894927 400.5 440.5 C397.10731601 443.85256779 393.90899316 447.29475682 390.8046875 450.9140625 C388.78348724 453.25025501 386.70621161 455.52964851 384.625 457.8125 C380.72636603 462.13260791 377.02496142 466.58071381 373.3671875 471.10546875 C371.31608095 473.61350497 369.22575668 476.08098093 367.11303711 478.53710938 C360.63472211 486.08412008 354.58791637 493.92765379 348.60546875 501.87109375 C347.07675459 503.8982208 345.53956025 505.91860437 344 507.9375 C324.58796168 533.48067364 307.25752462 560.35943855 291 588 C290.49436523 588.85142578 289.98873047 589.70285156 289.46777344 590.58007812 C254.42324041 649.67478087 227.36172177 714.76074271 209.77246094 781.12646484 C208.98779654 784.04539658 208.17330381 786.95458551 207.3515625 789.86328125 C202.06533062 808.72997251 197.88499038 827.80344653 194 847 C193.63261719 848.80500977 193.63261719 848.80500977 193.2578125 850.64648438 C189.88479675 867.60084884 187.83074464 884.7174506 185.8125 901.875 C185.68566833 902.9383255 185.55883667 904.001651 185.42816162 905.09719849 C181.80399925 935.74878686 180.6439742 966.12645979 180.68432617 996.95874023 C180.68895323 1000.76908182 180.68202914 1004.5791038 180.66381836 1008.3894043 C180.54862194 1032.73700821 181.28518779 1056.75849911 183.79170609 1080.98420715 C184.01105392 1083.10697581 184.22559531 1085.23019645 184.43954468 1087.35351562 C187.94240041 1121.95824947 193.84550784 1156.35154436 202.28320312 1190.09716797 C203.08472411 1193.34310957 203.82147563 1196.60005236 204.54736328 1199.86352539 C221.76747064 1276.38804781 254.86372742 1351.91384281 295 1419 C295.60166992 1420.00691895 296.20333984 1421.01383789 296.82324219 1422.05126953 C303.5515577 1433.28132851 310.37970358 1444.41840424 317.78027344 1455.21972656 C319.06010498 1457.08772728 320.33101065 1458.96161489 321.6015625 1460.8359375 C335.34090561 1481.03469223 350.06973099 1500.27421996 365.51904297 1519.18261719 C366.8427907 1520.80707781 368.15828809 1522.43825346 369.47265625 1524.0703125 C374.02334754 1529.70450171 378.75879243 1535.1134745 383.66015625 1540.4453125 C385.65834848 1542.62697815 387.62148889 1544.83011309 389.5625 1547.0625 C396.05606546 1554.5074483 402.66504162 1561.73961501 409.69799805 1568.67651367 C412.42580703 1571.37992443 415.03285938 1574.11998351 417.5 1577.0625 C420.78368919 1580.91864833 424.47938714 1584.26415937 428.23730469 1587.64379883 C432.02883356 1591.06713231 435.66340159 1594.61321545 439.25 1598.25 C443.04825788 1602.09202081 446.90512779 1605.79717583 451.01953125 1609.30078125 C453.32669952 1611.28030432 455.56646782 1613.3264212 457.8125 1615.375 C462.10959827 1619.25350727 466.53758754 1622.92865968 471.0390625 1626.56640625 C473.69764902 1628.75149781 476.30044215 1630.98384606 478.89428711 1633.24438477 C486.61582052 1639.96165046 494.6227454 1646.22880717 502.81542969 1652.35986328 C504.89944549 1653.92450545 506.9699376 1655.50559149 509.0390625 1657.08984375 C538.25373923 1679.24376712 569.66175259 1698.68344163 601.58886719 1716.64013672 C603.81776001 1717.89721783 606.03863521 1719.16727983 608.2578125 1720.44140625 C664.77734066 1752.67187967 727.17682658 1776.41768975 790 1793 C791.17546387 1793.31275879 792.35092773 1793.62551758 793.56201172 1793.94775391 C836.23843239 1805.22269948 879.56197999 1812.07947668 923.4375 1816.6875 C924.56639648 1816.80681885 925.69529297 1816.9261377 926.85839844 1817.04907227 C942.79175175 1818.66697444 958.56069394 1819.15169524 974.5625 1819.1328125 C976.60880546 1819.13348835 978.65511083 1819.13446071 980.70141602 1819.13571167 C984.96403782 1819.13717542 989.22663849 1819.13507704 993.48925781 1819.13037109 C998.90840844 1819.12467465 1004.32750951 1819.1279608 1009.74665833 1819.13394356 C1013.96439985 1819.13758513 1018.18212993 1819.13639419 1022.39987183 1819.13381577 C1024.39623012 1819.13315641 1026.39258952 1819.13393954 1028.38894653 1819.13629532 C1043.10261374 1819.14985463 1057.66932097 1818.67365551 1072.3125 1817.125 C1073.56003052 1816.99375732 1073.56003052 1816.99375732 1074.83276367 1816.85986328 C1076.62951409 1816.67007381 1078.42614319 1816.47913265 1080.22265625 1816.28710938 C1083.02178371 1815.9977481 1085.82254591 1815.73931781 1088.625 1815.484375 C1122.69489776 1812.22333207 1156.66933691 1805.69917533 1190 1798 C1191.20027832 1797.72333496 1192.40055664 1797.44666992 1193.63720703 1797.16162109 C1211.69003661 1792.94527863 1229.38964123 1787.7773217 1247 1782 C1248.07471558 1781.64841827 1248.07471558 1781.64841827 1249.17114258 1781.28973389 C1282.54675437 1770.35418474 1315.11032045 1757.73663424 1347 1743 C1348.0214209 1742.52916992 1349.0428418 1742.05833984 1350.09521484 1741.57324219 C1375.46816082 1729.80806558 1400.14493857 1716.59748746 1424 1702 C1424.94472168 1701.42459473 1425.88944336 1700.84918945 1426.86279297 1700.25634766 C1471.71454423 1672.86057385 1513.08210281 1641.25702409 1552 1606 C1552.96292969 1605.13117188 1553.92585938 1604.26234375 1554.91796875 1603.3671875 C1560.94770546 1597.90200351 1566.75948286 1592.27907682 1572.4765625 1586.48828125 C1574.6285972 1584.36622846 1576.81701193 1582.38515001 1579.125 1580.4375 C1582.92516929 1577.19008261 1586.1439392 1573.56144001 1589.44140625 1569.8125 C1592.40221957 1566.55786551 1595.49506783 1563.46571332 1598.625 1560.375 C1602.68812147 1556.35367661 1606.63249051 1552.30552842 1610.3359375 1547.9453125 C1612.30139014 1545.64767068 1614.33729871 1543.42126877 1616.375 1541.1875 C1620.19718989 1536.94775995 1623.84451955 1532.59812452 1627.43359375 1528.16015625 C1629.34423039 1525.79762313 1631.27844765 1523.45607521 1633.22265625 1521.12109375 C1664.88934019 1483.04811242 1692.98213458 1441.71529989 1716.75683594 1398.27148438 C1717.67072924 1396.60163691 1718.58863342 1394.93398297 1719.50878906 1393.26757812 C1747.4946424 1342.51329307 1768.845984 1289.29922668 1786 1234 C1786.4957251 1232.4226709 1786.4957251 1232.4226709 1787.00146484 1230.81347656 C1795.33501739 1204.16564365 1801.54728383 1176.64044161 1806.43505859 1149.16357422 C1807.03105242 1145.82611184 1807.65025808 1142.49337187 1808.26953125 1139.16015625 C1815.25332935 1100.88999483 1819.15096372 1061.82926686 1819.16796875 1022.921875 C1819.17119983 1021.13616919 1819.17456511 1019.35046362 1819.17805481 1017.5647583 C1819.18398851 1013.84362172 1819.18590093 1010.12250815 1819.18530273 1006.40136719 C1819.18522188 1002.65522389 1819.19210924 998.90920394 1819.20581055 995.16308594 C1819.28671169 972.67795648 1818.95498522 950.412085 1817 928 C1816.92429779 927.09290283 1816.84859558 926.18580566 1816.77059937 925.2512207 C1816.32613179 919.95196115 1815.81594937 914.66259469 1815.25 909.375 C1815.12694489 908.20939041 1815.12694489 908.20939041 1815.00140381 907.02023315 C1813.1748146 889.9247748 1810.46673062 873.01180344 1807.3828125 856.10229492 C1807.00956478 854.05252702 1806.64099741 852.0019664 1806.2734375 849.95117188 C1801.34044765 822.64354948 1795.10432196 795.54907985 1787 769 C1786.62004883 767.74558105 1786.24009766 766.49116211 1785.84863281 765.19873047 C1758.96348149 676.65459161 1718.15272695 593.42082427 1623.37255859 467.61083984 C1621.96681432 465.96105316 1620.57072891 464.30345255 1619.17578125 462.64453125 C1608.79313804 450.34571045 1597.7821519 438.66659727 1586.328125 427.36328125 C1584.36063802 425.36608389 1582.5433407 423.33860311 1580.75 421.1875 C1576.7629443 416.50871415 1572.20441707 412.44263038 1567.68945312 408.28515625 C1563.9482024 404.83624856 1560.30358339 401.33205512 1556.75 397.6875 C1552.68436497 393.56819322 1548.36044927 389.9474518 1543.83984375 386.33984375 C1540.84864741 383.87529546 1538.01276645 381.27467702 1535.1875 378.625 C1529.92222698 373.71604293 1524.38319698 369.27118955 1518.6875 364.875 C1515.48460792 362.39754929 1512.35555387 359.83986329 1509.23388672 357.26123047 C1500.82945182 350.32958849 1492.12837989 343.91175155 1483.24707031 337.60742188 C1481.07495024 336.05361499 1478.9215319 334.47743344 1476.7734375 332.890625 C1456.03654835 317.61081194 1434.20744512 304.02087162 1412 291 C1411.13165527 290.48663086 1410.26331055 289.97326172 1409.36865234 289.44433594 C1363.79477227 262.54450154 1314.97858956 241.18468841 1264.96176147 224.05410767 C1261.46321376 222.85526475 1257.97193534 221.63894783 1254.48852539 220.39672852 C1253.73394547 220.12795898 1252.97936554 219.85918945 1252.20191956 219.58227539 C1250.76284914 219.06860612 1249.3245058 218.55289305 1247.8870697 218.03466797 C1242.27681117 216.03379846 1236.62017853 214.46327906 1230.84765625 212.98828125 C1227.45608309 212.11714621 1224.08553843 211.19738375 1220.71533203 210.24853516 C1216.8143946 209.15056357 1212.90736076 208.07485027 1209 207 C1208.14970215 206.76522949 1207.2994043 206.53045898 1206.42333984 206.28857422 C1181.64884499 199.49388154 1156.49790107 194.70614075 1131.16455078 190.52294922 C1128.39869745 190.06588566 1125.63474914 189.59902114 1122.87109375 189.12890625 C1109.64044578 186.91427445 1096.33898499 185.39395346 1083 184 C1081.76495728 183.86897888 1080.52991455 183.73795776 1079.25744629 183.60296631 C1053.6257383 180.96086335 1028.16263538 180.56384438 1002.41046143 180.6774292 C998.25818214 180.69092736 994.10600869 180.68557856 989.95371723 180.68056107 C960.09187428 180.63930572 960.09187428 180.63930572 930.32070923 182.75076294 Z " fill="#3B8DA4" transform="translate(0,0)"/>
<path d="M0 0 C1.40849747 -0.00763048 2.8169908 -0.01605949 4.22547913 -0.02522278 C8.03780754 -0.04709198 11.85005578 -0.05595687 15.66243982 -0.06104922 C18.05010445 -0.06470295 20.43774841 -0.07094837 22.82540512 -0.07805061 C31.17218693 -0.10252253 39.51890682 -0.11559131 47.86572266 -0.11914062 C55.617787 -0.12277018 63.36945406 -0.15262952 71.12139714 -0.19454521 C77.79855755 -0.2293697 84.47558713 -0.24469119 91.15283763 -0.24538666 C95.1311021 -0.2461756 99.10896174 -0.25473528 103.0871315 -0.28338432 C106.83515491 -0.30977353 110.58244393 -0.31165604 114.33051872 -0.29572868 C116.34022055 -0.29308145 118.34990945 -0.31495674 120.35948181 -0.33792114 C132.48675083 -0.2414839 142.99361931 3.16610493 152.10107422 11.30639648 C152.70435547 11.80655273 153.30763672 12.30670898 153.92919922 12.82202148 C163.83402323 21.69329864 166.75020739 34.95632451 170.10107422 47.30639648 C171.2612719 51.51653403 172.43000573 55.72427098 173.60107422 59.93139648 C173.90118408 61.01251709 174.20129395 62.0936377 174.51049805 63.20751953 C176.45163085 70.14679138 178.57846986 76.96859297 180.92138672 83.78295898 C182.95451643 89.85541924 184.70296502 96.01116379 186.48046875 102.16235352 C187.49019175 105.65070418 188.51440622 109.13476517 189.53857422 112.61889648 C189.7393457 113.305 189.94011719 113.99110352 190.14697266 114.69799805 C191.31102005 118.66526162 192.50071857 122.62353366 193.71435547 126.57592773 C193.98642822 127.46691162 194.25850098 128.35789551 194.53881836 129.27587891 C195.06619515 131.00003802 195.59769706 132.72294276 196.1340332 134.44433594 C196.37581299 135.23670654 196.61759277 136.02907715 196.86669922 136.84545898 C197.08100586 137.53849121 197.2953125 138.23152344 197.51611328 138.94555664 C198.28209264 142.03696751 198.66520667 145.15340306 199.10107422 148.30639648 C199.7368739 148.30608452 200.37267357 148.30577256 201.02773991 148.30545115 C270.23578118 148.27156449 339.44382341 148.24015281 408.65187073 148.22171021 C409.68537557 148.22143409 410.71888041 148.22115798 411.78370358 148.2208735 C434.24355983 148.21488793 456.70341617 148.20934753 479.16327265 148.20426583 C490.17728921 148.20177111 501.19130574 148.19917801 512.20532227 148.1965332 C513.30135997 148.19627169 514.39739768 148.19601017 515.52664865 148.19574072 C551.06407215 148.18721525 586.60148931 148.17219056 622.13890896 148.15380204 C658.65265122 148.13494262 695.16638995 148.12262693 731.68013699 148.1185665 C736.83528668 148.11799018 741.99043635 148.11733891 747.14558601 148.116642 C748.16021166 148.11650715 749.17483731 148.11637231 750.22020918 148.11623337 C766.56490328 148.11386826 782.90958652 148.10458761 799.25427619 148.09273242 C815.67891589 148.0809664 832.10354481 148.07645841 848.52818858 148.07939373 C858.29105659 148.08091698 868.05388518 148.07684067 877.81674609 148.0648014 C884.33588472 148.05731015 890.85499749 148.05706318 897.3741379 148.06273286 C901.09021416 148.06575656 904.80621578 148.06560565 908.52228408 148.05663012 C912.52507613 148.04703546 916.52769708 148.052909 920.53049374 148.06030083 C921.68444017 148.0550468 922.8383866 148.04979277 924.0273011 148.04437953 C937.32901729 148.10013139 948.00814351 151.31255409 957.97607422 160.61889648 C966.85190754 170.31736801 970.40155196 180.82494851 970.27929688 193.78125 C969.99417814 199.42074229 968.96997733 204.84308551 967.85107422 210.36889648 C967.64611328 211.43043945 967.44115234 212.49198242 967.22998047 213.58569336 C966.53527613 217.1623681 965.81937239 220.73438566 965.10107422 224.30639648 C964.79288488 225.85004844 964.48495646 227.3937525 964.17724609 228.9375 C962.66050092 236.54191816 961.13543542 244.14461533 959.59790039 251.74485779 C954.73386045 275.70350938 954.73386045 275.70350938 950.39575195 299.76147461 C949.27742835 306.39060349 948.00550794 312.97821851 946.66601562 319.56591797 C945.308669 326.24204761 944.00740695 332.9277729 942.72607422 339.61889648 C941.37782405 346.65807721 940.02724152 353.69672076 938.65966797 360.73217773 C936.05287854 374.14464027 933.48099648 387.56205307 930.97607422 400.99389648 C929.25298386 410.23162476 927.4986592 419.46081267 925.63525391 428.67138672 C924.12914709 436.12600197 922.67213943 443.58992189 921.22607422 451.05639648 C921.09944397 451.71009216 920.97281372 452.36378784 920.84234619 453.03729248 C918.71469418 464.03280126 916.64626635 475.03894265 914.59286499 486.04852295 C912.97491701 494.71806111 911.31500775 503.37686754 909.56494141 512.02075195 C908.46404167 517.4653454 907.39667975 522.91563821 906.34960938 528.37084961 C905.9335854 530.53795334 905.51528703 532.70462168 905.09472656 534.87084961 C904.03245488 540.35965475 902.99671474 545.8510103 902.02734375 551.35691833 C901.53770107 554.12475281 901.03366331 556.8898822 900.52825928 559.65487671 C900.17506387 561.61754962 899.84110873 563.58365475 899.5078125 565.54980469 C897.15307218 578.34624681 892.22829552 589.7587855 882.10107422 598.30639648 C869.52521272 606.31867704 856.5490296 607.47537778 841.97607422 609.18139648 C840.52225556 609.35421541 839.06848037 609.52740038 837.61474609 609.70092773 C834.60351806 610.06008314 831.59211175 610.41768543 828.58056641 610.77416992 C822.26597546 611.5228615 815.95373477 612.29082178 809.64141846 613.05841064 C806.21141181 613.47529769 802.78123399 613.89077158 799.35107422 614.30639648 C797.97607341 614.47305647 796.60107341 614.63972313 795.22607422 614.80639648 C741.60107422 621.30639648 741.60107422 621.30639648 687.97607422 627.80639648 C687.29546432 627.88889648 686.61485443 627.97139648 685.91362 628.05639648 C684.53846917 628.22307773 683.16331659 628.3897444 681.78816223 628.55639648 C678.35295515 628.97272054 674.91777905 629.38929707 671.48266602 629.80639648 C665.26776538 630.56077259 659.05266537 631.31326593 652.83641052 632.05641174 C649.36198196 632.47182786 645.88772925 632.88869926 642.41357422 633.30639648 C641.37990219 633.43064499 641.37990219 633.43064499 640.3253479 633.55740356 C630.80153945 634.7051242 621.29290225 635.9438986 611.78857422 637.24389648 C599.76506855 638.88193477 587.72335083 640.27756832 575.66357422 641.61889648 C558.78692267 643.49612045 541.94190211 645.56936193 525.10107422 647.74389648 C506.94844732 650.08698871 488.7876951 652.30603375 470.60107422 654.36889648 C453.28777615 656.33282059 435.99970629 658.43547743 418.72070312 660.68066406 C403.02921571 662.71622306 387.32254981 664.58044723 371.60107422 666.36889648 C355.62936013 668.18642659 339.66934872 670.06560177 323.72607422 672.11889648 C322.90679443 672.22412628 322.08751465 672.32935608 321.2434082 672.43777466 C311.15142105 673.72879768 311.15142105 673.72879768 301.10107422 675.30639648 C295.37869974 691.34561331 295.37869974 691.34561331 297.47607422 707.74389648 C308.28940454 718.29976656 324.64503364 718.84771651 338.89794922 718.70483398 C339.64251122 718.70157482 340.38707321 718.69831566 341.15419769 718.69495773 C359.44501293 718.59456316 377.58929186 716.93411775 395.78234863 715.17803955 C402.61518049 714.5219669 409.45078187 713.89484292 416.28609467 713.2652359 C417.95917547 713.11090631 419.63219556 712.9559171 421.30515289 712.80025482 C435.02117359 711.52589488 448.73508547 710.54984039 462.48486328 709.71801758 C470.62113278 709.22434755 478.73388447 708.54359437 486.85107422 707.80639648 C489.82482541 707.54359678 492.79886476 707.28414449 495.77294922 707.02514648 C496.85195496 706.93088379 496.85195496 706.93088379 497.95275879 706.8347168 C507.72193968 705.98536935 517.50029928 705.27080067 527.28173828 704.57885742 C529.96625876 704.3873511 532.65045035 704.19308942 535.33447266 703.99487305 C562.88084669 701.96110859 590.44603958 700.31372672 618.02246094 698.75219727 C620.84555165 698.59207649 623.6686277 698.43169898 626.49169922 698.27124023 C627.1882984 698.23173374 627.88489758 698.19222725 628.60260582 698.15152359 C638.63050628 697.5815148 648.65310313 696.9508294 658.67529297 696.28686523 C674.66335978 695.24034436 690.6563566 694.36935508 706.66357422 693.68139648 C707.41400875 693.64898613 708.16444328 693.61657578 708.93761826 693.58318329 C739.11033072 692.29492324 769.2773811 691.97499048 799.47529221 691.93714142 C802.89998396 691.93141919 806.32462387 691.92034881 809.7492981 691.90814209 C815.18606355 691.89048293 820.62257317 691.89011685 826.05934906 691.90331268 C828.06939291 691.90636348 830.07945041 691.90472864 832.08948517 691.89795685 C862.16334804 691.81430825 862.16334804 691.81430825 873.84326172 702.97045898 C880.82787673 710.58056191 883.48070051 718.6012258 883.37841797 728.81811523 C882.6976746 737.38014095 879.14873501 745.19168846 873.10107422 751.30639648 C862.41981353 760.02579296 852.56821235 760.71213175 839.37060547 760.52905273 C837.68588253 760.5175931 836.00114774 760.50777603 834.31640625 760.4994812 C830.72089851 760.47980816 827.12558247 760.45218249 823.53018188 760.41818237 C814.04359343 760.33072604 804.55675858 760.30425172 795.06982422 760.28295898 C794.10949594 760.28048849 793.14916767 760.278018 792.15973854 760.27547264 C773.14391623 760.23380199 754.15078455 760.58464448 735.14477158 761.17478561 C732.92253622 761.24361889 730.70024556 761.31035655 728.47793579 761.3767395 C724.35856461 761.50089031 720.23957426 761.63435869 716.12060547 761.77124023 C714.92435547 761.80982147 713.72810547 761.84840271 712.49560547 761.88815308 C707.0237049 762.08471717 701.63433804 762.41590495 696.20002747 763.08021545 C692.50752626 763.47811556 688.80757962 763.55961568 685.09716797 763.66577148 C683.26437999 763.72673133 681.43161756 763.78846232 679.59887695 763.85083008 C678.61909882 763.88360046 677.63932068 763.91637085 676.62985229 763.95013428 C652.40756862 764.78277154 628.22586896 766.16258637 604.03857422 767.68139648 C603.16948174 767.73596889 602.30038925 767.79054131 601.40496063 767.84676743 C578.4244836 769.29399179 555.46368537 770.88283241 532.52124023 772.85229492 C514.3250761 774.41159088 496.11115126 775.67701605 477.89038086 776.91210938 C464.54715735 777.82114414 451.22368175 778.85488516 437.9034729 780.05465698 C433.18487697 780.4785285 428.46530596 780.89112458 423.74560547 781.30249023 C422.33020729 781.42591545 422.33020729 781.42591545 420.88621521 781.55183411 C408.43757182 782.63157312 395.98202462 783.62772229 383.52709961 784.63183594 C380.34726593 784.88844739 377.1675262 785.1462 373.98779297 785.40405273 C372.56571785 785.51814232 372.56571785 785.51814232 371.11491394 785.63453674 C366.67765472 785.99475841 362.24838364 786.3874138 357.82055664 786.85009766 C324.79936752 790.208967 285.72083832 785.60465102 258.71826172 764.55249023 C242.77880036 750.87310176 230.66740299 733.68096545 228.35107422 712.27905273 C226.32521105 680.08682088 234.62824588 652.89805142 249.10107422 624.30639648 C249.43107422 623.97639648 249.76107422 623.64639648 250.10107422 623.30639648 C249.65435413 616.9586481 247.99969313 611.37472199 245.97607422 605.36889648 C243.2944907 597.18989285 240.82569395 588.97931483 238.53857422 580.68139648 C235.79978561 570.76378809 232.91312165 560.90365286 229.9296875 551.05737305 C228.29987046 545.64641891 226.70327664 540.22557724 225.10107422 534.80639648 C219.15630937 514.57359444 219.15630937 514.57359444 212.90649414 494.43408203 C209.96685979 485.27320378 207.33251592 476.05145162 204.77709961 466.77636719 C202.86766204 459.89998486 200.80712018 453.09304318 198.60107422 446.30639648 C195.71590518 437.42404758 193.14022454 428.47914974 190.65356445 419.4777832 C188.20655723 410.63022646 185.5914871 401.84215675 182.9296875 393.05737305 C181.29987046 387.64641891 179.70327664 382.22557724 178.10107422 376.80639648 C172.15630937 356.57359444 172.15630937 356.57359444 165.90649414 336.43408203 C162.96685979 327.27320378 160.33251592 318.05145162 157.77709961 308.77636719 C155.61486662 300.98960267 153.22457865 293.30015657 150.72631836 285.61572266 C148.16780102 277.67753901 145.93611509 269.66379964 143.72607422 261.62280273 C141.83601075 254.79663601 139.79068806 248.04207155 137.60107422 241.30639648 C134.71774928 232.42978828 132.14421945 223.49056485 129.65795898 214.49536133 C126.31121181 202.39970389 122.7365741 190.38044187 118.90429688 178.4296875 C115.96798777 169.26944833 113.33210031 160.04994313 110.77709961 150.77636719 C108.86765846 143.89997199 106.80688539 137.09312755 104.60107422 130.30639648 C101.98674167 122.24910928 99.57384477 114.15077603 97.28857422 105.99389648 C96.85351562 104.44605469 96.85351562 104.44605469 96.40966797 102.86694336 C95.18992087 98.46837422 94.03782872 94.07845581 93.05366516 89.6209259 C92.78549469 88.40812313 92.78549469 88.40812313 92.51190662 87.17081928 C92.30854458 86.24793 92.30854458 86.24793 92.10107422 85.30639648 C91.55461085 85.31008366 91.00814749 85.31377083 90.44512463 85.31756973 C77.10569434 85.40617511 63.7663161 85.47197318 50.42665386 85.51364517 C43.97548608 85.53447818 37.52453146 85.56271792 31.07348633 85.6081543 C24.84242992 85.65176427 18.61157794 85.67556581 12.38038063 85.68590546 C10.00864255 85.69326961 7.63691506 85.70764984 5.26526451 85.72931671 C1.93123985 85.75855137 -1.40195082 85.76234402 -4.73608398 85.76049805 C-5.70641571 85.77487915 -6.67674744 85.78926025 -7.67648315 85.80407715 C-20.12139928 85.73000632 -28.92587042 80.81551873 -37.83642578 72.49780273 C-46.49697788 63.51994592 -49.23109216 52.11007283 -49.28393555 40.01538086 C-49.07220169 29.22038765 -44.48985398 19.94128758 -36.89892578 12.30639648 C-25.05028814 2.65822012 -14.98367396 0.00760093 0 0 Z " fill="#F4ED9D" transform="translate(503.89892578125,504.693603515625)"/>
<path d="M0 0 C69.63 0 139.26 0 211 0 C211 45.21 211 90.42 211 137 C154.9 137 98.8 137 41 137 C36.50655946 125.76639865 36.50655946 125.76639865 35.32421875 121.328125 C35.05738281 120.34585938 34.79054688 119.36359375 34.515625 118.3515625 C34.24234375 117.32804688 33.9690625 116.30453125 33.6875 115.25 C31.46335273 107.10442167 29.11581668 99.02840923 26.5 91 C23.61416105 82.11788538 21.03914076 73.17271863 18.55249023 64.17138672 C16.1104443 55.34176831 13.50203474 46.57086787 10.84619141 37.80371094 C9.13192228 32.12377249 7.44065803 26.43700209 5.75 20.75 C5.23771851 19.03514404 5.23771851 19.03514404 4.71508789 17.28564453 C4.39145264 16.19622559 4.06781738 15.10680664 3.734375 13.984375 C3.44788086 13.02241211 3.16138672 12.06044922 2.86621094 11.06933594 C1.83099573 7.40114946 0.92441595 3.69766382 0 0 Z " fill="#AB3428" transform="translate(729,739)"/>
<path d="M0 0 C57.75 0 115.5 0 175 0 C175 44.55 175 89.1 175 135 C141.22604821 139.50319357 141.22604821 139.50319357 127.13500977 141.0383606 C108.89989287 143.029972 90.69829072 145.26089787 72.5 147.5625 C52.49637223 150.09106414 32.48699228 152.49252551 12.43774414 154.63037109 C8.29067089 155.07626761 4.14546514 155.53939276 0 156 C0 104.52 0 53.04 0 0 Z " fill="#AB3428" transform="translate(980,916)"/>
<path d="M0 0 C57.75 0 115.5 0 175 0 C175 45.21 175 90.42 175 137 C117.25 137 59.5 137 0 137 C0 91.79 0 46.58 0 0 Z " fill="#AB3428" transform="translate(980,739)"/>
<path d="M0 0 C60.39 0 120.78 0 183 0 C180.70664783 18.34681739 180.70664783 18.34681739 179.1171875 25.89453125 C178.94199081 26.75373169 178.76679413 27.61293213 178.58628845 28.49816895 C178.21332949 30.32598838 177.8379055 32.15330644 177.46011353 33.98013306 C176.4393599 38.92130891 175.44045379 43.86689704 174.44140625 48.8125 C174.23664169 49.82492264 174.03187714 50.83734528 173.82090759 51.88044739 C171.71451626 62.33867647 169.74845113 72.82157903 167.8125 83.3125 C167.64891998 84.19714935 167.48533997 85.08179871 167.31680298 85.99325562 C166.20729195 91.9947862 165.10286751 97.99724552 164 104 C162.98927954 109.50121095 161.97618501 115.00195652 160.95541382 120.50131226 C160.57176075 122.57494589 160.19264572 124.64937503 159.8137207 126.72387695 C159.47473755 128.5505188 159.47473755 128.5505188 159.12890625 130.4140625 C158.93369385 131.4757666 158.73848145 132.5374707 158.53735352 133.63134766 C158 136 158 136 157 137 C154.97505378 137.09676414 152.94667458 137.12186986 150.91941833 137.12025452 C149.95646012 137.12153615 149.95646012 137.12153615 148.9740482 137.12284368 C146.80745946 137.12450021 144.64094693 137.11897433 142.47436523 137.11352539 C140.92743939 137.11324353 139.38051341 137.11340123 137.83358765 137.1139679 C133.62095968 137.11425592 129.40835994 137.10835849 125.19573855 137.10139394 C120.79814212 137.09516112 116.40054511 137.09455666 112.00294495 137.09336853 C103.66959487 137.090255 95.33625785 137.08204132 87.00291353 137.07201904 C75.74620849 137.05877352 64.4894999 137.05335817 53.23278904 137.04751682 C35.48851624 137.03810145 17.74427099 137.01818268 0 137 C0 91.79 0 46.58 0 0 Z " fill="#AB3428" transform="translate(1196,739)"/>
<path d="M0 0 C16.24110846 14.14308514 29.16284883 33.49678278 30.89453125 55.4921875 C31.05098502 59.28504884 31.07954711 63.07142316 31.08203125 66.8671875 C31.09427734 67.84429688 31.10652344 68.82140625 31.11914062 69.828125 C31.1598408 90.23248058 23.01200961 108.12278152 9.89453125 123.4921875 C8.78078125 125.008125 8.78078125 125.008125 7.64453125 126.5546875 C-1.0990343 136.91199837 -14.34949151 143.31332252 -26.85546875 147.8046875 C-27.56469482 148.05951904 -28.2739209 148.31435059 -29.00463867 148.5769043 C-49.13557817 155.48991747 -73.18803577 152.5686115 -92.13671875 143.578125 C-113.57568918 132.74326372 -127.89509978 114.15646245 -135.85546875 91.8046875 C-142.40008375 70.21769627 -140.18566991 47.62451127 -130.10546875 27.4921875 C-125.74329467 19.56593135 -120.33546471 13.01403913 -114.10546875 6.4921875 C-113.56535156 5.87730469 -113.02523437 5.26242187 -112.46875 4.62890625 C-83.99894278 -26.56597067 -31.51617071 -25.45079446 0 0 Z " fill="#F4ED9D" transform="translate(852.10546875,1343.5078125)"/>
<path d="M0 0 C0.80695313 0.67675781 1.61390625 1.35351562 2.4453125 2.05078125 C3.29351563 2.73785156 4.14171875 3.42492188 5.015625 4.1328125 C21.35468071 17.99852492 30.91696038 36.92255181 33.4453125 58.05078125 C34.86990483 82.66960324 29.65155766 105.54308866 12.8828125 124.42578125 C11.41129317 125.97474897 9.93276165 127.51710424 8.4453125 129.05078125 C7.89488281 129.6746875 7.34445312 130.29859375 6.77734375 130.94140625 C-4.95768066 143.80647004 -24.91770604 152.20197639 -42.10595703 153.19873047 C-70.30982237 154.1997859 -92.23299045 147.30387021 -113.1171875 127.86328125 C-129.22753482 111.10700019 -137.43007729 88.14936015 -137.07373047 65.11694336 C-136.21807831 43.35536833 -127.02278145 22.5188752 -111.5546875 7.05078125 C-80.53041383 -20.91879471 -33.95513455 -26.73837048 0 0 Z " fill="#F4ED9D" transform="translate(1334.5546875,1341.94921875)"/>
<path d="M0 0 C52.14 0 104.28 0 158 0 C158 53.13 158 106.26 158 161 C113.3568297 166.72348337 113.3568297 166.72348337 95.4375 168.6875 C91.83172823 169.08455165 88.22624736 169.48409248 84.62109375 169.88671875 C83.36335144 170.02678345 83.36335144 170.02678345 82.0802002 170.16967773 C76.00308399 170.85785871 69.96113016 171.68877774 63.91772461 172.6315918 C59.60409646 173.17625458 55.33839814 173.17993356 51 173 C47.13049192 161.90174057 43.73643739 150.72779414 40.609375 139.39819336 C37.2491604 127.23129298 33.65756674 115.14285972 29.80322266 103.12329102 C26.86691355 93.96305184 24.23102609 84.74354665 21.67602539 75.4699707 C19.76659011 68.59359663 17.70621249 61.7865887 15.5 55 C12.58869374 46.04395632 9.99708937 37.02243734 7.49975586 27.94287109 C5.45631248 20.53794096 3.23745207 13.21408189 0.84765625 5.9140625 C0 3 0 3 0 0 Z " fill="#AB3528" transform="translate(782,916)"/>
<path d="M0 0 C49.5 0 99 0 150 0 C149.37479299 6.25207011 148.71441109 12.1241851 147.43359375 18.21484375 C147.27913284 18.97182556 147.12467194 19.72880737 146.9655304 20.50872803 C146.6331465 22.13718948 146.29875913 23.7652431 145.96252441 25.39291382 C145.04976378 29.81670446 144.15505013 34.24412573 143.26171875 38.671875 C143.07558014 39.59405319 142.88944153 40.51623138 142.69766235 41.46635437 C139.76238728 56.08169987 137.10361351 70.75014647 134.4065094 85.41087341 C132.64785589 94.94883269 130.82465955 104.47448592 129 114 C116.08149232 116.33238063 103.14486796 118.00466636 90.09936523 119.44839478 C84.40479515 120.0792155 78.71205363 120.72599105 73.01953125 121.375 C71.27919113 121.57335197 71.27919113 121.57335197 69.50369263 121.77571106 C55.36025017 123.40033962 41.24313892 125.22939895 27.12817383 127.08325195 C26.19749588 127.20454468 25.26681793 127.3258374 24.30793762 127.45080566 C22.60414615 127.67305661 20.90064646 127.8975651 19.19755554 128.12512207 C12.79394303 128.95979458 6.45879312 129.46176724 0 130 C0 87.1 0 44.2 0 0 Z " fill="#AB3528" transform="translate(1195,916)"/>
</svg>
