<?xml version="1.0" encoding="UTF-8"?>
<svg version="1.1" xmlns="http://www.w3.org/2000/svg" width="2000" height="2000">
<path d="M0 0 C660 0 1320 0 2000 0 C2000 660 2000 1320 2000 2000 C1340 2000 680 2000 0 2000 C0 1340 0 680 0 0 Z " fill="#AA3428" transform="translate(0,0)"/>
<path d="M0 0 C660 0 1320 0 2000 0 C2000 660 2000 1320 2000 2000 C1340 2000 680 2000 0 2000 C0 1340 0 680 0 0 Z M930.32070923 182.75076294 C928.16526494 182.98225105 926.00956188 183.1880106 923.8503418 183.38061523 C870.3767332 188.21844823 816.81131876 198.20194931 765.53515625 214.22119141 C763.3320017 214.89800795 761.12513831 215.54515205 758.90625 216.16796875 C722.93389859 226.2943319 687.89724183 240.3485817 654.21484375 256.46240234 C651.38096583 257.81779141 648.54180348 259.16141626 645.70057678 260.50131226 C619.96207521 272.65406887 595.18338072 286.16623985 570.99023438 301.14941406 C568.48368536 302.70065847 565.97098843 304.24067363 563.453125 305.7734375 C539.63969142 320.34544067 517.05094236 336.90848043 495 354 C494.38141113 354.47679199 493.76282227 354.95358398 493.12548828 355.44482422 C485.92422876 360.99786024 478.90245795 366.71123745 472.03173828 372.66918945 C468.64084692 375.60831034 465.20165922 378.45778285 461.6875 381.25 C451.47954121 389.53450068 442.05127984 398.84847831 432.83007812 408.20556641 C431.00993989 409.99025371 429.1277273 411.65998702 427.1875 413.3125 C419.82558103 419.65998131 413.04713216 426.64809867 406.7421875 434.0390625 C404.7456211 436.28631885 402.63987054 438.38894927 400.5 440.5 C397.10731601 443.85256779 393.90899316 447.29475682 390.8046875 450.9140625 C388.78348724 453.25025501 386.70621161 455.52964851 384.625 457.8125 C380.72636603 462.13260791 377.02496142 466.58071381 373.3671875 471.10546875 C371.31608095 473.61350497 369.22575668 476.08098093 367.11303711 478.53710938 C360.63472211 486.08412008 354.58791637 493.92765379 348.60546875 501.87109375 C347.07675459 503.8982208 345.53956025 505.91860437 344 507.9375 C324.58796168 533.48067364 307.25752462 560.35943855 291 588 C290.49436523 588.85142578 289.98873047 589.70285156 289.46777344 590.58007812 C254.42324041 649.67478087 227.36172177 714.76074271 209.77246094 781.12646484 C208.98779654 784.04539658 208.17330381 786.95458551 207.3515625 789.86328125 C202.06533062 808.72997251 197.88499038 827.80344653 194 847 C193.63261719 848.80500977 193.63261719 848.80500977 193.2578125 850.64648438 C189.88479675 867.60084884 187.83074464 884.7174506 185.8125 901.875 C185.68566833 902.9383255 185.55883667 904.001651 185.42816162 905.09719849 C181.80399925 935.74878686 180.6439742 966.12645979 180.68432617 996.95874023 C180.68895323 1000.76908182 180.68202914 1004.5791038 180.66381836 1008.3894043 C180.54862194 1032.73700821 181.28518779 1056.75849911 183.79170609 1080.98420715 C184.01105392 1083.10697581 184.22559531 1085.23019645 184.43954468 1087.35351562 C187.94240041 1121.95824947 193.84550784 1156.35154436 202.28320312 1190.09716797 C203.08472411 1193.34310957 203.82147563 1196.60005236 204.54736328 1199.86352539 C221.76747064 1276.38804781 254.86372742 1351.91384281 295 1419 C295.60166992 1420.00691895 296.20333984 1421.01383789 296.82324219 1422.05126953 C303.5515577 1433.28132851 310.37970358 1444.41840424 317.78027344 1455.21972656 C319.06010498 1457.08772728 320.33101065 1458.96161489 321.6015625 1460.8359375 C335.34090561 1481.03469223 350.06973099 1500.27421996 365.51904297 1519.18261719 C366.8427907 1520.80707781 368.15828809 1522.43825346 369.47265625 1524.0703125 C374.02334754 1529.70450171 378.75879243 1535.1134745 383.66015625 1540.4453125 C385.65834848 1542.62697815 387.62148889 1544.83011309 389.5625 1547.0625 C396.05606546 1554.5074483 402.66504162 1561.73961501 409.69799805 1568.67651367 C412.42580703 1571.37992443 415.03285938 1574.11998351 417.5 1577.0625 C420.78368919 1580.91864833 424.47938714 1584.26415937 428.23730469 1587.64379883 C432.02883356 1591.06713231 435.66340159 1594.61321545 439.25 1598.25 C443.04825788 1602.09202081 446.90512779 1605.79717583 451.01953125 1609.30078125 C453.32669952 1611.28030432 455.56646782 1613.3264212 457.8125 1615.375 C462.10959827 1619.25350727 466.53758754 1622.92865968 471.0390625 1626.56640625 C473.69764902 1628.75149781 476.30044215 1630.98384606 478.89428711 1633.24438477 C486.61582052 1639.96165046 494.6227454 1646.22880717 502.81542969 1652.35986328 C504.89944549 1653.92450545 506.9699376 1655.50559149 509.0390625 1657.08984375 C538.25373923 1679.24376712 569.66175259 1698.68344163 601.58886719 1716.64013672 C603.81776001 1717.89721783 606.03863521 1719.16727983 608.2578125 1720.44140625 C664.77734066 1752.67187967 727.17682658 1776.41768975 790 1793 C791.17546387 1793.31275879 792.35092773 1793.62551758 793.56201172 1793.94775391 C836.23843239 1805.22269948 879.56197999 1812.07947668 923.4375 1816.6875 C924.56639648 1816.80681885 925.69529297 1816.9261377 926.85839844 1817.04907227 C942.79175175 1818.66697444 958.56069394 1819.15169524 974.5625 1819.1328125 C976.60880546 1819.13348835 978.65511083 1819.13446071 980.70141602 1819.13571167 C984.96403782 1819.13717542 989.22663849 1819.13507704 993.48925781 1819.13037109 C998.90840844 1819.12467465 1004.32750951 1819.1279608 1009.74665833 1819.13394356 C1013.96439985 1819.13758513 1018.18212993 1819.13639419 1022.39987183 1819.13381577 C1024.39623012 1819.13315641 1026.39258952 1819.13393954 1028.38894653 1819.13629532 C1043.10261374 1819.14985463 1057.66932097 1818.67365551 1072.3125 1817.125 C1073.56003052 1816.99375732 1073.56003052 1816.99375732 1074.83276367 1816.85986328 C1076.62951409 1816.67007381 1078.42614319 1816.47913265 1080.22265625 1816.28710938 C1083.02178371 1815.9977481 1085.82254591 1815.73931781 1088.625 1815.484375 C1122.69489776 1812.22333207 1156.66933691 1805.69917533 1190 1798 C1191.20027832 1797.72333496 1192.40055664 1797.44666992 1193.63720703 1797.16162109 C1211.69003661 1792.94527863 1229.38964123 1787.7773217 1247 1782 C1248.07471558 1781.64841827 1248.07471558 1781.64841827 1249.17114258 1781.28973389 C1282.54675437 1770.35418474 1315.11032045 1757.73663424 1347 1743 C1348.0214209 1742.52916992 1349.0428418 1742.05833984 1350.09521484 1741.57324219 C1375.46816082 1729.80806558 1400.14493857 1716.59748746 1424 1702 C1424.94472168 1701.42459473 1425.88944336 1700.84918945 1426.86279297 1700.25634766 C1471.71454423 1672.86057385 1513.08210281 1641.25702409 1552 1606 C1552.96292969 1605.13117188 1553.92585938 1604.26234375 1554.91796875 1603.3671875 C1560.94770546 1597.90200351 1566.75948286 1592.27907682 1572.4765625 1586.48828125 C1574.6285972 1584.36622846 1576.81701193 1582.38515001 1579.125 1580.4375 C1582.92516929 1577.19008261 1586.1439392 1573.56144001 1589.44140625 1569.8125 C1592.40221957 1566.55786551 1595.49506783 1563.46571332 1598.625 1560.375 C1602.68812147 1556.35367661 1606.63249051 1552.30552842 1610.3359375 1547.9453125 C1612.30139014 1545.64767068 1614.33729871 1543.42126877 1616.375 1541.1875 C1620.19718989 1536.94775995 1623.84451955 1532.59812452 1627.43359375 1528.16015625 C1629.34423039 1525.79762313 1631.27844765 1523.45607521 1633.22265625 1521.12109375 C1664.88934019 1483.04811242 1692.98213458 1441.71529989 1716.75683594 1398.27148438 C1717.67072924 1396.60163691 1718.58863342 1394.93398297 1719.50878906 1393.26757812 C1747.4946424 1342.51329307 1768.845984 1289.29922668 1786 1234 C1786.4957251 1232.4226709 1786.4957251 1232.4226709 1787.00146484 1230.81347656 C1795.33501739 1204.16564365 1801.54728383 1176.64044161 1806.43505859 1149.16357422 C1807.03105242 1145.82611184 1807.65025808 1142.49337187 1808.26953125 1139.16015625 C1815.25332935 1100.88999483 1819.15096372 1061.82926686 1819.16796875 1022.921875 C1819.17119983 1021.13616919 1819.17456511 1019.35046362 1819.17805481 1017.5647583 C1819.18398851 1013.84362172 1819.18590093 1010.12250815 1819.18530273 1006.40136719 C1819.18522188 1002.65522389 1819.19210924 998.90920394 1819.20581055 995.16308594 C1819.28671169 972.67795648 1818.95498522 950.412085 1817 928 C1816.92429779 927.09290283 1816.84859558 926.18580566 1816.77059937 925.2512207 C1816.32613179 919.95196115 1815.81594937 914.66259469 1815.25 909.375 C1815.12694489 908.20939041 1815.12694489 908.20939041 1815.00140381 907.02023315 C1813.1748146 889.9247748 1810.46673062 873.01180344 1807.3828125 856.10229492 C1807.00956478 854.05252702 1806.64099741 852.0019664 1806.2734375 849.95117188 C1801.34044765 822.64354948 1795.10432196 795.54907985 1787 769 C1786.62004883 767.74558105 1786.24009766 766.49116211 1785.84863281 765.19873047 C1758.96348149 676.65459161 1718.15272695 593.42082427 1623.37255859 467.61083984 C1621.96681432 465.96105316 1620.57072891 464.30345255 1619.17578125 462.64453125 C1608.79313804 450.34571045 1597.7821519 438.66659727 1586.328125 427.36328125 C1584.36063802 425.36608389 1582.5433407 423.33860311 1580.75 421.1875 C1576.7629443 416.50871415 1572.20441707 412.44263038 1567.68945312 408.28515625 C1563.9482024 404.83624856 1560.30358339 401.33205512 1556.75 397.6875 C1552.68436497 393.56819322 1548.36044927 389.9474518 1543.83984375 386.33984375 C1540.84864741 383.87529546 1538.01276645 381.27467702 1535.1875 378.625 C1529.92222698 373.71604293 1524.38319698 369.27118955 1518.6875 364.875 C1515.48460792 362.39754929 1512.35555387 359.83986329 1509.23388672 357.26123047 C1500.82945182 350.32958849 1492.12837989 343.91175155 1483.24707031 337.60742188 C1481.07495024 336.05361499 1478.9215319 334.47743344 1476.7734375 332.890625 C1456.03654835 317.61081194 1434.20744512 304.02087162 1412 291 C1411.13165527 290.48663086 1410.26331055 289.97326172 1409.36865234 289.44433594 C1363.79477227 262.54450154 1314.97858956 241.18468841 1264.96176147 224.05410767 C1261.46321376 222.85526475 1257.97193534 221.63894783 1254.48852539 220.39672852 C1253.73394547 220.12795898 1252.97936554 219.85918945 1252.20191956 219.58227539 C1250.76284914 219.06860612 1249.3245058 218.55289305 1247.8870697 218.03466797 C1242.27681117 216.03379846 1236.62017853 214.46327906 1230.84765625 212.98828125 C1227.45608309 212.11714621 1224.08553843 211.19738375 1220.71533203 210.24853516 C1216.8143946 209.15056357 1212.90736076 208.07485027 1209 207 C1208.14970215 206.76522949 1207.2994043 206.53045898 1206.42333984 206.28857422 C1181.64884499 199.49388154 1156.49790107 194.70614075 1131.16455078 190.52294922 C1128.39869745 190.06588566 1125.63474914 189.59902114 1122.87109375 189.12890625 C1109.64044578 186.91427445 1096.33898499 185.39395346 1083 184 C1081.76495728 183.86897888 1080.52991455 183.73795776 1079.25744629 183.60296631 C1053.6257383 180.96086335 1028.16263538 180.56384438 1002.41046143 180.6774292 C998.25818214 180.69092736 994.10600869 180.68557856 989.95371723 180.68056107 C960.09187428 180.63930572 960.09187428 180.63930572 930.32070923 182.75076294 Z " fill="#3B8DA4" transform="translate(0,0)"/>
<path d="M0 0 C1.24273965 -0.00226556 2.4854793 -0.00453111 3.76587772 -0.00686532 C7.19426395 -0.01207997 10.6225975 -0.01285375 14.05098391 -0.01167095 C17.75655774 -0.01146609 21.46212388 -0.01699366 25.16769409 -0.02172852 C32.41860158 -0.03001625 39.66950094 -0.03278247 46.92041278 -0.03334089 C52.8149545 -0.03381679 58.70949355 -0.03587521 64.60403442 -0.03904152 C81.32788011 -0.0478417 98.05171939 -0.0524617 114.77556741 -0.05171105 C115.67616093 -0.05167109 116.57675444 -0.05163113 117.50463867 -0.05158997 C118.40633525 -0.05154909 119.30803184 -0.0515082 120.23705256 -0.05146609 C134.8576942 -0.05105943 149.47831011 -0.06063549 164.09894431 -0.07472833 C179.12278939 -0.08909529 194.14662192 -0.09599839 209.17047405 -0.09513456 C217.60073115 -0.09480278 226.03096125 -0.09754177 234.46121216 -0.10831261 C241.63647969 -0.11742163 248.81170796 -0.11958942 255.98697877 -0.11280318 C259.64581521 -0.10954048 263.30457635 -0.10947235 266.96340561 -0.11815643 C270.93380909 -0.127483 274.90410287 -0.12123917 278.87451172 -0.11352539 C280.60025217 -0.12124074 280.60025217 -0.12124074 282.36085606 -0.12911195 C288.65740003 -0.10208316 294.36818058 0.43466896 300.43725586 2.13371277 C301.98026367 2.55910339 301.98026367 2.55910339 303.55444336 2.99308777 C315.04958784 6.70540072 324.3468224 12.20109699 333.43725586 20.13371277 C334.05213867 20.65320496 334.66702148 21.17269714 335.30053711 21.70793152 C348.31000788 33.58094277 356.60908668 52.61009961 357.60046005 69.99582672 C357.84041681 77.79265494 357.79223082 85.59105847 357.74143767 93.39050627 C357.72247787 96.80038352 357.72090544 100.21027165 357.71736145 103.62019348 C357.70809693 110.05488316 357.68356039 116.48941698 357.65331298 122.92403853 C357.61959298 130.2591471 357.60323907 137.59426374 357.58822668 144.92943072 C357.55700466 159.99761105 357.50435513 175.0656462 357.43725586 190.13371277 C358.43540408 190.13186918 359.4335523 190.1300256 360.46194744 190.12812614 C384.78441521 190.08366489 409.10687769 190.05083176 433.42937756 190.03008842 C445.19170262 190.01978967 456.95400079 190.00575616 468.71630859 189.98283386 C478.97208799 189.96285706 489.2278479 189.94998615 499.48364621 189.94553578 C504.91057677 189.94293566 510.3374516 189.93685353 515.76436424 189.92225266 C520.88032113 189.9086009 525.99619971 189.90450539 531.11217308 189.90749741 C532.98212104 189.90695062 534.85207182 189.90301869 536.72200394 189.89530182 C559.76586471 189.80492972 582.2327557 193.29305561 599.41210938 210.00602722 C600.7668107 211.36913849 602.10253168 212.75103443 603.43725586 214.13371277 C604.17459961 214.84011902 604.91194336 215.54652527 605.67163086 216.27433777 C619.14105236 229.95258751 623.59599568 248.73111047 623.57427025 267.27433872 C623.57692208 268.38158355 623.5795739 269.48882837 623.58230609 270.62962607 C623.58997923 274.34816506 623.5905575 278.06667091 623.59115601 281.78521729 C623.59517191 284.47492756 623.59957394 287.16463473 623.60443556 289.85434335 C623.61548648 296.47664009 623.62115362 303.09893153 623.62514444 309.72123586 C623.63016228 317.65450483 623.64089101 325.58776359 623.65162618 333.52102652 C623.67722948 352.69382637 623.69228607 371.86663019 623.70513664 391.03944223 C623.70939327 397.39023901 623.71395903 403.7410355 623.71871996 410.09183192 C623.74397912 443.87303996 623.76602305 477.6542485 623.7784481 511.43546391 C623.78136933 519.25862696 623.78433688 527.08178999 623.78735352 534.904953 C623.78772442 535.87686081 623.78809533 536.84876861 623.78847748 537.85012816 C623.80063371 569.36352599 623.83158101 600.87686798 623.87327504 632.39023958 C623.91607363 664.79762572 623.94269036 697.20498237 623.94792282 729.61239754 C623.94866324 734.19066901 623.94957392 738.76894043 623.9505806 743.34721184 C623.95077121 744.24822575 623.95096183 745.14923967 623.95115822 746.07755704 C623.95466959 760.56842573 623.97495695 775.05922436 624.00137723 789.55006733 C624.02753878 804.11878891 624.03524207 818.68742965 624.02427594 833.25617135 C624.01830566 841.90701608 624.02617644 850.55758634 624.05410678 859.20838946 C624.07140018 864.99365219 624.07037489 870.77872845 624.05473909 876.56399531 C624.04635457 879.85601279 624.04844039 883.14740581 624.06735055 886.4393946 C624.13992762 899.89947602 624.07554328 911.72457657 618.43725586 924.13371277 C617.95029059 925.24386578 617.46332532 926.35401879 616.96160352 927.49781281 C613.76356944 934.55103497 609.56859698 940.36585032 604.43725586 946.13371277 C603.84428711 946.82078308 603.25131836 947.50785339 602.64038086 948.21574402 C589.94048462 961.97396494 571.13562488 969.66748283 552.71378466 971.50514615 C548.95900856 971.64180986 545.22259267 971.66623584 541.4654417 971.63987064 C540.02679952 971.64436087 538.58816195 971.65059819 537.1495339 971.65839598 C533.22943959 971.67465664 529.3097387 971.66638801 525.38964547 971.65378435 C521.11221911 971.64448102 516.83485533 971.65849049 512.55744153 971.66942352 C505.07153716 971.68536409 497.58574527 971.68652328 490.09983063 971.67782593 C478.96767507 971.66492715 467.8356208 971.67493624 456.70347129 971.68932548 C436.81803508 971.71423709 416.93264654 971.7161541 397.04719928 971.70805136 C379.64309145 971.70097452 362.23900211 971.70092508 344.83489418 971.70791435 C342.49898668 971.70882569 340.16307919 971.70973645 337.82717169 971.71064664 C334.30702916 971.71202979 330.78688663 971.71342089 327.26674412 971.71483277 C294.54615799 971.72781076 261.82557805 971.73293136 229.10499096 971.72129917 C227.87195519 971.7208612 226.63891942 971.72042323 225.36851892 971.71997199 C215.35584617 971.71636528 205.3431735 971.71253045 195.33050083 971.70868106 C156.27678583 971.69383451 117.22314076 971.70261238 78.16943359 971.7306366 C34.27486656 971.76207442 -9.61965908 971.77703134 -53.51423758 971.76683658 C-58.19580344 971.76579983 -62.8773693 971.7648126 -67.55893517 971.76385307 C-69.2879683 971.76347974 -69.2879683 971.76347974 -71.0519314 971.76309887 C-88.44101092 971.75966094 -105.83005385 971.76895684 -123.21912575 971.7846241 C-142.99823962 971.80240394 -162.77726451 971.80250855 -182.55637459 971.77927244 C-193.61924452 971.76678562 -204.68190992 971.76799349 -215.74476778 971.78915331 C-223.14266001 971.80190941 -230.54039526 971.79635271 -237.93827049 971.7761685 C-242.14785066 971.76518695 -246.35702977 971.7618511 -250.56659053 971.7808438 C-281.26512598 971.90958232 -304.78922169 967.97359376 -327.64868164 946.14152527 C-337.30036983 935.96576351 -341.9116683 923.37473888 -345.56274414 910.13371277 C-346.05774414 908.64871277 -346.05774414 908.64871277 -346.56274414 907.13371277 C-346.65488346 905.62039579 -346.69089804 904.10332979 -346.69269598 902.58721149 C-346.69622439 901.64737059 -346.69975281 900.70752969 -346.70338815 899.73920876 C-346.70219038 898.70270729 -346.7009926 897.66620582 -346.69975853 896.59829521 C-346.70241036 895.49573043 -346.70506218 894.39316565 -346.70779437 893.25718981 C-346.71551673 889.52444319 -346.71604766 885.79172931 -346.71664429 882.05897522 C-346.72065701 879.37088079 -346.72505809 876.6827895 -346.72992384 873.99469674 C-346.74100904 867.35692301 -346.74665048 860.71915458 -346.75063272 854.08137323 C-346.75563811 846.13351214 -346.76636525 838.18566133 -346.77711446 830.2378063 C-346.80275996 811.02208573 -346.81778444 791.80636115 -346.83062492 772.59062837 C-346.83487902 766.22497536 -346.83944474 759.85932264 -346.84420824 753.49366999 C-346.8694721 719.64747976 -346.89152035 685.80128906 -346.90393639 651.95509148 C-346.90685773 644.1108233 -346.90982524 636.26655513 -346.9128418 628.42228699 C-346.91321271 627.44773143 -346.91358361 626.47317587 -346.91396576 625.46908833 C-346.92611514 593.88775303 -346.95704757 562.30647353 -346.99876332 530.72516443 C-347.04157183 498.25730343 -347.06818022 465.7894719 -347.0734111 433.32158192 C-347.07415153 428.73333551 -347.07506221 424.14508916 -347.07606888 419.5568428 C-347.07625949 418.65384808 -347.07645011 417.75085336 -347.0766465 416.82049516 C-347.08015711 402.30092188 -347.1004417 387.78141856 -347.12686552 373.26187095 C-347.15304169 358.65777817 -347.16072429 344.05376602 -347.14976422 329.44965313 C-347.14379813 320.77925865 -347.15164239 312.10913817 -347.17959506 303.43878528 C-347.19690863 297.63776135 -347.19584627 291.83692325 -347.18022738 286.03589513 C-347.1718553 282.73642861 -347.17389575 279.43758359 -347.19283883 276.13814603 C-347.32586319 251.45112068 -343.23480731 230.93018714 -325.33227539 212.81340027 C-310.36001869 198.32684442 -292.16092414 189.93234176 -271.16615295 190.01345825 C-270.34754506 190.01260383 -269.52893717 190.0117494 -268.68552297 190.01086909 C-265.95715543 190.00922897 -263.22885011 190.01471151 -260.50048828 190.02018738 C-258.53888958 190.02046959 -256.57729078 190.02031085 -254.61569214 190.01974487 C-249.3001512 190.01945824 -243.98463287 190.02533339 -238.66909719 190.03231883 C-233.1104082 190.0385746 -227.55171869 190.03915793 -221.99302673 190.04034424 C-211.47117097 190.04345099 -200.94932562 190.05165555 -190.42747444 190.06169373 C-178.44688849 190.07287522 -166.46630204 190.07837045 -154.48571217 190.08338916 C-129.84471706 190.0938387 -105.20373118 190.11142546 -80.56274414 190.13371277 C-80.56643131 189.50939865 -80.57011848 188.88508453 -80.57391739 188.24185181 C-80.66263683 172.98124864 -80.72863154 157.72072577 -80.76999283 142.45993042 C-80.79053158 135.07961202 -80.81848362 127.6994668 -80.86450195 120.31925964 C-80.90463837 113.87924349 -80.9302399 107.4393529 -80.93909812 100.99921513 C-80.94426809 97.59588111 -80.95623231 94.19290595 -80.98566437 90.78968811 C-81.1175159 73.63629249 -81.17680441 57.34235617 -72.87524414 41.82121277 C-72.53348145 41.16371033 -72.19171875 40.50620789 -71.83959961 39.82878113 C-68.49253983 33.61768765 -64.4214037 28.25367838 -59.56274414 23.13371277 C-58.82668945 22.35640808 -58.09063477 21.57910339 -57.33227539 20.77824402 C-41.2916682 5.16753585 -21.83081716 -0.02938499 0 0 Z " fill="#AB3428" transform="translate(861.562744140625,514.8662872314453)"/>
<path d="M0 0 C0.94359375 0.39832031 1.8871875 0.79664063 2.859375 1.20703125 C4.15607029 1.74262278 5.45295589 2.27775374 6.75 2.8125 C7.36488281 3.07353516 7.97976563 3.33457031 8.61328125 3.60351562 C19.39061486 8.01242483 29.55871495 9.44306491 41.16094971 9.39872742 C42.55312001 9.40417867 43.9452857 9.4109351 45.33744407 9.41886932 C49.12991402 9.43676639 52.92218688 9.43635347 56.71468902 9.43273985 C60.81679758 9.43211279 64.91884183 9.44876598 69.0209198 9.46325684 C76.11708308 9.48598918 83.21319745 9.49791866 90.30939484 9.50238609 C100.56912926 9.50886095 110.82877547 9.53182177 121.08847424 9.55872939 C137.73654201 9.60194722 154.38460605 9.63194252 171.03271484 9.65356445 C187.19907461 9.67458916 203.36540391 9.70187726 219.53173828 9.73754883 C221.02797454 9.74084707 221.02797454 9.74084707 222.55443779 9.74421193 C227.55885427 9.75528196 232.56327048 9.7664747 237.56768656 9.77772844 C279.04509762 9.87084266 320.52252528 9.94247345 362 10 C362.16473816 10.62684189 362.32947632 11.25368378 362.49920654 11.89952087 C363.25909901 14.77708362 364.02791627 17.65219108 364.796875 20.52734375 C365.05581543 21.51327515 365.31475586 22.49920654 365.58154297 23.51501465 C371.0599735 43.89799884 383.5988771 61.88481484 401.96850586 72.69213867 C416.88994993 81.12100617 430.85913819 85.17431472 448 85.1875 C448.83789062 85.19974609 449.67578125 85.21199219 450.5390625 85.22460938 C471.1583137 85.27248689 490.92756328 75.4922619 506 62 C506.63421875 61.45988281 507.2684375 60.91976563 507.921875 60.36328125 C521.56176859 47.94346988 529.56811885 27.846104 532 10 C532.70065834 9.99940291 533.40131668 9.99880582 534.12320709 9.99819064 C575.69279578 9.96226046 617.26231131 9.9055659 658.831833 9.82207905 C663.82831806 9.81206215 668.82480345 9.80221792 673.82128906 9.79248047 C675.31329161 9.78956841 675.31329161 9.78956841 676.83543563 9.78659752 C692.91980761 9.75561571 709.00416535 9.73860754 725.08856153 9.72680578 C741.60494058 9.71437441 758.12124509 9.68682826 774.63757706 9.64538693 C784.82082009 9.62030833 795.00393943 9.6068786 805.18721378 9.60857043 C812.17976344 9.60860029 819.17218754 9.59388706 826.16468823 9.56783572 C830.192979 9.55325529 834.22101232 9.54493005 838.2493248 9.55419731 C856.9511005 9.5922238 873.83686527 9.5410283 890.9609375 0.953125 C893 0 893 0 895 0 C895.11452156 40.54478961 895.20258754 81.08955808 895.25532665 121.63447721 C895.26157995 126.42453129 895.26805158 131.21458506 895.2746582 136.00463867 C895.27596976 136.95822536 895.27728131 137.91181205 895.2786326 138.89429531 C895.30037083 154.32116122 895.33978362 169.74793368 895.38576398 185.17474421 C895.4325727 201.01192495 895.46030473 216.84905684 895.47044247 232.68630391 C895.47729248 242.45352679 895.49890329 252.22048548 895.53958233 261.98762701 C895.56607524 268.69138558 895.57398621 275.3950082 895.56750689 282.09881528 C895.56431414 285.96279026 895.56910084 289.82630458 895.59602737 293.69019699 C895.62507824 297.88984661 895.61488706 302.08852581 895.60127258 306.28825378 C895.61583679 307.4954903 895.630401 308.70272682 895.64540654 309.94654626 C895.53403776 322.70604663 891.2381244 333.51769791 882.37890625 342.67578125 C875.57084322 349.012154 867.39471198 352.12306984 858.16592962 352.1276505 C856.96377652 352.13066647 855.76162343 352.13368244 854.52304146 352.1367898 C853.18471466 352.13509077 851.84638798 352.13330003 850.50806141 352.13142776 C849.08379554 352.13307713 847.65953012 352.13516328 846.23526546 352.13764787 C842.29932022 352.1432278 838.36339667 352.14253968 834.42744873 352.14087028 C830.15373433 352.14014081 825.88002613 352.14515827 821.60631436 352.1494453 C813.11999875 352.1570361 804.63368943 352.1592189 796.14737077 352.15977435 C785.98661028 352.16068692 775.82585563 352.16735127 765.66509764 352.17412117 C741.10486769 352.19019427 716.54463835 352.19608583 691.98440408 352.20086992 C680.3702457 352.20320445 668.7560878 352.20680693 657.1419298 352.2105653 C617.40045141 352.22340163 577.65897329 352.23412102 537.91749287 352.2375679 C535.42195424 352.23778954 532.92641561 352.23801132 530.43087698 352.23823325 C527.92924558 352.2384539 525.42761418 352.23867438 522.92598277 352.2388947 C517.90711677 352.23933726 512.88825077 352.23978437 507.86938477 352.24023438 C506.62499434 352.24034377 505.38060391 352.24045316 504.09850468 352.24056586 C463.73762755 352.24419752 423.37676836 352.26012123 383.01589811 352.28342474 C340.36313099 352.3080066 297.71037413 352.32173997 255.05759972 352.32293582 C250.37771141 352.32310728 245.69782311 352.32332271 241.0179348 352.32357025 C239.28940276 352.3236539 239.28940276 352.3236539 237.52595088 352.32373925 C218.961032 352.3248911 200.39613151 352.33592443 181.83121884 352.35045731 C163.18009059 352.36480549 144.52898598 352.36806879 125.87785373 352.36001733 C114.7907682 352.35555321 103.70375881 352.35945288 92.61668324 352.37525584 C85.21499901 352.3849814 77.81336832 352.38385083 70.41168461 352.37381961 C66.19158941 352.36841005 61.97164077 352.36777362 57.75155751 352.38032833 C53.91179783 352.39165649 50.07230415 352.38915486 46.23255373 352.37566125 C44.20224095 352.37207985 42.17191845 352.38321027 40.14163646 352.39495254 C27.98563924 352.32491796 19.16551812 349.4317 10.0546875 341.25390625 C1.30871194 332.14824771 -0.74708786 321.52736907 -0.60127258 309.2946167 C-0.60345817 307.95194436 -0.60784562 306.60927415 -0.61421841 305.26661515 C-0.62530616 301.61073961 -0.6055287 297.95560778 -0.58032811 294.29982686 C-0.55860682 290.34499244 -0.56605172 286.39019534 -0.56983948 282.43531799 C-0.57245314 275.59443078 -0.55685082 268.75378319 -0.52865028 261.91295624 C-0.48790458 252.02247875 -0.47498177 242.13211638 -0.46871033 232.24156407 C-0.45778446 216.1923899 -0.42455674 200.14334326 -0.37719727 184.09423828 C-0.33125738 168.50993485 -0.29588718 152.92566613 -0.2746582 137.34130859 C-0.27334459 136.3796617 -0.27203097 135.41801481 -0.27067754 134.42722711 C-0.26415205 129.60261993 -0.25783359 124.7780125 -0.25161803 119.9534049 C-0.19983824 79.96884735 -0.11181961 39.98443211 0 0 Z " fill="#AB3428" transform="translate(553,1095)"/>
<path d="M0 0 C1.24273965 -0.00226556 2.4854793 -0.00453111 3.76587772 -0.00686532 C7.19426395 -0.01207997 10.6225975 -0.01285375 14.05098391 -0.01167095 C17.75655774 -0.01146609 21.46212388 -0.01699366 25.16769409 -0.02172852 C32.41860158 -0.03001625 39.66950094 -0.03278247 46.92041278 -0.03334089 C52.8149545 -0.03381679 58.70949355 -0.03587521 64.60403442 -0.03904152 C81.32788011 -0.0478417 98.05171939 -0.0524617 114.77556741 -0.05171105 C115.67616093 -0.05167109 116.57675444 -0.05163113 117.50463867 -0.05158997 C118.40633525 -0.05154909 119.30803184 -0.0515082 120.23705256 -0.05146609 C134.8576942 -0.05105943 149.47831011 -0.06063549 164.09894431 -0.07472833 C179.12278939 -0.08909529 194.14662192 -0.09599839 209.17047405 -0.09513456 C217.60073115 -0.09480278 226.03096125 -0.09754177 234.46121216 -0.10831261 C241.63647969 -0.11742163 248.81170796 -0.11958942 255.98697877 -0.11280318 C259.64581521 -0.10954048 263.30457635 -0.10947235 266.96340561 -0.11815643 C270.93380909 -0.127483 274.90410287 -0.12123917 278.87451172 -0.11352539 C280.60025217 -0.12124074 280.60025217 -0.12124074 282.36085606 -0.12911195 C288.65740003 -0.10208316 294.36818058 0.43466896 300.43725586 2.13371277 C301.98026367 2.55910339 301.98026367 2.55910339 303.55444336 2.99308777 C315.04958784 6.70540072 324.3468224 12.20109699 333.43725586 20.13371277 C334.05213867 20.65320496 334.66702148 21.17269714 335.30053711 21.70793152 C348.31000788 33.58094277 356.60908668 52.61009961 357.60046005 69.99582672 C357.84041681 77.79265494 357.79223082 85.59105847 357.74143767 93.39050627 C357.72247787 96.80038352 357.72090544 100.21027165 357.71736145 103.62019348 C357.70809693 110.05488316 357.68356039 116.48941698 357.65331298 122.92403853 C357.61959298 130.2591471 357.60323907 137.59426374 357.58822668 144.92943072 C357.55700466 159.99761105 357.50435513 175.0656462 357.43725586 190.13371277 C358.43540408 190.13186918 359.4335523 190.1300256 360.46194744 190.12812614 C384.78441521 190.08366489 409.10687769 190.05083176 433.42937756 190.03008842 C445.19170262 190.01978967 456.95400079 190.00575616 468.71630859 189.98283386 C478.97208799 189.96285706 489.2278479 189.94998615 499.48364621 189.94553578 C504.91057677 189.94293566 510.3374516 189.93685353 515.76436424 189.92225266 C520.88032113 189.9086009 525.99619971 189.90450539 531.11217308 189.90749741 C532.98212104 189.90695062 534.85207182 189.90301869 536.72200394 189.89530182 C559.76586471 189.80492972 582.2327557 193.29305561 599.41210938 210.00602722 C600.7668107 211.36913849 602.10253168 212.75103443 603.43725586 214.13371277 C604.17459961 214.84011902 604.91194336 215.54652527 605.67163086 216.27433777 C619.14105236 229.95258751 623.59599568 248.73111047 623.57427025 267.27433872 C623.57692208 268.38158355 623.5795739 269.48882837 623.58230609 270.62962607 C623.58997923 274.34816506 623.5905575 278.06667091 623.59115601 281.78521729 C623.59517191 284.47492756 623.59957394 287.16463473 623.60443556 289.85434335 C623.61548648 296.47664009 623.62115362 303.09893153 623.62514444 309.72123586 C623.63016228 317.65450483 623.64089101 325.58776359 623.65162618 333.52102652 C623.67722948 352.69382637 623.69228607 371.86663019 623.70513664 391.03944223 C623.70939327 397.39023901 623.71395903 403.7410355 623.71871996 410.09183192 C623.74397912 443.87303996 623.76602305 477.6542485 623.7784481 511.43546391 C623.78136933 519.25862696 623.78433688 527.08178999 623.78735352 534.904953 C623.78772442 535.87686081 623.78809533 536.84876861 623.78847748 537.85012816 C623.80063371 569.36352599 623.83158101 600.87686798 623.87327504 632.39023958 C623.91607363 664.79762572 623.94269036 697.20498237 623.94792282 729.61239754 C623.94866324 734.19066901 623.94957392 738.76894043 623.9505806 743.34721184 C623.95077121 744.24822575 623.95096183 745.14923967 623.95115822 746.07755704 C623.95466959 760.56842573 623.97495695 775.05922436 624.00137723 789.55006733 C624.02753878 804.11878891 624.03524207 818.68742965 624.02427594 833.25617135 C624.01830566 841.90701608 624.02617644 850.55758634 624.05410678 859.20838946 C624.07140018 864.99365219 624.07037489 870.77872845 624.05473909 876.56399531 C624.04635457 879.85601279 624.04844039 883.14740581 624.06735055 886.4393946 C624.13992762 899.89947602 624.07554328 911.72457657 618.43725586 924.13371277 C617.95029059 925.24386578 617.46332532 926.35401879 616.96160352 927.49781281 C613.76356944 934.55103497 609.56859698 940.36585032 604.43725586 946.13371277 C603.84428711 946.82078308 603.25131836 947.50785339 602.64038086 948.21574402 C589.94048462 961.97396494 571.13562488 969.66748283 552.71378466 971.50514615 C548.95900856 971.64180986 545.22259267 971.66623584 541.4654417 971.63987064 C540.02679952 971.64436087 538.58816195 971.65059819 537.1495339 971.65839598 C533.22943959 971.67465664 529.3097387 971.66638801 525.38964547 971.65378435 C521.11221911 971.64448102 516.83485533 971.65849049 512.55744153 971.66942352 C505.07153716 971.68536409 497.58574527 971.68652328 490.09983063 971.67782593 C478.96767507 971.66492715 467.8356208 971.67493624 456.70347129 971.68932548 C436.81803508 971.71423709 416.93264654 971.7161541 397.04719928 971.70805136 C379.64309145 971.70097452 362.23900211 971.70092508 344.83489418 971.70791435 C342.49898668 971.70882569 340.16307919 971.70973645 337.82717169 971.71064664 C334.30702916 971.71202979 330.78688663 971.71342089 327.26674412 971.71483277 C294.54615799 971.72781076 261.82557805 971.73293136 229.10499096 971.72129917 C227.87195519 971.7208612 226.63891942 971.72042323 225.36851892 971.71997199 C215.35584617 971.71636528 205.3431735 971.71253045 195.33050083 971.70868106 C156.27678583 971.69383451 117.22314076 971.70261238 78.16943359 971.7306366 C34.27486656 971.76207442 -9.61965908 971.77703134 -53.51423758 971.76683658 C-58.19580344 971.76579983 -62.8773693 971.7648126 -67.55893517 971.76385307 C-69.2879683 971.76347974 -69.2879683 971.76347974 -71.0519314 971.76309887 C-88.44101092 971.75966094 -105.83005385 971.76895684 -123.21912575 971.7846241 C-142.99823962 971.80240394 -162.77726451 971.80250855 -182.55637459 971.77927244 C-193.61924452 971.76678562 -204.68190992 971.76799349 -215.74476778 971.78915331 C-223.14266001 971.80190941 -230.54039526 971.79635271 -237.93827049 971.7761685 C-242.14785066 971.76518695 -246.35702977 971.7618511 -250.56659053 971.7808438 C-281.26512598 971.90958232 -304.78922169 967.97359376 -327.64868164 946.14152527 C-337.30036983 935.96576351 -341.9116683 923.37473888 -345.56274414 910.13371277 C-346.05774414 908.64871277 -346.05774414 908.64871277 -346.56274414 907.13371277 C-346.65488346 905.62039579 -346.69089804 904.10332979 -346.69269598 902.58721149 C-346.69622439 901.64737059 -346.69975281 900.70752969 -346.70338815 899.73920876 C-346.70219038 898.70270729 -346.7009926 897.66620582 -346.69975853 896.59829521 C-346.70241036 895.49573043 -346.70506218 894.39316565 -346.70779437 893.25718981 C-346.71551673 889.52444319 -346.71604766 885.79172931 -346.71664429 882.05897522 C-346.72065701 879.37088079 -346.72505809 876.6827895 -346.72992384 873.99469674 C-346.74100904 867.35692301 -346.74665048 860.71915458 -346.75063272 854.08137323 C-346.75563811 846.13351214 -346.76636525 838.18566133 -346.77711446 830.2378063 C-346.80275996 811.02208573 -346.81778444 791.80636115 -346.83062492 772.59062837 C-346.83487902 766.22497536 -346.83944474 759.85932264 -346.84420824 753.49366999 C-346.8694721 719.64747976 -346.89152035 685.80128906 -346.90393639 651.95509148 C-346.90685773 644.1108233 -346.90982524 636.26655513 -346.9128418 628.42228699 C-346.91321271 627.44773143 -346.91358361 626.47317587 -346.91396576 625.46908833 C-346.92611514 593.88775303 -346.95704757 562.30647353 -346.99876332 530.72516443 C-347.04157183 498.25730343 -347.06818022 465.7894719 -347.0734111 433.32158192 C-347.07415153 428.73333551 -347.07506221 424.14508916 -347.07606888 419.5568428 C-347.07625949 418.65384808 -347.07645011 417.75085336 -347.0766465 416.82049516 C-347.08015711 402.30092188 -347.1004417 387.78141856 -347.12686552 373.26187095 C-347.15304169 358.65777817 -347.16072429 344.05376602 -347.14976422 329.44965313 C-347.14379813 320.77925865 -347.15164239 312.10913817 -347.17959506 303.43878528 C-347.19690863 297.63776135 -347.19584627 291.83692325 -347.18022738 286.03589513 C-347.1718553 282.73642861 -347.17389575 279.43758359 -347.19283883 276.13814603 C-347.32586319 251.45112068 -343.23480731 230.93018714 -325.33227539 212.81340027 C-310.36001869 198.32684442 -292.16092414 189.93234176 -271.16615295 190.01345825 C-270.34754506 190.01260383 -269.52893717 190.0117494 -268.68552297 190.01086909 C-265.95715543 190.00922897 -263.22885011 190.01471151 -260.50048828 190.02018738 C-258.53888958 190.02046959 -256.57729078 190.02031085 -254.61569214 190.01974487 C-249.3001512 190.01945824 -243.98463287 190.02533339 -238.66909719 190.03231883 C-233.1104082 190.0385746 -227.55171869 190.03915793 -221.99302673 190.04034424 C-211.47117097 190.04345099 -200.94932562 190.05165555 -190.42747444 190.06169373 C-178.44688849 190.07287522 -166.46630204 190.07837045 -154.48571217 190.08338916 C-129.84471706 190.0938387 -105.20373118 190.11142546 -80.56274414 190.13371277 C-80.56643131 189.50939865 -80.57011848 188.88508453 -80.57391739 188.24185181 C-80.66263683 172.98124864 -80.72863154 157.72072577 -80.76999283 142.45993042 C-80.79053158 135.07961202 -80.81848362 127.6994668 -80.86450195 120.31925964 C-80.90463837 113.87924349 -80.9302399 107.4393529 -80.93909812 100.99921513 C-80.94426809 97.59588111 -80.95623231 94.19290595 -80.98566437 90.78968811 C-81.1175159 73.63629249 -81.17680441 57.34235617 -72.87524414 41.82121277 C-72.53348145 41.16371033 -72.19171875 40.50620789 -71.83959961 39.82878113 C-68.49253983 33.61768765 -64.4214037 28.25367838 -59.56274414 23.13371277 C-58.82668945 22.35640808 -58.09063477 21.57910339 -57.33227539 20.77824402 C-41.2916682 5.16753585 -21.83081716 -0.02938499 0 0 Z M-302.28149414 244.30949402 C-306.56976992 250.4150574 -308.67768045 256.33416267 -308.69975853 263.82280064 C-308.70483307 264.74148853 -308.70990762 265.66017642 -308.71513593 266.60670334 C-308.71563369 267.6072731 -308.71613145 268.60784286 -308.71664429 269.63873291 C-308.72102654 270.70851252 -308.72540879 271.77829212 -308.72992384 272.88048929 C-308.74329715 276.47149071 -308.74948744 280.06246759 -308.75561523 283.65348816 C-308.76351736 286.22585663 -308.77178638 288.798224 -308.78039551 291.37059021 C-308.8048834 299.0942434 -308.81954119 306.81790294 -308.83245558 314.54158297 C-308.83617009 316.72458263 -308.84014311 318.90758167 -308.84420824 321.0905807 C-308.86944695 334.65886377 -308.8914909 348.22714791 -308.90393639 361.79544926 C-308.90686588 364.93611721 -308.90982757 368.07678513 -308.9128418 371.217453 C-308.91358785 371.99800946 -308.9143339 372.77856591 -308.91510256 373.58277559 C-308.92774895 386.21971233 -308.96096465 398.85650815 -309.00264363 411.49337906 C-309.0451226 424.47969873 -309.06863826 437.46594636 -309.07385695 450.4523353 C-309.07726427 457.73873671 -309.08893895 465.02491786 -309.12195969 472.31125069 C-309.15298826 479.16904655 -309.15834368 486.02645339 -309.14657593 492.88430786 C-309.14635539 495.39648811 -309.15464417 497.90868627 -309.17222977 500.42080498 C-309.28282874 517.13440114 -309.09057274 529.42184905 -296.88696289 542.00871277 C-287.08032642 550.9747804 -276.87652217 552.58425261 -263.91441345 552.49447632 C-262.54133522 552.49578633 -261.16825772 552.49841634 -259.7951842 552.50224382 C-256.04150016 552.50892239 -252.28807503 552.49699265 -248.53442395 552.48190963 C-244.4793299 552.46891537 -240.42424964 552.47334112 -236.36914062 552.47561646 C-229.34983315 552.47718705 -222.33060955 552.46780023 -215.31132317 552.45090294 C-205.16271365 552.42648848 -195.01414456 552.41870517 -184.86550886 552.41493896 C-168.39876028 552.40837832 -151.93205637 552.38842765 -135.46533203 552.36003113 C-119.47249576 552.33248055 -103.47967163 552.31125185 -87.48681641 552.29850769 C-86.00731987 552.29732543 -86.00731987 552.29732543 -84.49793451 552.2961193 C-79.54964271 552.29220409 -74.60135083 552.28841299 -69.65305889 552.28468359 C-28.62292291 552.25359972 12.40716392 552.20077445 53.43725586 552.13371277 C53.43646027 551.34968079 53.43566467 550.5656488 53.43484497 549.75785828 C53.43263059 542.34302542 53.45920241 534.92910271 53.51753426 527.51451874 C53.54651895 523.70317368 53.56464918 519.8924404 53.55737305 516.08097839 C53.55075087 512.39762689 53.57342511 508.71548115 53.61581039 505.03237915 C53.62689089 503.63232724 53.6276875 502.23215228 53.6176796 500.83209229 C53.53358528 487.32909246 53.53358528 487.32909246 58.7550115 481.59304011 C63.09871596 477.82492721 66.87760406 476.75892121 72.54051208 476.75276184 C73.74186798 476.74430237 74.94322388 476.7358429 76.1809845 476.72712708 C78.13786446 476.73623611 78.13786446 476.73623611 80.13427734 476.74552917 C81.53265797 476.74146065 82.93103538 476.7361172 84.32940674 476.729599 C88.11667131 476.71595157 91.90369001 476.72121364 95.69095874 476.73073626 C99.66084615 476.73834774 103.63071293 476.73128297 107.6006012 476.72657776 C114.26762661 476.7211239 120.93455224 476.72830142 127.6015625 476.74259949 C135.2996704 476.75891864 142.99753983 476.75364143 150.69564193 476.73712027 C157.31409726 476.72348684 163.93248098 476.721595 170.55094582 476.72943628 C174.49984363 476.73410347 178.44862953 476.73476414 182.39752007 476.72482681 C186.111745 476.71613256 189.82566392 476.72222356 193.53985596 476.73950958 C195.5458993 476.74534042 197.55196864 476.73647941 199.55799866 476.72712708 C212.57400484 476.81856601 212.57400484 476.81856601 218.14428711 481.59855652 C222.00770375 486.74522815 223.67703082 489.79525973 223.75610352 496.27922058 C223.78590805 498.14069733 223.78590805 498.14069733 223.8163147 500.03977966 C223.8281901 501.38879722 223.83985301 502.73781666 223.85131836 504.08683777 C223.87003493 505.47118783 223.88960871 506.85552655 223.91000366 508.23985291 C223.96127948 511.87623904 224.00092932 515.51266214 224.03814697 519.1492157 C224.0782153 522.86289074 224.1292947 526.5764126 224.17944336 530.28996277 C224.27614869 537.57110759 224.36057049 544.85232666 224.43725586 552.13371277 C266.2559866 552.24822779 308.07469922 552.336297 349.89355577 552.38903942 C354.83382259 552.39529274 359.77408911 552.40176437 364.71435547 552.40837097 C365.69784831 552.40968252 366.68134115 552.41099408 367.6946368 552.41234537 C383.60649067 552.43408514 399.51825396 552.4734988 415.43005415 552.51947675 C431.76444052 552.56628115 448.09877955 552.59401659 464.43323022 552.60415524 C474.50754421 552.61100614 484.58160213 552.63262185 494.65583728 552.6732951 C501.56984281 552.69978266 508.4837165 552.70770018 515.39776906 552.70121966 C519.38325447 552.69802609 523.3682933 552.70282321 527.35369873 552.72974014 C531.01043347 552.75425554 534.6664257 552.75518389 538.32319621 552.73820724 C540.25620012 552.73512819 542.18919662 552.75652904 544.12207097 552.77911931 C555.60076777 552.68189896 567.12452013 549.4464485 575.43725586 541.13371277 C587.83085725 527.10803218 587.01910626 510.99284112 586.95483398 493.36418152 C586.9602608 490.86121718 586.96738658 488.35825604 586.97607422 485.8553009 C586.99236135 479.78796268 586.99005907 473.72089951 586.97842366 467.65357232 C586.9693547 462.71833695 586.96818021 457.78315698 586.97251892 452.84791565 C586.97343832 451.79044908 586.97343832 451.79044908 586.97437629 450.71161956 C586.97565532 449.27904199 586.97695217 447.84646444 586.97826666 446.4138869 C586.98964668 433.01079197 586.97659938 419.60780684 586.95506519 406.20472991 C586.93719653 394.72820312 586.94030136 383.25183821 586.95874023 371.77531433 C586.98019268 358.41704428 586.98854829 345.05887024 586.97629118 331.70058537 C586.97501711 330.27356022 586.97375963 328.84653506 586.97251892 327.41950989 C586.97190182 326.71756176 586.97128472 326.01561363 586.97064891 325.29239434 C586.9672091 320.36857638 586.97299466 315.4448198 586.98243713 310.52101135 C586.99488968 303.88227371 586.9859028 297.24379284 586.96286011 290.60506821 C586.95759256 288.17556131 586.95905307 285.7460286 586.96791077 283.31653214 C587.34066581 260.49530901 587.34066581 260.49530901 576.43725586 241.13371277 C575.77725586 240.43375183 575.11725586 239.73379089 574.43725586 239.01261902 C569.02730957 233.747582 563.66854891 231.14936453 556.43725586 229.13371277 C555.54967528 228.86880717 555.54967528 228.86880717 554.64416378 228.59854995 C551.93318072 228.0275403 549.41810184 228.00690088 546.64626032 228.0049116 C545.45373263 228.00163941 544.26120494 227.99836721 543.03254005 227.99499586 C541.7183661 227.99647949 540.40419215 227.99796311 539.05019474 227.99949169 C537.63737184 227.99753899 536.22454948 227.99515023 534.81172797 227.99236372 C530.90752831 227.98595035 527.0033492 227.98580316 523.09914528 227.98664113 C518.8597827 227.98647189 514.62042754 227.9805687 510.38106865 227.97540027 C501.96288866 227.96606293 493.54471393 227.96215031 485.12652942 227.9598813 C475.047125 227.95692217 464.96772759 227.94822644 454.88832685 227.93946702 C430.52304908 227.91860946 406.15777009 227.90815066 381.79248548 227.89933742 C370.26869261 227.89513267 358.74490027 227.88991044 347.22110784 227.88465289 C307.78370842 227.86676132 268.34630885 227.85176484 228.90890598 227.8443327 C226.43236929 227.84385794 223.9558326 227.84338205 221.47929591 227.84290503 C220.25113969 227.84266866 219.02298347 227.84243228 217.75761039 227.84218874 C211.53502151 227.84098753 205.31243263 227.83977208 199.08984375 227.83854675 C197.23749624 227.83818653 197.23749624 227.83818653 195.34772758 227.83781903 C155.30581452 227.82992541 115.26393107 227.80649297 75.22203094 227.77399081 C32.90035684 227.73970079 -9.42129994 227.7199823 -51.74298817 227.71668845 C-56.38812292 227.71627091 -61.03325767 227.71579134 -65.67839241 227.71526527 C-67.39407156 227.71508049 -67.39407156 227.71508049 -69.14441089 227.71489197 C-87.55977383 227.71255887 -105.97510241 227.69689273 -124.3904531 227.67642343 C-142.89826822 227.65617762 -161.40604202 227.65068223 -179.91386615 227.66019406 C-190.91126291 227.66541391 -201.90852221 227.65950866 -212.9058992 227.63765939 C-220.25290241 227.62416492 -227.59981085 227.62521636 -234.94681497 227.63806135 C-239.13243306 227.64496696 -243.31778811 227.64559697 -247.50338285 227.62850126 C-251.31657328 227.61305371 -255.12929018 227.61626421 -258.9424669 227.63391154 C-260.94886097 227.63851203 -262.95527143 227.6236122 -264.96160808 227.60775176 C-280.39531224 227.72518696 -292.46658341 232.17717382 -302.28149414 244.30949402 Z M-308.56274414 580.13371277 C-308.67724724 621.07770679 -308.76532233 662.02167991 -308.81807079 702.96580212 C-308.82432414 707.80220879 -308.83079577 712.63861516 -308.83740234 717.47502136 C-308.8387139 718.43784221 -308.84002545 719.40066305 -308.84137674 720.39266029 C-308.86311934 735.97216462 -308.90253456 751.55157648 -308.94850812 767.131026 C-308.99530464 783.12301367 -309.0230463 799.11495298 -309.03318661 815.10700631 C-309.04003914 824.97096569 -309.06166374 834.83466367 -309.10232648 844.69854257 C-309.1288043 851.46723687 -309.13673374 858.2357965 -309.13025103 865.0045388 C-309.12705595 868.90686807 -309.13187194 872.80874131 -309.15877151 876.710989 C-309.18326548 880.29057566 -309.18422893 883.86940359 -309.16723862 887.44902661 C-309.16415561 889.34300466 -309.18557591 891.23697498 -309.20815068 893.13082099 C-309.10967544 904.49678761 -305.75336555 913.89768466 -297.80493164 922.16105652 C-287.52683265 931.2036349 -277.93595314 932.43228725 -264.70724869 932.39098167 C-263.28009027 932.39367619 -261.85293328 932.39724466 -260.42577899 932.40160614 C-256.49575563 932.41106624 -252.56582493 932.40806282 -248.63579701 932.4030506 C-244.36327655 932.39978597 -240.09077599 932.40806484 -235.81826186 932.41486895 C-228.32725242 932.4251822 -220.83626883 932.42801045 -213.34525299 932.42595673 C-202.20577343 932.42291019 -191.06632253 932.431223 -179.92684853 932.44170598 C-158.87526101 932.46106299 -137.82368322 932.46667483 -116.77208784 932.46782009 C-100.51710137 932.46873863 -84.26211872 932.47285247 -68.00713348 932.47922134 C-63.33076025 932.48101639 -58.654387 932.48279602 -53.97801375 932.4845711 C-52.8155047 932.4850132 -51.65299564 932.48545529 -50.45525904 932.48591078 C-17.74932878 932.49822177 14.95660014 932.50611165 47.66253281 932.50522423 C49.51273172 932.50517749 49.51273172 932.50517749 51.40030839 932.50512981 C57.65224711 932.50496359 63.90418584 932.50476551 70.15612456 932.5045604 C71.39781669 932.50452051 72.63950883 932.50448062 73.91882799 932.50443952 C76.42983269 932.50435864 78.94083739 932.50427505 81.45184209 932.50418873 C120.52414333 932.50296306 159.59640986 932.51797833 198.66870117 932.54533386 C242.55030129 932.57604375 286.43187861 932.59326703 330.31349015 932.59140742 C334.99112082 932.59125815 339.66875148 932.59116074 344.34638214 932.59109879 C345.49816249 932.59107548 346.64994283 932.59105217 347.83662561 932.59102815 C366.38518227 932.59096656 384.93370885 932.60374736 403.48225657 932.62096331 C422.11849759 932.63790311 440.75469451 932.6399066 459.39093897 932.62674467 C470.46653101 932.61934454 481.54198924 932.6230452 492.61756715 932.64262935 C500.01403871 932.65460446 507.41041307 932.65206581 514.80688012 932.63768836 C519.02233535 932.62990449 523.23753111 932.62843342 527.45296833 932.64460306 C531.29085948 932.65919567 535.12827589 932.65524781 538.96614616 932.63675532 C540.99056935 932.63170961 543.01501278 932.64621226 545.03938377 932.66160089 C557.66436403 932.56314542 566.83948989 929.13734064 576.08569336 920.61418152 C582.42010335 914.00645943 586.56386584 903.87542522 586.56030369 894.76701069 C586.56229474 893.64635096 586.56428578 892.52569123 586.56633717 891.37107211 C586.56342433 890.13470718 586.56051149 888.89834225 586.55751038 887.62451172 C586.5583648 886.31521169 586.55921923 885.00591166 586.56009954 883.65693587 C586.56234142 880.01519931 586.55832738 876.37349202 586.55332148 872.73175919 C586.54901279 868.80743988 586.5504637 864.88312228 586.55122375 860.95880127 C586.55174872 854.15713928 586.54860474 847.35548687 586.54298592 840.55382729 C586.53486726 830.71970597 586.53225532 820.8855893 586.53099792 811.051465 C586.52880798 795.09718884 586.52214945 779.14291779 586.51269531 763.18864441 C586.50351971 747.68831915 586.4964396 732.18799527 586.4921875 716.68766785 C586.49192478 715.73261743 586.49166205 714.77756702 586.49139137 713.79357568 C586.49008635 709.00248479 586.48882264 704.21139389 586.48757946 699.42030299 C586.47720865 659.65810267 586.45959189 619.89590806 586.43725586 580.13371277 C580.96807508 581.9435405 575.56930726 583.91302027 570.16772461 585.91496277 C561.22641002 588.83610429 553.07850118 589.42647322 543.67503357 589.41218567 C542.28957945 589.41719529 540.90412825 589.42307303 539.51868111 589.4297384 C535.73087444 589.44547186 531.94314209 589.4489654 528.1553067 589.450387 C524.06338081 589.45409272 519.97149513 589.46925402 515.8795929 589.48300171 C508.79648195 589.50524162 501.71338538 589.52027454 494.63024712 589.5303688 C484.38930858 589.54497378 474.14842011 589.57051571 463.907511 589.59870009 C447.29105577 589.64413505 430.67459331 589.68076348 414.05810547 589.71183777 C397.91974622 589.74203681 381.78140462 589.77639332 365.64306641 589.81632996 C364.15012839 589.82002228 364.15012839 589.82002228 362.62703001 589.82378919 C357.63378575 589.83616406 352.6405417 589.84862054 347.64729774 589.8611176 C306.24397502 589.96463604 264.84063055 590.05385557 223.43725586 590.13371277 C223.3071109 590.88041733 223.17696594 591.62712189 223.0428772 592.39645386 C222.78104141 593.87260918 222.78104141 593.87260918 222.51391602 595.37858582 C222.34252106 596.35216537 222.1711261 597.32574493 221.99453735 598.3288269 C217.76503187 619.61659667 204.33778319 639.07414513 186.43725586 651.13371277 C171.85577751 660.2111238 156.84747276 665.33692642 139.56225586 665.25871277 C138.29188477 665.26451355 138.29188477 665.26451355 136.99584961 665.27043152 C114.19356962 665.23551225 93.56835376 656.19340983 77.43725586 640.13371277 C65.9131588 627.72581278 59.2538142 614.07435463 55.28881836 597.70402527 C55.01871948 596.60586487 55.01871948 596.60586487 54.74316406 595.48551941 C54.3049979 593.70228501 53.87071702 591.91809668 53.43725586 590.13371277 C52.73410183 590.13311568 52.0309478 590.13251859 51.30648607 590.13190341 C9.59500256 590.09597843 -32.11640803 590.03929182 -73.82782475 589.95579182 C-78.84061985 589.94577484 -83.85341528 589.93593063 -88.86621094 589.92619324 C-89.86413223 589.92425186 -90.86205352 589.92231049 -91.89021485 589.92031029 C-108.03022789 589.88932286 -124.17022672 589.87231874 -140.31026388 589.86051854 C-156.88200859 589.8480901 -173.45367897 589.82055051 -190.02537674 589.7790997 C-200.24393847 589.75401276 -210.46237686 589.74059198 -220.68096983 589.7422832 C-227.69640577 589.74231304 -234.71171645 589.72761212 -241.72710354 589.70154849 C-245.76944708 589.68695846 -249.81153377 589.6786512 -253.853899 589.68791008 C-257.56497831 589.69626575 -261.27554409 589.68585671 -264.9865477 589.66137615 C-266.94386426 589.65310529 -268.90123416 589.66415385 -270.85853106 589.67621112 C-284.36440897 589.54702552 -296.34541575 585.68497558 -308.56274414 580.13371277 Z " fill="#F4EC9D" transform="translate(861.562744140625,514.8662872314453)"/>
<path d="M0 0 C1.85464538 -0.01064158 1.85464538 -0.01064158 3.74675834 -0.02149814 C7.14412248 -0.03595292 10.54007123 -0.02827789 13.93732905 -0.01077521 C17.61427235 0.0026803 21.29111465 -0.01286726 24.9680481 -0.02459717 C32.15680859 -0.04291645 39.34529616 -0.03450035 46.53404798 -0.01650894 C52.37847046 -0.00244991 58.22281915 0.00140278 64.06725693 -0.00195122 C64.90090291 -0.00242866 65.7345489 -0.0029061 66.59345689 -0.00339801 C68.28727518 -0.0044244 69.98109346 -0.00547976 71.67491172 -0.00656378 C86.63113774 -0.015119 101.58723245 0.001507 116.54342651 0.03126526 C131.04087842 0.06011017 145.53814127 0.06717977 160.03561401 0.05177307 C175.8432237 0.03499695 191.65074375 0.03099028 207.45835578 0.04848343 C209.14512816 0.05032772 210.83190055 0.05216245 212.51867294 0.0539875 C213.76339443 0.05535564 213.76339443 0.05535564 215.03326181 0.05675141 C220.86867765 0.06234724 226.70404959 0.05905864 232.53946304 0.05244255 C239.65357332 0.04469647 246.76749778 0.05150802 253.88157071 0.07661759 C257.50821285 0.089082 261.13456614 0.09529657 264.76121902 0.08407593 C268.69841163 0.07212479 272.63510968 0.09135284 276.57226562 0.11352539 C277.71001816 0.10528462 278.84777069 0.09704386 280.02000058 0.08855337 C291.84871406 0.21131568 300.62405892 4.30692592 309.06930542 12.47584534 C315.8657574 19.73405201 319.28984041 27.81805083 319.27940369 37.78512573 C319.28146568 39.30998344 319.28146568 39.30998344 319.28356934 40.86564636 C319.27997406 41.96975861 319.27637878 43.07387085 319.27267456 44.21144104 C319.27282059 45.38259964 319.27296661 46.55375824 319.27311707 47.76040649 C319.27242074 51.62911332 319.26464139 55.49777193 319.25680542 59.36647034 C319.25494025 62.04975465 319.25346761 64.73303631 319.2525177 67.4163208 C319.24941247 73.75562073 319.24120999 80.09490337 319.23116821 86.4341957 C319.21998196 93.65303526 319.21449029 100.87187565 319.20947278 108.09072173 C319.1990267 122.93655497 319.18069127 137.78236729 319.15914917 152.62818909 C306.61914917 152.62818909 294.07914917 152.62818909 281.15914917 152.62818909 C281.13336792 149.51639221 281.10758667 146.40459534 281.08102417 143.19850159 C281.04240114 140.12012926 280.99730696 137.04191315 280.95162964 133.96363831 C280.92373678 131.85564374 280.90236817 129.74755073 280.88815308 127.63941956 C280.69619464 100.75244083 276.16181473 79.3659323 257.08102417 59.46022034 C244.23955957 47.16570701 226.31359533 39.54939513 208.57859802 39.48101807 C206.6551783 39.47028511 206.6551783 39.47028511 204.69290161 39.45933533 C203.2891543 39.45649568 201.88540672 39.45378388 200.48165894 39.45118713 C198.98936305 39.44491394 197.49706869 39.4382664 196.004776 39.43127441 C191.12004667 39.4103259 186.23531738 39.39987773 181.35055542 39.38990784 C179.66103538 39.38585624 177.9715155 39.38173921 176.28199577 39.37755775 C168.33809034 39.35852294 160.39419407 39.34429073 152.45027024 39.33594579 C143.3193389 39.3261924 134.1886512 39.29991549 125.0578056 39.25944489 C117.97551775 39.2291456 110.89329917 39.21446374 103.81094784 39.21116477 C99.59287 39.20882922 95.37505291 39.20006646 91.15704536 39.1747036 C87.18011851 39.1511757 83.2036195 39.1472871 79.2266407 39.15746498 C77.78042668 39.15795458 76.33418977 39.15180785 74.88804245 39.13790894 C61.84161669 39.01970615 48.64624544 41.01585734 36.97164917 47.19068909 C35.99312988 47.69777405 35.99312988 47.69777405 34.99484253 48.21510315 C17.17373665 57.88093463 5.44027062 73.76295171 -0.90188599 92.81568909 C-4.479385 105.16006154 -4.50734482 117.35176984 -4.59085083 130.12818909 C-4.61907501 132.31961822 -4.64901116 134.51102599 -4.68069458 136.70240784 C-4.75693579 142.01120363 -4.79816924 147.31859966 -4.84085083 152.62818909 C-17.38085083 152.62818909 -29.92085083 152.62818909 -42.84085083 152.62818909 C-42.93134641 137.04171831 -43.00494589 121.45545766 -43.04809952 105.86880016 C-43.06867422 98.63070417 -43.09669649 91.3927837 -43.14260864 84.15480042 C-43.1826334 77.8419157 -43.20832061 71.52915819 -43.21720481 65.2161501 C-43.22239346 61.87717102 -43.23661801 58.53884219 -43.26377106 55.19992638 C-43.29295661 51.46119814 -43.29680033 47.72321473 -43.29495239 43.98439026 C-43.3093335 42.89249893 -43.3237146 41.8006076 -43.33853149 40.67562866 C-43.27406603 28.56214236 -39.26622202 19.52898012 -31.09866333 10.75709534 C-22.26948002 2.23931476 -11.9385931 -0.12468283 0 0 Z " fill="#AB3428" transform="translate(861.8408508300781,552.3718109130859)"/>
<path d="M0 0 C1.43366016 -0.00379182 2.86731663 -0.00929892 4.30096436 -0.01637268 C8.16259007 -0.03023114 12.02376543 -0.01922653 15.88536572 -0.00266147 C19.94457092 0.01128311 24.00375245 0.00471842 28.06297302 0.00120544 C34.87587666 -0.00148899 41.68860333 0.01191365 48.50146484 0.03515625 C56.35697087 0.06177187 64.21218145 0.06350682 72.06771713 0.05176789 C79.65337213 0.04095707 87.23892118 0.04720233 94.82456779 0.06132317 C98.04003366 0.06705331 101.25542122 0.06702388 104.47088814 0.06225777 C108.26235559 0.0574554 112.05350299 0.06772312 115.84490967 0.08921242 C117.22911945 0.09473599 118.61336027 0.09528677 119.99757195 0.09025955 C133.94727654 0.04598177 143.75702312 2.61978488 154.20092773 12.12670898 C170.32027729 29.27670749 164.41577148 55.4822365 164.41577148 76.50170898 C95.11577148 76.50170898 25.81577148 76.50170898 -45.58422852 76.50170898 C-45.58422852 24.24364447 -45.58422852 24.24364447 -35.58422852 12.50170898 C-25.11110484 2.15742866 -14.38011749 -0.105379 0 0 Z " fill="#AB3428" transform="translate(940.584228515625,628.498291015625)"/>
<path d="M0 0 C31.35 0 62.7 0 95 0 C95.103125 11.55 95.20625 23.1 95.3125 35 C95.35802002 38.61324219 95.40354004 42.22648437 95.45043945 45.94921875 C95.47302246 50.44726563 95.47302246 50.44726563 95.47721863 52.56958008 C95.4847718 54.01562249 95.50208919 55.46163853 95.52787781 56.9074707 C95.80662641 73.39592719 92.53802007 87.78200547 80.97265625 100.171875 C71.17771614 109.59485536 59.74206309 113.92874144 46.26171875 114.02734375 C31.73772586 113.45806162 20.75126791 108.30468341 10.6875 97.75 C3.44706616 89.1784965 -0.26468309 78.47853471 -0.22705078 67.32055664 C-0.22729185 66.57629897 -0.22753292 65.8320413 -0.2277813 65.06523037 C-0.22630049 62.68007973 -0.21112508 60.29525023 -0.1953125 57.91015625 C-0.19236823 56.42802073 -0.19033016 54.94588313 -0.18920898 53.46374512 C-0.17876614 47.99663149 -0.15084359 42.52956252 -0.125 37.0625 C-0.08375 24.831875 -0.0425 12.60125 0 0 Z " fill="#AB3428" transform="translate(953,1029)"/>
</svg>
