<?xml version="1.0" encoding="UTF-8"?>
<svg version="1.1" xmlns="http://www.w3.org/2000/svg" width="2000" height="2000">
<path d="M0 0 C660 0 1320 0 2000 0 C2000 660 2000 1320 2000 2000 C1340 2000 680 2000 0 2000 C0 1340 0 680 0 0 Z " fill="#AB3428" transform="translate(0,0)"/>
<path d="M0 0 C660 0 1320 0 2000 0 C2000 660 2000 1320 2000 2000 C1340 2000 680 2000 0 2000 C0 1340 0 680 0 0 Z M930.32070923 182.75076294 C928.16526494 182.98225105 926.00956188 183.1880106 923.8503418 183.38061523 C870.3767332 188.21844823 816.81131876 198.20194931 765.53515625 214.22119141 C763.3320017 214.89800795 761.12513831 215.54515205 758.90625 216.16796875 C722.93389859 226.2943319 687.89724183 240.3485817 654.21484375 256.46240234 C651.38096583 257.81779141 648.54180348 259.16141626 645.70057678 260.50131226 C619.96207521 272.65406887 595.18338072 286.16623985 570.99023438 301.14941406 C568.48368536 302.70065847 565.97098843 304.24067363 563.453125 305.7734375 C539.63969142 320.34544067 517.05094236 336.90848043 495 354 C494.38141113 354.47679199 493.76282227 354.95358398 493.12548828 355.44482422 C485.92422876 360.99786024 478.90245795 366.71123745 472.03173828 372.66918945 C468.64084692 375.60831034 465.20165922 378.45778285 461.6875 381.25 C451.47954121 389.53450068 442.05127984 398.84847831 432.83007812 408.20556641 C431.00993989 409.99025371 429.1277273 411.65998702 427.1875 413.3125 C419.82558103 419.65998131 413.04713216 426.64809867 406.7421875 434.0390625 C404.7456211 436.28631885 402.63987054 438.38894927 400.5 440.5 C397.10731601 443.85256779 393.90899316 447.29475682 390.8046875 450.9140625 C388.78348724 453.25025501 386.70621161 455.52964851 384.625 457.8125 C380.72636603 462.13260791 377.02496142 466.58071381 373.3671875 471.10546875 C371.31608095 473.61350497 369.22575668 476.08098093 367.11303711 478.53710938 C360.63472211 486.08412008 354.58791637 493.92765379 348.60546875 501.87109375 C347.07675459 503.8982208 345.53956025 505.91860437 344 507.9375 C324.58796168 533.48067364 307.25752462 560.35943855 291 588 C290.49436523 588.85142578 289.98873047 589.70285156 289.46777344 590.58007812 C254.42324041 649.67478087 227.36172177 714.76074271 209.77246094 781.12646484 C208.98779654 784.04539658 208.17330381 786.95458551 207.3515625 789.86328125 C202.06533062 808.72997251 197.88499038 827.80344653 194 847 C193.63261719 848.80500977 193.63261719 848.80500977 193.2578125 850.64648438 C189.88479675 867.60084884 187.83074464 884.7174506 185.8125 901.875 C185.68566833 902.9383255 185.55883667 904.001651 185.42816162 905.09719849 C181.80399925 935.74878686 180.6439742 966.12645979 180.68432617 996.95874023 C180.68895323 1000.76908182 180.68202914 1004.5791038 180.66381836 1008.3894043 C180.54862194 1032.73700821 181.28518779 1056.75849911 183.79170609 1080.98420715 C184.01105392 1083.10697581 184.22559531 1085.23019645 184.43954468 1087.35351562 C187.94240041 1121.95824947 193.84550784 1156.35154436 202.28320312 1190.09716797 C203.08472411 1193.34310957 203.82147563 1196.60005236 204.54736328 1199.86352539 C221.76747064 1276.38804781 254.86372742 1351.91384281 295 1419 C295.60166992 1420.00691895 296.20333984 1421.01383789 296.82324219 1422.05126953 C303.5515577 1433.28132851 310.37970358 1444.41840424 317.78027344 1455.21972656 C319.06010498 1457.08772728 320.33101065 1458.96161489 321.6015625 1460.8359375 C335.34090561 1481.03469223 350.06973099 1500.27421996 365.51904297 1519.18261719 C366.8427907 1520.80707781 368.15828809 1522.43825346 369.47265625 1524.0703125 C374.02334754 1529.70450171 378.75879243 1535.1134745 383.66015625 1540.4453125 C385.65834848 1542.62697815 387.62148889 1544.83011309 389.5625 1547.0625 C396.05606546 1554.5074483 402.66504162 1561.73961501 409.69799805 1568.67651367 C412.42580703 1571.37992443 415.03285938 1574.11998351 417.5 1577.0625 C420.78368919 1580.91864833 424.47938714 1584.26415937 428.23730469 1587.64379883 C432.02883356 1591.06713231 435.66340159 1594.61321545 439.25 1598.25 C443.04825788 1602.09202081 446.90512779 1605.79717583 451.01953125 1609.30078125 C453.32669952 1611.28030432 455.56646782 1613.3264212 457.8125 1615.375 C462.10959827 1619.25350727 466.53758754 1622.92865968 471.0390625 1626.56640625 C473.69764902 1628.75149781 476.30044215 1630.98384606 478.89428711 1633.24438477 C486.61582052 1639.96165046 494.6227454 1646.22880717 502.81542969 1652.35986328 C504.89944549 1653.92450545 506.9699376 1655.50559149 509.0390625 1657.08984375 C538.25373923 1679.24376712 569.66175259 1698.68344163 601.58886719 1716.64013672 C603.81776001 1717.89721783 606.03863521 1719.16727983 608.2578125 1720.44140625 C664.77734066 1752.67187967 727.17682658 1776.41768975 790 1793 C791.17546387 1793.31275879 792.35092773 1793.62551758 793.56201172 1793.94775391 C836.23843239 1805.22269948 879.56197999 1812.07947668 923.4375 1816.6875 C924.56639648 1816.80681885 925.69529297 1816.9261377 926.85839844 1817.04907227 C942.79175175 1818.66697444 958.56069394 1819.15169524 974.5625 1819.1328125 C976.60880546 1819.13348835 978.65511083 1819.13446071 980.70141602 1819.13571167 C984.96403782 1819.13717542 989.22663849 1819.13507704 993.48925781 1819.13037109 C998.90840844 1819.12467465 1004.32750951 1819.1279608 1009.74665833 1819.13394356 C1013.96439985 1819.13758513 1018.18212993 1819.13639419 1022.39987183 1819.13381577 C1024.39623012 1819.13315641 1026.39258952 1819.13393954 1028.38894653 1819.13629532 C1039.97124581 1819.14696893 1051.44966048 1818.90144715 1063 1818 C1063.93376968 1817.9283815 1064.86753937 1817.856763 1065.8296051 1817.78297424 C1127.02557981 1812.92665446 1188.68421611 1801.19537834 1247 1782 C1247.71220703 1781.76667969 1248.42441406 1781.53335937 1249.15820312 1781.29296875 C1282.53739999 1770.35087806 1315.1050369 1757.73907584 1347 1743 C1348.0214209 1742.52916992 1349.0428418 1742.05833984 1350.09521484 1741.57324219 C1375.46816082 1729.80806558 1400.14493857 1716.59748746 1424 1702 C1424.94472168 1701.42459473 1425.88944336 1700.84918945 1426.86279297 1700.25634766 C1471.71454423 1672.86057385 1513.08210281 1641.25702409 1552 1606 C1552.96292969 1605.13117188 1553.92585938 1604.26234375 1554.91796875 1603.3671875 C1560.94770546 1597.90200351 1566.75948286 1592.27907682 1572.4765625 1586.48828125 C1574.6285972 1584.36622846 1576.81701193 1582.38515001 1579.125 1580.4375 C1582.92516929 1577.19008261 1586.1439392 1573.56144001 1589.44140625 1569.8125 C1592.40221957 1566.55786551 1595.49506783 1563.46571332 1598.625 1560.375 C1602.68812147 1556.35367661 1606.63249051 1552.30552842 1610.3359375 1547.9453125 C1612.30139014 1545.64767068 1614.33729871 1543.42126877 1616.375 1541.1875 C1620.19718989 1536.94775995 1623.84451955 1532.59812452 1627.43359375 1528.16015625 C1629.34423039 1525.79762313 1631.27844765 1523.45607521 1633.22265625 1521.12109375 C1664.88934019 1483.04811242 1692.98213458 1441.71529989 1716.75683594 1398.27148438 C1717.67072924 1396.60163691 1718.58863342 1394.93398297 1719.50878906 1393.26757812 C1747.4946424 1342.51329307 1768.845984 1289.29922668 1786 1234 C1786.4957251 1232.4226709 1786.4957251 1232.4226709 1787.00146484 1230.81347656 C1795.33501739 1204.16564365 1801.54728383 1176.64044161 1806.43505859 1149.16357422 C1807.03105242 1145.82611184 1807.65025808 1142.49337187 1808.26953125 1139.16015625 C1815.25332935 1100.88999483 1819.15096372 1061.82926686 1819.16796875 1022.921875 C1819.17119983 1021.13616919 1819.17456511 1019.35046362 1819.17805481 1017.5647583 C1819.18398851 1013.84362172 1819.18590093 1010.12250815 1819.18530273 1006.40136719 C1819.18522188 1002.65522389 1819.19210924 998.90920394 1819.20581055 995.16308594 C1819.28671169 972.67795648 1818.95498522 950.412085 1817 928 C1816.92429779 927.09290283 1816.84859558 926.18580566 1816.77059937 925.2512207 C1816.32613179 919.95196115 1815.81594937 914.66259469 1815.25 909.375 C1815.12694489 908.20939041 1815.12694489 908.20939041 1815.00140381 907.02023315 C1813.1748146 889.9247748 1810.46673062 873.01180344 1807.3828125 856.10229492 C1807.00956478 854.05252702 1806.64099741 852.0019664 1806.2734375 849.95117188 C1801.34044765 822.64354948 1795.10432196 795.54907985 1787 769 C1786.62004883 767.74558105 1786.24009766 766.49116211 1785.84863281 765.19873047 C1758.96348149 676.65459161 1718.15272695 593.42082427 1623.37255859 467.61083984 C1621.96681432 465.96105316 1620.57072891 464.30345255 1619.17578125 462.64453125 C1608.79313804 450.34571045 1597.7821519 438.66659727 1586.328125 427.36328125 C1584.36063802 425.36608389 1582.5433407 423.33860311 1580.75 421.1875 C1576.7629443 416.50871415 1572.20441707 412.44263038 1567.68945312 408.28515625 C1563.9482024 404.83624856 1560.30358339 401.33205512 1556.75 397.6875 C1552.68436497 393.56819322 1548.36044927 389.9474518 1543.83984375 386.33984375 C1540.84864741 383.87529546 1538.01276645 381.27467702 1535.1875 378.625 C1529.92222698 373.71604293 1524.38319698 369.27118955 1518.6875 364.875 C1515.48460792 362.39754929 1512.35555387 359.83986329 1509.23388672 357.26123047 C1500.82945182 350.32958849 1492.12837989 343.91175155 1483.24707031 337.60742188 C1481.07495024 336.05361499 1478.9215319 334.47743344 1476.7734375 332.890625 C1456.03654835 317.61081194 1434.20744512 304.02087162 1412 291 C1411.13165527 290.48663086 1410.26331055 289.97326172 1409.36865234 289.44433594 C1363.79477227 262.54450154 1314.97858956 241.18468841 1264.96176147 224.05410767 C1261.46321376 222.85526475 1257.97193534 221.63894783 1254.48852539 220.39672852 C1253.73394547 220.12795898 1252.97936554 219.85918945 1252.20191956 219.58227539 C1250.76284914 219.06860612 1249.3245058 218.55289305 1247.8870697 218.03466797 C1242.27681117 216.03379846 1236.62017853 214.46327906 1230.84765625 212.98828125 C1227.45608309 212.11714621 1224.08553843 211.19738375 1220.71533203 210.24853516 C1216.8143946 209.15056357 1212.90736076 208.07485027 1209 207 C1208.14970215 206.76522949 1207.2994043 206.53045898 1206.42333984 206.28857422 C1181.64884499 199.49388154 1156.49790107 194.70614075 1131.16455078 190.52294922 C1128.39869745 190.06588566 1125.63474914 189.59902114 1122.87109375 189.12890625 C1109.64044578 186.91427445 1096.33898499 185.39395346 1083 184 C1081.76495728 183.86897888 1080.52991455 183.73795776 1079.25744629 183.60296631 C1053.6257383 180.96086335 1028.16263538 180.56384438 1002.41046143 180.6774292 C998.25818214 180.69092736 994.10600869 180.68557856 989.95371723 180.68056107 C960.09187428 180.63930572 960.09187428 180.63930572 930.32070923 182.75076294 Z " fill="#3B8DA4" transform="translate(0,0)"/>
<path d="M0 0 C10.08296158 6.72197439 19.90985985 16.41364466 25.6875 27.125 C26.30625 28.23875 26.925 29.3525 27.5625 30.5 C29.87723029 37.95857539 29.56198723 44.90692924 26.00390625 51.88671875 C21.53792221 59.48021684 16.21331592 65.91072026 10.21875 72.34765625 C7.80762493 74.99319626 5.55003523 77.70713447 3.3125 80.5 C-0.55468863 85.2964071 -4.66230716 89.7954146 -8.87060547 94.28857422 C-11.98789336 97.63581785 -14.94816482 101.05495906 -17.8125 104.625 C-21.63244011 109.38608478 -25.70188819 113.83773025 -29.87109375 118.2890625 C-32.98818554 121.63616869 -35.94831113 125.05514141 -38.8125 128.625 C-42.63244011 133.38608478 -46.70188819 137.83773025 -50.87109375 142.2890625 C-53.98818554 145.63616869 -56.94831113 149.05514141 -59.8125 152.625 C-63.15554146 156.79168935 -66.66384903 160.72898286 -70.3125 164.625 C-79.68616828 173.2535649 -79.68616828 173.2535649 -85.3125 183.125 C-84.631875 182.444375 -83.95125 181.76375 -83.25 181.0625 C-82.79109375 180.60488281 -82.3321875 180.14726563 -81.859375 179.67578125 C-80.80209702 178.61583338 -79.75024005 177.55045767 -78.703125 176.48046875 C-75.1182274 172.83801546 -71.41649737 169.41139308 -67.546875 166.07421875 C-64.93398624 163.79479306 -62.37319979 161.46287647 -59.8125 159.125 C-56.02587002 155.67171847 -52.2077368 152.26400949 -48.33984375 148.90234375 C-45.97760827 146.83140513 -43.64454147 144.72987152 -41.3125 142.625 C-37.69573655 139.36109152 -34.04860392 136.13709051 -30.375 132.9375 C-27.1373667 130.0923071 -23.9456371 127.19646164 -20.74609375 124.30859375 C-18.63738854 122.41651315 -16.51330199 120.54594242 -14.375 118.6875 C-11.14690488 115.87677475 -7.97511557 113.009201 -4.8125 110.125 C-1.02587002 106.67171847 2.7922632 103.26400949 6.66015625 99.90234375 C9.02239173 97.83140513 11.35545853 95.72987152 13.6875 93.625 C17.98707678 89.75079992 22.29602976 85.89488346 26.6875 82.125 C27.55375 81.36832031 28.42 80.61164063 29.3125 79.83203125 C38.93731081 71.63757427 46.01062107 68.15549177 58.7578125 68.76171875 C69.97219409 69.79843593 76.51304024 74.89835346 84.19677734 82.63720703 C85.65263879 84.09020731 87.14061099 85.49931751 88.64453125 86.90234375 C96.07674072 93.98886906 104.75510984 103.02410369 105.98828125 113.73828125 C106.06345467 131.05322638 94.40346415 141.70521039 83.12646484 153.59326172 C80.79767082 156.07219855 78.57453301 158.63754799 76.3515625 161.2109375 C72.09517677 166.10678024 67.70711553 170.88851301 63.359375 175.703125 C59.94444362 179.48974959 56.53763474 183.28083617 53.1875 187.125 C48.31606797 192.71479989 43.3285485 198.20034898 38.359375 203.703125 C34.37045423 208.12621401 30.41182093 212.57115005 26.5 217.0625 C23.6548071 220.3001333 20.75896164 223.4918629 17.87109375 226.69140625 C15.97901315 228.80011146 14.10844242 230.92419801 12.25 233.0625 C8.60963009 237.24343528 4.86856773 241.33015969 1.1328125 245.42578125 C-2.06198173 248.95230331 -5.19886249 252.52678976 -8.3125 256.125 C-6.16737777 256.125 -3.85431463 253.00598047 -2.4375 251.6875 C1.29857074 248.23947653 5.09305293 244.93139508 9.0625 241.75 C13.8589071 237.88281137 18.3579146 233.77519284 22.85107422 229.56689453 C27.04061567 225.6651747 31.40913825 222.05182513 35.875 218.46875 C39.08599934 215.79291722 42.13777636 212.98140293 45.1875 210.125 C49.94838994 205.66625556 54.8521782 201.4870217 59.94140625 197.40234375 C62.95068958 194.9067361 65.82690286 192.28736519 68.6875 189.625 C72.39611688 186.17338064 76.17255895 182.85977852 80.125 179.6875 C84.30989032 176.32152347 88.27050618 172.79311291 92.1875 169.125 C97.82070154 163.85269762 103.64522728 158.92783216 109.6875 154.125 C110.95207031 153.07892578 110.95207031 153.07892578 112.2421875 152.01171875 C114.39580834 150.35005922 116.37156533 149.11010587 118.8125 147.9375 C119.47507812 147.61394531 120.13765625 147.29039062 120.8203125 146.95703125 C128.71489985 143.43915028 136.71501398 144.78343544 144.6171875 147.68359375 C159.33788137 154.59445385 173.00490139 168.90934585 179.8359375 183.59375 C182.14133988 190.44650569 181.43877187 197.40689585 178.5 203.9375 C174.08216416 211.90835947 167.82675439 218.46142204 161.6875 225.125 C160.67271321 226.23785843 159.65836893 227.35112059 158.64453125 228.46484375 C156.80490934 230.48042678 154.95746179 232.48786603 153.10546875 234.4921875 C150.51858276 237.30892604 148.00101263 240.17703939 145.49609375 243.06640625 C143.2573875 245.6145665 140.97339788 248.11910593 138.6875 250.625 C135.23421847 254.41162998 131.82650949 258.2297632 128.46484375 262.09765625 C126.39390513 264.45989173 124.29237152 266.79295853 122.1875 269.125 C119.49766569 272.10562721 116.82439636 275.09745233 114.1875 278.125 C109.31606797 283.71479989 104.3285485 289.20034898 99.359375 294.703125 C95.37045423 299.12621401 91.41182093 303.57115005 87.5 308.0625 C84.65602205 311.29875077 81.76137299 314.48908668 78.875 317.6875 C76.96195851 319.81917481 75.06862388 321.9651911 73.1875 324.125 C69.79375985 328.02151647 66.33319997 331.85564945 62.87109375 335.69140625 C60.97901315 337.80011146 59.10844242 339.92419801 57.25 342.0625 C53.59812947 346.25664365 49.84483816 350.35594292 46.09765625 354.46484375 C43.51756864 357.31255795 40.98548144 360.19744018 38.46484375 363.09765625 C36.39390513 365.45989173 34.29237152 367.79295853 32.1875 370.125 C29.49766569 373.10562721 26.82439636 376.09745233 24.1875 379.125 C20.79375985 383.02151647 17.33319997 386.85564945 13.87109375 390.69140625 C11.97901315 392.80011146 10.10844242 394.92419801 8.25 397.0625 C5.43927475 400.29059512 2.571701 403.46238443 -0.3125 406.625 C-3.25518697 409.85303844 -6.18431258 413.08928162 -9.0625 416.375 C-9.62066406 417.01050781 -10.17882813 417.64601563 -10.75390625 418.30078125 C-11.74702972 419.46315885 -12.716361 420.64660474 -13.65234375 421.85546875 C-26.42152291 438.02976236 -47.50897634 445.62150668 -67.3125 448.125 C-71.51818694 448.35614545 -75.70404018 448.33692215 -79.91479492 448.28515625 C-81.11153336 448.27913895 -82.30827179 448.27312164 -83.54127502 448.266922 C-86.11769516 448.25381315 -88.6940976 448.23672417 -91.27046776 448.21600342 C-95.3527201 448.18418272 -99.43480301 448.17665061 -103.51716614 448.17431641 C-104.20998111 448.1738028 -104.90279609 448.17328918 -105.61660546 448.17276001 C-107.03167913 448.17171888 -108.44675282 448.17071459 -109.86182654 448.1697464 C-119.34626646 448.16188271 -128.83010842 448.13641725 -138.31420898 448.05322266 C-144.74093317 447.9970356 -151.16670852 447.9765345 -157.59366113 447.99642277 C-160.98444218 448.00546837 -164.37299234 447.99659856 -167.7634182 447.94363403 C-171.54329709 447.89290343 -175.31836042 447.90430317 -179.09838867 447.9296875 C-180.20667023 447.89994339 -181.31495178 447.87019928 -182.45681763 447.83955383 C-187.27210929 447.9289166 -190.17903259 448.18747795 -193.96557045 451.31942749 C-196.24166168 453.83200485 -198.29348454 456.4040309 -200.3125 459.125 C-201.26225769 460.19960563 -202.22583151 461.26239045 -203.2109375 462.3046875 C-204.97173155 464.2210091 -206.7321261 466.13769333 -208.4921875 468.0546875 C-209.19166504 468.81604004 -209.19166504 468.81604004 -209.90527344 469.59277344 C-212.20958552 472.10177112 -214.51091091 474.61350468 -216.8125 477.125 C-217.72915192 478.12501352 -218.6458186 479.12501351 -219.5625 480.125 C-220.243125 480.8675 -220.243125 480.8675 -220.9375 481.625 C-225.97916667 487.125 -231.02083333 492.625 -236.0625 498.125 C-236.74300415 498.86737915 -236.74300415 498.86737915 -237.43725586 499.62475586 C-238.35470685 500.62559668 -239.27218736 501.62641045 -240.18969727 502.62719727 C-242.46960551 505.11411261 -244.74901293 507.60148315 -247.02734375 510.08984375 C-252.28188349 515.82755956 -257.54996288 521.55245017 -262.82958984 527.26708984 C-267.08827533 531.87825625 -271.33276474 536.50221683 -275.5703125 541.1328125 C-277.47683361 543.21553195 -279.38905365 545.29284742 -281.3046875 547.3671875 C-281.79767334 547.90206787 -282.29065918 548.43694824 -282.79858398 548.98803711 C-284.16548958 550.47082502 -285.5338684 551.95225445 -286.90234375 553.43359375 C-289.13829017 555.93046099 -291.24795105 558.48563464 -293.3125 561.125 C-291.9862226 564.09825963 -290.58216888 566.06579346 -288.1875 568.26171875 C-287.56858887 568.83422363 -286.94967773 569.40672852 -286.31201172 569.99658203 C-285.65217285 570.59583496 -284.99233398 571.19508789 -284.3125 571.8125 C-283.6333252 572.43753418 -282.95415039 573.06256836 -282.25439453 573.70654297 C-277.80834519 577.78990771 -273.32843429 581.83591967 -268.828125 585.859375 C-265.27981202 589.0550606 -261.77672274 592.29875265 -258.27124023 595.54125977 C-254.60539082 598.93202272 -250.93228393 602.31459077 -247.25 605.6875 C-246.51354248 606.36208252 -246.51354248 606.36208252 -245.76220703 607.05029297 C-244.77365485 607.95562602 -243.78504823 608.86089963 -242.79638672 609.76611328 C-240.30085593 612.05142496 -237.80675473 614.3382958 -235.3125 616.625 C-234.31250675 617.54167404 -233.31250676 618.4583407 -232.3125 619.375 C-182.8125 664.75 -133.3125 710.125 -58.3125 778.875 C-57.57012085 779.55550415 -57.57012085 779.55550415 -56.81274414 780.24975586 C-55.81190332 781.16720685 -54.81108955 782.08468736 -53.81030273 783.00219727 C-51.32338739 785.28210551 -48.83601685 787.56151293 -46.34765625 789.83984375 C-41.1161419 794.6309544 -35.8951826 799.43298898 -30.6875 804.25 C-26.96237568 807.69534382 -23.22039875 811.11793821 -19.4375 814.5 C-14.50566095 818.91777114 -9.67728343 823.44219785 -4.84472656 827.96777344 C-0.55096188 831.98354021 3.78897522 835.94088844 8.171875 839.859375 C11.72018798 843.0550606 15.22327726 846.29875265 18.72875977 849.54125977 C22.39460918 852.93202272 26.06771607 856.31459077 29.75 859.6875 C30.48645752 860.36208252 30.48645752 860.36208252 31.23779297 861.05029297 C32.22634515 861.95562602 33.21495177 862.86089963 34.20361328 863.76611328 C36.69914407 866.05142496 39.19324527 868.3382958 41.6875 870.625 C42.68749325 871.54167404 43.68749324 872.4583407 44.6875 873.375 C71.6875 898.125 71.6875 898.125 98.6875 922.875 C99.1829834 923.32907227 99.6784668 923.78314453 100.18896484 924.25097656 C101.1845691 925.1638571 102.17968993 926.07726516 103.17431641 926.99121094 C105.73777452 929.34545861 108.31007749 931.68876295 110.8984375 934.015625 C122.85266659 944.78614025 133.04336059 956.25551658 134.0234375 973.16796875 C134.40220641 990.49819872 129.10694756 1004.63857466 117.1328125 1017.2890625 C116.54469788 1017.9142981 115.95658325 1018.53953369 115.35064697 1019.18371582 C105.45683462 1029.61665991 95.26776737 1039.76930169 85.109375 1049.94335938 C82.03451245 1053.02375188 78.96908707 1056.11336548 75.90562057 1059.20508575 C73.51186512 1061.61756385 71.11133125 1064.02321161 68.70896149 1066.42710876 C67.57592242 1067.56314027 66.44534233 1068.70163062 65.31746674 1069.8427887 C51.9417422 1083.36508325 37.54376546 1093.82524271 17.875 1094.4375 C0.53487911 1094.06388523 -12.48606301 1086.16586332 -24.3125 1074.125 C-26.58190297 1071.71494726 -28.79448592 1069.27055036 -30.9765625 1066.78125 C-33.66497701 1063.72419003 -36.41982883 1060.73514048 -39.1875 1057.75 C-40.21499947 1056.63946698 -41.24234315 1055.52878978 -42.26953125 1054.41796875 C-43.03064209 1053.59498291 -43.03064209 1053.59498291 -43.80712891 1052.75537109 C-47.53501443 1048.71793686 -51.24269029 1044.66190415 -54.95361328 1040.60888672 C-57.23892496 1038.11335593 -59.5257958 1035.61925473 -61.8125 1033.125 C-62.72917404 1032.12500675 -63.6458407 1031.12500676 -64.5625 1030.125 C-65.01625 1029.63 -65.47 1029.135 -65.9375 1028.625 C-70.97916667 1023.125 -76.02083333 1017.625 -81.0625 1012.125 C-81.51641113 1011.62983887 -81.97032227 1011.13467773 -82.43798828 1010.62451172 C-83.35308633 1009.62619339 -84.26812555 1008.62782114 -85.18310547 1007.62939453 C-87.49828852 1005.1032158 -89.8145401 1002.57803168 -92.1328125 1000.0546875 C-96.36016751 995.45150235 -100.57776083 990.84086224 -104.75 986.1875 C-109.20893915 981.21987617 -113.73688331 976.31816748 -118.26953125 971.41796875 C-122.51321432 966.82929271 -126.73290541 962.21868397 -130.95361328 957.60888672 C-133.23892496 955.11335593 -135.5257958 952.61925473 -137.8125 950.125 C-138.72917404 949.12500675 -139.6458407 948.12500676 -140.5625 947.125 C-141.01625 946.63 -141.47 946.135 -141.9375 945.625 C-154.3125 932.125 -166.6875 918.625 -179.0625 905.125 C-179.51641113 904.62983887 -179.97032227 904.13467773 -180.43798828 903.62451172 C-181.35308633 902.62619339 -182.26812555 901.62782114 -183.18310547 900.62939453 C-185.49828852 898.1032158 -187.8145401 895.57803168 -190.1328125 893.0546875 C-194.36016751 888.45150235 -198.57776083 883.84086224 -202.75 879.1875 C-207.20893915 874.21987617 -211.73688331 869.31816748 -216.26953125 864.41796875 C-220.51321432 859.82929271 -224.73290541 855.21868397 -228.95361328 850.60888672 C-231.23892496 848.11335593 -233.5257958 845.61925473 -235.8125 843.125 C-236.72917404 842.12500675 -237.6458407 841.12500676 -238.5625 840.125 C-239.01625 839.63 -239.47 839.135 -239.9375 838.625 C-252.3125 825.125 -264.6875 811.625 -277.0625 798.125 C-277.51641113 797.62983887 -277.97032227 797.13467773 -278.43798828 796.62451172 C-279.35308633 795.62619339 -280.26812555 794.62782114 -281.18310547 793.62939453 C-283.49828852 791.1032158 -285.8145401 788.57803168 -288.1328125 786.0546875 C-292.36016751 781.45150235 -296.57776083 776.84086224 -300.75 772.1875 C-305.20893915 767.21987617 -309.73688331 762.31816748 -314.26953125 757.41796875 C-318.51321432 752.82929271 -322.73290541 748.21868397 -326.95361328 743.60888672 C-329.23892496 741.11335593 -331.5257958 738.61925473 -333.8125 736.125 C-334.72917404 735.12500675 -335.6458407 734.12500676 -336.5625 733.125 C-337.01625 732.63 -337.47 732.135 -337.9375 731.625 C-346.64583333 722.125 -355.35416667 712.625 -364.0625 703.125 C-364.51633057 702.62991943 -364.97016113 702.13483887 -365.43774414 701.62475586 C-366.35362649 700.62559669 -367.2694794 699.62641053 -368.18530273 698.62719727 C-370.48872769 696.11410945 -372.79267602 693.60150522 -375.09765625 691.08984375 C-381.18811897 684.45191172 -387.2585013 677.79621766 -393.3125 671.125 C-398.32424307 675.17704759 -402.60300218 679.53144993 -406.8671875 684.359375 C-409.44106564 687.27040651 -412.05719595 690.14012524 -414.6875 693 C-415.62241351 694.01821293 -416.55730922 695.03644221 -417.4921875 696.0546875 C-418.19166504 696.81604004 -418.19166504 696.81604004 -418.90527344 697.59277344 C-421.20958552 700.10177112 -423.51091091 702.61350468 -425.8125 705.125 C-426.72915192 706.12501352 -427.6458186 707.12501351 -428.5625 708.125 C-429.243125 708.8675 -429.243125 708.8675 -429.9375 709.625 C-431.3125 711.125 -432.6875 712.625 -434.0625 714.125 C-434.74300415 714.86737915 -434.74300415 714.86737915 -435.43725586 715.62475586 C-436.35470685 716.62559668 -437.27218736 717.62641045 -438.18969727 718.62719727 C-440.46960551 721.11411261 -442.74901293 723.60148315 -445.02734375 726.08984375 C-450.28188349 731.82755956 -455.54996288 737.55245017 -460.82958984 743.26708984 C-465.55111697 748.37940615 -470.2541967 753.50847717 -474.95361328 758.64111328 C-477.23892496 761.13664407 -479.5257958 763.63074527 -481.8125 766.125 C-482.72917404 767.12499325 -483.6458407 768.12499324 -484.5625 769.125 C-514.8125 802.125 -514.8125 802.125 -545.0625 835.125 C-545.74300415 835.86737915 -545.74300415 835.86737915 -546.43725586 836.62475586 C-547.35470685 837.62559668 -548.27218736 838.62641045 -549.18969727 839.62719727 C-551.46960551 842.11411261 -553.74901293 844.60148315 -556.02734375 847.08984375 C-561.28188349 852.82755956 -566.54996288 858.55245017 -571.82958984 864.26708984 C-576.55111697 869.37940615 -581.2541967 874.50847717 -585.95361328 879.64111328 C-588.23892496 882.13664407 -590.5257958 884.63074527 -592.8125 887.125 C-593.72917404 888.12499325 -594.6458407 889.12499324 -595.5625 890.125 C-619.39583333 916.125 -643.22916667 942.125 -667.0625 968.125 C-667.74300415 968.86737915 -667.74300415 968.86737915 -668.43725586 969.62475586 C-669.35470685 970.62559668 -670.27218736 971.62641045 -671.18969727 972.62719727 C-673.46960551 975.11411261 -675.74901293 977.60148315 -678.02734375 980.08984375 C-683.28188349 985.82755956 -688.54996288 991.55245017 -693.82958984 997.26708984 C-698.55111697 1002.37940615 -703.2541967 1007.50847717 -707.95361328 1012.64111328 C-710.23892496 1015.13664407 -712.5257958 1017.63074527 -714.8125 1020.125 C-715.72917404 1021.12499325 -716.6458407 1022.12499324 -717.5625 1023.125 C-745.0625 1053.125 -745.0625 1053.125 -746.4387207 1054.6262207 C-747.35146591 1055.62201647 -748.26406459 1056.61794656 -749.17651367 1057.61401367 C-751.52696928 1060.17948327 -753.88025256 1062.74226922 -756.23828125 1065.30078125 C-756.71773193 1065.82188477 -757.19718262 1066.34298828 -757.69116211 1066.87988281 C-758.63982551 1067.91044172 -759.58983875 1068.93975984 -760.54125977 1069.96777344 C-762.89711036 1072.52577203 -765.11991378 1075.12830987 -767.25 1077.875 C-776.1612469 1088.31826643 -789.93051669 1093.29280423 -803.28515625 1094.36328125 C-819.32034882 1094.74845022 -832.70421739 1088.64704362 -844.24762535 1077.78348255 C-848.02972409 1074.12461094 -851.75013556 1070.40675812 -855.4609375 1066.67578125 C-857.08785879 1065.05478017 -858.71544459 1063.43444579 -860.34365845 1061.81474304 C-863.73889491 1058.43133422 -867.12476797 1055.03889146 -870.50439453 1051.63989258 C-874.81623389 1047.30515471 -879.15244843 1042.99577403 -883.49625206 1038.69309711 C-886.85803521 1035.35699697 -890.20550423 1032.00681448 -893.5490303 1028.65242577 C-895.14154586 1027.05843297 -896.73859428 1025.46895442 -898.34040451 1023.88430214 C-912.15076798 1010.1980157 -921.10634784 997.91063571 -921.75 977.6875 C-921.29109745 958.94897925 -911.91673815 945.92374434 -898.87890625 933.453125 C-895.82034559 930.57985997 -892.72922112 927.75959841 -889.5234375 925.05078125 C-886.25069378 922.20014052 -883.10239001 919.21936806 -879.9375 916.25 C-874.95182628 911.57661842 -869.93147742 906.95225889 -864.8359375 902.3984375 C-861.80371879 899.66662436 -858.80713353 896.89787299 -855.8125 894.125 C-852.00270002 890.59798019 -848.1791241 887.08989692 -844.3125 883.625 C-839.36385091 879.18883237 -834.48415228 874.68066166 -829.60546875 870.16796875 C-825.01679271 865.92428568 -820.40618397 861.70459459 -815.79638672 857.48388672 C-813.30085593 855.19857504 -810.80675473 852.9117042 -808.3125 850.625 C-807.31250675 849.70832596 -806.31250676 848.7916593 -805.3125 847.875 C-804.57 847.194375 -804.57 847.194375 -803.8125 846.5 C-790.3125 834.125 -776.8125 821.75 -763.3125 809.375 C-762.81733887 808.92108887 -762.32217773 808.46717773 -761.81201172 807.99951172 C-760.81369339 807.08441367 -759.81532114 806.16937445 -758.81689453 805.25439453 C-756.2907158 802.93921148 -753.76553168 800.6229599 -751.2421875 798.3046875 C-746.63900235 794.07733249 -742.02836224 789.85973917 -737.375 785.6875 C-732.40737617 781.22856085 -727.50566748 776.70061669 -722.60546875 772.16796875 C-718.01679271 767.92428568 -713.40618397 763.70459459 -708.79638672 759.48388672 C-706.30085593 757.19857504 -703.80675473 754.9117042 -701.3125 752.625 C-700.31250675 751.70832596 -699.31250676 750.7916593 -698.3125 749.875 C-697.8175 749.42125 -697.3225 748.9675 -696.8125 748.5 C-679.3125 732.45833333 -661.8125 716.41666667 -644.3125 700.375 C-643.81733887 699.92108887 -643.32217773 699.46717773 -642.81201172 698.99951172 C-641.81369339 698.08441367 -640.81532114 697.16937445 -639.81689453 696.25439453 C-637.2907158 693.93921148 -634.76553168 691.6229599 -632.2421875 689.3046875 C-627.63900235 685.07733249 -623.02836224 680.85973917 -618.375 676.6875 C-613.40737617 672.22856085 -608.50566748 667.70061669 -603.60546875 663.16796875 C-599.01679271 658.92428568 -594.40618397 654.70459459 -589.79638672 650.48388672 C-587.30085593 648.19857504 -584.80675473 645.9117042 -582.3125 643.625 C-581.31250675 642.70832596 -580.31250676 641.7916593 -579.3125 640.875 C-578.8175 640.42125 -578.3225 639.9675 -577.8125 639.5 C-560.3125 623.45833333 -542.8125 607.41666667 -525.3125 591.375 C-524.81733887 590.92108887 -524.32217773 590.46717773 -523.81201172 589.99951172 C-522.81369339 589.08441367 -521.81532114 588.16937445 -520.81689453 587.25439453 C-518.2907158 584.93921148 -515.76553168 582.6229599 -513.2421875 580.3046875 C-506.96564103 574.54053255 -500.65928882 568.81183511 -494.3125 563.125 C-495.66422847 559.04120659 -497.38186242 556.74816481 -500.5 553.8125 C-503.28440519 551.1206146 -505.98476563 548.44513412 -508.5 545.5 C-511.95157284 541.47718783 -515.56232528 537.61557853 -519.1875 533.75 C-523.86327623 528.76152627 -528.48961008 523.73801021 -533.046875 518.640625 C-536.2425606 515.09231202 -539.48625265 511.58922274 -542.72875977 508.08374023 C-547.02569908 503.43819801 -551.30547486 498.77725493 -555.578125 494.109375 C-557.45985019 492.05386855 -559.34573873 490.00228282 -561.234375 487.953125 C-566.02161515 482.75451899 -570.76312304 477.5350699 -575.3125 472.125 C-576.07949219 472.31835938 -576.84648438 472.51171875 -577.63671875 472.7109375 C-635.79190141 486.35477826 -695.98969575 468.09046685 -745.82324219 437.68554688 C-757.39039016 430.43395705 -768.53125832 422.49612804 -779.3125 414.125 C-780.14652344 413.48433594 -780.98054687 412.84367187 -781.83984375 412.18359375 C-787.66436808 407.62887093 -793.1045095 402.73245334 -798.515625 397.703125 C-800.70419635 395.68572683 -802.91634319 393.73424807 -805.1875 391.8125 C-814.2022879 383.98834447 -822.65298466 375.27196586 -830.3125 366.125 C-831.116875 365.19816406 -831.92125 364.27132813 -832.75 363.31640625 C-843.96943243 350.34482576 -854.10022622 336.58815367 -863.3125 322.125 C-863.67907715 321.55023926 -864.0456543 320.97547852 -864.42333984 320.38330078 C-876.66447254 301.00288029 -886.27677838 280.56592613 -894.3125 259.125 C-894.65659912 258.23006836 -895.00069824 257.33513672 -895.35522461 256.41308594 C-904.97013818 230.91195972 -908.54432782 204.68839395 -908.625 177.625 C-908.62885712 176.81838928 -908.63271423 176.01177856 -908.63668823 175.1807251 C-908.66955455 161.23794606 -907.86776466 147.59736013 -903.6875 134.1875 C-903.42880127 133.34759521 -903.17010254 132.50769043 -902.90356445 131.64233398 C-893.32780316 101.85514836 -872.79509115 79.47932523 -845.3125 65.125 C-837.43619202 61.25569137 -829.19458689 58.66366438 -820.75 56.375 C-820.0192627 56.17608154 -819.28852539 55.97716309 -818.53564453 55.7722168 C-805.83346572 52.52635199 -793.1650508 51.71713951 -780.125 51.75 C-779.34414032 51.75021149 -778.56328064 51.75042297 -777.75875854 51.75064087 C-763.00911866 51.79018816 -748.79479764 53.24678437 -734.3125 56.125 C-733.40612793 56.29628418 -732.49975586 56.46756836 -731.56591797 56.64404297 C-693.00268535 64.09058817 -654.86797111 83.04151604 -623.3125 106.125 C-622.76029785 106.52702637 -622.2080957 106.92905273 -621.63916016 107.34326172 C-612.0230592 114.37342296 -602.71841895 121.71024027 -593.9296875 129.75390625 C-591.83228755 131.65408799 -589.70967995 133.50808391 -587.56640625 135.35546875 C-582.99062362 139.35231633 -578.66774385 143.57768161 -574.375 147.875 C-573.58158203 148.66922363 -572.78816406 149.46344727 -571.97070312 150.28173828 C-567.11659656 155.186783 -562.54772278 160.13544265 -558.30078125 165.578125 C-556.11530547 168.37759496 -553.81270114 171.05488372 -551.5 173.75 C-513.15792307 219.71286241 -483.83751417 280.35238526 -483.99682617 340.98535156 C-483.99998823 343.49067716 -483.97640991 345.99481883 -483.95117188 348.5 C-483.91537998 358.13357059 -484.7200144 367.17025307 -486.66723633 376.60791016 C-487.21402115 379.58822877 -487.58772406 382.11687912 -487.3125 385.125 C-485.64320607 387.43879793 -485.64320607 387.43879793 -483.3125 389.5 C-482.47976563 390.28761719 -481.64703125 391.07523438 -480.7890625 391.88671875 C-478.13189032 394.28823241 -475.45250978 396.65612161 -472.734375 398.98828125 C-469.40550065 401.92520749 -466.17540587 404.96346241 -462.9375 408 C-457.94902627 412.67577623 -452.92551021 417.30211008 -447.828125 421.859375 C-444.84194401 424.54879266 -441.88780188 427.27134956 -438.9375 430 C-438.38908447 430.50716553 -437.84066895 431.01433105 -437.27563477 431.53686523 C-436.45276978 432.29785522 -436.45276978 432.29785522 -435.61328125 433.07421875 C-428.9046578 439.27816761 -422.1778631 445.46186793 -415.375 451.5625 C-411.32482128 455.19778236 -407.31201378 458.87170127 -403.3125 462.5625 C-402.74797119 463.08320068 -402.18344238 463.60390137 -401.60180664 464.14038086 C-399.47436746 466.10698939 -397.36131751 468.07618249 -395.3125 470.125 C-391.65398612 469.83776131 -389.99527937 468.10367709 -387.5625 465.5 C-385.03830483 462.87889789 -382.51711229 460.36319829 -379.75 458 C-375.70895604 454.5248616 -371.82452763 450.89502059 -367.9375 447.25 C-362.94900685 442.57424394 -357.9255108 437.94789045 -352.828125 433.390625 C-349.27981202 430.1949394 -345.77672274 426.95124735 -342.27124023 423.70874023 C-337.13062899 418.95388203 -331.96996317 414.22124227 -326.80517578 409.49267578 C-325.28435124 408.09920848 -323.76502676 406.70412249 -322.24609375 405.30859375 C-317.64176052 401.07976524 -313.02973405 396.86096914 -308.375 392.6875 C-303.97859892 388.74129039 -299.63246616 384.74333475 -295.29614258 380.73144531 C-290.87908003 376.64489345 -286.44662248 372.57547208 -282.00634766 368.51416016 C-278.01210206 365.27677272 -278.01210206 365.27677272 -277.12304688 360.45996094 C-277.08718589 358.75986847 -277.05713373 357.05964863 -277.03125 355.359375 C-277.0133844 354.41563522 -276.9955188 353.47189545 -276.97711182 352.4995575 C-276.93848317 350.40728762 -276.90225823 348.31497242 -276.86804199 346.22262573 C-276.81176414 342.83064836 -276.74681048 339.43891733 -276.68066406 336.04711914 C-276.43993194 323.14679619 -276.28780063 310.24918574 -276.22827148 297.34683228 C-276.20041547 291.32160056 -276.15693772 285.29649938 -276.11123657 279.27137947 C-276.08039647 275.01632202 -276.05924709 270.76164713 -276.05981445 266.50646973 C-276.05703498 237.65381188 -274.2771568 212.15617278 -253.3125 190.125 C-246.52530572 183.40850566 -239.43391421 176.99203133 -232.19921875 170.76171875 C-229.87591213 168.74626228 -227.59501535 166.68651538 -225.3125 164.625 C-222.35380249 161.95451656 -219.38323528 159.30201942 -216.375 156.6875 C-213.14690488 153.87677475 -209.97511557 151.009201 -206.8125 148.125 C-203.02587002 144.67171847 -199.2077368 141.26400949 -195.33984375 137.90234375 C-192.97760827 135.83140513 -190.64454147 133.72987152 -188.3125 131.625 C-185.33187279 128.93516569 -182.34004767 126.26189636 -179.3125 123.625 C-174.59548716 119.51418961 -169.95611111 115.31832155 -165.3125 111.125 C-160.03264424 106.35713025 -154.73958194 101.60987782 -149.375 96.9375 C-147.00285571 94.85288836 -144.65693935 92.74071356 -142.3125 90.625 C-138.69573655 87.36109152 -135.04860392 84.13709051 -131.375 80.9375 C-128.1373667 78.0923071 -124.9456371 75.19646164 -121.74609375 72.30859375 C-119.63738854 70.41651315 -117.51330199 68.54594242 -115.375 66.6875 C-112.14690488 63.87677475 -108.97511557 61.009201 -105.8125 58.125 C-102.02587002 54.67171847 -98.2077368 51.26400949 -94.33984375 47.90234375 C-91.97760827 45.83140513 -89.64454147 43.72987152 -87.3125 41.625 C-84.33187279 38.93516569 -81.34004767 36.26189636 -78.3125 33.625 C-73.59548716 29.51418961 -68.95611111 25.31832155 -64.3125 21.125 C-51.66943501 9.70792919 -51.66943501 9.70792919 -46.3125 5.125 C-45.53132813 4.44179688 -44.75015625 3.75859375 -43.9453125 3.0546875 C-29.43809984 -9.19283472 -16.25972902 -9.41729174 0 0 Z " fill="#F4EC9D" transform="translate(1377.3125,455.875)"/>
<path d="M0 0 C0.61262695 0.44279297 1.22525391 0.88558594 1.85644531 1.34179688 C16.60747496 12.03647675 29.95918765 23.78879842 42.875 36.625 C43.3615506 37.10619293 43.8481012 37.58738586 44.34939575 38.0831604 C51.02808296 44.70594601 57.18116037 51.60666745 63 59 C63.57443848 59.7204248 64.14887695 60.44084961 64.74072266 61.18310547 C91.55454784 95.00611544 110.68492056 133.78382903 120 176 C120.2475 177.06605469 120.495 178.13210938 120.75 179.23046875 C123.93425975 195.6161387 123.27323204 213.90833121 119 230 C114.49654812 244.88232016 114.49654812 244.88232016 116.078125 259.8359375 C118.56330461 263.92739173 121.64154625 266.76243291 125.1875 269.9375 C126.2094043 270.87142578 126.2094043 270.87142578 127.25195312 271.82421875 C131.05004307 275.28429686 134.89412561 278.68839627 138.7890625 282.0390625 C142.72150622 285.52684828 146.53176204 289.14744454 150.36669922 292.74169922 C154.69318507 296.7924618 159.0658293 300.78401957 163.484375 304.734375 C167.03268798 307.9300606 170.53577726 311.17375265 174.04125977 314.41625977 C177.70710918 317.80702272 181.38021607 321.18959077 185.0625 324.5625 C185.79895752 325.23708252 185.79895752 325.23708252 186.55029297 325.92529297 C187.53884515 326.83062602 188.52745177 327.73589963 189.51611328 328.64111328 C192.01164407 330.92642496 194.50574527 333.2132958 197 335.5 C197.99999325 336.41667404 198.99999324 337.3333407 200 338.25 C242 376.75 242 376.75 243.50048828 378.12548828 C244.49880661 379.04058633 245.49717886 379.95562555 246.49560547 380.87060547 C249.0217842 383.18578852 251.54696832 385.5020401 254.0703125 387.8203125 C258.67349765 392.04766751 263.28413776 396.26526083 267.9375 400.4375 C272.90512383 404.89643915 277.80683252 409.42438331 282.70703125 413.95703125 C285.81782841 416.83394762 288.93798345 419.70049617 292.0625 422.5625 C292.79895752 423.23708252 292.79895752 423.23708252 293.55029297 423.92529297 C294.53884515 424.83062602 295.52745177 425.73589963 296.51611328 426.64111328 C299.01164407 428.92642496 301.50574527 431.2132958 304 433.5 C304.99999325 434.41667404 305.99999324 435.3333407 307 436.25 C373 496.75 373 496.75 374.50048828 498.12548828 C375.49880661 499.04058633 376.49717886 499.95562555 377.49560547 500.87060547 C380.0217842 503.18578852 382.54696832 505.5020401 385.0703125 507.8203125 C389.67349765 512.04766751 394.28413776 516.26526083 398.9375 520.4375 C403.90512383 524.89643915 408.80683252 529.42438331 413.70703125 533.95703125 C416.81782841 536.83394762 419.93798345 539.70049617 423.0625 542.5625 C423.79895752 543.23708252 423.79895752 543.23708252 424.55029297 543.92529297 C425.53884515 544.83062602 426.52745177 545.73589963 427.51611328 546.64111328 C430.01164407 548.92642496 432.50574527 551.2132958 435 553.5 C435.99999325 554.41667404 436.99999324 555.3333407 438 556.25 C504 616.75 504 616.75 505.50048828 618.12548828 C506.49880661 619.04058633 507.49717886 619.95562555 508.49560547 620.87060547 C511.0217842 623.18578852 513.54696832 625.5020401 516.0703125 627.8203125 C520.67349765 632.04766751 525.28413776 636.26526083 529.9375 640.4375 C534.90512383 644.89643915 539.80683252 649.42438331 544.70703125 653.95703125 C547.81782841 656.83394762 550.93798345 659.70049617 554.0625 662.5625 C554.79895752 663.23708252 554.79895752 663.23708252 555.55029297 663.92529297 C556.53884515 664.83062602 557.52745177 665.73589963 558.51611328 666.64111328 C561.01164407 668.92642496 563.50574527 671.2132958 566 673.5 C566.99999325 674.41667404 567.99999324 675.3333407 569 676.25 C635 736.75 635 736.75 636.50048828 738.12548828 C637.49880661 739.04058633 638.49717886 739.95562555 639.49560547 740.87060547 C642.0217842 743.18578852 644.54696832 745.5020401 647.0703125 747.8203125 C651.67349765 752.04766751 656.28413776 756.26526083 660.9375 760.4375 C665.90512383 764.89643915 670.80683252 769.42438331 675.70703125 773.95703125 C678.81782841 776.83394762 681.93798345 779.70049617 685.0625 782.5625 C685.79895752 783.23708252 685.79895752 783.23708252 686.55029297 783.92529297 C687.53884515 784.83062602 688.52745177 785.73589963 689.51611328 786.64111328 C692.01164407 788.92642496 694.50574527 791.2132958 697 793.5 C697.99999325 794.41667404 698.99999324 795.3333407 700 796.25 C706 801.75 706 801.75 707.50073242 803.12573242 C708.49820991 804.04004618 709.49576818 804.95427181 710.4934082 805.8684082 C713.03268091 808.19534911 715.57042141 810.52392474 718.10546875 812.85546875 C718.6166626 813.32509033 719.12785645 813.79471191 719.65454102 814.27856445 C720.66765235 815.20971041 721.67987632 816.14182288 722.69116211 817.07495117 C725.75651819 819.89438775 728.8913637 822.61344224 732.0625 825.3125 C736.72209701 829.48250168 739.04487498 833.06644509 739.5625 839.375 C738.92957275 850.02093059 726.4183461 858.89101233 719.31640625 865.984375 C717.97389804 867.33077636 716.63161154 868.6773988 715.28953552 870.02423096 C712.48636862 872.83482852 709.6793989 875.64156033 706.86987305 878.44580078 C703.27933243 882.03053443 699.70031818 885.62653734 696.12428379 889.22573471 C693.35935112 892.00542852 690.5874912 894.77813336 687.81361198 897.54889679 C686.49124917 898.87177106 685.17123116 900.19699374 683.85367012 901.52465057 C682.00925448 903.38146672 680.15546347 905.22840899 678.29907227 907.07324219 C677.76327042 907.61668777 677.22746857 908.16013336 676.6754303 908.720047 C672.69142891 912.64970336 668.34133266 916.20136864 662.77734375 917.53125 C654.25726498 917.38653529 649.80832273 912.07105703 644.203125 906.3359375 C641.77130793 903.75752153 639.4441905 901.11123601 637.13671875 898.421875 C634.19979251 895.09300065 631.16153759 891.86290587 628.125 888.625 C623.44922377 883.63652627 618.82288992 878.61301021 614.265625 873.515625 C611.0699394 869.96731202 607.82624735 866.46422274 604.58374023 862.95874023 C599.826075 857.81509423 595.09040202 852.6515806 590.35888672 847.48388672 C588.53220583 845.48917482 586.70450295 843.49540093 584.87670898 841.50170898 C583.96076778 840.50260376 583.04491455 839.50341789 582.12915039 838.50415039 C579.81406372 835.97803926 577.49788212 833.45294702 575.1796875 830.9296875 C570.95233249 826.32650235 566.73473917 821.71586224 562.5625 817.0625 C558.10356085 812.09487617 553.57561669 807.19316748 549.04296875 802.29296875 C544.79928568 797.70429271 540.57959459 793.09368397 536.35888672 788.48388672 C534.07357504 785.98835593 531.7867042 783.49425473 529.5 781 C528.58332596 780.00000675 527.6666593 779.00000676 526.75 778 C526.29625 777.505 525.8425 777.01 525.375 776.5 C505.66666667 755 485.95833333 733.5 466.25 712 C465.79608887 711.50483887 465.34217773 711.00967773 464.87451172 710.49951172 C463.95941367 709.50119339 463.04437445 708.50282114 462.12939453 707.50439453 C459.81421148 704.9782158 457.4979599 702.45303168 455.1796875 699.9296875 C450.95233249 695.32650235 446.73473917 690.71586224 442.5625 686.0625 C438.10356085 681.09487617 433.57561669 676.19316748 429.04296875 671.29296875 C424.79928568 666.70429271 420.57959459 662.09368397 416.35888672 657.48388672 C414.07357504 654.98835593 411.7867042 652.49425473 409.5 650 C408.58332596 649.00000675 407.6666593 648.00000676 406.75 647 C406.29625 646.505 405.8425 646.01 405.375 645.5 C385.66666667 624 365.95833333 602.5 346.25 581 C345.79608887 580.50483887 345.34217773 580.00967773 344.87451172 579.49951172 C343.95941367 578.50119339 343.04437445 577.50282114 342.12939453 576.50439453 C339.81421148 573.9782158 337.4979599 571.45303168 335.1796875 568.9296875 C330.95233249 564.32650235 326.73473917 559.71586224 322.5625 555.0625 C318.10356085 550.09487617 313.57561669 545.19316748 309.04296875 540.29296875 C304.79928568 535.70429271 300.57959459 531.09368397 296.35888672 526.48388672 C294.07357504 523.98835593 291.7867042 521.49425473 289.5 519 C288.58332596 518.00000675 287.6666593 517.00000676 286.75 516 C286.29625 515.505 285.8425 515.01 285.375 514.5 C255.8125 482.25 255.8125 482.25 226.25 450 C225.79608887 449.50483887 225.34217773 449.00967773 224.87451172 448.49951172 C223.95941367 447.50119339 223.04437445 446.50282114 222.12939453 445.50439453 C219.81421148 442.9782158 217.4979599 440.45303168 215.1796875 437.9296875 C210.95233249 433.32650235 206.73473917 428.71586224 202.5625 424.0625 C198.10356085 419.09487617 193.57561669 414.19316748 189.04296875 409.29296875 C184.79928568 404.70429271 180.57959459 400.09368397 176.35888672 395.48388672 C174.07357504 392.98835593 171.7867042 390.49425473 169.5 388 C168.58332596 387.00000675 167.6666593 386.00000676 166.75 385 C166.29625 384.505 165.8425 384.01 165.375 383.5 C149.33333333 366 133.29166667 348.5 117.25 331 C116.79608887 330.50483887 116.34217773 330.00967773 115.87451172 329.49951172 C114.95941367 328.50119339 114.04437445 327.50282114 113.12939453 326.50439453 C110.81421148 323.9782158 108.4979599 321.45303168 106.1796875 318.9296875 C105.71530273 318.4238916 105.25091797 317.9180957 104.77246094 317.39697266 C103.84644606 316.38845121 102.92001871 315.38030833 101.99316406 314.37255859 C99.04057348 311.1560789 96.14028912 307.89739513 93.25 304.625 C86.24704285 296.45864865 86.24704285 296.45864865 76.57421875 292.76171875 C69.39315657 292.57709063 63.51034708 293.81341873 56.66796875 295.91015625 C36.35345509 301.94609801 15.59990129 301.24996939 -5 297 C-5.8161377 296.83902832 -6.63227539 296.67805664 -7.47314453 296.51220703 C-38.39458752 290.30166832 -66.97807567 276.58577514 -93 259 C-94.11544189 258.24952393 -94.11544189 258.24952393 -95.25341797 257.48388672 C-103.91951928 251.61403234 -112.16643059 245.43138522 -120.05078125 238.546875 C-122.66320807 236.29084548 -125.33559891 234.17637681 -128.0625 232.0625 C-133.81539294 227.38880559 -139.00974281 222.17300757 -144.25 216.9375 C-145.10215088 216.08615479 -145.95430176 215.23480957 -146.83227539 214.35766602 C-151.75179835 209.39483317 -156.48317004 204.33160085 -161 199 C-161.51111328 198.40098877 -162.02222656 197.80197754 -162.54882812 197.18481445 C-175.21804005 182.21229426 -186.38572587 166.09720128 -196 149 C-196.4031543 148.28408691 -196.80630859 147.56817383 -197.22167969 146.83056641 C-203.8542947 134.92907545 -209.31085819 122.78723086 -214 110 C-214.31066406 109.16243164 -214.62132812 108.32486328 -214.94140625 107.46191406 C-220.02720916 93.5823536 -223.37068778 79.53634041 -226 65 C-226.17958252 64.07606445 -226.35916504 63.15212891 -226.54418945 62.20019531 C-227.09099031 58.36116711 -227.20000723 54.56917345 -227.23828125 50.69921875 C-227.246353 49.90457718 -227.25442474 49.10993561 -227.26274109 48.29121399 C-227.27652648 46.60944763 -227.28727325 44.92765395 -227.29516602 43.24584961 C-227.30658915 41.55989118 -227.32688406 39.87396607 -227.35668945 38.18823242 C-227.74404272 16.21296762 -223.12644646 -3.58383314 -209 -21 C-208.43410156 -21.72960937 -207.86820313 -22.45921875 -207.28515625 -23.2109375 C-194.43778521 -38.99053204 -172.05635507 -47.2541641 -152.42236328 -49.47827148 C-98.35760095 -54.62517578 -42.99382159 -31.32557172 0 0 Z " fill="#AB3428" transform="translate(734,595)"/>
<path d="M0 0 C1.32966189 4.37871414 1.32966189 4.37871414 -0.1171875 7.10546875 C-0.69726562 7.79253906 -1.27734375 8.47960937 -1.875 9.1875 C-2.5246875 9.96738281 -3.174375 10.74726563 -3.84375 11.55078125 C-6.7622495 14.865816 -9.7121832 18.14959004 -12.69140625 21.41015625 C-14.985288 23.98349567 -17.15491593 26.62429851 -19.3125 29.3125 C-23.20255931 34.12585437 -27.32871834 38.6476145 -31.55566406 43.16113281 C-35.47878593 47.37393141 -39.11896414 51.76395352 -42.72265625 56.25390625 C-45.66077451 59.79678299 -48.78231178 63.15441772 -51.91650391 66.52197266 C-54.88730066 69.73316873 -57.69968321 73.02636841 -60.4375 76.4375 C-64.28045479 81.21541338 -68.36831329 85.68994984 -72.55615234 90.16162109 C-76.47906854 94.37429105 -80.11911024 98.76413555 -83.72265625 103.25390625 C-86.66077451 106.79678299 -89.78231178 110.15441772 -92.91650391 113.52197266 C-95.88730066 116.73316873 -98.69968321 120.02636841 -101.4375 123.4375 C-105.28045479 128.21541338 -109.36831329 132.68994984 -113.55615234 137.16162109 C-117.47906854 141.37429105 -121.11911024 145.76413555 -124.72265625 150.25390625 C-127.21828029 153.26320933 -129.83795855 156.13908623 -132.5 159 C-137.58256814 164.47251466 -142.36598685 170.13986664 -147 176 C-147.60070313 176.75539063 -148.20140625 177.51078125 -148.8203125 178.2890625 C-154.54111982 185.66807484 -155.94409404 191.63076296 -155 201 C-153.17269905 208.00283 -148.94411058 212.90492421 -144 218 C-143.22140625 218.84046875 -142.4428125 219.6809375 -141.640625 220.546875 C-135.16271316 227.34667066 -129.3064339 233.07758798 -119.5625 233.625 C-107.76833023 232.93796098 -100.47063704 225.16306429 -92.44970703 217.38916016 C-90.620924 215.63675607 -88.73019961 213.96675805 -86.8125 212.3125 C-83.84273211 209.74286926 -80.91488929 207.13180445 -78 204.5 C-75.01937279 201.81016569 -72.02754767 199.13689636 -69 196.5 C-64.28298716 192.38918961 -59.64361111 188.19332155 -55 184 C-49.72014424 179.23213025 -44.42708194 174.48487782 -39.0625 169.8125 C-36.69035571 167.72788836 -34.34443935 165.61571356 -32 163.5 C-29.01937279 160.81016569 -26.02754767 158.13689636 -23 155.5 C-18.28298716 151.38918961 -13.64361111 147.19332155 -9 143 C-3.72014424 138.23213025 1.57291806 133.48487782 6.9375 128.8125 C10.1751333 125.9673071 13.3668629 123.07146164 16.56640625 120.18359375 C18.67511146 118.29151315 20.79919801 116.42094242 22.9375 114.5625 C26.16559512 111.75177475 29.33738443 108.884201 32.5 106 C36.28873469 102.54479904 40.1075196 99.13367444 43.98046875 95.7734375 C46.30541377 93.731803 48.58811837 91.64665651 50.875 89.5625 C52.57883987 88.03663418 54.28723264 86.51583798 56 85 C56.86238281 84.23558594 57.72476562 83.47117187 58.61328125 82.68359375 C66.93058133 75.62840294 66.93058133 75.62840294 73 76 C75 77 75 77 76 79 C75.78784829 84.89074574 73.94730714 87.91886412 69.875 91.9375 C68.8639149 92.98503232 67.85349742 94.03320944 66.84375 95.08203125 C66.35261719 95.58299316 65.86148437 96.08395508 65.35546875 96.60009766 C63.62714837 98.38507407 61.99488521 100.24150139 60.375 102.125 C57.78290171 105.11397458 55.15113994 108.06321535 52.5 111 C49.81016569 113.98062721 47.13689636 116.97245233 44.5 120 C41.10746907 123.89512811 37.64805799 127.72782763 34.1875 131.5625 C32.27445851 133.69417481 30.38112388 135.8401911 28.5 138 C25.10625985 141.89651647 21.64569997 145.73064945 18.18359375 149.56640625 C16.29151315 151.67511146 14.42094242 153.79919801 12.5625 155.9375 C8.91062947 160.13164365 5.15733816 164.23094292 1.41015625 168.33984375 C-1.16993136 171.18755795 -3.70201856 174.07244018 -6.22265625 176.97265625 C-8.29359487 179.33489173 -10.39512848 181.66795853 -12.5 184 C-15.18983431 186.98062721 -17.86310364 189.97245233 -20.5 193 C-23.89253093 196.89512811 -27.35194201 200.72782763 -30.8125 204.5625 C-32.72554149 206.69417481 -34.61887612 208.8401911 -36.5 211 C-39.89253093 214.89512811 -43.35194201 218.72782763 -46.8125 222.5625 C-48.72554149 224.69417481 -50.61887612 226.8401911 -52.5 229 C-55.13689636 232.02754767 -57.81016569 235.01937279 -60.5 238 C-61.25925781 238.84433594 -62.01851562 239.68867187 -62.80078125 240.55859375 C-64.16795915 242.0763312 -65.53956096 243.59011046 -66.91796875 245.09765625 C-74.33953988 253.33838535 -80.76380798 261.47153591 -80.41015625 272.98828125 C-78.68897876 285.62664168 -68.40235014 295.19077034 -59 303 C-52.7814816 307.48357126 -47.56916645 309.85302373 -39.78125 308.66015625 C-29.68749128 305.94123885 -22.23965194 297.37178606 -14.78125 290.5 C-12.10534468 288.09469185 -9.36540076 285.81770751 -6.5625 283.5625 C-2.0260327 279.90364231 2.258661 276.05131037 6.52148438 272.08398438 C9.73281228 269.1129881 13.02618789 266.30046168 16.4375 263.5625 C20.62237307 260.19653735 24.58314398 256.66823983 28.5 253 C33.26091334 248.54127805 38.16467563 244.36202376 43.25390625 240.27734375 C46.26318958 237.7817361 49.13940286 235.16236519 52 232.5 C55.70861688 229.04838064 59.48505895 225.73477852 63.4375 222.5625 C67.62237307 219.19653735 71.58314398 215.66823983 75.5 212 C80.26091334 207.54127805 85.16467563 203.36202376 90.25390625 199.27734375 C93.26318958 196.7817361 96.13940286 194.16236519 99 191.5 C102.70861688 188.04838064 106.48505895 184.73477852 110.4375 181.5625 C114.62239032 178.19652347 118.58300618 174.66811291 122.5 171 C128.13320154 165.72769762 133.95772728 160.80283216 140 156 C140.86238281 155.26523437 141.72476562 154.53046875 142.61328125 153.7734375 C145.62419565 151.53619505 147.32970826 151.51062777 151 152 C151.66 152.66 152.32 153.32 153 154 C152.6988155 157.84637708 151.6045452 159.90811264 149 162.6875 C148.36835937 163.37457031 147.73671875 164.06164062 147.0859375 164.76953125 C146.05339844 165.87361328 146.05339844 165.87361328 145 167 C143.53921644 168.62279774 142.08097373 170.2478855 140.625 171.875 C138.30841797 174.44372701 135.99014095 177.01091774 133.671875 179.578125 C129.68295423 184.00121401 125.72432093 188.44615005 121.8125 192.9375 C118.96852205 196.17375077 116.07387299 199.36408668 113.1875 202.5625 C111.27445851 204.69417481 109.38112388 206.8401911 107.5 209 C102.62856797 214.58979989 97.6410485 220.07534898 92.671875 225.578125 C88.68295423 230.00121401 84.72432093 234.44615005 80.8125 238.9375 C77.96852205 242.17375077 75.07387299 245.36408668 72.1875 248.5625 C70.27445851 250.69417481 68.38112388 252.8401911 66.5 255 C61.62856797 260.58979989 56.6410485 266.07534898 51.671875 271.578125 C47.68295423 276.00121401 43.72432093 280.44615005 39.8125 284.9375 C36.96852205 288.17375077 34.07387299 291.36408668 31.1875 294.5625 C29.27445851 296.69417481 27.38112388 298.8401911 25.5 301 C20.62856797 306.58979989 15.6410485 312.07534898 10.671875 317.578125 C6.68295423 322.00121401 2.72432093 326.44615005 -1.1875 330.9375 C-4.0326929 334.1751333 -6.92853836 337.3668629 -9.81640625 340.56640625 C-11.70848685 342.67511146 -13.57905758 344.79919801 -15.4375 346.9375 C-19.10681517 351.1529458 -22.87892323 355.27197353 -26.65625 359.390625 C-28.53806649 361.48571403 -30.30961959 363.61166126 -32.0625 365.8125 C-39.22071478 374.12398272 -49.52425425 378.16694328 -60.27895355 379.36538887 C-63.70610836 379.50507836 -67.11213576 379.5265457 -70.54199219 379.49829102 C-72.46899208 379.50656921 -72.46899208 379.50656921 -74.43492126 379.51501465 C-77.20022611 379.52684927 -79.96515048 379.52656767 -82.73046112 379.51642036 C-87.11115366 379.50069479 -91.49146482 379.51464841 -95.87213135 379.53245544 C-104.37623815 379.56310302 -112.88022469 379.56478244 -121.38437653 379.56280518 C-132.22314894 379.56140693 -143.06182962 379.57188076 -153.90053487 379.6113829 C-158.24769218 379.6262382 -162.59450401 379.62610663 -166.94166613 379.61390507 C-168.99579316 379.61031473 -171.04977786 379.61352631 -173.10389709 379.61968994 C-175.59734852 379.62704053 -178.09086441 379.62387422 -180.58427429 379.60771179 C-189.86688614 379.66408742 -197.39224314 380.800415 -204.33984375 387.2890625 C-206.63384744 389.65323572 -208.79825189 392.1053294 -210.93359375 394.61328125 C-213.47726945 397.55125072 -216.10780519 400.40075503 -218.75 403.25 C-219.79297546 404.37629587 -220.83594416 405.502598 -221.87890625 406.62890625 C-222.65838623 407.47026123 -222.65838623 407.47026123 -223.45361328 408.32861328 C-229.15708178 414.49311365 -234.83048997 420.68507875 -240.4375 426.9375 C-244.89643915 431.90512383 -249.42438331 436.80683252 -253.95703125 441.70703125 C-256.83394762 444.81782841 -259.70049617 447.93798345 -262.5625 451.0625 C-263.01222168 451.55347168 -263.46194336 452.04444336 -263.92529297 452.55029297 C-264.83062602 453.53884515 -265.73589963 454.52745177 -266.64111328 455.51611328 C-268.92642496 458.01164407 -271.2132958 460.50574527 -273.5 463 C-274.41667404 463.99999325 -275.3333407 464.99999324 -276.25 466 C-288.16666667 479 -300.08333333 492 -312 505 C-315.11159151 503.6094672 -317.30433009 501.97662583 -319.7578125 499.62109375 C-320.46075439 498.95166748 -321.16369629 498.28224121 -321.88793945 497.5925293 C-322.62616943 496.88136963 -323.36439941 496.17020996 -324.125 495.4375 C-325.66200657 493.97316667 -327.19976233 492.50961929 -328.73828125 491.046875 C-329.47643066 490.34369141 -330.21458008 489.64050781 -330.97509766 488.91601562 C-334.12053762 485.93971796 -337.34166167 483.05270308 -340.57421875 480.171875 C-343.61323696 477.45095049 -346.62009851 474.69598988 -349.625 471.9375 C-350.42611206 471.20213013 -350.42611206 471.20213013 -351.2434082 470.4519043 C-352.49594156 469.30163539 -353.74802195 468.15087329 -355 467 C-353.9254319 463.77629571 -353.3944369 463.25431079 -350.875 461.1875 C-346.66846559 457.62405089 -342.6417117 453.8986846 -338.625 450.125 C-333.6369895 445.44874016 -328.61299676 440.8228779 -323.515625 436.265625 C-319.96731202 433.0699394 -316.46422274 429.82624735 -312.95874023 426.58374023 C-307.81509423 421.826075 -302.6515806 417.09040202 -297.48388672 412.35888672 C-294.98835593 410.07357504 -292.49425473 407.7867042 -290 405.5 C-289.00000675 404.58332596 -288.00000676 403.6666593 -287 402.75 C-286.2575 402.069375 -286.2575 402.069375 -285.5 401.375 C-257 375.25 -257 375.25 -255.49829102 373.8737793 C-254.50352756 372.96168316 -253.50922011 372.04908942 -252.51538086 371.13598633 C-249.93887556 368.76999779 -247.35379439 366.4145067 -244.75390625 364.07421875 C-244.21958984 363.59082031 -243.68527344 363.10742188 -243.13476562 362.609375 C-241.65603738 361.27209032 -240.17383696 359.93864793 -238.69140625 358.60546875 C-233.43723704 353.51906692 -228.86322211 348.84882581 -228.59912109 341.2409668 C-228.54396835 339.73527885 -228.54396835 339.73527885 -228.48770142 338.19917297 C-228.45824432 337.06481308 -228.42878723 335.93045319 -228.3984375 334.76171875 C-228.36100433 333.52346848 -228.32357117 332.2852182 -228.28500366 331.00944519 C-227.91026873 317.49563105 -227.86960053 303.97503067 -227.7890625 290.45703125 C-227.77819736 288.67082682 -227.77819736 288.67082682 -227.76711273 286.84853745 C-227.69977854 275.61855356 -227.63568177 264.38857645 -227.59863281 253.15844727 C-227.57765922 246.95870803 -227.54238376 240.75918906 -227.49787521 234.55957603 C-227.48379327 232.22056345 -227.47501059 229.88151229 -227.47182083 227.54245949 C-227.46689482 224.28563856 -227.44370836 221.02940567 -227.41650391 217.77270508 C-227.42101311 216.35210281 -227.42101311 216.35210281 -227.4256134 214.90280151 C-227.2572295 201.28097981 -221.97776553 191.90663932 -212.5625 182.3125 C-209.16354585 179.03411685 -205.67092039 175.88228604 -202.08984375 172.8046875 C-197.9990372 169.27206577 -194.01129268 165.62231885 -190 162 C-184.72014424 157.23213025 -179.42708194 152.48487782 -174.0625 147.8125 C-171.69035571 145.72788836 -169.34443935 143.61571356 -167 141.5 C-163.38323655 138.23609152 -159.73610392 135.01209051 -156.0625 131.8125 C-153.69035571 129.72788836 -151.34443935 127.61571356 -149 125.5 C-146.01937279 122.81016569 -143.02754767 120.13689636 -140 117.5 C-135.28298716 113.38918961 -130.64361111 109.19332155 -126 105 C-120.72014424 100.23213025 -115.42708194 95.48487782 -110.0625 90.8125 C-107.69035571 88.72788836 -105.34443935 86.61571356 -103 84.5 C-99.38323655 81.23609152 -95.73610392 78.01209051 -92.0625 74.8125 C-89.69035571 72.72788836 -87.34443935 70.61571356 -85 68.5 C-82.01937279 65.81016569 -79.02754767 63.13689636 -76 60.5 C-71.28298716 56.38918961 -66.64361111 52.19332155 -62 48 C-56.72014424 43.23213025 -51.42708194 38.48487782 -46.0625 33.8125 C-43.69035571 31.72788836 -41.34443935 29.61571356 -39 27.5 C-35.38112436 24.2341854 -31.73316615 21.00694969 -28.0546875 17.80859375 C-25.71979109 15.75335223 -23.42420466 13.65756967 -21.125 11.5625 C-19.41972088 10.03824282 -17.71133612 8.51745363 -16 7 C-15.12601563 6.21238281 -14.25203125 5.42476563 -13.3515625 4.61328125 C-12.06378906 3.50533203 -12.06378906 3.50533203 -10.75 2.375 C-9.98171875 1.70210938 -9.2134375 1.02921875 -8.421875 0.3359375 C-5.23924962 -1.41963973 -3.43873833 -0.90440806 0 0 Z " fill="#AB3428" transform="translate(1367,487)"/>
<path d="M0 0 C3.8020499 2.7651272 6.69459969 5.85746353 9.72265625 9.40234375 C12.69915166 12.7974886 15.78525756 16.0830675 18.875 19.375 C23.53855203 24.34998473 28.16530388 29.34852483 32.6875 34.453125 C34.51034558 36.46071844 36.36074935 38.41558478 38.25 40.359375 C39.08797119 41.23311768 39.08797119 41.23311768 39.94287109 42.12451172 C41.04499621 43.27142567 42.15703217 44.40891603 43.27978516 45.53564453 C46.9792825 49.41227731 46.9792825 49.41227731 47.07421875 52.10546875 C45.69617633 54.53583447 44.09971741 56.394356 42.1875 58.4375 C41.37410156 59.31535156 40.56070312 60.19320313 39.72265625 61.09765625 C38.82417969 62.05542969 37.92570312 63.01320313 37 64 C36.03920539 65.03929414 35.07959872 66.07968758 34.12109375 67.12109375 C32.09797254 69.31912649 30.071958 71.51441383 28.04296875 73.70703125 C25.16605238 76.81782841 22.29950383 79.93798345 19.4375 83.0625 C18.76291748 83.79895752 18.76291748 83.79895752 18.07470703 84.55029297 C17.16937398 85.53884515 16.26410037 86.52745177 15.35888672 87.51611328 C13.07357504 90.01164407 10.7867042 92.50574527 8.5 95 C7.58332596 95.99999325 6.6666593 96.99999324 5.75 98 C-39.625 147.5 -85 197 -133.12548828 249.50048828 C-134.04058633 250.49880661 -134.95562555 251.49717886 -135.87060547 252.49560547 C-138.18578852 255.0217842 -140.5020401 257.54696832 -142.8203125 260.0703125 C-147.04766751 264.67349765 -151.26526083 269.28413776 -155.4375 273.9375 C-159.89643915 278.90512383 -164.42438331 283.80683252 -168.95703125 288.70703125 C-171.83394762 291.81782841 -174.70049617 294.93798345 -177.5625 298.0625 C-178.01222168 298.55347168 -178.46194336 299.04444336 -178.92529297 299.55029297 C-179.83062602 300.53884515 -180.73589963 301.52745177 -181.64111328 302.51611328 C-183.92642496 305.01164407 -186.2132958 307.50574527 -188.5 310 C-189.41667404 310.99999325 -190.3333407 311.99999324 -191.25 313 C-229.75 355 -268.25 397 -306.75 439 C-307.2042334 439.49564453 -307.6584668 439.99128906 -308.12646484 440.50195312 C-309.03777659 441.49587578 -309.94955609 442.48936978 -310.86181641 443.48242188 C-313.2395462 446.07197805 -315.60724671 448.66981077 -317.9609375 451.28125 C-318.44884766 451.82007813 -318.93675781 452.35890625 -319.43945312 452.9140625 C-320.79283433 454.40922649 -322.14262845 455.90763517 -323.4921875 457.40625 C-327.9092447 461.97467053 -331.86316273 465.57773344 -338.25 466.4375 C-345.8461186 465.55128616 -351.3293761 460.11685608 -356.53613281 454.85205078 C-357.43532944 453.96073959 -357.43532944 453.96073959 -358.35269165 453.05142212 C-360.3103934 451.1068054 -362.25705408 449.15156339 -364.203125 447.1953125 C-365.57172659 445.82873467 -366.94077301 444.4626022 -368.3102417 443.09689331 C-371.16941046 440.24213212 -374.02312187 437.38205485 -376.87304688 434.51806641 C-380.51660974 430.85739665 -384.17349892 427.2103836 -387.83458328 423.56724739 C-390.66080334 420.75189356 -393.47980767 417.9294017 -396.29671478 415.10473251 C-397.64205851 413.75739548 -398.98961239 412.41226141 -400.33945465 411.0694313 C-402.22749449 409.18905436 -404.10557889 407.29924959 -405.98144531 405.40673828 C-406.53424164 404.86001465 -407.08703796 404.31329102 -407.65658569 403.75 C-412.02115708 399.31382097 -415.64315478 394.85476173 -416.4375 388.5 C-415.51831162 381.14649294 -412.58455026 376.99326838 -407.0625 372.25 C-405.88794805 371.20450884 -404.71347051 370.1589341 -403.5390625 369.11328125 C-402.94641602 368.59330566 -402.35376953 368.07333008 -401.74316406 367.53759766 C-399.10477707 365.21034818 -396.52316296 362.82294665 -393.9375 360.4375 C-392.9470131 359.529513 -391.95612768 358.62196053 -390.96484375 357.71484375 C-387.97545295 354.97777212 -384.98761423 352.23901054 -382 349.5 C-381.00000675 348.58332596 -380.00000676 347.6666593 -379 346.75 C-378.505 346.29625 -378.01 345.8425 -377.5 345.375 C-364 333 -350.5 320.625 -337 308.25 C-336.2572583 307.5691333 -336.2572583 307.5691333 -335.49951172 306.87451172 C-334.50119339 305.95941367 -333.50282114 305.04437445 -332.50439453 304.12939453 C-329.9782158 301.81421148 -327.45303168 299.4979599 -324.9296875 297.1796875 C-320.32650235 292.95233249 -315.71586224 288.73473917 -311.0625 284.5625 C-306.09487617 280.10356085 -301.19316748 275.57561669 -296.29296875 271.04296875 C-291.70429271 266.79928568 -287.09368397 262.57959459 -282.48388672 258.35888672 C-279.98835593 256.07357504 -277.49425473 253.7867042 -275 251.5 C-274.00000675 250.58332596 -273.00000676 249.6666593 -272 248.75 C-271.505 248.29625 -271.01 247.8425 -270.5 247.375 C-244.25 223.3125 -244.25 223.3125 -218 199.25 C-217.50483887 198.79608887 -217.00967773 198.34217773 -216.49951172 197.87451172 C-215.50119339 196.95941367 -214.50282114 196.04437445 -213.50439453 195.12939453 C-210.9782158 192.81421148 -208.45303168 190.4979599 -205.9296875 188.1796875 C-201.32650235 183.95233249 -196.71586224 179.73473917 -192.0625 175.5625 C-187.09487617 171.10356085 -182.19316748 166.57561669 -177.29296875 162.04296875 C-172.70429271 157.79928568 -168.09368397 153.57959459 -163.48388672 149.35888672 C-160.98835593 147.07357504 -158.49425473 144.7867042 -156 142.5 C-155.00000675 141.58332596 -154.00000676 140.6666593 -153 139.75 C-152.505 139.29625 -152.01 138.8425 -151.5 138.375 C-138 126 -124.5 113.625 -111 101.25 C-110.50483887 100.79608887 -110.00967773 100.34217773 -109.49951172 99.87451172 C-108.50119339 98.95941367 -107.50282114 98.04437445 -106.50439453 97.12939453 C-103.9782158 94.81421148 -101.45303168 92.4979599 -98.9296875 90.1796875 C-94.32650235 85.95233249 -89.71586224 81.73473917 -85.0625 77.5625 C-80.09487617 73.10356085 -75.19316748 68.57561669 -70.29296875 64.04296875 C-65.70429271 59.79928568 -61.09368397 55.57959459 -56.48388672 51.35888672 C-53.98835593 49.07357504 -51.49425473 46.7867042 -49 44.5 C-48.00000675 43.58332596 -47.00000676 42.6666593 -46 41.75 C-45.2575 41.069375 -45.2575 41.069375 -44.5 40.375 C-39 35.33333333 -33.5 30.29166667 -28 25.25 C-27.50459717 24.79584717 -27.00919434 24.34169434 -26.4987793 23.8737793 C-25.50298353 22.96103409 -24.50705344 22.04843541 -23.51098633 21.13598633 C-20.94551673 18.78553072 -18.38273078 16.43224744 -15.82421875 14.07421875 C-10.62675099 9.28847134 -5.40865519 4.54818732 0 0 Z " fill="#AB3428" transform="translate(910,1046)"/>
<path d="M0 0 C1.3181688 0.7170462 2.62638887 1.4525894 3.92578125 2.203125 C4.65361816 2.6043457 5.38145508 3.00556641 6.13134766 3.41894531 C10.14139466 5.6443987 14.10226311 7.95303141 18.0625 10.265625 C37.51406196 21.60553668 57.54836674 31.21293055 78.48828125 39.453125 C79.1675769 39.72075653 79.84687256 39.98838806 80.54675293 40.26412964 C113.10081756 53.02697113 147.29295451 62.24032391 181.94775391 66.98388672 C185.3190226 67.46463894 188.67224852 68.02243419 192.03125 68.58203125 C211.46566523 71.56338182 230.87097006 71.83005757 250.49107742 71.82829285 C252.63882284 71.82812784 254.78655232 71.83084657 256.93429565 71.83361816 C280.68994428 71.84426342 304.47252618 71.23915713 327.92578125 67.140625 C329.21629395 66.9226123 330.50680664 66.70459961 331.83642578 66.47998047 C381.34604622 58.03325324 439.84152904 43.71762648 482.23828125 15.453125 C487.48788087 14.33664573 491.79752767 15.34602221 496.48828125 17.828125 C501.79046123 21.32987627 504.3765965 25.42837637 506.23828125 31.453125 C507.26191118 36.50672142 506.26292674 41.03411707 503.7175293 45.46289062 C498.95618217 51.86898103 489.85721035 55.38589337 482.86328125 58.828125 C481.41828247 59.54246704 481.41828247 59.54246704 479.9440918 60.27124023 C463.26084709 68.43100081 446.00584013 74.93840753 428.55273438 81.25244141 C426.44016134 82.01773561 424.32928688 82.78774671 422.22070312 83.56396484 C384.32884574 97.50615914 344.14996754 105.33291124 304.01171875 109.09472656 C300.65645381 109.41340727 297.3073198 109.76623872 293.95703125 110.1328125 C254.66268693 114.20768338 214.19548408 111.29724605 175.23828125 105.453125 C174.14418945 105.29054199 173.05009766 105.12795898 171.92285156 104.96044922 C153.16808996 102.1267679 134.6777967 98.31334549 116.53515625 92.75 C113.53756403 91.83214336 110.52986571 90.97572972 107.50390625 90.15625 C83.60369276 83.65094929 60.71510255 74.81421579 38.23828125 64.453125 C37.33029785 64.04094727 36.42231445 63.62876953 35.48681641 63.20410156 C22.18950413 57.16053279 9.45975559 50.31023148 -3.15869141 42.95898438 C-5.53792835 41.58258844 -7.93210158 40.2390488 -10.3359375 38.90625 C-24.22899303 31.10303044 -24.22899303 31.10303044 -26.76171875 24.453125 C-27.86610368 18.32962484 -27.28923408 12.67242589 -24.171875 7.2421875 C-18.2448175 -0.27745886 -9.0718513 -4.35830333 0 0 Z " fill="#F4EC9C" transform="translate(751.76171875,1408.546875)"/>
<path d="M0 0 C10.76923298 5.40573263 15.13293757 24.11373664 19.0546875 34.8125 C19.33249054 35.56456726 19.61029358 36.31663452 19.89651489 37.0914917 C33.60494205 74.32361702 42.84349545 113.00721712 47.6796875 152.375 C47.78023437 153.19162109 47.88078125 154.00824219 47.984375 154.84960938 C48.61092616 160.01865647 49.2155595 165.18856187 49.6796875 170.375 C49.76871338 171.35025635 49.85773926 172.3255127 49.94946289 173.33032227 C50.95382537 186.01724237 50.8779665 198.71861234 50.8671875 211.4375 C50.86677963 213.23805344 50.86677963 213.23805344 50.86636353 215.07498169 C50.84741707 233.25130544 50.5527309 251.28063862 48.6796875 269.375 C48.58316895 270.32971191 48.48665039 271.28442383 48.38720703 272.26806641 C42.40532585 328.87493216 26.47833436 383.75011169 2.6796875 435.375 C2.24188965 436.33954102 1.8040918 437.30408203 1.35302734 438.29785156 C-5.59713051 453.57841351 -13.65269434 468.00840388 -22.3203125 482.375 C-23.30380279 484.0244908 -24.28690015 485.67421597 -25.26953125 487.32421875 C-29.70813902 494.73204822 -34.30867768 502.0242658 -39.1328125 509.1875 C-39.56489014 509.83976562 -39.99696777 510.49203125 -40.44213867 511.1640625 C-44.01263895 516.36947246 -48.25073846 521.09263951 -54.3203125 523.375 C-60.72625995 524.4105479 -66.05083953 523.11425483 -71.3203125 519.375 C-75.97248978 515.06524186 -78.1261993 510.78200369 -78.6328125 504.5 C-78.81324091 497.86578633 -74.72615448 492.2035216 -71.0703125 487 C-28.00418628 423.82066224 -2.22084558 351.75102665 8.6796875 276.375 C8.78108032 275.67604614 8.88247314 274.97709229 8.98693848 274.25695801 C14.3849985 236.36829303 14.0778292 195.30947892 8.9296875 157.375 C8.75630859 156.06901855 8.58292969 154.76303711 8.40429688 153.41748047 C3.20075649 114.91930313 -5.80640754 77.0164008 -20.2734375 40.88671875 C-20.52575134 40.25514862 -20.77806519 39.62357849 -21.0380249 38.97286987 C-22.2770954 35.88143205 -23.53399081 32.79986744 -24.81542969 29.72558594 C-29.13120588 19.13620443 -29.13120588 19.13620443 -28.3203125 13.375 C-25.83535347 7.7092934 -22.4133083 3.89637529 -17.3203125 0.375 C-11.7808252 -1.47149577 -5.64742931 -1.52119308 0 0 Z " fill="#F4EC9D" transform="translate(1475.3203125,783.625)"/>
<path d="M0 0 C3.58466207 0.01710716 7.16865627 0.00687112 10.7532959 -0.01030636 C37.65868888 -0.11969836 64.07515569 2.07849497 90.61108398 6.70361328 C91.49642822 6.8548465 92.38177246 7.00607971 93.29394531 7.16189575 C130.90996585 13.59937618 168.0676017 24.36421401 203.23608398 39.26611328 C204.08404541 39.62310303 204.93200684 39.98009277 205.80566406 40.34790039 C211.16887737 42.69302748 215.58990386 45.06375517 219.04858398 49.95361328 C221.01270595 55.63922949 221.34832723 61.18290944 219.35717773 66.92626953 C216.7847008 72.01179323 213.63579074 76.23123058 208.23608398 78.39111328 C199.43011836 80.30866023 191.54040102 76.62426095 183.55786133 73.33691406 C139.85526234 55.53419393 94.37040418 44.78890083 47.42286682 40.58705139 C45.78992781 40.44073829 44.15764501 40.28706707 42.52574158 40.12962341 C35.16234523 39.45464196 27.86648161 39.23057927 20.47436523 39.22314453 C18.69101021 39.21815193 18.69101021 39.21815193 16.87162781 39.21305847 C14.3647805 39.20802491 11.85792657 39.20564903 9.35107422 39.20581055 C5.60364046 39.2036451 1.85651191 39.18550861 -1.89086914 39.16650391 C-17.61485166 39.12933566 -33.11800491 39.83968028 -48.76391602 41.39111328 C-49.5334964 41.46445892 -50.30307678 41.53780457 -51.09597778 41.6133728 C-55.55605339 42.04046038 -60.00426084 42.53380765 -64.45141602 43.07861328 C-65.10393341 43.15837402 -65.75645081 43.23813477 -66.42874146 43.3203125 C-80.43862367 45.06863775 -93.98261008 48.16163887 -107.66625977 51.62304688 C-110.21364309 52.25467266 -112.75816542 52.84117751 -115.32641602 53.37939453 C-144.56318942 59.59810339 -172.99192317 70.97209114 -199.93579102 83.65673828 C-200.92861084 84.12208984 -201.92143066 84.58744141 -202.94433594 85.06689453 C-204.74217194 85.9112501 -206.53696334 86.76214066 -208.32763672 87.62158203 C-214.31406085 90.42201517 -219.13433885 91.40153095 -225.76391602 90.39111328 C-231.65376948 87.55525791 -236.24986389 82.46027877 -238.76391602 76.39111328 C-239.56587561 70.95467141 -239.50750946 65.87513736 -236.76391602 61.01611328 C-230.70850015 53.05580507 -220.32573692 49.68062526 -211.45141602 45.70361328 C-210.77295624 45.39808533 -210.09449646 45.09255737 -209.39547729 44.777771 C-195.752084 38.65162888 -181.88762846 33.31232053 -167.76391602 28.39111328 C-166.75312988 28.0332373 -165.74234375 27.67536133 -164.70092773 27.30664062 C-148.94796182 21.74661965 -133.00192729 17.29880131 -116.76391602 13.39111328 C-115.80195312 13.1579541 -114.83999023 12.92479492 -113.84887695 12.68457031 C-102.74645188 10.03082944 -91.56229548 7.90860565 -80.29501343 6.08477783 C-78.45743312 5.78732153 -76.62100064 5.48279826 -74.78466797 5.17773438 C-49.93961666 1.31662378 -25.10973675 -0.12068992 0 0 Z " fill="#F4EC9D" transform="translate(1002.763916015625,479.60888671875)"/>
<path d="M0 0 C3.99583915 2.36395064 6.50410196 5.39677794 9.046875 9.2109375 C10.07755376 18.04284276 8.45572826 25.56698022 5.546875 33.8359375 C-5.34682606 67.03672218 -10.60922028 101.51143239 -13.953125 136.2109375 C-14.05101318 137.16830811 -14.14890137 138.12567871 -14.24975586 139.11206055 C-15.22813187 149.85499571 -15.1523327 160.62052813 -15.140625 171.3984375 C-15.14002075 172.42282928 -15.1394165 173.44722107 -15.13879395 174.50265503 C-15.11372254 190.16204322 -14.77959234 205.64199925 -12.953125 221.2109375 C-12.82953613 222.29842285 -12.70594727 223.3859082 -12.57861328 224.50634766 C-5.05746626 288.78708419 14.14902133 349.09379415 44.859375 406.0859375 C45.37411377 407.04177734 45.88885254 407.99761719 46.41918945 408.98242188 C49.59328741 414.78590492 53.00179601 420.37509988 56.63549805 425.90283203 C59.18266716 430.0683634 59.44162424 433.39499683 59.046875 438.2109375 C57.06315685 444.40109415 53.42258665 448.64277955 48.046875 452.2109375 C42.39764293 454.80016886 37.41994336 454.91869473 31.484375 453.1484375 C23.46260196 448.62707451 19.41074798 440.1836089 14.984375 432.3984375 C14.33170654 431.25552246 13.67903809 430.11260742 13.0065918 428.93505859 C-8.27497349 391.41252825 -25.15195496 351.02131861 -35.953125 309.2109375 C-36.2301123 308.15084473 -36.2301123 308.15084473 -36.51269531 307.06933594 C-37.37944127 303.73509699 -38.22070509 300.39616988 -39.02734375 297.046875 C-39.63562 294.52650675 -40.2626893 292.01058612 -40.91015625 289.5 C-46.57420633 267.1838127 -49.65862202 244.09424812 -51.953125 221.2109375 C-52.05753906 220.19660645 -52.16195313 219.18227539 -52.26953125 218.13720703 C-54.34891379 197.18216364 -54.26501739 176.24302945 -53.953125 155.2109375 C-53.93910645 154.14649414 -53.92508789 153.08205078 -53.91064453 151.98535156 C-53.70247886 140.10059414 -52.40256678 128.3262394 -51.078125 116.5234375 C-50.99703491 115.79684937 -50.91594482 115.07026123 -50.83239746 114.32165527 C-48.89536067 97.18349162 -45.94255978 80.34296772 -42.140625 63.5234375 C-41.96671234 62.74811676 -41.79279968 61.97279602 -41.61361694 61.17398071 C-38.68062386 48.11083825 -35.61689651 35.0915093 -31.953125 22.2109375 C-31.63480713 21.07712646 -31.63480713 21.07712646 -31.31005859 19.92041016 C-28.69872918 10.79195151 -26.1616979 3.72106271 -18.078125 -1.7265625 C-11.28529121 -4.03612599 -6.28373779 -3.05519665 0 0 Z " fill="#F4EC9D" transform="translate(539.953125,826.7890625)"/>
<path d="M0 0 C7.14533694 5.22829532 8.79707068 10.82149814 10.6875 19.1875 C10.94047852 20.25766357 11.19345703 21.32782715 11.45410156 22.43041992 C16.40943898 43.75595429 19.00108 65.03945712 19 86.9375 C19.00173218 87.78763672 19.00346436 88.63777344 19.00524902 89.51367188 C18.9942725 101.94602693 18.18559775 114.08385762 16.3125 126.375 C16.21017059 127.05072052 16.10784119 127.72644104 16.00241089 128.42263794 C12.3086367 152.16156066 5.29840796 175.63322133 -4 197.75 C-4.43449463 198.78817871 -4.86898926 199.82635742 -5.31665039 200.89599609 C-15.20650639 223.7595032 -15.20650639 223.7595032 -25.4375 228.875 C-31.44879686 229.52352165 -37.21264252 229.08622072 -42.4375 225.875 C-47.89917146 220.89927996 -50.0935288 217.20988267 -50.84765625 209.8984375 C-50.76442164 203.42727674 -47.7112363 198.1791836 -44.875 192.5 C-43.76175083 190.17695265 -42.65369332 187.85141037 -41.55078125 185.5234375 C-40.74374756 183.8213916 -40.74374756 183.8213916 -39.92041016 182.08496094 C-29.80740028 160.19397413 -24.55783084 136.67969488 -21.4375 112.875 C-21.3329248 112.10502686 -21.22834961 111.33505371 -21.12060547 110.54174805 C-20.12030944 102.12870369 -20.19375709 93.64793741 -20.1875 85.1875 C-20.18682526 84.36652832 -20.18615051 83.54555664 -20.18545532 82.69970703 C-20.20955704 64.18598749 -22.27455692 46.93791596 -26.79150391 28.97436523 C-28.63105408 21.51300546 -30.26852201 14.67789186 -26.8125 7.5 C-19.30541807 -0.79730108 -11.01388474 -3.6045441 0 0 Z " fill="#F4EC9D" transform="translate(1267.4375,913.125)"/>
<path d="M0 0 C5.15931419 4.15611421 7.49829586 9.17503531 10 15.125 C20.9907274 40.44430323 35.02755454 63.05397662 53.25 83.8125 C53.98863281 84.66328125 54.72726562 85.5140625 55.48828125 86.390625 C64.95104108 97.11623943 74.98329952 106.99104496 86.25 115.8125 C87.28279427 116.65696903 88.31398199 117.5034058 89.34375 118.3515625 C109.74022546 134.99765955 132.53180571 147.85739412 157.125 157.15625 C162.62429167 159.28001266 167.28139223 161.53497507 170.25 166.8125 C171.04797956 172.09206176 170.91907203 176.39715532 168.625 181.25 C165.0718404 185.0836722 162.33547042 187.65802071 156.98046875 188.0546875 C118.72834148 185.57130332 74.71697557 147.47070626 48.25 121.8125 C47.59789551 121.18230957 46.94579102 120.55211914 46.27392578 119.90283203 C38.38840562 112.24963753 31.04710431 104.46336003 24.25 95.8125 C23.57324219 95.02617188 22.89648438 94.23984375 22.19921875 93.4296875 C5.2310076 73.63861124 -22.43007891 37.34597869 -22.1640625 10.16796875 C-21.4285574 5.98391617 -18.92374968 3.47875271 -15.75 0.8125 C-10.93696351 -2.10065367 -5.1068565 -2.20523349 0 0 Z " fill="#F4EC9D" transform="translate(553.75,685.1875)"/>
<path d="M0 0 C4.58958756 4.8311448 5.36681523 9.07312102 5.28125 15.5546875 C4.64897475 21.0519695 2.45336731 25.54663269 -1.4375 29.4375 C-8.33750854 33.64482228 -14.45451693 34.08684695 -22.31640625 32.20703125 C-24.155047 31.6893557 -25.99360655 31.17128227 -27.82861328 30.64086914 C-33.08883556 29.15485308 -38.3504845 28.1515668 -43.75 27.3125 C-44.88296509 27.13400513 -44.88296509 27.13400513 -46.03881836 26.9519043 C-84.47909972 21.18731675 -126.71250052 24.26850184 -163.08276367 38.17114258 C-168.84218381 40.28697839 -174.44848785 40.91049913 -180.453125 39.37109375 C-185.3053356 36.8500539 -188.4897601 33.91274417 -191 29 C-192.75641733 23.41750161 -192.51854226 17.91212458 -191 12.3125 C-182.76561522 -1.32569979 -160.81895239 -3.83604774 -146.46566772 -7.41152954 C-107.42886723 -16.72827716 -34.98335802 -25.65446255 0 0 Z " fill="#F4EC9D" transform="translate(1089,734)"/>
<path d="M0 0 C1.72255723 0.64976075 3.43537449 1.32561979 5.140625 2.01953125 C13.39294905 5.09411141 22.03934607 7.09543505 30.55859375 9.29296875 C31.34717773 9.49986328 32.13576172 9.70675781 32.94824219 9.91992188 C65.9284888 18.45054244 104.10292901 18.00142025 137.29296875 10.91015625 C143.84544313 9.67176994 149.89461674 8.98044202 155.93359375 12.23046875 C160.95657033 15.90985077 163.88161119 20.70829061 165.03515625 26.81640625 C165.40136345 33.08047685 163.70714806 37.60151721 159.55859375 42.29296875 C155.78133394 45.86371171 152.16672851 47.29450498 147.18359375 48.41796875 C146.49112549 48.58337158 145.79865723 48.74877441 145.08520508 48.91918945 C138.96006377 50.32542588 132.81021159 51.18890594 126.5703125 51.8984375 C123.51627539 52.20133855 123.51627539 52.20133855 120.55859375 53.29296875 C111.00921695 54.8073134 101.191617 54.44525048 91.5534668 54.42333984 C88.76280229 54.41800072 85.97230012 54.42329986 83.18164062 54.4296875 C51.69577352 54.44474396 21.60958581 49.2265807 -8.12890625 38.73046875 C-8.87640137 38.47418701 -9.62389648 38.21790527 -10.39404297 37.95385742 C-16.69925537 35.60663508 -21.54569621 32.0448059 -25.37890625 26.48046875 C-27.26362201 20.82632147 -27.34722698 15.68531762 -24.94140625 10.16796875 C-19.08477768 0.04088184 -11.40907348 -3.30406768 0 0 Z " fill="#F4EC9D" transform="translate(919.44140625,1224.70703125)"/>
<path d="M0 0 C4.94754234 2.84458286 7.84443678 7.09581034 9.625 12.4375 C10.02219579 17.38859174 9.78191459 22.0788927 8.62890625 26.90625 C7.03905884 35.33818261 7.32780636 43.90184106 7.36425781 52.44970703 C7.37487554 55.40288315 7.36437446 58.35543738 7.3515625 61.30859375 C7.33884858 77.18877645 8.22078032 92.95741532 11.6875 108.5 C11.89012451 109.43481201 12.09274902 110.36962402 12.30151367 111.33276367 C14.36647818 120.29620094 17.38516348 128.90164577 20.67797852 137.48266602 C23.61760122 145.37742172 24.82002221 151.9561667 22.625 160.1875 C19.53215294 165.21337648 15.23171639 168.56859454 9.625 170.4375 C4.05954509 170.92738853 -0.78180952 171.20564541 -5.875 168.75 C-11.75977308 163.3065849 -14.11251901 157.69068912 -16.75 150.25 C-17.1413916 149.15010742 -17.5327832 148.05021484 -17.93603516 146.91699219 C-24.3562443 128.31816044 -28.26675398 108.98563636 -30.375 89.4375 C-30.46998779 88.56834961 -30.56497559 87.69919922 -30.6628418 86.80371094 C-31.54359233 77.68774718 -31.57287536 68.5869541 -31.5625 59.4375 C-31.56256042 58.62001282 -31.56262085 57.80252563 -31.56268311 56.96026611 C-31.54975385 44.67897596 -31.14881511 32.60784256 -29.375 20.4375 C-29.230625 19.30828125 -29.08625 18.1790625 -28.9375 17.015625 C-28.01005639 10.75538064 -26.61122075 6.31414067 -21.72265625 1.96875 C-15.15097336 -2.86929875 -7.44833556 -3.23229657 0 0 Z " fill="#F4EC9D" transform="translate(758.375,941.5625)"/>
<path d="M0 0 C3.88446678 2.58964452 6.69907021 5.64814041 8.8125 9.875 C8.87378818 16.0038175 7.58437192 19.98176076 3.8125 24.875 C-5.07173508 36.66638007 -5.63512307 48.30924785 -5.62329102 62.63110352 C-5.64926726 77.23148601 -5.64926726 77.23148601 -10.1875 83.875 C-15.18540573 87.01094085 -20.4034879 87.94103143 -26.1875 86.875 C-31.54968211 83.94097582 -33.63165622 80.11622313 -35.5 74.36328125 C-37.69613081 63.22041299 -36.85222842 50.85479722 -34.1875 39.875 C-34.03684082 39.24416504 -33.88618164 38.61333008 -33.73095703 37.96337891 C-30.38586225 24.34842543 -25.13292341 9.12804601 -13.875 0 C-8.98378518 -2.04748527 -4.85996845 -1.71528298 0 0 Z " fill="#F4EC9C" transform="translate(555.1875,574.125)"/>
<path d="M0 0 C6.78252241 2.71765453 10.42120924 7.35566123 14.09375 13.4765625 C16.66964891 20.32506019 16.29333564 28.67526917 13.46875 35.3515625 C9.92112752 42.11305901 5.82854757 46.54156371 -1.609375 48.94140625 C-8.91095934 50.32030257 -16.6564129 50.45256722 -23.140625 46.54296875 C-29.34393154 42.03818662 -32.40268564 36.48725558 -34.78125 29.3515625 C-35.68510435 20.31301903 -33.82752569 14.07854202 -28.96875 6.5390625 C-21.11853833 -1.31114917 -10.51312959 -2.45109482 0 0 Z " fill="#F4EC9C" transform="translate(583.78125,1406.6484375)"/>
<path d="M0 0 C6.26770343 3.81512383 10.00217945 7.72343582 13.125 14.4375 C15.0586954 22.97798803 14.53494039 31.19165165 9.875 38.75 C5.12622906 44.31977652 0.27074632 48.13024472 -7.125 48.75 C-8.33349609 48.85248047 -8.33349609 48.85248047 -9.56640625 48.95703125 C-16.98081452 49.26266335 -22.24727046 47.68693334 -28.375 43.5625 C-34.90401099 36.8851024 -36.55634799 29.30977697 -36.46484375 20.1796875 C-35.77710061 13.23901538 -32.75676972 7.91014099 -27.625 3.25 C-20.47564979 -2.55041621 -8.51011462 -3.44546676 0 0 Z " fill="#F4EC9C" transform="translate(1408.125,1407.25)"/>
<path d="M0 0 C0.99 0.33 1.98 0.66 3 1 C1.625 2.5 1.625 2.5 0 4 C-0.66 4 -1.32 4 -2 4 C-2.66 5.32 -3.32 6.64 -4 8 C-4.99 8 -5.98 8 -7 8 C-4.69 5.36 -2.38 2.72 0 0 Z " fill="#C47451" transform="translate(1296,632)"/>
</svg>
