<?xml version="1.0" encoding="UTF-8"?>
<svg version="1.1" xmlns="http://www.w3.org/2000/svg" width="2000" height="2000">
<path d="M0 0 C660 0 1320 0 2000 0 C2000 660 2000 1320 2000 2000 C1340 2000 680 2000 0 2000 C0 1340 0 680 0 0 Z " fill="#AA3428" transform="translate(0,0)"/>
<path d="M0 0 C660 0 1320 0 2000 0 C2000 660 2000 1320 2000 2000 C1340 2000 680 2000 0 2000 C0 1340 0 680 0 0 Z M930.32070923 182.75076294 C928.16526494 182.98225105 926.00956188 183.1880106 923.8503418 183.38061523 C870.3767332 188.21844823 816.81131876 198.20194931 765.53515625 214.22119141 C763.3320017 214.89800795 761.12513831 215.54515205 758.90625 216.16796875 C722.93389859 226.2943319 687.89724183 240.3485817 654.21484375 256.46240234 C651.38096583 257.81779141 648.54180348 259.16141626 645.70057678 260.50131226 C619.96207521 272.65406887 595.18338072 286.16623985 570.99023438 301.14941406 C568.48368536 302.70065847 565.97098843 304.24067363 563.453125 305.7734375 C539.63969142 320.34544067 517.05094236 336.90848043 495 354 C494.38141113 354.47679199 493.76282227 354.95358398 493.12548828 355.44482422 C485.92422876 360.99786024 478.90245795 366.71123745 472.03173828 372.66918945 C468.64084692 375.60831034 465.20165922 378.45778285 461.6875 381.25 C451.47954121 389.53450068 442.05127984 398.84847831 432.83007812 408.20556641 C431.00993989 409.99025371 429.1277273 411.65998702 427.1875 413.3125 C419.82558103 419.65998131 413.04713216 426.64809867 406.7421875 434.0390625 C404.7456211 436.28631885 402.63987054 438.38894927 400.5 440.5 C397.10731601 443.85256779 393.90899316 447.29475682 390.8046875 450.9140625 C388.78348724 453.25025501 386.70621161 455.52964851 384.625 457.8125 C380.72636603 462.13260791 377.02496142 466.58071381 373.3671875 471.10546875 C371.31608095 473.61350497 369.22575668 476.08098093 367.11303711 478.53710938 C360.63472211 486.08412008 354.58791637 493.92765379 348.60546875 501.87109375 C347.07675459 503.8982208 345.53956025 505.91860437 344 507.9375 C324.58796168 533.48067364 307.25752462 560.35943855 291 588 C290.49436523 588.85142578 289.98873047 589.70285156 289.46777344 590.58007812 C254.42324041 649.67478087 227.36172177 714.76074271 209.77246094 781.12646484 C208.98779654 784.04539658 208.17330381 786.95458551 207.3515625 789.86328125 C202.06533062 808.72997251 197.88499038 827.80344653 194 847 C193.63261719 848.80500977 193.63261719 848.80500977 193.2578125 850.64648438 C189.88479675 867.60084884 187.83074464 884.7174506 185.8125 901.875 C185.68566833 902.9383255 185.55883667 904.001651 185.42816162 905.09719849 C181.80399925 935.74878686 180.6439742 966.12645979 180.68432617 996.95874023 C180.68895323 1000.76908182 180.68202914 1004.5791038 180.66381836 1008.3894043 C180.54862194 1032.73700821 181.28518779 1056.75849911 183.79170609 1080.98420715 C184.01105392 1083.10697581 184.22559531 1085.23019645 184.43954468 1087.35351562 C187.94240041 1121.95824947 193.84550784 1156.35154436 202.28320312 1190.09716797 C203.08472411 1193.34310957 203.82147563 1196.60005236 204.54736328 1199.86352539 C221.76747064 1276.38804781 254.86372742 1351.91384281 295 1419 C295.60166992 1420.00691895 296.20333984 1421.01383789 296.82324219 1422.05126953 C303.5515577 1433.28132851 310.37970358 1444.41840424 317.78027344 1455.21972656 C319.06010498 1457.08772728 320.33101065 1458.96161489 321.6015625 1460.8359375 C335.34090561 1481.03469223 350.06973099 1500.27421996 365.51904297 1519.18261719 C366.8427907 1520.80707781 368.15828809 1522.43825346 369.47265625 1524.0703125 C374.02334754 1529.70450171 378.75879243 1535.1134745 383.66015625 1540.4453125 C385.65834848 1542.62697815 387.62148889 1544.83011309 389.5625 1547.0625 C396.05606546 1554.5074483 402.66504162 1561.73961501 409.69799805 1568.67651367 C412.42580703 1571.37992443 415.03285938 1574.11998351 417.5 1577.0625 C420.78368919 1580.91864833 424.47938714 1584.26415937 428.23730469 1587.64379883 C432.02883356 1591.06713231 435.66340159 1594.61321545 439.25 1598.25 C443.04825788 1602.09202081 446.90512779 1605.79717583 451.01953125 1609.30078125 C453.32669952 1611.28030432 455.56646782 1613.3264212 457.8125 1615.375 C462.10959827 1619.25350727 466.53758754 1622.92865968 471.0390625 1626.56640625 C473.69764902 1628.75149781 476.30044215 1630.98384606 478.89428711 1633.24438477 C486.61582052 1639.96165046 494.6227454 1646.22880717 502.81542969 1652.35986328 C504.89944549 1653.92450545 506.9699376 1655.50559149 509.0390625 1657.08984375 C538.25373923 1679.24376712 569.66175259 1698.68344163 601.58886719 1716.64013672 C603.81776001 1717.89721783 606.03863521 1719.16727983 608.2578125 1720.44140625 C664.77734066 1752.67187967 727.17682658 1776.41768975 790 1793 C791.17546387 1793.31275879 792.35092773 1793.62551758 793.56201172 1793.94775391 C836.23843239 1805.22269948 879.56197999 1812.07947668 923.4375 1816.6875 C924.56639648 1816.80681885 925.69529297 1816.9261377 926.85839844 1817.04907227 C942.79175175 1818.66697444 958.56069394 1819.15169524 974.5625 1819.1328125 C976.60880546 1819.13348835 978.65511083 1819.13446071 980.70141602 1819.13571167 C984.96403782 1819.13717542 989.22663849 1819.13507704 993.48925781 1819.13037109 C998.90840844 1819.12467465 1004.32750951 1819.1279608 1009.74665833 1819.13394356 C1013.96439985 1819.13758513 1018.18212993 1819.13639419 1022.39987183 1819.13381577 C1024.39623012 1819.13315641 1026.39258952 1819.13393954 1028.38894653 1819.13629532 C1043.10261374 1819.14985463 1057.66932097 1818.67365551 1072.3125 1817.125 C1073.56003052 1816.99375732 1073.56003052 1816.99375732 1074.83276367 1816.85986328 C1076.62951409 1816.67007381 1078.42614319 1816.47913265 1080.22265625 1816.28710938 C1083.02178371 1815.9977481 1085.82254591 1815.73931781 1088.625 1815.484375 C1122.69489776 1812.22333207 1156.66933691 1805.69917533 1190 1798 C1191.20027832 1797.72333496 1192.40055664 1797.44666992 1193.63720703 1797.16162109 C1211.69003661 1792.94527863 1229.38964123 1787.7773217 1247 1782 C1248.07471558 1781.64841827 1248.07471558 1781.64841827 1249.17114258 1781.28973389 C1282.54675437 1770.35418474 1315.11032045 1757.73663424 1347 1743 C1348.0214209 1742.52916992 1349.0428418 1742.05833984 1350.09521484 1741.57324219 C1375.46816082 1729.80806558 1400.14493857 1716.59748746 1424 1702 C1424.94472168 1701.42459473 1425.88944336 1700.84918945 1426.86279297 1700.25634766 C1471.71454423 1672.86057385 1513.08210281 1641.25702409 1552 1606 C1552.96292969 1605.13117188 1553.92585938 1604.26234375 1554.91796875 1603.3671875 C1560.94770546 1597.90200351 1566.75948286 1592.27907682 1572.4765625 1586.48828125 C1574.6285972 1584.36622846 1576.81701193 1582.38515001 1579.125 1580.4375 C1582.92516929 1577.19008261 1586.1439392 1573.56144001 1589.44140625 1569.8125 C1592.40221957 1566.55786551 1595.49506783 1563.46571332 1598.625 1560.375 C1602.68812147 1556.35367661 1606.63249051 1552.30552842 1610.3359375 1547.9453125 C1612.30139014 1545.64767068 1614.33729871 1543.42126877 1616.375 1541.1875 C1620.19718989 1536.94775995 1623.84451955 1532.59812452 1627.43359375 1528.16015625 C1629.34423039 1525.79762313 1631.27844765 1523.45607521 1633.22265625 1521.12109375 C1664.88934019 1483.04811242 1692.98213458 1441.71529989 1716.75683594 1398.27148438 C1717.67072924 1396.60163691 1718.58863342 1394.93398297 1719.50878906 1393.26757812 C1747.4946424 1342.51329307 1768.845984 1289.29922668 1786 1234 C1786.4957251 1232.4226709 1786.4957251 1232.4226709 1787.00146484 1230.81347656 C1795.33501739 1204.16564365 1801.54728383 1176.64044161 1806.43505859 1149.16357422 C1807.03105242 1145.82611184 1807.65025808 1142.49337187 1808.26953125 1139.16015625 C1815.25332935 1100.88999483 1819.15096372 1061.82926686 1819.16796875 1022.921875 C1819.17119983 1021.13616919 1819.17456511 1019.35046362 1819.17805481 1017.5647583 C1819.18398851 1013.84362172 1819.18590093 1010.12250815 1819.18530273 1006.40136719 C1819.18522188 1002.65522389 1819.19210924 998.90920394 1819.20581055 995.16308594 C1819.28671169 972.67795648 1818.95498522 950.412085 1817 928 C1816.92429779 927.09290283 1816.84859558 926.18580566 1816.77059937 925.2512207 C1816.32613179 919.95196115 1815.81594937 914.66259469 1815.25 909.375 C1815.12694489 908.20939041 1815.12694489 908.20939041 1815.00140381 907.02023315 C1813.1748146 889.9247748 1810.46673062 873.01180344 1807.3828125 856.10229492 C1807.00956478 854.05252702 1806.64099741 852.0019664 1806.2734375 849.95117188 C1801.34044765 822.64354948 1795.10432196 795.54907985 1787 769 C1786.62004883 767.74558105 1786.24009766 766.49116211 1785.84863281 765.19873047 C1758.96348149 676.65459161 1718.15272695 593.42082427 1623.37255859 467.61083984 C1621.96681432 465.96105316 1620.57072891 464.30345255 1619.17578125 462.64453125 C1608.79313804 450.34571045 1597.7821519 438.66659727 1586.328125 427.36328125 C1584.36063802 425.36608389 1582.5433407 423.33860311 1580.75 421.1875 C1576.7629443 416.50871415 1572.20441707 412.44263038 1567.68945312 408.28515625 C1563.9482024 404.83624856 1560.30358339 401.33205512 1556.75 397.6875 C1552.68436497 393.56819322 1548.36044927 389.9474518 1543.83984375 386.33984375 C1540.84864741 383.87529546 1538.01276645 381.27467702 1535.1875 378.625 C1529.92222698 373.71604293 1524.38319698 369.27118955 1518.6875 364.875 C1515.48460792 362.39754929 1512.35555387 359.83986329 1509.23388672 357.26123047 C1500.82945182 350.32958849 1492.12837989 343.91175155 1483.24707031 337.60742188 C1481.07495024 336.05361499 1478.9215319 334.47743344 1476.7734375 332.890625 C1456.03654835 317.61081194 1434.20744512 304.02087162 1412 291 C1411.13165527 290.48663086 1410.26331055 289.97326172 1409.36865234 289.44433594 C1363.79477227 262.54450154 1314.97858956 241.18468841 1264.96176147 224.05410767 C1261.46321376 222.85526475 1257.97193534 221.63894783 1254.48852539 220.39672852 C1253.73394547 220.12795898 1252.97936554 219.85918945 1252.20191956 219.58227539 C1250.76284914 219.06860612 1249.3245058 218.55289305 1247.8870697 218.03466797 C1242.27681117 216.03379846 1236.62017853 214.46327906 1230.84765625 212.98828125 C1227.45608309 212.11714621 1224.08553843 211.19738375 1220.71533203 210.24853516 C1216.8143946 209.15056357 1212.90736076 208.07485027 1209 207 C1208.14970215 206.76522949 1207.2994043 206.53045898 1206.42333984 206.28857422 C1181.64884499 199.49388154 1156.49790107 194.70614075 1131.16455078 190.52294922 C1128.39869745 190.06588566 1125.63474914 189.59902114 1122.87109375 189.12890625 C1109.64044578 186.91427445 1096.33898499 185.39395346 1083 184 C1081.76495728 183.86897888 1080.52991455 183.73795776 1079.25744629 183.60296631 C1053.6257383 180.96086335 1028.16263538 180.56384438 1002.41046143 180.6774292 C998.25818214 180.69092736 994.10600869 180.68557856 989.95371723 180.68056107 C960.09187428 180.63930572 960.09187428 180.63930572 930.32070923 182.75076294 Z " fill="#3B8DA4" transform="translate(0,0)"/>
<path d="M0 0 C1.44237739 -0.00313652 2.88475241 -0.00758552 4.32712224 -0.0132131 C8.27147779 -0.0248321 12.2156113 -0.01793899 16.15996299 -0.00787924 C20.45841874 -0.00024091 24.75684152 -0.01006002 29.05529255 -0.01760924 C36.58257119 -0.0284277 44.10978525 -0.02812583 51.63706684 -0.02046776 C62.83042139 -0.00911091 74.02372154 -0.0149264 85.21707574 -0.02409268 C105.20917713 -0.03988505 125.20124975 -0.03852269 145.19335388 -0.02985594 C162.68816222 -0.02230902 180.18296002 -0.02033929 197.67776966 -0.02392387 C199.41853442 -0.02426761 199.41853442 -0.02426761 201.19446613 -0.02461828 C205.90535295 -0.0255523 210.61623976 -0.0265075 215.32712657 -0.02749758 C259.5169432 -0.03667418 303.70674151 -0.02835469 347.89655531 -0.01220688 C387.15780978 0.00203083 426.41903506 0.00075521 465.68028927 -0.01358986 C509.79083976 -0.02965287 553.90137406 -0.03602432 598.01192707 -0.02675307 C602.7139161 -0.02579091 607.41590513 -0.02485239 612.11789417 -0.02392387 C613.85451868 -0.02356803 613.85451868 -0.02356803 615.62622651 -0.02320499 C633.11086628 -0.0197923 650.59549434 -0.02378389 668.08013248 -0.03136253 C687.95977876 -0.03993632 707.83939177 -0.03780426 727.7190339 -0.0215203 C738.84552278 -0.01270699 749.97193961 -0.01214285 761.09842662 -0.02345882 C768.52989294 -0.03018349 775.96130148 -0.02600376 783.39275923 -0.01294452 C787.62723933 -0.00580632 791.86157627 -0.00337195 796.09605188 -0.01416247 C799.95227268 -0.02388886 803.80822397 -0.01968552 807.66442532 -0.00462049 C809.69622883 -0.00019903 811.72804836 -0.01039674 813.75982752 -0.02128333 C831.67031179 0.08841298 848.54837134 5.9095979 862.33092403 17.37752342 C863.20619747 18.09037498 864.08147091 18.80322655 864.98326778 19.53767967 C879.68601896 32.07370962 888.66575782 50.22107962 890.33092403 69.37752342 C890.45780954 72.31878751 890.46912806 75.25395156 890.4623518 78.19764996 C890.46543075 79.46398414 890.46543075 79.46398414 890.4685719 80.75590083 C890.47420866 83.57366304 890.47278879 86.39137586 890.47136593 89.20914268 C890.47395145 91.25425942 890.47696514 93.29937565 890.48036933 95.34449118 C890.48842021 100.95617281 890.49022783 106.56784164 890.4909668 112.17952836 C890.49282062 118.23487446 890.50036949 124.29021398 890.50710201 130.34555626 C890.52137822 144.27073328 890.52720945 158.19590716 890.53179396 172.12108965 C890.53413236 179.00562051 890.53773523 185.89015053 890.54148933 192.77468074 C890.55432072 216.35180892 890.56504143 239.92893664 890.56849194 263.50606823 C890.56871357 264.98495747 890.56893535 266.46384671 890.56915729 267.94273595 C890.56937793 269.42513574 890.56959841 270.90753553 890.56981874 272.38993531 C890.57026128 275.36374398 890.5707084 278.33755265 890.57115841 281.31136131 C890.5712678 282.0486882 890.57137719 282.78601509 890.5714899 283.54568522 C890.57512129 307.45857187 890.59104657 331.37142822 890.61434877 355.28430327 C890.63895424 380.5809201 890.65266505 405.8775196 890.65385985 431.17414874 C890.6540313 433.95182177 890.65424673 436.72949479 890.65449429 439.50716782 C890.65455005 440.19108288 890.65460582 440.87499793 890.65466328 441.57963769 C890.65581292 452.57578313 890.66682723 463.57189741 890.68138134 474.56803233 C890.69575955 485.62247642 890.69872361 496.67688902 890.69094136 507.73134211 C890.68703413 513.71759315 890.6879683 519.70373949 890.70199871 525.68997765 C890.71473244 531.17311079 890.7135446 536.6560605 890.701408 542.13919338 C890.69945014 544.11961103 890.70253351 546.10004166 890.71125236 548.08044109 C890.75325744 558.26888247 890.5757172 567.59349646 887.33092403 577.37752342 C886.96611935 578.56346092 886.60131466 579.74939842 886.22545528 580.97127342 C879.24501267 599.72018787 865.4834965 615.27902101 847.29576778 623.79939842 C844.33181439 625.07341126 841.35429931 626.25254657 838.33092403 627.37752342 C837.50205685 627.68689842 836.67318966 627.99627342 835.81920528 628.31502342 C827.33909831 631.30969617 819.34026768 631.52155886 810.41249084 631.50057125 C809.20904537 631.5017251 808.00559989 631.50287894 806.76568636 631.50406775 C803.42313729 631.50625958 800.08064562 631.50396574 796.73810203 631.49978962 C793.10257531 631.49635181 789.46705165 631.4987269 785.83152431 631.50036711 C779.45924408 631.50244037 773.08697318 631.50079786 766.71469402 631.4967289 C757.23933939 631.49069529 747.76399066 631.49039296 738.28863446 631.49127089 C722.34978794 631.49258505 706.41094557 631.48924238 690.47210026 631.48325348 C674.68870746 631.47733818 658.90531639 631.47348788 643.12192249 631.47240067 C642.14087015 631.47233193 641.15981781 631.47226319 640.14903661 631.47219236 C635.16684752 631.47185403 630.18465843 631.47155265 625.20246934 631.47126549 C589.90584955 631.4691646 554.60923201 631.46242592 519.31261349 631.45296288 C485.02062142 631.44377978 450.72862997 631.43669551 416.43663692 631.43245506 C415.37976602 631.43232354 414.32289512 631.43219201 413.23399783 631.4320565 C402.62054802 631.43073799 392.00709822 631.42946217 381.3936484 631.42821764 C359.77247474 631.42568137 338.15130113 631.42286012 316.53012753 631.41986656 C315.03893983 631.41966063 315.03893983 631.41966063 313.51762714 631.41945053 C247.1220585 631.41024855 180.72649111 631.39440319 114.33092403 631.37752342 C114.3518713 632.32482323 114.37281857 633.27212303 114.3944006 634.24812889 C114.46311824 637.80796358 114.51298398 641.36707994 114.5506506 644.92732811 C114.57060127 646.45966877 114.59777219 647.99193494 114.63268185 649.5240078 C114.93846249 663.30212376 112.79309695 673.47720707 103.20592403 683.94002342 C99.14585974 687.89508606 94.4978603 690.15956203 89.33092403 692.37752342 C88.60463393 692.723519 87.87834383 693.06951458 87.13004494 693.42599487 C83.66821264 694.60280444 80.77304151 694.63537329 77.11530209 694.64494896 C76.3993804 694.64948007 75.68345872 694.65401119 74.94584244 694.6586796 C72.55240841 694.6713164 70.15920214 694.6697037 67.76573849 694.66805077 C66.04725509 694.67403661 64.32877438 694.68084228 62.6102972 694.68840599 C57.94476699 694.70607087 53.27931016 694.71076167 48.61374974 694.71203756 C45.69645536 694.71345983 42.77917959 694.71773092 39.86188984 694.723032 C29.67715809 694.74153624 19.49247868 694.74970241 9.30773067 694.74812889 C-0.17337934 694.74692846 -9.65426135 694.76801046 -19.13531369 694.79961622 C-27.28413417 694.82580898 -35.43288035 694.83649488 -43.58174258 694.83521807 C-48.44461634 694.83470918 -53.3072876 694.8403518 -58.17011929 694.86157417 C-62.74781028 694.88100628 -67.32510671 694.88104716 -71.902812 694.86654091 C-73.57729389 694.86445763 -75.25180078 694.86912487 -76.92623997 694.88126183 C-90.48698078 694.97314023 -100.48491712 692.89579496 -110.66907597 683.37752342 C-120.87166492 672.85030664 -122.40993958 659.56929696 -122.29726505 645.62676048 C-122.30231953 643.96520287 -122.30955528 642.30365073 -122.3187632 640.64211094 C-122.33758395 636.10910051 -122.32550966 631.57663414 -122.30804026 627.04363799 C-122.29461482 622.14242332 -122.31012176 617.24128555 -122.32186222 612.34007835 C-122.34020381 602.7521489 -122.33175011 593.16442377 -122.313774 583.57650076 C-122.2997278 575.78274463 -122.29585954 567.98904383 -122.29921627 560.19527626 C-122.29969371 559.08451836 -122.30017115 557.97376046 -122.30066307 556.82934324 C-122.30168943 554.57263221 -122.30274479 552.3159212 -122.30382883 550.0592102 C-122.31238865 530.1221423 -122.29574332 510.18517283 -122.26599979 490.24812889 C-122.2371564 470.91410247 -122.23008349 451.5802178 -122.24549198 432.24617577 C-122.26226137 411.17577218 -122.26628141 390.10543583 -122.24878162 369.03503048 C-122.24693729 366.78740002 -122.24510256 364.53976954 -122.24327755 362.29213905 C-122.24236546 361.1863494 -122.24145337 360.08055975 -122.24051364 358.94126131 C-122.23491344 351.15815153 -122.23821054 343.37507463 -122.2448225 335.59196663 C-122.25256201 326.10529224 -122.24578053 316.61875727 -122.22064746 307.13211094 C-122.20816776 302.29425171 -122.20198746 297.45660937 -122.21318913 292.61874199 C-122.22325851 288.18614403 -122.2147146 283.75397784 -122.19160794 279.32143225 C-122.18646539 277.72204672 -122.18798017 276.12262225 -122.1970026 274.5232539 C-122.26676733 261.02888392 -120.24203774 250.38561982 -110.66907597 240.37752342 C-103.5235845 233.67032418 -95.84045889 229.09148679 -85.84876347 229.27986717 C-84.38672489 229.30101585 -84.38672489 229.30101585 -82.89515018 229.32259178 C-82.16054569 229.34071922 -81.4259412 229.35884666 -80.66907597 229.37752342 C-80.67276314 228.55736748 -80.67645031 227.73721153 -80.68024921 226.89220238 C-80.76884195 206.87483757 -80.83490268 186.85750686 -80.87632465 166.8399868 C-80.89689185 157.15939323 -80.92489983 147.47893106 -80.97083378 137.79842186 C-81.01088141 129.35437297 -81.03655117 120.91041931 -81.04542994 112.46627808 C-81.05061455 108.00104662 -81.06267625 103.53608745 -81.09199619 99.07094383 C-81.11944968 94.8552894 -81.12746158 90.64001551 -81.12150669 86.42428017 C-81.12259372 84.88937488 -81.13036751 83.35445486 -81.14589787 81.81962776 C-81.27592946 68.28799446 -79.38885593 55.01802226 -72.85657597 42.94002342 C-72.50965702 42.27663963 -72.16273808 41.61325584 -71.80530643 40.92976952 C-68.95075844 35.61022617 -65.74957159 30.8442388 -61.66907597 26.37752342 C-60.91884159 25.54736717 -60.16860722 24.71721092 -59.39563847 23.86189842 C-43.35355898 6.95951814 -22.94395433 -0.1231572 0 0 Z " fill="#3B8EA4" transform="translate(615.6690759658813,652.6224765777588)"/>
<path d="M0 0 C1.44237739 -0.00313652 2.88475241 -0.00758552 4.32712224 -0.0132131 C8.27147779 -0.0248321 12.2156113 -0.01793899 16.15996299 -0.00787924 C20.45841874 -0.00024091 24.75684152 -0.01006002 29.05529255 -0.01760924 C36.58257119 -0.0284277 44.10978525 -0.02812583 51.63706684 -0.02046776 C62.83042139 -0.00911091 74.02372154 -0.0149264 85.21707574 -0.02409268 C105.20917713 -0.03988505 125.20124975 -0.03852269 145.19335388 -0.02985594 C162.68816222 -0.02230902 180.18296002 -0.02033929 197.67776966 -0.02392387 C199.41853442 -0.02426761 199.41853442 -0.02426761 201.19446613 -0.02461828 C205.90535295 -0.0255523 210.61623976 -0.0265075 215.32712657 -0.02749758 C259.5169432 -0.03667418 303.70674151 -0.02835469 347.89655531 -0.01220688 C387.15780978 0.00203083 426.41903506 0.00075521 465.68028927 -0.01358986 C509.79083976 -0.02965287 553.90137406 -0.03602432 598.01192707 -0.02675307 C602.7139161 -0.02579091 607.41590513 -0.02485239 612.11789417 -0.02392387 C613.85451868 -0.02356803 613.85451868 -0.02356803 615.62622651 -0.02320499 C633.11086628 -0.0197923 650.59549434 -0.02378389 668.08013248 -0.03136253 C687.95977876 -0.03993632 707.83939177 -0.03780426 727.7190339 -0.0215203 C738.84552278 -0.01270699 749.97193961 -0.01214285 761.09842662 -0.02345882 C768.52989294 -0.03018349 775.96130148 -0.02600376 783.39275923 -0.01294452 C787.62723933 -0.00580632 791.86157627 -0.00337195 796.09605188 -0.01416247 C799.95227268 -0.02388886 803.80822397 -0.01968552 807.66442532 -0.00462049 C809.69622883 -0.00019903 811.72804836 -0.01039674 813.75982752 -0.02128333 C831.67031179 0.08841298 848.54837134 5.9095979 862.33092403 17.37752342 C863.20619747 18.09037498 864.08147091 18.80322655 864.98326778 19.53767967 C879.68601896 32.07370962 888.66575782 50.22107962 890.33092403 69.37752342 C890.45780954 72.31878751 890.46912806 75.25395156 890.4623518 78.19764996 C890.46543075 79.46398414 890.46543075 79.46398414 890.4685719 80.75590083 C890.47420866 83.57366304 890.47278879 86.39137586 890.47136593 89.20914268 C890.47395145 91.25425942 890.47696514 93.29937565 890.48036933 95.34449118 C890.48842021 100.95617281 890.49022783 106.56784164 890.4909668 112.17952836 C890.49282062 118.23487446 890.50036949 124.29021398 890.50710201 130.34555626 C890.52137822 144.27073328 890.52720945 158.19590716 890.53179396 172.12108965 C890.53413236 179.00562051 890.53773523 185.89015053 890.54148933 192.77468074 C890.55432072 216.35180892 890.56504143 239.92893664 890.56849194 263.50606823 C890.56871357 264.98495747 890.56893535 266.46384671 890.56915729 267.94273595 C890.56937793 269.42513574 890.56959841 270.90753553 890.56981874 272.38993531 C890.57026128 275.36374398 890.5707084 278.33755265 890.57115841 281.31136131 C890.5712678 282.0486882 890.57137719 282.78601509 890.5714899 283.54568522 C890.57512129 307.45857187 890.59104657 331.37142822 890.61434877 355.28430327 C890.63895424 380.5809201 890.65266505 405.8775196 890.65385985 431.17414874 C890.6540313 433.95182177 890.65424673 436.72949479 890.65449429 439.50716782 C890.65455005 440.19108288 890.65460582 440.87499793 890.65466328 441.57963769 C890.65581292 452.57578313 890.66682723 463.57189741 890.68138134 474.56803233 C890.69575955 485.62247642 890.69872361 496.67688902 890.69094136 507.73134211 C890.68703413 513.71759315 890.6879683 519.70373949 890.70199871 525.68997765 C890.71473244 531.17311079 890.7135446 536.6560605 890.701408 542.13919338 C890.69945014 544.11961103 890.70253351 546.10004166 890.71125236 548.08044109 C890.75325744 558.26888247 890.5757172 567.59349646 887.33092403 577.37752342 C886.96611935 578.56346092 886.60131466 579.74939842 886.22545528 580.97127342 C879.24501267 599.72018787 865.4834965 615.27902101 847.29576778 623.79939842 C844.33181439 625.07341126 841.35429931 626.25254657 838.33092403 627.37752342 C837.50205685 627.68689842 836.67318966 627.99627342 835.81920528 628.31502342 C827.33909831 631.30969617 819.34026768 631.52155886 810.41249084 631.50057125 C809.20904537 631.5017251 808.00559989 631.50287894 806.76568636 631.50406775 C803.42313729 631.50625958 800.08064562 631.50396574 796.73810203 631.49978962 C793.10257531 631.49635181 789.46705165 631.4987269 785.83152431 631.50036711 C779.45924408 631.50244037 773.08697318 631.50079786 766.71469402 631.4967289 C757.23933939 631.49069529 747.76399066 631.49039296 738.28863446 631.49127089 C722.34978794 631.49258505 706.41094557 631.48924238 690.47210026 631.48325348 C674.68870746 631.47733818 658.90531639 631.47348788 643.12192249 631.47240067 C642.14087015 631.47233193 641.15981781 631.47226319 640.14903661 631.47219236 C635.16684752 631.47185403 630.18465843 631.47155265 625.20246934 631.47126549 C589.90584955 631.4691646 554.60923201 631.46242592 519.31261349 631.45296288 C485.02062142 631.44377978 450.72862997 631.43669551 416.43663692 631.43245506 C415.37976602 631.43232354 414.32289512 631.43219201 413.23399783 631.4320565 C402.62054802 631.43073799 392.00709822 631.42946217 381.3936484 631.42821764 C359.77247474 631.42568137 338.15130113 631.42286012 316.53012753 631.41986656 C315.03893983 631.41966063 315.03893983 631.41966063 313.51762714 631.41945053 C247.1220585 631.41024855 180.72649111 631.39440319 114.33092403 631.37752342 C114.3518713 632.32482323 114.37281857 633.27212303 114.3944006 634.24812889 C114.46311824 637.80796358 114.51298398 641.36707994 114.5506506 644.92732811 C114.57060127 646.45966877 114.59777219 647.99193494 114.63268185 649.5240078 C114.93846249 663.30212376 112.79309695 673.47720707 103.20592403 683.94002342 C99.14585974 687.89508606 94.4978603 690.15956203 89.33092403 692.37752342 C88.60463393 692.723519 87.87834383 693.06951458 87.13004494 693.42599487 C83.66821264 694.60280444 80.77304151 694.63537329 77.11530209 694.64494896 C76.3993804 694.64948007 75.68345872 694.65401119 74.94584244 694.6586796 C72.55240841 694.6713164 70.15920214 694.6697037 67.76573849 694.66805077 C66.04725509 694.67403661 64.32877438 694.68084228 62.6102972 694.68840599 C57.94476699 694.70607087 53.27931016 694.71076167 48.61374974 694.71203756 C45.69645536 694.71345983 42.77917959 694.71773092 39.86188984 694.723032 C29.67715809 694.74153624 19.49247868 694.74970241 9.30773067 694.74812889 C-0.17337934 694.74692846 -9.65426135 694.76801046 -19.13531369 694.79961622 C-27.28413417 694.82580898 -35.43288035 694.83649488 -43.58174258 694.83521807 C-48.44461634 694.83470918 -53.3072876 694.8403518 -58.17011929 694.86157417 C-62.74781028 694.88100628 -67.32510671 694.88104716 -71.902812 694.86654091 C-73.57729389 694.86445763 -75.25180078 694.86912487 -76.92623997 694.88126183 C-90.48698078 694.97314023 -100.48491712 692.89579496 -110.66907597 683.37752342 C-120.87166492 672.85030664 -122.40993958 659.56929696 -122.29726505 645.62676048 C-122.30231953 643.96520287 -122.30955528 642.30365073 -122.3187632 640.64211094 C-122.33758395 636.10910051 -122.32550966 631.57663414 -122.30804026 627.04363799 C-122.29461482 622.14242332 -122.31012176 617.24128555 -122.32186222 612.34007835 C-122.34020381 602.7521489 -122.33175011 593.16442377 -122.313774 583.57650076 C-122.2997278 575.78274463 -122.29585954 567.98904383 -122.29921627 560.19527626 C-122.29969371 559.08451836 -122.30017115 557.97376046 -122.30066307 556.82934324 C-122.30168943 554.57263221 -122.30274479 552.3159212 -122.30382883 550.0592102 C-122.31238865 530.1221423 -122.29574332 510.18517283 -122.26599979 490.24812889 C-122.2371564 470.91410247 -122.23008349 451.5802178 -122.24549198 432.24617577 C-122.26226137 411.17577218 -122.26628141 390.10543583 -122.24878162 369.03503048 C-122.24693729 366.78740002 -122.24510256 364.53976954 -122.24327755 362.29213905 C-122.24236546 361.1863494 -122.24145337 360.08055975 -122.24051364 358.94126131 C-122.23491344 351.15815153 -122.23821054 343.37507463 -122.2448225 335.59196663 C-122.25256201 326.10529224 -122.24578053 316.61875727 -122.22064746 307.13211094 C-122.20816776 302.29425171 -122.20198746 297.45660937 -122.21318913 292.61874199 C-122.22325851 288.18614403 -122.2147146 283.75397784 -122.19160794 279.32143225 C-122.18646539 277.72204672 -122.18798017 276.12262225 -122.1970026 274.5232539 C-122.26676733 261.02888392 -120.24203774 250.38561982 -110.66907597 240.37752342 C-103.5235845 233.67032418 -95.84045889 229.09148679 -85.84876347 229.27986717 C-84.38672489 229.30101585 -84.38672489 229.30101585 -82.89515018 229.32259178 C-82.16054569 229.34071922 -81.4259412 229.35884666 -80.66907597 229.37752342 C-80.67276314 228.55736748 -80.67645031 227.73721153 -80.68024921 226.89220238 C-80.76884195 206.87483757 -80.83490268 186.85750686 -80.87632465 166.8399868 C-80.89689185 157.15939323 -80.92489983 147.47893106 -80.97083378 137.79842186 C-81.01088141 129.35437297 -81.03655117 120.91041931 -81.04542994 112.46627808 C-81.05061455 108.00104662 -81.06267625 103.53608745 -81.09199619 99.07094383 C-81.11944968 94.8552894 -81.12746158 90.64001551 -81.12150669 86.42428017 C-81.12259372 84.88937488 -81.13036751 83.35445486 -81.14589787 81.81962776 C-81.27592946 68.28799446 -79.38885593 55.01802226 -72.85657597 42.94002342 C-72.50965702 42.27663963 -72.16273808 41.61325584 -71.80530643 40.92976952 C-68.95075844 35.61022617 -65.74957159 30.8442388 -61.66907597 26.37752342 C-60.91884159 25.54736717 -60.16860722 24.71721092 -59.39563847 23.86189842 C-43.35355898 6.95951814 -22.94395433 -0.1231572 0 0 Z M5.33092403 66.37752342 C5.33092403 120.16752342 5.33092403 173.95752342 5.33092403 229.37752342 C31.40092403 229.70752342 57.47092403 230.03752342 84.33092403 230.37752342 C98.00760342 236.07613983 106.58437172 241.80702664 112.33092403 255.37752342 C137.3934602 355.62766808 113.99322818 462.04259136 114.33092403 565.37752342 C342.03092403 565.37752342 569.73092403 565.37752342 804.33092403 565.37752342 C804.33092403 400.70752342 804.33092403 236.03752342 804.33092403 66.37752342 C540.66092403 66.37752342 276.99092403 66.37752342 5.33092403 66.37752342 Z " fill="#F4ED9D" transform="translate(615.6690759658813,652.6224765777588)"/>
<path d="M0 0 C61.05 0 122.1 0 185 0 C185 117.81 185 235.62 185 357 C123.95 357 62.9 357 0 357 C0 239.19 0 121.38 0 0 Z " fill="#3B8EA5" transform="translate(520,917)"/>
<path d="M0 0 C4.8930704 2.17980768 7.76664525 4.94049191 10.828125 9.30078125 C12.41885353 14.07296683 12.85323121 18.78220134 10.921875 23.52734375 C7.73402856 28.98346555 3.90270139 32.27592245 -2.171875 34.30078125 C-8.454441 34.8332021 -12.99155506 34.05680037 -18.171875 30.30078125 C-22.77061535 24.52287671 -23.9785592 19.51417475 -23.171875 12.30078125 C-21.82048575 7.47193177 -19.57502986 4.20751404 -15.484375 1.30078125 C-10.32592158 -1.52249103 -5.57695418 -1.79545827 0 0 Z " fill="#AC372A" transform="translate(618.171875,1296.69921875)"/>
<path d="M0 0 C5.23407436 1.49006081 8.51054697 5.09239462 11.1171875 9.71875 C12.71201685 13.83990195 12.77719605 17.67820889 12 22 C9.43493036 27.2287958 5.2447046 31.3776477 0 34 C-6.45622866 34.84002975 -11.04775615 34.16929299 -16.375 30.3671875 C-20.12744773 27.21008003 -21.70731375 24.24503661 -22.34375 19.36328125 C-22.6399483 13.58000943 -22.59940044 9.86339103 -18.6875 5.375 C-12.82041967 -0.45518045 -8.0485525 -0.81425045 0 0 Z " fill="#AB3629" transform="translate(1026,1236)"/>
<path d="M0 0 C4.21809905 0.2723607 7.23384463 0.54297026 10.171875 3.77734375 C12.29673145 7.41016284 12.80966354 8.97564858 12.109375 13.08984375 C10.84833601 15.86412952 9.79847586 17.5730181 7.359375 19.40234375 C4.0883132 20.40183486 1.51194912 20.44800945 -1.890625 20.08984375 C-4.64391521 18.2942197 -6.41689961 17.03729453 -7.890625 14.08984375 C-8.39760967 8.93549963 -8.39760967 8.93549963 -7.890625 6.08984375 C-5.453125 3.15234375 -5.453125 3.15234375 -2.890625 1.08984375 C-1.890625 0.08984375 -1.890625 0.08984375 0 0 Z " fill="#AC382A" transform="translate(1018.890625,672.91015625)"/>
<path d="M0 0 C1.9375 1.0625 1.9375 1.0625 3 3 C3.36528977 6.4093712 3.6140629 8.88023824 1.9375 11.9375 C-1.15493758 13.63335287 -3.55514741 13.43060657 -7 13 C-9.66266871 10.76679398 -9.95347082 9.3799883 -10.375 5.9375 C-10 3 -10 3 -8.9375 1.125 C-5.8930714 -0.64273274 -3.4368988 -0.36823916 0 0 Z " fill="#4291A4" transform="translate(668,894)"/>
</svg>
