<?xml version="1.0" encoding="UTF-8"?>
<svg version="1.1" xmlns="http://www.w3.org/2000/svg" width="2000" height="2000">
<path d="M0 0 C660 0 1320 0 2000 0 C2000 660 2000 1320 2000 2000 C1340 2000 680 2000 0 2000 C0 1340 0 680 0 0 Z " fill="#AA3428" transform="translate(0,0)"/>
<path d="M0 0 C660 0 1320 0 2000 0 C2000 660 2000 1320 2000 2000 C1340 2000 680 2000 0 2000 C0 1340 0 680 0 0 Z M930.32070923 182.75076294 C928.16526494 182.98225105 926.00956188 183.1880106 923.8503418 183.38061523 C870.3767332 188.21844823 816.81131876 198.20194931 765.53515625 214.22119141 C763.3320017 214.89800795 761.12513831 215.54515205 758.90625 216.16796875 C722.93389859 226.2943319 687.89724183 240.3485817 654.21484375 256.46240234 C651.38096583 257.81779141 648.54180348 259.16141626 645.70057678 260.50131226 C619.96207521 272.65406887 595.18338072 286.16623985 570.99023438 301.14941406 C568.48368536 302.70065847 565.97098843 304.24067363 563.453125 305.7734375 C539.63969142 320.34544067 517.05094236 336.90848043 495 354 C494.38141113 354.47679199 493.76282227 354.95358398 493.12548828 355.44482422 C485.92422876 360.99786024 478.90245795 366.71123745 472.03173828 372.66918945 C468.64084692 375.60831034 465.20165922 378.45778285 461.6875 381.25 C451.47954121 389.53450068 442.05127984 398.84847831 432.83007812 408.20556641 C431.00993989 409.99025371 429.1277273 411.65998702 427.1875 413.3125 C419.82558103 419.65998131 413.04713216 426.64809867 406.7421875 434.0390625 C404.7456211 436.28631885 402.63987054 438.38894927 400.5 440.5 C397.10731601 443.85256779 393.90899316 447.29475682 390.8046875 450.9140625 C388.78348724 453.25025501 386.70621161 455.52964851 384.625 457.8125 C380.72636603 462.13260791 377.02496142 466.58071381 373.3671875 471.10546875 C371.31608095 473.61350497 369.22575668 476.08098093 367.11303711 478.53710938 C360.63472211 486.08412008 354.58791637 493.92765379 348.60546875 501.87109375 C347.07675459 503.8982208 345.53956025 505.91860437 344 507.9375 C324.58796168 533.48067364 307.25752462 560.35943855 291 588 C290.49436523 588.85142578 289.98873047 589.70285156 289.46777344 590.58007812 C254.42324041 649.67478087 227.36172177 714.76074271 209.77246094 781.12646484 C208.98779654 784.04539658 208.17330381 786.95458551 207.3515625 789.86328125 C202.06533062 808.72997251 197.88499038 827.80344653 194 847 C193.63261719 848.80500977 193.63261719 848.80500977 193.2578125 850.64648438 C189.88479675 867.60084884 187.83074464 884.7174506 185.8125 901.875 C185.68566833 902.9383255 185.55883667 904.001651 185.42816162 905.09719849 C181.80399925 935.74878686 180.6439742 966.12645979 180.68432617 996.95874023 C180.68895323 1000.76908182 180.68202914 1004.5791038 180.66381836 1008.3894043 C180.54862194 1032.73700821 181.28518779 1056.75849911 183.79170609 1080.98420715 C184.01105392 1083.10697581 184.22559531 1085.23019645 184.43954468 1087.35351562 C187.94240041 1121.95824947 193.84550784 1156.35154436 202.28320312 1190.09716797 C203.08472411 1193.34310957 203.82147563 1196.60005236 204.54736328 1199.86352539 C221.76747064 1276.38804781 254.86372742 1351.91384281 295 1419 C295.60166992 1420.00691895 296.20333984 1421.01383789 296.82324219 1422.05126953 C303.5515577 1433.28132851 310.37970358 1444.41840424 317.78027344 1455.21972656 C319.06010498 1457.08772728 320.33101065 1458.96161489 321.6015625 1460.8359375 C335.34090561 1481.03469223 350.06973099 1500.27421996 365.51904297 1519.18261719 C366.8427907 1520.80707781 368.15828809 1522.43825346 369.47265625 1524.0703125 C374.02334754 1529.70450171 378.75879243 1535.1134745 383.66015625 1540.4453125 C385.65834848 1542.62697815 387.62148889 1544.83011309 389.5625 1547.0625 C396.05606546 1554.5074483 402.66504162 1561.73961501 409.69799805 1568.67651367 C412.42580703 1571.37992443 415.03285938 1574.11998351 417.5 1577.0625 C420.78368919 1580.91864833 424.47938714 1584.26415937 428.23730469 1587.64379883 C432.02883356 1591.06713231 435.66340159 1594.61321545 439.25 1598.25 C443.04825788 1602.09202081 446.90512779 1605.79717583 451.01953125 1609.30078125 C453.32669952 1611.28030432 455.56646782 1613.3264212 457.8125 1615.375 C462.10959827 1619.25350727 466.53758754 1622.92865968 471.0390625 1626.56640625 C473.69764902 1628.75149781 476.30044215 1630.98384606 478.89428711 1633.24438477 C486.61582052 1639.96165046 494.6227454 1646.22880717 502.81542969 1652.35986328 C504.89944549 1653.92450545 506.9699376 1655.50559149 509.0390625 1657.08984375 C538.25373923 1679.24376712 569.66175259 1698.68344163 601.58886719 1716.64013672 C603.81776001 1717.89721783 606.03863521 1719.16727983 608.2578125 1720.44140625 C664.77734066 1752.67187967 727.17682658 1776.41768975 790 1793 C791.17546387 1793.31275879 792.35092773 1793.62551758 793.56201172 1793.94775391 C836.23843239 1805.22269948 879.56197999 1812.07947668 923.4375 1816.6875 C924.56639648 1816.80681885 925.69529297 1816.9261377 926.85839844 1817.04907227 C942.79175175 1818.66697444 958.56069394 1819.15169524 974.5625 1819.1328125 C976.60880546 1819.13348835 978.65511083 1819.13446071 980.70141602 1819.13571167 C984.96403782 1819.13717542 989.22663849 1819.13507704 993.48925781 1819.13037109 C998.90840844 1819.12467465 1004.32750951 1819.1279608 1009.74665833 1819.13394356 C1013.96439985 1819.13758513 1018.18212993 1819.13639419 1022.39987183 1819.13381577 C1024.39623012 1819.13315641 1026.39258952 1819.13393954 1028.38894653 1819.13629532 C1043.10261374 1819.14985463 1057.66932097 1818.67365551 1072.3125 1817.125 C1073.56003052 1816.99375732 1073.56003052 1816.99375732 1074.83276367 1816.85986328 C1076.62951409 1816.67007381 1078.42614319 1816.47913265 1080.22265625 1816.28710938 C1083.02178371 1815.9977481 1085.82254591 1815.73931781 1088.625 1815.484375 C1122.69489776 1812.22333207 1156.66933691 1805.69917533 1190 1798 C1191.20027832 1797.72333496 1192.40055664 1797.44666992 1193.63720703 1797.16162109 C1211.69003661 1792.94527863 1229.38964123 1787.7773217 1247 1782 C1248.07471558 1781.64841827 1248.07471558 1781.64841827 1249.17114258 1781.28973389 C1282.54675437 1770.35418474 1315.11032045 1757.73663424 1347 1743 C1348.0214209 1742.52916992 1349.0428418 1742.05833984 1350.09521484 1741.57324219 C1375.46816082 1729.80806558 1400.14493857 1716.59748746 1424 1702 C1424.94472168 1701.42459473 1425.88944336 1700.84918945 1426.86279297 1700.25634766 C1471.71454423 1672.86057385 1513.08210281 1641.25702409 1552 1606 C1552.96292969 1605.13117188 1553.92585938 1604.26234375 1554.91796875 1603.3671875 C1560.94770546 1597.90200351 1566.75948286 1592.27907682 1572.4765625 1586.48828125 C1574.6285972 1584.36622846 1576.81701193 1582.38515001 1579.125 1580.4375 C1582.92516929 1577.19008261 1586.1439392 1573.56144001 1589.44140625 1569.8125 C1592.40221957 1566.55786551 1595.49506783 1563.46571332 1598.625 1560.375 C1602.68812147 1556.35367661 1606.63249051 1552.30552842 1610.3359375 1547.9453125 C1612.30139014 1545.64767068 1614.33729871 1543.42126877 1616.375 1541.1875 C1620.19718989 1536.94775995 1623.84451955 1532.59812452 1627.43359375 1528.16015625 C1629.34423039 1525.79762313 1631.27844765 1523.45607521 1633.22265625 1521.12109375 C1664.88934019 1483.04811242 1692.98213458 1441.71529989 1716.75683594 1398.27148438 C1717.67072924 1396.60163691 1718.58863342 1394.93398297 1719.50878906 1393.26757812 C1747.4946424 1342.51329307 1768.845984 1289.29922668 1786 1234 C1786.4957251 1232.4226709 1786.4957251 1232.4226709 1787.00146484 1230.81347656 C1795.33501739 1204.16564365 1801.54728383 1176.64044161 1806.43505859 1149.16357422 C1807.03105242 1145.82611184 1807.65025808 1142.49337187 1808.26953125 1139.16015625 C1815.25332935 1100.88999483 1819.15096372 1061.82926686 1819.16796875 1022.921875 C1819.17119983 1021.13616919 1819.17456511 1019.35046362 1819.17805481 1017.5647583 C1819.18398851 1013.84362172 1819.18590093 1010.12250815 1819.18530273 1006.40136719 C1819.18522188 1002.65522389 1819.19210924 998.90920394 1819.20581055 995.16308594 C1819.28671169 972.67795648 1818.95498522 950.412085 1817 928 C1816.92429779 927.09290283 1816.84859558 926.18580566 1816.77059937 925.2512207 C1816.32613179 919.95196115 1815.81594937 914.66259469 1815.25 909.375 C1815.12694489 908.20939041 1815.12694489 908.20939041 1815.00140381 907.02023315 C1813.1748146 889.9247748 1810.46673062 873.01180344 1807.3828125 856.10229492 C1807.00956478 854.05252702 1806.64099741 852.0019664 1806.2734375 849.95117188 C1801.34044765 822.64354948 1795.10432196 795.54907985 1787 769 C1786.62004883 767.74558105 1786.24009766 766.49116211 1785.84863281 765.19873047 C1758.96348149 676.65459161 1718.15272695 593.42082427 1623.37255859 467.61083984 C1621.96681432 465.96105316 1620.57072891 464.30345255 1619.17578125 462.64453125 C1608.79313804 450.34571045 1597.7821519 438.66659727 1586.328125 427.36328125 C1584.36063802 425.36608389 1582.5433407 423.33860311 1580.75 421.1875 C1576.7629443 416.50871415 1572.20441707 412.44263038 1567.68945312 408.28515625 C1563.9482024 404.83624856 1560.30358339 401.33205512 1556.75 397.6875 C1552.68436497 393.56819322 1548.36044927 389.9474518 1543.83984375 386.33984375 C1540.84864741 383.87529546 1538.01276645 381.27467702 1535.1875 378.625 C1529.92222698 373.71604293 1524.38319698 369.27118955 1518.6875 364.875 C1515.48460792 362.39754929 1512.35555387 359.83986329 1509.23388672 357.26123047 C1500.82945182 350.32958849 1492.12837989 343.91175155 1483.24707031 337.60742188 C1481.07495024 336.05361499 1478.9215319 334.47743344 1476.7734375 332.890625 C1456.03654835 317.61081194 1434.20744512 304.02087162 1412 291 C1411.13165527 290.48663086 1410.26331055 289.97326172 1409.36865234 289.44433594 C1363.79477227 262.54450154 1314.97858956 241.18468841 1264.96176147 224.05410767 C1261.46321376 222.85526475 1257.97193534 221.63894783 1254.48852539 220.39672852 C1253.73394547 220.12795898 1252.97936554 219.85918945 1252.20191956 219.58227539 C1250.76284914 219.06860612 1249.3245058 218.55289305 1247.8870697 218.03466797 C1242.27681117 216.03379846 1236.62017853 214.46327906 1230.84765625 212.98828125 C1227.45608309 212.11714621 1224.08553843 211.19738375 1220.71533203 210.24853516 C1216.8143946 209.15056357 1212.90736076 208.07485027 1209 207 C1208.14970215 206.76522949 1207.2994043 206.53045898 1206.42333984 206.28857422 C1181.64884499 199.49388154 1156.49790107 194.70614075 1131.16455078 190.52294922 C1128.39869745 190.06588566 1125.63474914 189.59902114 1122.87109375 189.12890625 C1109.64044578 186.91427445 1096.33898499 185.39395346 1083 184 C1081.76495728 183.86897888 1080.52991455 183.73795776 1079.25744629 183.60296631 C1053.6257383 180.96086335 1028.16263538 180.56384438 1002.41046143 180.6774292 C998.25818214 180.69092736 994.10600869 180.68557856 989.95371723 180.68056107 C960.09187428 180.63930572 960.09187428 180.63930572 930.32070923 182.75076294 Z " fill="#3B8DA4" transform="translate(0,0)"/>
<path d="M0 0 C1.02501617 0.10242004 2.05003235 0.20484009 3.10610962 0.31036377 C15.19321044 1.54411657 27.03431629 3.31851687 38.91357422 5.87402344 C42.76371119 6.69361105 46.59387921 7.26483752 50.5 7.75 C57.12654982 8.64734529 63.41662724 10.25180488 69.84033203 12.08886719 C72.56333874 12.85586346 75.29476127 13.58817505 78.02734375 14.3203125 C91.023857 17.83318178 103.66751033 21.80031034 116.1875 26.75 C117.68603516 27.32621094 117.68603516 27.32621094 119.21484375 27.9140625 C146.68835098 38.87193195 172.77981004 53.12671395 194.1875 73.75 C194.72616699 74.26288574 195.26483398 74.77577148 195.81982422 75.30419922 C203.78449555 82.91732644 210.92163427 90.64223889 217.1875 99.75 C217.5892041 100.32331055 217.9909082 100.89662109 218.40478516 101.48730469 C224.74818243 110.55765607 230.18929314 119.87363055 235.1875 129.75 C235.52112549 130.38881104 235.85475098 131.02762207 236.19848633 131.68579102 C238.57111747 136.28792083 240.45956056 140.91337065 242.125 145.8125 C242.38023437 146.55363037 242.63546875 147.29476074 242.8984375 148.05834961 C243.41888295 149.57324075 243.93697817 151.0889415 244.45263672 152.60546875 C245.10998303 154.52378436 245.78983903 156.43435229 246.47265625 158.34375 C247.79577591 162.12166079 249.01712694 165.92277561 250.1875 169.75 C250.4246875 170.50845215 250.661875 171.2669043 250.90625 172.04833984 C260.66973262 204.11654937 261.66828541 237.71159778 261.74344635 270.96741867 C261.74990238 273.27757032 261.76271774 275.58761766 261.77655029 277.8977356 C261.86511128 295.97687233 260.93744843 313.35549007 257.63424683 331.19487 C257.00284084 334.80614214 256.58633424 338.41855012 256.1875 342.0625 C255.44270989 347.90777236 253.9700594 353.26589757 252.1171875 358.8515625 C251.34779416 361.25025938 250.77597504 363.53128601 250.3125 366 C246.527586 383.85703015 238.3897063 403.67193407 228.1875 418.75 C227.61902344 419.63816406 227.05054688 420.52632812 226.46484375 421.44140625 C218.53756253 433.66602266 209.8877968 445.32953206 199.85546875 455.90625 C197.79151433 458.10618971 195.82015532 460.33208441 193.859375 462.62109375 C190.22761977 466.79203365 186.30842057 470.56126977 182.25 474.3125 C180.74999529 475.71093245 179.24999541 477.10937007 177.75 478.5078125 C176.99332031 479.21067383 176.23664062 479.91353516 175.45703125 480.63769531 C173.25611408 482.6861393 171.06384623 484.74335663 168.875 486.8046875 C160.39807496 494.78711697 151.87927118 502.70420517 143.0625 510.3125 C139.60147422 513.32178546 136.38938127 516.52711498 133.17578125 519.796875 C131.30763753 521.63198671 129.38016513 523.31745818 127.375 525 C121.82944971 529.78884752 117.03440901 535.27416403 112.1875 540.75 C111.69169434 541.3063916 111.19588867 541.8627832 110.68505859 542.43603516 C100.66968909 553.71501098 91.54389941 565.53659469 84.1875 578.75 C83.84460937 579.35328125 83.50171875 579.9565625 83.1484375 580.578125 C78.05617702 590.1002381 73.97158864 600.79085348 72.66061401 611.5302124 C72.1875 614.75 72.1875 614.75 71.46096802 617.71148682 C68.138355 631.75000047 68.81882394 646.11784723 68.91624975 660.44912624 C68.93901419 664.32048947 68.94345632 668.19187462 68.94973755 672.06329346 C68.96413867 679.3831825 68.99299079 686.7029314 69.02798474 694.02274823 C69.09017581 707.12777504 69.12769139 720.23288498 69.15957749 733.33801675 C69.17131213 737.92428647 69.18941769 742.51047225 69.21309257 747.09669542 C69.2270415 749.95872155 69.23682282 752.82075258 69.24572754 755.68279839 C69.25310962 757.61743205 69.26573797 759.55204354 69.27859497 761.48664856 C69.33256658 782.99222225 69.33256658 782.99222225 65.1875 791.875 C64.88062256 792.55095215 64.57374512 793.2269043 64.25756836 793.92333984 C61.25948571 800.17936385 57.3197926 805.07450831 52.1875 809.75 C51.56230469 810.31976562 50.93710938 810.88953125 50.29296875 811.4765625 C33.61768945 825.16784445 10.42701619 827.09627362 -10.24609375 826.98046875 C-11.69556131 826.97927019 -13.14502965 826.97882521 -14.59449768 826.9790802 C-17.61570186 826.97752938 -20.63678522 826.96935816 -23.65795898 826.95581055 C-27.45636976 826.93895832 -31.25464847 826.9350981 -35.053092 826.93560314 C-80.83260014 826.93445813 -80.83260014 826.93445813 -102.875 823.5625 C-103.60354187 823.45462158 -104.33208374 823.34674316 -105.08270264 823.2355957 C-120.44019874 820.96028834 -135.66081026 818.14339611 -150.8125 814.75 C-151.73869141 814.54938965 -152.66488281 814.3487793 -153.61914062 814.14208984 C-161.89449876 812.30118672 -168.91823972 810.5446969 -174.18359375 803.37109375 C-174.72113281 802.50613281 -175.25867188 801.64117188 -175.8125 800.75 C-176.42222656 799.81285156 -177.03195312 798.87570312 -177.66015625 797.91015625 C-188.24591695 780.08742114 -190.09153503 759.35553183 -190.14802551 739.07465935 C-190.15643428 736.15076637 -190.17704453 733.2271683 -190.20056152 730.30335999 C-190.25649128 723.04790563 -190.29206347 715.79237924 -190.32818604 708.5368042 C-190.35960523 702.38401712 -190.39892149 696.23137556 -190.44844055 690.07870674 C-190.46829114 687.21846052 -190.47678168 684.3583318 -190.48474121 681.49803162 C-190.538209 672.39093573 -190.85982758 663.68970099 -192.8125 654.75 C-192.97217758 653.94560486 -193.13185516 653.14120972 -193.29637146 652.31243896 C-195.09581233 643.25806809 -197.49270736 634.95887282 -201.8125 626.75 C-202.24175781 625.8734375 -202.67101562 624.996875 -203.11328125 624.09375 C-213.39903904 603.92786994 -231.57663181 586.10741053 -248.70703125 571.5703125 C-252.12827505 568.61242825 -255.42461926 565.51828567 -258.7409668 562.4440918 C-262.02980314 559.39584403 -265.33018353 556.36138679 -268.64624023 553.34277344 C-276.20078022 546.45477531 -283.07784442 539.55019017 -289.4921875 531.5703125 C-291.68871375 528.90046073 -293.96830962 526.35272023 -296.3125 523.8125 C-301.21526263 518.4101467 -305.54812194 512.66167675 -309.8125 506.75 C-310.26496094 506.12738281 -310.71742188 505.50476562 -311.18359375 504.86328125 C-332.73836531 475.13054758 -351.15633966 443.05228515 -363.16503906 408.28857422 C-364.87624386 403.34970858 -366.67990515 398.47622768 -368.625 393.625 C-370.3555884 389.19424273 -371.55581383 384.96307946 -372.36328125 380.28125 C-372.84431243 377.57074385 -373.47427378 374.92480834 -374.125 372.25 C-375.73717129 365.34659988 -377.09190045 358.39726406 -378.4375 351.4375 C-378.65575439 350.31601562 -378.87400879 349.19453125 -379.09887695 348.0390625 C-379.30601318 346.95753906 -379.51314941 345.87601563 -379.7265625 344.76171875 C-379.9117041 343.79709717 -380.0968457 342.83247559 -380.28759766 341.83862305 C-381.54676436 334.42945187 -381.96085943 327.3529196 -381.9453125 319.84765625 C-381.94626923 318.81168808 -381.94722595 317.77571991 -381.94821167 316.70835876 C-381.9488897 314.52065978 -381.94706177 312.33295875 -381.94287109 310.14526367 C-381.93756681 306.8539559 -381.94280344 303.56278767 -381.94921875 300.27148438 C-381.96326289 267.6132923 -381.96326289 267.6132923 -378.875 254.8125 C-378.53198919 253.30351326 -378.18954307 251.79439805 -377.84765625 250.28515625 C-377.67524414 249.54418701 -377.50283203 248.80321777 -377.32519531 248.03979492 C-376.7915175 245.65628815 -376.32368264 243.26585984 -375.86328125 240.8671875 C-374.79214459 235.44760263 -373.39917959 230.13826076 -371.9375 224.8125 C-371.57205078 223.44448242 -371.57205078 223.44448242 -371.19921875 222.04882812 C-364.00731543 195.68472657 -352.13061502 169.38314867 -336.8125 146.75 C-336.23628906 145.85152344 -335.66007813 144.95304688 -335.06640625 144.02734375 C-326.1870839 130.31146744 -315.9666381 117.54087303 -305.171875 105.29296875 C-303.8889448 103.83676924 -302.61601813 102.37177405 -301.34375 100.90625 C-297.38911539 96.40988463 -293.34411903 92.31059635 -288.765625 88.453125 C-286.73457045 86.68204543 -284.87443232 84.81038946 -283 82.875 C-278.26525439 78.08498499 -273.09386683 73.91950013 -267.8125 69.75 C-266.8121875 68.9559375 -265.811875 68.161875 -264.78125 67.34375 C-227.69164648 38.18492827 -183.41884114 15.26470895 -136.90917969 6.21923828 C-134.51050586 5.68241351 -132.18423789 4.98139486 -129.828125 4.28125 C-123.21139357 2.44466242 -116.51047077 1.64413784 -109.70751953 0.86962891 C-107.57854019 0.6268293 -105.45142132 0.37113887 -103.32421875 0.11328125 C-69.06675036 -3.97092256 -34.28163995 -3.49510187 0 0 Z " fill="#414140" transform="translate(1040.8125,631.25)"/>
<path d="M0 0 C0.7001825 0.05867249 1.40036499 0.11734497 2.12176514 0.17779541 C11.30141985 0.97194532 20.3003375 2.31085981 29.35571289 3.98510742 C33.89160802 4.81656778 38.4391784 5.51119604 43 6.1875 C49.1820431 7.13263384 55.21741071 8.27454243 61.25390625 9.94140625 C63.72843899 10.57074813 66.17329448 11.07801777 68.6796875 11.5546875 C109.73569307 19.64707335 151.85364337 35.3112851 183.1875 63.6875 C184.52361328 64.84378906 184.52361328 64.84378906 185.88671875 66.0234375 C207.38426275 84.78852185 219.71576026 108.35483328 227.875 135.3125 C228.17857422 136.29585327 228.17857422 136.29585327 228.48828125 137.29907227 C231.69463954 148.18866659 232.81362139 159.6723177 234.41967773 170.88720703 C234.74956132 173.1844451 235.08468445 175.48088168 235.41992188 177.77734375 C235.63573891 179.27859954 235.85124406 180.77990021 236.06640625 182.28125 C236.16433975 182.9472522 236.26227325 183.61325439 236.36317444 184.29943848 C237.85435692 194.83457091 238.34521023 205.31651938 238.35546875 215.94921875 C238.35879715 217.17929153 238.36212555 218.40936432 238.36555481 219.67671204 C238.37058667 222.26420725 238.3729643 224.85170888 238.37280273 227.43920898 C238.37498434 231.3469541 238.39316745 235.2544142 238.41210938 239.16210938 C238.44183772 252.17954254 238.16003513 264.81135249 236.1875 277.6875 C235.9106144 279.85519571 235.63575573 282.02315165 235.36328125 284.19140625 C233.28937396 299.16814412 229.87035281 313.32052953 225.1875 327.6875 C224.83703613 328.79399902 224.83703613 328.79399902 224.47949219 329.92285156 C217.81944632 350.85298054 203.21113139 366.24294035 188.1875 381.6875 C187.42904785 382.46786621 186.6705957 383.24823242 185.88916016 384.05224609 C183.55970139 386.43930532 181.22007256 388.81578454 178.875 391.1875 C178.13942871 391.93620361 177.40385742 392.68490723 176.64599609 393.45629883 C175.96230957 394.14103271 175.27862305 394.8257666 174.57421875 395.53125 C173.96795654 396.14162109 173.36169434 396.75199219 172.73706055 397.38085938 C171.1875 398.6875 171.1875 398.6875 169.1875 398.6875 C169.1875 399.3475 169.1875 400.0075 169.1875 400.6875 C167.859375 402.02734375 167.859375 402.02734375 165.9375 403.625 C162.27776435 406.73317974 158.71409996 409.9298733 155.1875 413.1875 C151.95285684 416.16802472 148.70923636 419.13066806 145.375 422 C134.98101873 431.05761225 125.09668002 440.66767039 115.3125 450.375 C114.44536377 451.22916504 113.57822754 452.08333008 112.68481445 452.96337891 C106.75030876 458.88936861 101.40427428 465.12609932 96.1875 471.6875 C95.10366307 473.01213816 94.0179673 474.33525953 92.9296875 475.65625 C87.1666305 482.72714505 81.85963493 489.83201925 77.1875 497.6875 C76.68992187 498.49316406 76.19234375 499.29882812 75.6796875 500.12890625 C60.80533321 524.38734269 52.69756505 549.50728821 49.1875 577.6875 C49.10490181 578.32043913 49.02230362 578.95337826 48.93720245 579.60549736 C48.2501511 585.21692002 48.04468752 590.72471176 48.05810547 596.37426758 C48.05635315 597.29976913 48.05460083 598.22527069 48.05279541 599.17881775 C48.04840998 602.22990827 48.05131173 605.28094015 48.0546875 608.33203125 C48.05401154 610.50062572 48.05303909 612.66922012 48.05178833 614.83781433 C48.05031414 619.40140499 48.05244967 623.96497608 48.05712891 628.52856445 C48.06270851 634.23480428 48.0595755 639.94099601 48.05361557 645.64723396 C48.04889911 651.22967021 48.05122917 656.81209494 48.0546875 662.39453125 C48.05489521 664.04432669 48.05489521 664.04432669 48.05510712 665.72745132 C48.06216745 677.69693224 48.1724148 689.65104737 48.55957031 701.61474609 C48.59106485 702.64032844 48.62255939 703.66591078 48.65500832 704.72257137 C48.80526446 709.55726599 48.97702439 714.3892787 49.18966675 719.22163391 C49.24844176 720.9298758 49.30651767 722.63814193 49.36376953 724.34643555 C49.42696066 725.49012509 49.42696066 725.49012509 49.49142838 726.65691948 C49.63685543 731.84759383 48.55930502 734.7507017 45.1875 738.6875 C41.69397105 739.85200965 38.47574189 739.91660292 34.8359375 740.00390625 C34.10363922 740.02468735 33.37134094 740.04546844 32.61685181 740.06687927 C31.05842862 740.11014874 29.49994224 740.15119005 27.94140625 740.19018555 C25.61961763 740.24856385 23.29812211 740.31405369 20.9765625 740.38085938 C10.71167699 740.6636465 0.45590015 740.73889911 -9.8125 740.6875 C-10.95933217 736.30997893 -12.02732146 732.13541391 -12.375 727.61328125 C-12.44976563 726.69611328 -12.52453125 725.77894531 -12.6015625 724.83398438 C-12.67117188 723.89876953 -12.74078125 722.96355469 -12.8125 722 C-12.95702516 720.16265705 -13.10292731 718.32542204 -13.25 716.48828125 C-13.33040527 715.44542969 -13.41081055 714.40257812 -13.49365234 713.328125 C-13.72844336 710.64726465 -13.99954148 707.98491262 -14.30712891 705.3125 C-15.98805708 690.26602027 -16.21032535 675.27490213 -16.19026184 660.14544678 C-16.18746412 658.03543757 -16.18766997 655.9254405 -16.18786621 653.81542969 C-16.16118306 615.17595157 -12.44872167 577.60320063 -3.9609375 539.875 C-3.01024165 535.6374378 -2.17077652 531.39410695 -1.375 527.125 C0.4106614 518.03436013 2.95941955 509.14541084 5.47070312 500.23291016 C6.10697118 497.97346509 6.73494487 495.71195636 7.359375 493.44921875 C8.84640005 488.1245252 10.37544436 482.88542352 12.40625 477.7421875 C13.77461649 474.14338362 14.93158511 470.47230566 16.125 466.8125 C35.73732815 409.12918191 67.02654311 353.4930411 105.8125 306.5625 C123.53621898 285.08083574 138.19574896 263.14088745 138.4375 234.4375 C138.44692627 233.58526855 138.45635254 232.73303711 138.46606445 231.85498047 C138.39878127 218.87821296 132.38590079 205.99522568 123.42578125 196.65234375 C108.06690189 183.16976728 88.07921359 179.50397673 68.23583984 180.52832031 C64.08827441 180.8506341 60.20617864 181.63342036 56.1875 182.6875 C55.83558594 182.03523437 55.48367188 181.38296875 55.12109375 180.7109375 C51.81567274 174.85956559 48.61287583 170.64116469 43.1875 166.6875 C42.300625 165.965625 41.41375 165.24375 40.5 164.5 C26.04549875 156.59093328 7.96787759 158.53821451 -7.37109375 162.6171875 C-10.68511792 163.52791429 -10.68511792 163.52791429 -13.03515625 164.8828125 C-14.8125 165.6875 -14.8125 165.6875 -16.84765625 165.53125 C-19.29617354 164.47979924 -20.4786256 163.1758579 -22.25 161.1875 C-35.93064118 147.05083744 -54.14637527 138.9889783 -73.75341797 138.28515625 C-91.89650051 138.02310972 -107.27733037 142.91095586 -120.66918945 155.4453125 C-124.80518082 159.48641976 -128.02339061 163.64054015 -130.8125 168.6875 C-131.24949219 169.44289063 -131.68648437 170.19828125 -132.13671875 170.9765625 C-144.88001083 194.47320315 -143.16244727 226.12292854 -136.85546875 251.328125 C-135.4953605 256.83773697 -134.5583756 262.4093233 -133.62109375 268.00390625 C-132.90931047 271.24647453 -131.9176748 274.14426808 -130.70678711 277.2253418 C-128.61626563 282.98098174 -127.059836 288.92716207 -125.375 294.8125 C-124.98922031 296.1511247 -124.60315423 297.48966691 -124.21679688 298.828125 C-122.69902325 304.09205889 -121.18880326 309.35809427 -119.69335938 314.62841797 C-119.34208984 315.86479004 -118.99082031 317.10116211 -118.62890625 318.375 C-118.31767822 319.47457031 -118.0064502 320.57414062 -117.68579102 321.70703125 C-116.72556828 324.98419066 -115.66755373 328.21270187 -114.5234375 331.4296875 C-113.67914742 334.11100436 -113.03549824 336.83099188 -112.36572266 339.56005859 C-111.48696269 342.93936766 -110.39210867 346.24313047 -109.3125 349.5625 C-107.40458496 355.56629339 -105.86965182 361.4710859 -104.8125 367.6875 C-104.46366042 369.65551982 -104.11424937 371.62345177 -103.75634766 373.58984375 C-103.39463111 375.57951634 -103.04273516 377.57096695 -102.69140625 379.5625 C-102.09916391 382.60593673 -101.27631464 385.50854042 -100.34375 388.46484375 C-98.63793593 393.98828131 -97.66786848 399.55015004 -96.75 405.25 C-95.45809727 413.20954442 -95.45809727 413.20954442 -93.81640625 421.1015625 C-92.49664673 426.84877803 -91.67865846 432.67034754 -90.8125 438.5 C-90.47993142 440.71495871 -90.14660157 442.92980326 -89.8125 445.14453125 C-89.6467749 446.25086914 -89.4810498 447.35720703 -89.31030273 448.49707031 C-88.86472151 451.35281109 -88.36179586 454.19120011 -87.84765625 457.03515625 C-86.34443262 465.99792507 -85.4971974 475.04973067 -84.58032227 484.08740234 C-84.25843171 487.23017712 -83.9195628 490.37080356 -83.58007812 493.51171875 C-80.40900276 523.90678199 -80.60322659 554.53266984 -80.57226562 585.06079102 C-80.56789428 588.75425155 -80.55400527 592.44747675 -80.53125 596.14086914 C-80.40713596 616.75687719 -80.73178553 637.24626377 -82.203125 657.81640625 C-82.26587364 658.6938191 -82.32862228 659.57123196 -82.3932724 660.47523308 C-83.10686544 670.22920574 -83.98970372 679.95189289 -85.16116714 689.66218662 C-85.68577438 694.09450435 -85.95451847 698.47656912 -86.0625 702.9375 C-86.45412212 709.72069061 -87.97629616 716.01263042 -89.75 722.5625 C-90.01522461 723.54508789 -90.28044922 724.52767578 -90.55371094 725.54003906 C-92.03931858 730.76457971 -92.03931858 730.76457971 -92.8125 732.6875 C-96.31450438 734.43850219 -100.11902527 732.71832434 -103.8125 731.875 C-104.64523437 731.69646484 -105.47796875 731.51792969 -106.3359375 731.33398438 C-107.13257813 731.15544922 -107.92921875 730.97691406 -108.75 730.79296875 C-109.48089844 730.62949951 -110.21179688 730.46603027 -110.96484375 730.29760742 C-112.8125 729.6875 -112.8125 729.6875 -114.8125 727.6875 C-115.12220764 725.76895142 -115.12220764 725.76895142 -115.20727539 723.38525391 C-115.24397842 722.48475311 -115.28068146 721.58425232 -115.3184967 720.65646362 C-115.34874435 719.66897125 -115.378992 718.68147888 -115.41015625 717.6640625 C-115.44898422 716.63137238 -115.48781219 715.59868225 -115.52781677 714.53469849 C-115.65304522 711.12756601 -115.76410967 707.72012681 -115.875 704.3125 C-115.9590342 701.95733524 -116.04367497 699.60219205 -116.12890625 697.24707031 C-116.53162496 685.83563774 -116.86239203 674.42409313 -117.08984375 663.0078125 C-117.10990982 662.01886993 -117.12997589 661.02992737 -117.15065002 660.01101685 C-117.24251045 655.3754314 -117.32286355 650.74010903 -117.38305664 646.10400391 C-117.54199488 635.81517305 -118.32549954 625.87324251 -119.8125 615.6875 C-120.06322436 613.77630642 -120.31214915 611.86487516 -120.55859375 609.953125 C-124.17837815 583.24205736 -133.10497741 558.80161047 -148.8125 536.6875 C-149.51439453 535.68203125 -149.51439453 535.68203125 -150.23046875 534.65625 C-151.70312803 532.61784772 -153.24104957 530.65093807 -154.8125 528.6875 C-155.52535156 527.78902344 -156.23820313 526.89054687 -156.97265625 525.96484375 C-163.97479477 517.38614516 -171.74026982 509.57137791 -179.5625 501.75 C-180.10556793 501.2060257 -180.64863586 500.66205139 -181.2081604 500.10159302 C-186.70499164 494.60579777 -192.21231706 489.16039317 -198.15136719 484.13647461 C-199.95677898 482.56164819 -201.63545466 480.89769739 -203.3125 479.1875 C-205.64275445 476.81525898 -208.03354406 474.59636483 -210.5625 472.4375 C-218.60890902 465.48477764 -225.93255771 457.78401746 -232.8125 449.6875 C-233.70202965 448.67221636 -234.59275986 447.65798392 -235.484375 446.64453125 C-252.80391911 426.86016181 -269.30103925 404.88981394 -279.8125 380.6875 C-280.25078125 379.76710938 -280.6890625 378.84671875 -281.140625 377.8984375 C-307.71171062 320.23042202 -313.75170973 244.61332729 -291.8125 184.6875 C-291.36268009 183.08674424 -290.92422415 181.48272846 -290.5 179.875 C-280.5583368 146.4047339 -258.35039067 113.96673314 -235.24804688 88.28613281 C-233.97178151 86.86487676 -232.71128818 85.42949312 -231.453125 83.9921875 C-227.08135779 79.03007217 -222.51888002 74.2687567 -217.875 69.5625 C-217.30652344 68.98097168 -216.73804688 68.39944336 -216.15234375 67.80029297 C-214.7445513 66.38952511 -213.28262876 65.03318457 -211.8125 63.6875 C-211.1525 63.6875 -210.4925 63.6875 -209.8125 63.6875 C-209.8125 63.0275 -209.8125 62.3675 -209.8125 61.6875 C-208.26361498 60.27043498 -206.64488466 58.92940504 -205 57.625 C-201.16551605 54.5661941 -197.37428242 51.47488866 -193.625 48.3125 C-166.5307307 26.21433709 -134.30070755 10.01373925 -99.8125 3.6875 C-99.12043457 3.53571289 -98.42836914 3.38392578 -97.71533203 3.22753906 C-66.14492155 -3.5862186 -32.00292593 -2.71953488 0 0 Z " fill="#EFE197" transform="translate(1013.8125,680.3125)"/>
<path d="M0 0 C2.02559885 0.71500692 4.06385968 1.37423404 6.11035156 2.02685547 C16.69922493 5.47645409 26.26774145 10.21195789 35.94628906 15.68701172 C37.09613281 16.32251953 38.24597656 16.95802734 39.43066406 17.61279297 C64.45243546 31.98564895 87.11324954 53.40431874 103.94628906 76.68701172 C104.77606112 77.79970527 105.60680214 78.91167685 106.43847656 80.02294922 C116.77982094 93.99904294 125.6380579 108.91830273 132.94628906 124.68701172 C133.30964355 125.45819336 133.67299805 126.229375 134.04736328 127.02392578 C143.32858665 146.90038795 148.86455923 167.65033429 152.52880859 189.23339844 C152.94340087 191.67003724 153.37850005 194.10229974 153.81738281 196.53466797 C154.09064965 198.08525025 154.36283628 199.6360234 154.63378906 201.18701172 C154.81312988 202.19042603 154.81312988 202.19042603 154.99609375 203.21411133 C157.00386621 215.15744768 157.15338769 227.23288929 157.13378906 239.31201172 C157.13285248 240.06190369 157.13191589 240.81179565 157.13095093 241.58441162 C157.04395734 273.79089623 151.35700756 304.19590152 135.94628906 332.68701172 C135.3571875 333.78142578 134.76808594 334.87583984 134.16113281 336.00341797 C130.3508978 342.79934966 125.94133209 348.72638416 120.94628906 354.68701172 C120.21152344 355.61771484 119.47675781 356.54841797 118.71972656 357.50732422 C114.18892566 363.22142708 109.58175686 368.08254425 103.94628906 372.68701172 C103.08648438 373.44498047 102.22667969 374.20294922 101.34082031 374.98388672 C81.19304064 392.49423774 55.18971848 406.42749742 28.94628906 411.68701172 C29.69858381 400.65335547 35.96170446 390.29817721 40.69628906 380.49951172 C41.2214209 379.41089844 41.74655273 378.32228516 42.28759766 377.20068359 C59.99090212 340.70546964 81.70734047 305.85707828 107.57128906 274.56201172 C125.29500805 253.08034746 139.95453802 231.14039917 140.19628906 202.43701172 C140.20571533 201.58478027 140.2151416 200.73254883 140.22485352 199.85449219 C140.15757033 186.87772468 134.14468986 173.9947374 125.18457031 164.65185547 C109.82569095 151.169279 89.83800265 147.50348845 69.99462891 148.52783203 C65.84706348 148.85014582 61.9649677 149.63293208 57.94628906 150.68701172 C57.594375 150.03474609 57.24246094 149.38248047 56.87988281 148.71044922 C53.57446181 142.85907731 50.3716649 138.64067641 44.94628906 134.68701172 C44.05941406 133.96513672 43.17253906 133.24326172 42.25878906 132.49951172 C27.80428781 124.590445 9.72666666 126.53772623 -5.61230469 130.61669922 C-8.92632886 131.52742601 -8.92632886 131.52742601 -11.27636719 132.88232422 C-13.05371094 133.68701172 -13.05371094 133.68701172 -15.08886719 133.53076172 C-17.53738448 132.47931095 -18.71983654 131.17536962 -20.49121094 129.18701172 C-34.17185212 115.05034916 -52.3875862 106.98849002 -71.99462891 106.28466797 C-90.13771144 106.02262144 -105.51854131 110.91046758 -118.91040039 123.44482422 C-123.04639176 127.48593148 -126.26460155 131.64005187 -129.05371094 136.68701172 C-129.49070312 137.44240234 -129.92769531 138.19779297 -130.37792969 138.97607422 C-143.12122177 162.47271487 -141.40365821 194.12244026 -135.09667969 219.32763672 C-133.73657144 224.83724869 -132.79958653 230.40883502 -131.86230469 236.00341797 C-131.15052141 239.24598625 -130.15888573 242.1437798 -128.94799805 245.22485352 C-126.85747657 250.98049346 -125.30104694 256.92667379 -123.61621094 262.81201172 C-123.23043124 264.15063642 -122.84436517 265.48917863 -122.45800781 266.82763672 C-120.94023418 272.0915706 -119.4300142 277.35760598 -117.93457031 282.62792969 C-117.58330078 283.86430176 -117.23203125 285.10067383 -116.87011719 286.37451172 C-116.55888916 287.47408203 -116.24766113 288.57365234 -115.92700195 289.70654297 C-114.96677921 292.98370237 -113.90876466 296.21221359 -112.76464844 299.42919922 C-111.92035835 302.11051608 -111.27670918 304.8305036 -110.60693359 307.55957031 C-109.72817363 310.93887938 -108.6333196 314.24264219 -107.55371094 317.56201172 C-105.6457959 323.56580511 -104.11086275 329.47059762 -103.05371094 335.68701172 C-102.70487136 337.65503154 -102.35546031 339.62296349 -101.99755859 341.58935547 C-101.63584205 343.57902806 -101.2839461 345.57047867 -100.93261719 347.56201172 C-100.34037485 350.60544845 -99.51752558 353.50805214 -98.58496094 356.46435547 C-96.87914687 361.98779303 -95.90907942 367.54966176 -94.99121094 373.24951172 C-93.68242177 381.28793848 -93.68242177 381.28793848 -92.03417969 389.26123047 C-90.91916574 394.11869006 -90.15610766 399.00852779 -89.42871094 403.93701172 C-89.22761719 405.24412109 -89.22761719 405.24412109 -89.02246094 406.57763672 C-88.41496448 410.6441436 -87.86619747 414.56171534 -88.05371094 418.68701172 C-93.65844181 419.06915246 -98.36403323 417.97657903 -103.77246094 416.53076172 C-107.0392094 415.69074069 -110.30683143 415.02401611 -113.61621094 414.37451172 C-153.05394018 405.97613689 -188.9616993 386.35674723 -218.05371094 358.68701172 C-218.68664062 358.10693359 -219.31957031 357.52685547 -219.97167969 356.92919922 C-234.01994676 343.64841467 -245.01002918 326.09637148 -253.12451172 308.68115234 C-253.73478386 307.37145638 -254.35273035 306.0653038 -254.97900391 304.76318359 C-260.4065029 293.46193101 -264.12115645 281.86690237 -267.05371094 269.68701172 C-267.373479 268.38256104 -267.373479 268.38256104 -267.69970703 267.05175781 C-270.92950372 253.23355549 -271.44171528 239.49896493 -271.49121094 225.37451172 C-271.49747498 224.5395517 -271.50373901 223.70459167 -271.51019287 222.84432983 C-271.58830147 206.38182961 -269.5708445 190.42247281 -265.05371094 174.56201172 C-264.7573877 173.52125488 -264.46106445 172.48049805 -264.15576172 171.40820312 C-256.24326679 144.85650101 -242.4212732 119.94316943 -226.05371094 97.68701172 C-225.64588379 97.12900879 -225.23805664 96.57100586 -224.81787109 95.99609375 C-209.84531904 75.64908841 -192.26514597 55.90796896 -172.05371094 40.68701172 C-170.65561276 39.60883191 -169.25857101 38.52928151 -167.86230469 37.44873047 C-121.08244601 1.36427755 -58.28008706 -20.9252696 0 0 Z " fill="#F6F4AA" transform="translate(1012.0537109375,712.31298828125)"/>
<path d="M0 0 C0.47010498 0.50861572 0.94020996 1.01723145 1.42456055 1.54125977 C3.3502174 3.32427537 4.57247782 3.58730975 7.14453125 4.02734375 C8.46239624 4.25309082 8.46239624 4.25309082 9.80688477 4.48339844 C10.79873779 4.63325195 11.79059082 4.78310547 12.8125 4.9375 C13.89523193 5.1015332 14.97796387 5.26556641 16.09350586 5.43457031 C45.13602018 9.57536302 74.17169519 11.37622255 103.5 11.3125 C104.6662088 11.31004272 105.8324176 11.30758545 107.03396606 11.30505371 C113.64832603 11.28004513 120.25916084 11.19651352 126.87207031 11.05670166 C129.99051284 11.00017198 133.10768379 10.98252706 136.2265625 10.96630859 C138.18232796 10.93133591 140.13806097 10.89448216 142.09375 10.85546875 C142.9657605 10.85936111 143.837771 10.86325348 144.73620605 10.86726379 C150.71731308 10.69155256 154.18031584 9.06130601 158.89123535 5.38008118 C161.29198863 3.80890802 163.17826485 3.39871327 166 3 C167.21042969 2.79503906 167.21042969 2.79503906 168.4453125 2.5859375 C181.63018947 1.54806089 195.85396599 10.09630611 206 18 C206.64066406 18.47953125 207.28132813 18.9590625 207.94140625 19.453125 C214.00874792 24.26646494 216.96403286 29.22082855 218 37 C219.22083929 49.23613926 216.89393424 56.45288909 209.3984375 66.05078125 C197.84853706 78.88084307 181.2694743 81.53969872 165 83 C163.00021284 83.02917759 160.9995939 83.04030189 159 83 C159 84.98 159 86.96 159 89 C160.26714844 89.05929687 161.53429688 89.11859375 162.83984375 89.1796875 C168.76228386 89.84481773 173.38424922 92.30527184 178.5625 95.125 C179.45646484 95.58648438 180.35042969 96.04796875 181.27148438 96.5234375 C188.6714344 100.46430335 196.89014216 105.43365663 200.37109375 113.44140625 C202.53876561 122.26019551 202.28983532 132.0246643 197.5234375 139.8984375 C190.06859644 150.18229516 178.12740263 156.29062778 165.68359375 158.62109375 C161.45170375 159.05639951 157.3118762 159.10983667 153.0625 159.0625 C152.28326172 159.05798828 151.50402344 159.05347656 150.70117188 159.04882812 C148.80074732 159.03716908 146.90036294 159.01923877 145 159 C144.34 162.96 143.68 166.92 143 171 C143.78375 171.20625 144.5675 171.4125 145.375 171.625 C153.27387993 174.62112687 160.29164085 178.82453015 165 186 C166.80884399 191.42653197 166.83684753 196.84393048 164.5 202.125 C160.37992792 209.40766263 153.55716423 213.83545997 146 217 C143.29372225 217.58706966 140.88439128 217.99712124 138.15625 218.23828125 C137.01476501 218.35119255 137.01476501 218.35119255 135.85021973 218.46638489 C125.59151204 219.36196323 115.28773178 219.26118031 104.99902344 219.20581055 C101.53312671 219.18767335 98.06750163 219.18530106 94.6015625 219.18554688 C83.08067808 219.16799023 71.57229427 218.98937222 60.05859375 218.57421875 C59.02903564 218.5388652 57.99947754 218.50351166 56.9387207 218.46708679 C16.56713966 216.84530735 16.56713966 216.84530735 5 205 C-0.07523485 199.02144466 -0.76638673 193.02446002 -0.5 185.32421875 C0.36239118 179.59066489 2.99067858 176.00932142 7 172 C7.76977069 166.26723409 5.02713188 161.77509589 2.3203125 156.8984375 C-0.9937407 152.75866061 -3.91793754 152.3005227 -9.00390625 151.51953125 C-17.15348533 150.10637086 -24.63669386 144.23900566 -29.6953125 137.86328125 C-36.14223528 128.69120996 -37.23242275 119.53318796 -35.640625 108.51171875 C-33.63160784 100.86930889 -27.66992015 94.47939599 -21.23046875 90.12890625 C-18.68234384 88.13172812 -18.68234384 88.13172812 -18.51171875 84.765625 C-18.56972656 83.60546875 -18.62773438 82.4453125 -18.6875 81.25 C-18.73261719 80.07953125 -18.77773438 78.9090625 -18.82421875 77.703125 C-18.88222656 76.81109375 -18.94023438 75.9190625 -19 75 C-19.68964844 74.78085938 -20.37929688 74.56171875 -21.08984375 74.3359375 C-32.79225685 70.38697506 -42.86800947 64.2434749 -48.57421875 52.859375 C-52.88875315 42.62317303 -55.04308452 33.15920445 -51.4375 22.25 C-47.25575656 12.1697974 -40.27097274 5.73589865 -31.0625 0.25 C-21.29008446 -3.73874104 -9.46213318 -5.43569353 0 0 Z " fill="#404040" transform="translate(907,1460)"/>
<path d="M0 0 C13.37556961 -0.78679821 25.73451915 5.62001657 35.5625 14.125 C36.69474408 15.15878807 37.82267258 16.19745344 38.9375 17.25 C37.36560465 21.00508333 34.99271902 23.45927235 32.1875 26.375 C17.494405 42.1626264 13.10386965 61.13721978 13.828125 82.140625 C14.33831571 91.98001718 16.3370645 102.41783657 22.3125 110.4375 C25.56254027 112.68157542 27.04711905 112.58140282 30.9375 112.25 C47.59976731 105.74284235 58.71295815 92.16678407 65.9375 76.3125 C71.72460769 62.82723127 71.89465802 48.4545121 69.4375 34.1875 C69.29441406 33.32189453 69.15132812 32.45628906 69.00390625 31.56445312 C68.65486324 29.4585603 68.29710461 27.35411505 67.9375 25.25 C74.83403165 21.70682777 81.48426807 20.77134183 89.125 20.625 C89.96772461 20.59019531 90.81044922 20.55539062 91.67871094 20.51953125 C97.56614937 20.52877007 100.92781361 22.03020331 105.5324707 25.66650391 C106.9375 27.25 106.9375 27.25 106.9375 30.25 C104.77734375 32.01171875 104.77734375 32.01171875 101.875 33.9375 C93.24241334 40.02131268 88.02558404 46.51646658 83.9375 56.25 C83.61652344 56.98476563 83.29554688 57.71953125 82.96484375 58.4765625 C79.30928984 68.37206191 79.17326169 81.01412865 83.0625 90.8125 C87.1104846 99.76025873 87.1104846 99.76025873 93.9375 106.25 C99.3907411 106.90438893 102.55992987 105.87796871 106.95703125 102.8671875 C110.42078598 100.03879607 113.18598022 96.75869475 115.9375 93.25 C116.61619141 92.41662109 116.61619141 92.41662109 117.30859375 91.56640625 C126.76548598 79.28128457 130.18247777 63.91535812 131.25463867 48.78930664 C131.34902222 47.54008423 131.34902222 47.54008423 131.4453125 46.265625 C131.51709717 45.14075684 131.51709717 45.14075684 131.59033203 43.99316406 C131.76218018 43.13029785 131.76218018 43.13029785 131.9375 42.25 C139.59812658 38.41968671 154.54195072 39.89573863 162.63378906 41.92675781 C172.19478722 45.39955147 178.96471101 50.79988684 183.8125 59.6875 C187.51855232 71.04831515 185.36129175 85.50432787 180.15625 95.94921875 C172.47705071 110.50488214 162.48598867 123.6785135 151.9375 136.25 C139.37361611 151.7246655 128.39698451 168.3069344 117.9375 185.25 C117.49341797 185.96414063 117.04933594 186.67828125 116.59179688 187.4140625 C100.51224424 213.40636629 86.71651783 241.67141984 75.9375 270.25 C75.6075 271.12398437 75.2775 271.99796875 74.9375 272.8984375 C73.91267139 275.67401499 72.92205589 278.45985719 71.9375 281.25 C71.6782373 281.97880371 71.41897461 282.70760742 71.15185547 283.45849609 C67.84381141 292.7620237 64.58086407 302.05825275 61.76171875 311.5234375 C61.1708424 313.47809006 60.54121116 315.42118821 59.88671875 317.35546875 C59.13437128 319.64966412 58.53538576 321.82789654 58.0625 324.1875 C57.22763775 328.14757753 56.17817476 332.02046905 55.08984375 335.91796875 C52.69442133 344.72969878 51.02241083 353.64887723 49.375 362.625 C49.08188975 364.19540769 48.78827113 365.76572058 48.49414062 367.3359375 C47.76903984 371.21835579 47.05638437 375.10291537 46.34994507 378.98876953 C45.94821927 381.19123161 45.5403213 383.39248784 45.13208008 385.59375 C43.30948759 395.52368266 41.81700251 405.4597793 40.75 415.5 C40.66345154 416.31362 40.57690308 417.12723999 40.48773193 417.96551514 C38.79492125 434.57417162 38.55563388 451.18936602 38.56188583 467.86833191 C38.56249113 469.84601898 38.55991 471.82370619 38.55728149 473.8013916 C38.5596793 489.73036958 39.16110184 505.41975584 40.9375 521.25 C41.08652205 522.64445159 41.23484426 524.03897822 41.38232422 525.43359375 C41.76071953 528.93681659 42.15680513 532.43734684 42.5625 535.9375 C42.82701165 538.23290161 43.09010561 540.52846718 43.3515625 542.82421875 C43.4645166 543.79963623 43.5774707 544.77505371 43.69384766 545.7800293 C43.9375 548.25 43.9375 548.25 43.9375 551.25 C40.02034275 551.13821106 36.10398772 551.008063 32.1875 550.875 C31.09566406 550.8440625 30.00382813 550.813125 28.87890625 550.78125 C21.42425826 550.51658794 14.26184872 549.65954789 6.9375 548.25 C6.77797307 543.38442871 6.89287423 538.96809998 7.8515625 534.19140625 C8.99507283 528.1532868 9.7440335 522.10402933 10.4375 516 C10.67599544 513.9321659 10.91559258 511.8644586 11.15625 509.796875 C11.28016113 508.72864502 11.40407227 507.66041504 11.53173828 506.55981445 C11.9451209 503.18783602 12.42079897 499.82827375 12.8984375 496.46484375 C17.17839675 464.43036778 18.33275687 432.04197921 18.31356049 399.75603867 C18.31251806 397.59985316 18.31481731 395.44368986 18.31744385 393.2875061 C18.325337 375.57097501 17.66650281 357.97887157 16.19219971 340.31759644 C15.88783368 336.65182016 15.61177418 332.98430205 15.3374939 329.31617737 C15.10561128 326.24292251 14.86119064 323.17074975 14.61474609 320.09863281 C14.4945966 318.59130278 14.37649689 317.08380821 14.26025391 315.57617188 C13.59468159 306.94743703 12.75333887 298.41681256 11.44750977 289.85644531 C10.98270202 286.56963823 10.61779703 283.29250567 10.28529358 279.99084473 C9.12745547 268.58594063 7.11005876 257.38701616 5 246.125 C4.64851028 244.22276301 4.29759694 242.32041942 3.94726562 240.41796875 C3.10761781 235.86639046 2.25926956 231.31649379 1.40744019 226.7671814 C0.95964321 224.36860759 0.51624991 221.96926718 0.07446289 219.56958008 C-0.18732656 218.15445766 -0.44912603 216.73933709 -0.7109375 215.32421875 C-0.93313965 214.11854248 -1.1553418 212.91286621 -1.38427734 211.6706543 C-2.34581755 206.82107194 -3.51057128 202.02734135 -4.765625 197.24609375 C-5.83612876 193.13869367 -6.88079749 189.02511383 -7.921875 184.91015625 C-11.12405271 172.28958758 -14.33234499 159.71452899 -18.39111328 147.33544922 C-21.07037833 139.01316483 -23.5340794 130.61907219 -26.0625 122.25 C-26.31064453 121.43225098 -26.55878906 120.61450195 -26.81445312 119.77197266 C-29.57344361 110.66307719 -32.02932555 101.55203646 -34.0625 92.25 C-34.40586302 90.77694901 -34.75103242 89.30431834 -35.09765625 87.83203125 C-35.46112418 86.26306407 -35.82440641 84.69405386 -36.1875 83.125 C-36.35838135 82.40900635 -36.5292627 81.6930127 -36.70532227 80.95532227 C-40.54740625 64.0918854 -41.88717604 42.73636566 -36.0625 26.25 C-35.80726563 25.52425781 -35.55203125 24.79851563 -35.2890625 24.05078125 C-31.1531674 14.39403536 -23.4022139 7.59443438 -13.98046875 3.3671875 C-9.30689534 1.57784079 -4.94798925 0.59975627 0 0 Z " fill="#F6F4AA" transform="translate(938.0625,854.75)"/>
<path d="M0 0 C3.80175799 0.01070507 7.60304156 0.00005399 11.40478516 -0.01269531 C25.70168804 -0.02194024 39.75006573 0.4942816 53.93994141 2.26074219 C54.72498047 2.35695862 55.51001953 2.45317505 56.31884766 2.55230713 C60.8940804 3.12077601 65.46146344 3.73539891 70.02612305 4.38305664 C72.27065104 4.70082017 74.51630162 5.0095215 76.76220703 5.31738281 C90.01407299 7.15810465 103.08350206 9.53723256 116.10400391 12.63964844 C118.51940685 13.16864164 120.86010667 13.55518552 123.31494141 13.82324219 C126.33974252 14.18830439 129.00543979 14.80775026 131.9140625 15.6652832 C134.09654016 16.30677067 136.28653518 16.91602856 138.47900391 17.52246094 C155.24995422 22.20576328 172.02052625 27.13298144 187.93994141 34.26074219 C188.91084717 34.68105713 188.91084717 34.68105713 189.90136719 35.10986328 C203.69806172 41.1259874 217.08521907 47.94355028 228.93994141 57.26074219 C230.72990152 58.51318469 232.52162678 59.76310758 234.31494141 61.01074219 C260.48010133 80.07393013 277.25153393 106.34617604 285.93994141 137.26074219 C286.28541016 138.40800781 286.63087891 139.55527344 286.98681641 140.73730469 C287.99628248 144.46901945 288.69365867 148.20081053 289.31494141 152.01074219 C290.20440901 157.33240298 291.22035699 162.58695054 292.44906616 167.84068298 C294.26968271 175.80273023 295.41306481 183.65942778 296.03759766 191.80371094 C296.12155792 192.88694138 296.20551819 193.97017181 296.29202271 195.08622742 C297.14626315 206.91292868 297.33890792 218.71936034 297.31494141 230.57324219 C297.31373291 231.69394104 297.31252441 232.81463989 297.3112793 233.96929932 C297.22112355 265.02630662 293.97488951 293.53308023 284.93994141 323.26074219 C284.6747168 324.1852417 284.40949219 325.10974121 284.13623047 326.06225586 C282.70705713 331.0227951 281.03778841 335.64667276 278.81494141 340.32324219 C278.52288818 340.9388501 278.23083496 341.55445801 277.92993164 342.1887207 C274.17558326 350.00287913 270.0569968 357.63345363 265.93994141 365.26074219 C265.27994141 365.26074219 264.61994141 365.26074219 263.93994141 365.26074219 C265.48837136 360.02377583 267.08001636 354.80334399 268.73632812 349.59936523 C269.61430675 346.82467193 270.47317613 344.04433417 271.32568359 341.26171875 C271.88042783 339.45461073 272.44476819 337.6504553 273.01025391 335.84667969 C278.99976431 315.33142752 281.08735437 293.30458386 281.10791016 271.99902344 C281.11123856 270.76895065 281.11456696 269.53887787 281.11799622 268.27153015 C281.12302808 265.68403493 281.12540571 263.09653331 281.12524414 260.5090332 C281.12742575 256.60128809 281.14560885 252.69382799 281.16455078 248.78613281 C281.1945563 235.76326912 280.89513698 223.14267823 278.93994141 210.26074219 C278.60256817 207.66100285 278.26921772 205.06073822 277.93994141 202.45996094 C277.60796515 199.9558744 277.27464286 197.45196593 276.93994141 194.94824219 C276.77494141 193.69462891 276.60994141 192.44101562 276.43994141 191.14941406 C275.95592679 187.51741376 275.45413001 183.88858601 274.93994141 180.26074219 C274.79596924 179.22844482 274.65199707 178.19614746 274.50366211 177.13256836 C273.36202176 169.5965045 271.40891301 162.46371957 269.12744141 155.19824219 C268.79679687 154.10447266 268.46615234 153.01070312 268.12548828 151.88378906 C256.19811558 113.40026985 228.18884713 84.48078855 193.33398438 65.51220703 C180.64260937 58.8779027 167.47053335 53.36513664 153.87207031 48.89892578 C152.00735186 48.28300791 150.1511548 47.64147308 148.29541016 46.99902344 C133.37030426 41.87306616 118.36282932 37.39113189 102.76416016 34.90527344 C99.3676149 34.33282199 96.08991257 33.6026657 92.75244141 32.76074219 C85.95310254 31.12513296 79.08502645 30.23575014 72.15600586 29.35058594 C67.41485064 28.74443443 62.70754829 28.06329808 57.99853516 27.24121094 C19.85103706 20.78990839 -25.66513197 20.8682201 -63.06005859 31.26074219 C-64.70268279 31.56997114 -66.34837986 31.8636277 -67.99755859 32.13574219 C-102.84067704 38.97466222 -136.67141478 60.55593675 -162.13427734 84.64355469 C-164.06005859 86.26074219 -164.06005859 86.26074219 -166.06005859 86.26074219 C-166.06005859 86.92074219 -166.06005859 87.58074219 -166.06005859 88.26074219 C-167.35302734 89.53027344 -167.35302734 89.53027344 -169.24755859 91.07324219 C-179.20403345 99.56449113 -187.9540532 109.0032363 -196.06005859 119.26074219 C-196.73939453 120.06125 -197.41873047 120.86175781 -198.11865234 121.68652344 C-242.4186451 173.95238645 -260.64528631 236.64403451 -259.06005859 304.26074219 C-259.03492188 305.4226709 -259.00978516 306.58459961 -258.98388672 307.78173828 C-258.13302897 337.42718491 -250.16630491 367.99546914 -239.16162109 395.47167969 C-237.62883645 399.35255995 -236.33882958 403.28982177 -235.06005859 407.26074219 C-238.47713959 404.17410419 -240.48699844 401.01392829 -242.62255859 396.94824219 C-243.20134766 395.85898438 -243.78013672 394.76972656 -244.37646484 393.64746094 C-246.07447682 390.23173847 -247.58218002 386.77666299 -249.06005859 383.26074219 C-249.71554687 381.80667969 -249.71554687 381.80667969 -250.38427734 380.32324219 C-258.7556698 361.51759266 -266.67955223 340.76042356 -269.59912109 320.29589844 C-270.11866759 316.87481686 -270.84686015 313.52166946 -271.56005859 310.13574219 C-277.5718526 279.21902403 -278.47563344 243.20357029 -269.98974609 212.67871094 C-269.23465454 209.90263905 -268.65623734 207.21762264 -268.18505859 204.38574219 C-261.69644554 171.05534522 -242.27115253 137.29918853 -221.06005859 111.26074219 C-220.37427734 110.38417969 -219.68849609 109.50761719 -218.98193359 108.60449219 C-214.9192241 103.42213835 -210.64382232 98.48676021 -206.20458984 93.62402344 C-204.32554746 91.55331189 -202.49991454 89.44995882 -200.68505859 87.32324219 C-193.74379602 79.36736351 -186.09697047 72.09419222 -178.06005859 65.26074219 C-177.02128633 64.34782975 -175.98362265 63.43365509 -174.94677734 62.51855469 C-166.99867662 55.54339168 -158.7918189 49.21949848 -150.06005859 43.26074219 C-149.4501709 42.84050781 -148.8402832 42.42027344 -148.21191406 41.98730469 C-120.01559627 22.59728672 -89.27283093 10.08367347 -55.56005859 4.07324219 C-54.69606445 3.91831299 -53.83207031 3.76338379 -52.94189453 3.60375977 C-49.98660886 3.10606452 -47.02859514 2.67253947 -44.06005859 2.26074219 C-42.76181152 2.07979004 -41.46356445 1.89883789 -40.12597656 1.71240234 C-26.77126514 0.00951604 -13.44666732 -0.04494323 0 0 Z " fill="#AA3529" transform="translate(970.06005859375,655.7392578125)"/>
<path d="M0 0 C0.47010498 0.50861572 0.94020996 1.01723145 1.42456055 1.54125977 C3.3502174 3.32427537 4.57247782 3.58730975 7.14453125 4.02734375 C8.46239624 4.25309082 8.46239624 4.25309082 9.80688477 4.48339844 C10.79873779 4.63325195 11.79059082 4.78310547 12.8125 4.9375 C13.89523193 5.1015332 14.97796387 5.26556641 16.09350586 5.43457031 C45.13602018 9.57536302 74.17169519 11.37622255 103.5 11.3125 C104.6662088 11.31004272 105.8324176 11.30758545 107.03396606 11.30505371 C113.64832603 11.28004513 120.25916084 11.19651352 126.87207031 11.05670166 C129.99051284 11.00017198 133.10768379 10.98252706 136.2265625 10.96630859 C138.18232796 10.93133591 140.13806097 10.89448216 142.09375 10.85546875 C142.9657605 10.85936111 143.837771 10.86325348 144.73620605 10.86726379 C150.71731308 10.69155256 154.18031584 9.06130601 158.89123535 5.38008118 C161.29198863 3.80890802 163.17826485 3.39871327 166 3 C167.21042969 2.79503906 167.21042969 2.79503906 168.4453125 2.5859375 C181.63018947 1.54806089 195.85396599 10.09630611 206 18 C206.64066406 18.47953125 207.28132813 18.9590625 207.94140625 19.453125 C214.00874792 24.26646494 216.96403286 29.22082855 218 37 C219.22083929 49.23613926 216.89393424 56.45288909 209.3984375 66.05078125 C197.84853706 78.88084307 181.2694743 81.53969872 165 83 C163.00021284 83.02917759 160.9995939 83.04030189 159 83 C159 84.98 159 86.96 159 89 C158.67 89 158.34 89 158 89 C158 87.02 158 85.04 158 83 C157.45396622 83.02898376 156.90793243 83.05796753 156.34535217 83.08782959 C137.37670847 84.0611106 118.42572898 84.24175423 99.4375 84.25 C98.6578614 84.25073643 97.87822281 84.25147285 97.0749588 84.2522316 C66.88876928 84.27540151 37.03693855 83.43729243 7.16796875 78.609375 C3.36256362 78.01048022 -0.39889122 77.78025187 -4.25 77.625 C-18.55108639 76.75671975 -33.41031186 71.72729308 -43.40234375 61.12109375 C-50.87703794 51.19747775 -54.12095244 40.27371978 -53 28 C-50.68613591 17.45598458 -44.70559016 9.31857977 -35.8984375 3.2109375 C-25.58419409 -3.36810665 -11.07882696 -6.36443251 0 0 Z " fill="#404040" transform="translate(907,1460)"/>
<path d="M0 0 C0 3.11407457 -0.56743556 4.95658768 -1.609375 7.8671875 C-1.9501709 8.82955322 -2.2909668 9.79191895 -2.64208984 10.78344727 C-3.0077002 11.80365967 -3.37331055 12.82387207 -3.75 13.875 C-6.38899276 21.33823842 -8.95822684 28.78916613 -11.2109375 36.37890625 C-11.78770693 38.29480867 -12.40554673 40.19848139 -13.046875 42.09375 C-13.80068489 44.3922523 -14.40125064 46.57358735 -14.875 48.9375 C-15.70986225 52.89757753 -16.75932524 56.77046905 -17.84765625 60.66796875 C-20.24307867 69.47969878 -21.91508917 78.39887723 -23.5625 87.375 C-23.85561025 88.94540769 -24.14922887 90.51572058 -24.44335938 92.0859375 C-25.16846016 95.96835579 -25.88111563 99.85291537 -26.58755493 103.73876953 C-26.98928073 105.94123161 -27.3971787 108.14248784 -27.80541992 110.34375 C-29.62801241 120.27368266 -31.12049749 130.2097793 -32.1875 140.25 C-32.27404846 141.06362 -32.36059692 141.87723999 -32.44976807 142.71551514 C-34.14257875 159.32417162 -34.38186612 175.93936602 -34.37561417 192.61833191 C-34.37500887 194.59601898 -34.37759 196.57370619 -34.38021851 198.5513916 C-34.3778207 214.48036958 -33.77639816 230.16975584 -32 246 C-31.85097795 247.39445159 -31.70265574 248.78897822 -31.55517578 250.18359375 C-31.17678047 253.68681659 -30.78069487 257.18734684 -30.375 260.6875 C-30.11048835 262.98290161 -29.84739439 265.27846718 -29.5859375 267.57421875 C-29.41650635 269.03734497 -29.41650635 269.03734497 -29.24365234 270.5300293 C-29 273 -29 273 -29 276 C-32.91715725 275.88821106 -36.83351228 275.758063 -40.75 275.625 C-41.84183594 275.5940625 -42.93367187 275.563125 -44.05859375 275.53125 C-51.51324174 275.26658794 -58.67565128 274.40954789 -66 273 C-66.15952693 268.13442871 -66.04462577 263.71809998 -65.0859375 258.94140625 C-63.94242717 252.9032868 -63.1934665 246.85402933 -62.5 240.75 C-62.26150456 238.6821659 -62.02190742 236.6144586 -61.78125 234.546875 C-61.5953833 232.94453003 -61.5953833 232.94453003 -61.40576172 231.30981445 C-60.9923791 227.93783602 -60.51670103 224.57827375 -60.0390625 221.21484375 C-55.75910325 189.18036778 -54.60474313 156.79197921 -54.62393951 124.50603867 C-54.62498194 122.34985316 -54.62268269 120.19368986 -54.62005615 118.0375061 C-54.612163 100.32097501 -55.27099719 82.72887157 -56.74530029 65.06759644 C-57.04966632 61.40182016 -57.32572582 57.73430205 -57.6000061 54.06617737 C-57.83188872 50.99292251 -58.07630936 47.92074975 -58.32275391 44.84863281 C-58.4429034 43.34130278 -58.56100311 41.83380821 -58.67724609 40.32617188 C-59.35592098 31.52757037 -60.19909673 22.84207602 -61.61523438 14.12646484 C-62.03400449 10.72369195 -62.06249898 7.42505166 -62 4 C-61.06542969 3.98018066 -60.13085938 3.96036133 -59.16796875 3.93994141 C-36.06143563 3.45067412 -36.06143563 3.45067412 -13 2 C-12.01773438 1.9170166 -11.03546875 1.8340332 -10.0234375 1.74853516 C-6.474454 1.42316905 -3.39378696 1.13126232 0 0 Z " fill="#EDE096" transform="translate(1011,1130)"/>
<path d="M0 0 C4.34307088 2.4270102 6.83321297 5.20753049 8.83203125 9.796875 C10.09308407 14.62643901 10.09017317 19.21528296 10.0625 24.1875 C10.05621582 25.72398193 10.05621582 25.72398193 10.04980469 27.29150391 C9.91185828 36.6527822 8.47457358 45.20988872 6.26367188 54.31542969 C5.75824809 56.39757749 5.25398535 58.48000359 4.75 60.5625 C4.58032715 61.25311523 4.4106543 61.94373047 4.23583984 62.65527344 C2.67496639 69.19507881 1.67961565 75.78916844 0.7890625 82.45019531 C0.13549198 87.23332004 -0.89641362 91.66699153 -2.25 96.3125 C-2.62400786 98.63966 -2.95764733 100.97367862 -3.25 103.3125 C-3.85711054 108.16938429 -4.90061754 112.61274969 -6.25 117.3125 C-6.79874094 120.05144489 -7.24172868 122.80517103 -7.6875 125.5625 C-8.67238921 131.41624175 -9.90332841 137.06899435 -11.56640625 142.7734375 C-12.28466391 145.44125167 -12.78593984 148.08950236 -13.25 150.8125 C-14.05189297 155.48468631 -15.18669617 159.979832 -16.4765625 164.5390625 C-17.22535148 167.22411389 -17.90290846 169.91679474 -18.5625 172.625 C-22.69759321 189.29459449 -27.43598658 205.82795201 -32.25 222.3125 C-32.48106445 223.11107422 -32.71212891 223.90964844 -32.95019531 224.73242188 C-33.60160908 226.97089952 -34.26684416 229.20472245 -34.9375 231.4375 C-35.31261719 232.69820312 -35.68773437 233.95890625 -36.07421875 235.2578125 C-37.17370852 238.11429424 -37.74910684 239.6026436 -40.25 241.3125 C-42.1875 241.74609375 -42.1875 241.74609375 -44.25 241.75 C-44.930625 241.76933594 -45.61125 241.78867187 -46.3125 241.80859375 C-49.12058059 241.08958924 -49.76228309 239.75629267 -51.25 237.3125 C-51.92140496 233.12139145 -51.72069369 228.86345386 -51.6875 224.625 C-51.68493195 223.64500031 -51.68493195 223.64500031 -51.68231201 222.64520264 C-51.59875507 203.5538616 -49.68020813 184.53030861 -47.97428894 165.53086853 C-47.43580263 159.51922217 -46.96249871 153.50820079 -46.55908203 147.48583984 C-43.85689556 108.24321144 -38.2719205 68.48573891 -31.0625 29.8125 C-30.91989746 29.04260742 -30.77729492 28.27271484 -30.63037109 27.47949219 C-28.39029618 16.17835301 -24.88760011 6.22643051 -15.25 -0.6875 C-9.81939165 -2.49770278 -5.15256228 -2.38847747 0 0 Z " fill="#EEDF96" transform="translate(1106.25,321.6875)"/>
<path d="M0 0 C10.78756442 4.34541327 20.33633799 10.91294913 29.33129883 18.19360352 C34.0355305 21.99779254 38.88725534 25.55031607 43.8125 29.0625 C51.07564284 34.25843477 58.14545968 39.64301814 65.12255859 45.21533203 C68.02915381 47.53237803 70.95228216 49.82834847 73.875 52.125 C74.4539502 52.58076416 75.03290039 53.03652832 75.62939453 53.50610352 C79.0025076 56.15721719 82.39581214 58.77938031 85.80712891 61.38110352 C91.66056347 65.84699886 97.35028492 70.45743874 102.984375 75.19921875 C105.54464777 77.3386732 108.13452196 79.42871013 110.75 81.5 C116.31233151 85.92498577 121.71974533 90.52716913 127.13037109 95.13476562 C128.79670522 96.54909392 130.46940384 97.95547744 132.14453125 99.359375 C138.33183821 104.55111794 144.38895349 109.84185587 150.33984375 115.3046875 C152.43117939 117.21431151 154.54508864 119.08581252 156.6875 120.9375 C160.35131938 124.12342989 163.92996157 127.39738617 167.5 130.6875 C168.0470459 131.19071777 168.5940918 131.69393555 169.15771484 132.21240234 C170.21271901 133.18775931 171.26371528 134.16747256 172.31030273 135.15185547 C173.76235528 136.5154114 175.23246596 137.85965809 176.703125 139.203125 C178.8125 141.5625 178.8125 141.5625 178.875 145.1875 C177.8125 148.5625 177.8125 148.5625 176.25 150.5625 C171.83458615 152.37395184 167.58357447 151.29492912 163.31176758 149.52832031 C160.5025674 148.14512192 157.74915565 146.68649183 155 145.1875 C153.99243652 144.64947754 152.98487305 144.11145508 151.94677734 143.55712891 C143.18619534 138.84626292 134.55802613 133.91596332 125.99755859 128.85205078 C123.92696204 127.63005179 121.84982472 126.42024268 119.76953125 125.21484375 C96.27398215 111.56496671 73.34884117 97.001464 50.77978516 81.87792969 C48.70372615 80.48976812 46.62380429 79.10755288 44.54296875 77.7265625 C28.78577804 67.26389867 13.12655717 56.66612296 -2.1875 45.5625 C-3.24710938 44.81484375 -4.30671875 44.0671875 -5.3984375 43.296875 C-13.85072922 37.2078185 -23.37670839 30.05612202 -26.1875 19.5625 C-26.81847589 14.50660347 -26.80367253 10.79484506 -24.5 6.1875 C-17.31849633 -1.96447713 -10.288872 -3.38855066 0 0 Z " fill="#EFDF96" transform="translate(522.1875,557.4375)"/>
<path d="M0 0 C4.24001195 3.67467702 5.62665977 5.86394205 6.2734375 11.296875 C6.54831631 17.93625548 5.32334574 21.9529055 1 27 C-4.160219 31.49184221 -9.95147486 34.86093966 -16 38 C-16.8245166 38.43151367 -17.6490332 38.86302734 -18.49853516 39.30761719 C-24.93763489 42.6069906 -31.47354727 45.22446823 -38.28515625 47.6328125 C-42.99007507 49.36438094 -47.45776057 51.48266665 -51.984375 53.62890625 C-55.6776282 55.30809262 -59.43520885 56.66770339 -63.26171875 58.0078125 C-66.17513904 59.06345979 -69.02016422 60.23270692 -71.875 61.4375 C-77.01985451 63.60757325 -82.2030426 65.64401857 -87.421875 67.62890625 C-89.95994928 68.60146528 -92.48980365 69.58659135 -95.015625 70.58984375 C-104.32341829 74.2758148 -113.69912839 77.68680298 -123.16699219 80.93969727 C-130.01714394 83.29621786 -136.82647986 85.74879006 -143.625 88.25 C-150.19930987 90.65905581 -156.76773888 92.95845417 -163.484375 94.9453125 C-168.26048852 96.37814656 -173.00235193 97.91342915 -177.75 99.4375 C-185.43533314 101.89857062 -193.13941347 104.26823926 -200.89746094 106.48999023 C-204.5310039 107.52510046 -204.5310039 107.52510046 -208 109 C-210.27734375 109.23828125 -210.27734375 109.23828125 -212.9375 109.3125 C-214.25041016 109.36857422 -214.25041016 109.36857422 -215.58984375 109.42578125 C-218 109 -218 109 -219.765625 107.1875 C-221.73721495 103.69354313 -221.86944844 101.9459583 -221 98 C-218.07632787 95.04848338 -214.56223724 93.0999346 -211 91 C-209.76273129 90.25308359 -208.52576779 89.50566142 -207.2890625 88.7578125 C-202.88851535 86.12101922 -198.44723823 83.55702754 -194 81 C-192.74654785 80.27756104 -192.74654785 80.27756104 -191.46777344 79.54052734 C-185.32523396 76.00331957 -179.16779178 72.49297216 -173 69 C-172.19852539 68.54560547 -171.39705078 68.09121094 -170.57128906 67.62304688 C-162.09326068 62.8278938 -153.5701372 58.19440989 -144.8269043 53.8996582 C-140.32306669 51.68385746 -135.90567205 49.34159133 -131.5 46.9375 C-125.83506969 43.86085041 -120.0659625 41.23051733 -114.13208008 38.71899414 C-108.25409439 36.19496411 -102.65295077 33.24513764 -97.02636719 30.20874023 C-91.45823011 27.21175711 -85.81125109 24.49764388 -80 22 C-78.80375 21.484375 -77.6075 20.96875 -76.375 20.4375 C-75.26125 19.963125 -74.1475 19.48875 -73 19 C-71.61090444 18.38654242 -70.22297166 17.77044805 -68.8359375 17.15234375 C-65.77226654 15.78839769 -62.70751857 14.4269971 -59.640625 13.0703125 C-58.17704798 12.42195479 -56.71350708 11.77351557 -55.25 11.125 C-54.46995605 10.77985352 -53.68991211 10.43470703 -52.88623047 10.07910156 C-49.36353223 8.51554714 -45.84864241 6.94270466 -42.3671875 5.2890625 C-29.36874027 -0.88128474 -13.72346491 -8.16732675 0 0 Z " fill="#EFDF96" transform="translate(1586,702)"/>
<path d="M0 0 C3.15180874 3.06886641 4.31537601 5.12096068 4.43603516 9.5559082 C4.42878418 10.35859131 4.4215332 11.16127441 4.4140625 11.98828125 C4.40560303 13.20318237 4.40560303 13.20318237 4.39697266 14.44262695 C4.38972168 15.05968506 4.3824707 15.67674316 4.375 16.3125 C23.27927533 17.94805312 42.09295254 18.69877986 61.0625 18.9375 C63.6373807 18.9758365 66.21225074 19.01489616 68.78710938 19.0546875 C74.98297565 19.1489094 81.17891049 19.23440518 87.375 19.3125 C87.5093042 18.04325684 87.6436084 16.77401367 87.78198242 15.46630859 C88.17981192 11.70661696 89.0247772 9.73136333 91.6875 6.9375 C92.28175781 6.29039063 92.87601563 5.64328125 93.48828125 4.9765625 C97.42924868 1.50067819 100.8417044 0.87010172 105.97167969 0.99609375 C110.10272453 1.5399615 113.40307265 3.28861358 117 5.3125 C118.11084961 5.91892334 118.11084961 5.91892334 119.24414062 6.53759766 C125.5918581 10.14655948 130.99534388 14.17353163 133.375 21.3125 C134.15815924 27.8217088 133.25663564 32.96979927 129.375 38.3125 C122.83063598 45.40705391 115.20447433 49.69569545 105.53125 50.55078125 C104.38976501 50.66369255 104.38976501 50.66369255 103.22521973 50.77888489 C92.96651204 51.67446323 82.66273178 51.57368031 72.37402344 51.51831055 C68.90812671 51.50017335 65.44250163 51.49780106 61.9765625 51.49804688 C50.45567808 51.48049023 38.94729427 51.30187222 27.43359375 50.88671875 C25.88925659 50.83368843 25.88925659 50.83368843 24.3137207 50.77958679 C-16.05786034 49.15780735 -16.05786034 49.15780735 -27.625 37.3125 C-32.70172075 31.33219429 -33.39942649 25.3284642 -33.1171875 17.625 C-32.41033584 12.86777616 -30.66518942 9.94310302 -27.625 6.3125 C-27.026875 5.384375 -26.42875 4.45625 -25.8125 3.5 C-19.29510331 -3.01739669 -8.09408692 -3.76793701 0 0 Z " fill="#404040" transform="translate(939.625,1627.6875)"/>
<path d="M0 0 C4.85857844 2.29678253 7.63468979 5.17840611 10 10 C11.97960545 20.22796149 5.38990562 29.71931037 0.0390625 38.0546875 C-4.14816535 43.95098794 -8.82746623 49.44030408 -13.4921875 54.9609375 C-16.74070105 58.89760968 -19.76210416 62.98273388 -22.80078125 67.08203125 C-25.59848601 70.79408357 -28.53004554 74.37953241 -31.4921875 77.9609375 C-33.91447774 80.89636088 -36.31155421 83.85061918 -38.7043457 86.81005859 C-44.58271592 94.07576886 -50.53759443 101.26722427 -56.60986328 108.37158203 C-58.06534011 110.07653996 -59.51526053 111.7861233 -60.96484375 113.49609375 C-66.26286411 119.73006355 -71.64062173 125.86796026 -77.19824219 131.87207031 C-79.76526523 134.64535525 -82.28304081 137.44994824 -84.75 140.3125 C-87.45651212 143.4378771 -90.32133603 146.34215129 -93.26953125 149.23828125 C-94.99451481 150.99441576 -96.59182464 152.81364395 -98.1875 154.6875 C-101.39219081 158.35517097 -104.65102117 161.96389834 -108 165.5 C-108.48621826 166.04100342 -108.97243652 166.58200684 -109.47338867 167.1394043 C-112.25472654 170.02092041 -113.72212122 170.96787027 -117.75 171.43359375 C-121 171 -121 171 -123 169.5625 C-124.58657228 165.49690854 -124.04117105 162.17434702 -123 158 C-121.99755859 155.87988281 -121.99755859 155.87988281 -120.7734375 153.765625 C-120.32323242 152.98292236 -119.87302734 152.20021973 -119.40917969 151.39379883 C-118.94415039 150.60384521 -118.47912109 149.8138916 -118 149 C-117.57364258 148.26998779 -117.14728516 147.53997559 -116.70800781 146.7878418 C-101.67532607 121.25213731 -85.63245429 96.3866413 -68.7734375 72.0234375 C-66.78263002 69.14400465 -64.81230284 66.2515511 -62.8515625 63.3515625 C-56.75246441 54.34453248 -50.4967784 45.51148128 -43.9140625 36.8515625 C-41.4546143 33.61561961 -39.04698013 30.34515841 -36.65673828 27.05786133 C-34.85436562 24.58139754 -33.03730044 22.11598704 -31.21679688 19.65283203 C-30.10954336 18.14879787 -29.01499327 16.6354324 -27.921875 15.12109375 C-20.86060246 5.72041588 -12.55331264 -2.68713082 0 0 Z " fill="#EFDF96" transform="translate(1365,467)"/>
<path d="M0 0 C3.09336312 0.46150175 6.17155311 0.97938866 9.25195312 1.52050781 C11.46523917 1.89312309 13.67878063 2.26422455 15.89257812 2.63378906 C16.94767578 2.81119629 18.00277344 2.98860352 19.08984375 3.17138672 C22.72060942 3.76251238 26.3520639 4.24981356 30.00195312 4.70800781 C42.10466117 6.26833452 54.04228814 8.59772 65.96777344 11.16235352 C71.13161163 12.26911711 76.30480154 13.27139884 81.50195312 14.20800781 C86.91053248 15.20020981 92.14425396 16.43652811 97.42382812 17.96191406 C100.12549376 18.6782648 102.80907952 19.17986507 105.56445312 19.64550781 C110.01475188 20.40300547 114.18085435 21.56815631 118.47851562 22.93066406 C121.10360755 23.67430465 123.68456938 24.1471348 126.37695312 24.58300781 C131.36934162 25.42787356 135.93062966 26.90457742 140.70117188 28.57519531 C144.43440045 29.78573334 148.1882129 30.72948888 152.00195312 31.64550781 C163.85815115 34.54356474 174.34400976 37.4869102 183.50195312 45.95800781 C185.63582967 49.7812033 186.20232527 53.28356029 186.00195312 57.64550781 C184.21667591 62.62549161 181.6053592 66.34843717 176.80664062 68.73925781 C173.41323195 69.83573527 170.56720148 69.9106148 167.00195312 69.89550781 C165.80570313 69.90066406 164.60945313 69.90582031 163.37695312 69.91113281 C152.31025778 69.44597809 142.04333653 66.68353423 131.56445312 63.27050781 C129.1287689 62.49025659 126.69257124 61.7116063 124.25585938 60.93457031 C123.05268066 60.54994629 121.84950195 60.16532227 120.60986328 59.76904297 C117.08624006 58.67175551 113.55021547 57.64612569 109.99804688 56.64550781 C102.77560467 54.6067646 95.63843413 52.34030341 88.50195312 50.02050781 C87.16651985 49.58808552 85.83107028 49.15571356 84.49560547 48.72338867 C71.30642801 44.44609578 58.1515318 40.06544358 45.0078125 35.65063477 C43.20910977 35.04916797 41.40883295 34.45233287 39.60546875 33.86499023 C33.07301568 31.73455333 26.66418689 29.29921586 20.25195312 26.83300781 C19.09904785 26.39013428 17.94614258 25.94726074 16.75830078 25.4909668 C9.8789424 22.82495997 3.14125531 20.03389896 -3.49804688 16.81347656 C-5.84348661 15.71771644 -8.17253113 14.84755688 -10.62304688 14.02050781 C-14.07424315 12.61446489 -15.46035699 12.00920443 -16.99804688 8.64550781 C-17.62725847 3.50694649 -17.62725847 3.50694649 -15.78222656 0.98095703 C-11.60411268 -2.14633948 -4.90508413 -0.57998226 0 0 Z " fill="#EEDF96" transform="translate(1381.998046875,988.3544921875)"/>
<path d="M0 0 C4.1454899 0.52813068 8.27551991 0.90791495 12.44497681 1.1812439 C19.62270862 1.6849736 26.63770687 2.89414303 33.71841431 4.1421814 C42.50464726 5.67318476 51.27924609 7.05974007 60.12417603 8.20639038 C75.49102976 10.26518968 90.86470583 12.81483768 105.96841431 16.3296814 C106.82000122 16.5234436 107.67158813 16.71720581 108.54898071 16.9168396 C116.05672492 18.74843154 116.05672492 18.74843154 118.84341431 21.7046814 C119.40146542 25.5412828 119.57998699 27.71148336 117.22891235 30.88168335 C114.07039768 33.29542085 112.14541093 33.29456291 108.17544556 33.43515015 C107.45210526 33.46304123 106.72876495 33.49093231 105.98350525 33.51966858 C103.27018281 33.60980987 100.55786421 33.65967286 97.84341431 33.7046814 C96.71562561 33.72629333 95.58783691 33.74790527 94.4258728 33.77017212 C84.46087472 33.94669578 74.49727256 34.00114648 64.53091431 34.0171814 C63.74409019 34.01892113 62.95726608 34.02066086 62.14659882 34.02245331 C37.03457478 34.07131543 12.03374732 33.35548349 -13.03158569 31.8296814 C-13.76098484 31.78598545 -14.49038399 31.74228951 -15.24188614 31.69726944 C-20.08703496 31.40647319 -24.93059033 31.09693474 -29.77377319 30.7749939 C-30.9727272 30.69779617 -32.17168121 30.62059845 -33.40696716 30.5410614 C-59.5386997 28.68932027 -59.5386997 28.68932027 -67.28158569 21.1421814 C-69.93150886 16.28398893 -69.91062213 12.12380042 -69.15658569 6.7046814 C-67.45765552 2.50206464 -64.8430838 0.28523007 -61.15658569 -2.2953186 C-43.41731657 -8.20840831 -18.21295533 -2.36597323 0 0 Z " fill="#EEDF96" transform="translate(476.1565856933594,840.2953186035156)"/>
<path d="M0 0 C7.75963174 7.9670161 11.15450591 20.06579068 12.58203125 30.80078125 C13.01232416 33.73314772 13.67901635 36.50042937 14.44140625 39.36328125 C15.81499338 44.67311806 16.81762999 50.00676499 17.73803711 55.40844727 C18.90544276 62.22314986 20.19444688 69.01205129 21.50390625 75.80078125 C21.72216064 76.93604248 21.94041504 78.07130371 22.1652832 79.2409668 C23.46706544 85.99208886 23.46706544 85.99208886 24.8515625 92.7265625 C26.82030843 102.0538998 28.2109002 111.43723893 29.55883789 120.87280273 C30.30794173 126.09824951 31.09857007 131.29500003 32.08984375 136.48046875 C33.06451062 141.70274621 33.41883812 146.77916451 33.65820312 152.0859375 C33.79477303 154.81198001 33.95424347 157.4373999 34.51171875 160.11328125 C35.2274759 163.8397629 35.26794214 167.51411908 35.31640625 171.30078125 C35.34541016 172.06390625 35.37441406 172.82703125 35.40429688 173.61328125 C35.46747777 179.15375941 35.46747777 179.15375941 33.20703125 181.69921875 C29.78561607 183.21580349 27.54048665 182.70460464 24.00390625 181.67578125 C20.50257463 177.1767087 19.05157384 171.45082219 17.25390625 166.11328125 C16.5459092 164.04155171 15.83756942 161.96993927 15.12890625 159.8984375 C14.77441406 158.85703613 14.41992188 157.81563477 14.0546875 156.74267578 C12.77643143 153.01185497 11.46376007 149.29385865 10.1472168 145.57641602 C7.23069845 137.33061598 4.49419108 129.06162674 2.00390625 120.67578125 C1.51519008 119.07004832 1.02553007 117.46460248 0.53515625 115.859375 C0.00369296 114.11074189 -0.52755674 112.36204386 -1.05859375 110.61328125 C-1.42706421 109.40865234 -1.42706421 109.40865234 -1.80297852 108.1796875 C-3.44121513 102.74928735 -4.85809604 97.28704897 -6.21264648 91.77954102 C-7.53310694 86.54831205 -9.01995667 81.36482208 -10.49609375 76.17578125 C-12.51509972 69.07840217 -14.4562517 61.97563264 -16.21923828 54.81005859 C-17.06291991 51.40616646 -17.94136605 48.01213539 -18.8203125 44.6171875 C-19.4420524 42.15771534 -20.06313947 39.69807805 -20.68359375 37.23828125 C-21.00392578 36.01818359 -21.32425781 34.79808594 -21.65429688 33.54101562 C-24.11877592 23.65682567 -26.67228993 12.45375021 -21.13671875 3.1953125 C-16.32161791 -3.21932526 -6.67235429 -4.42647378 0 0 Z " fill="#EFDF96" transform="translate(808.99609375,403.32421875)"/>
<path d="M0 0 C4.37553139 0.43264371 8.75049087 0.86970075 13.125 1.3125 C14.116707 1.41279007 14.116707 1.41279007 15.12844849 1.5151062 C22.50797088 2.26594624 29.8687784 3.06566159 37.20687866 4.16053772 C67.05791369 8.55477208 97.00320879 8.2629258 127.09832764 8.1373291 C132.63063999 8.11651273 138.1629719 8.10766055 143.6953125 8.09765625 C154.46359136 8.0764933 165.23178588 8.04256516 176 8 C176 9.98 176 11.96 176 14 C175.33613281 14.24234375 174.67226562 14.4846875 173.98828125 14.734375 C165.41241685 17.98944762 160.02736726 21.57780496 156 30 C155.10562996 32.97354987 154.47565686 35.93307817 154 39 C150.0173957 39.74136924 146.24433527 40.1295122 142.1953125 40.14526367 C141.07133057 40.15164352 139.94734863 40.15802338 138.78930664 40.16459656 C136.97547485 40.16626579 136.97547485 40.16626579 135.125 40.16796875 C133.85068115 40.17129715 132.5763623 40.17462555 131.26342773 40.17805481 C128.55337687 40.18403984 125.84335778 40.18589636 123.13330078 40.18530273 C120.4206657 40.1852229 117.70820465 40.19192962 114.99560547 40.20581055 C52.50553344 40.50184448 52.50553344 40.50184448 36 35 C35.97421875 34.31035156 35.9484375 33.62070313 35.921875 32.91015625 C35.47931649 25.57776631 34.621399 18.89505636 29.44921875 13.33203125 C23.46185355 8.75496621 16.20246679 9.18251572 9 10 C7.31933624 10.6305486 5.64903065 11.29083138 4 12 C3.01 12 2.02 12 1 12 C0.67 8.04 0.34 4.08 0 0 Z " fill="#607B87" transform="translate(889,1535)"/>
<path d="M0 0 C3.04172389 1.58751327 5.45151837 3.90303675 7 7 C7.85055039 13.74061186 7.85055039 13.74061186 5.8125 16.75830078 C4.12013863 18.47917927 2.36072278 20.0253607 0.5 21.5625 C-0.14493408 22.12767334 -0.78986816 22.69284668 -1.4543457 23.27514648 C-3.28481187 24.87297507 -5.13631991 26.44114986 -7 28 C-34.68066036 51.4471476 -52.80346287 83.46498329 -64.81689453 117.30078125 C-66.77871758 122.80330451 -66.77871758 122.80330451 -69.25 125 C-72.74975195 126.27263707 -75.2977237 126.39667246 -79 126 C-82.5386994 124.34860695 -83.81070153 123.28394771 -86 120 C-86.93384144 113.86332771 -84.71600136 109.1144057 -82.38671875 103.4765625 C-81.3544101 100.88852109 -80.45908697 98.362852 -79.6171875 95.71484375 C-74.72970504 80.84411852 -66.73436971 66.9170742 -58 54 C-57.60345215 53.40670898 -57.2069043 52.81341797 -56.79833984 52.20214844 C-20.03953837 -2.41694667 -20.03953837 -2.41694667 0 0 Z " fill="#FEFEFD" transform="translate(857,772)"/>
<path d="M0 0 C8.99632671 0.67723925 17.91435852 1.68508066 26.85351562 2.89453125 C33.44169787 3.73018793 40.00981371 4.21438089 46.63964844 4.52514648 C47.55721515 4.56823661 48.47478186 4.61132673 49.42015362 4.65572262 C59.23279833 5.09094855 69.04244218 5.22427504 78.86328125 5.31640625 C80.76141216 5.33706215 82.65953938 5.35806024 84.55766296 5.37937927 C89.47450704 5.43371115 94.39138619 5.48349951 99.30828857 5.53222656 C104.35724892 5.58310493 109.40616041 5.63843915 114.45507812 5.69335938 C124.30334337 5.79984795 134.15165163 5.90151988 144 6 C143.34 9.3 142.68 12.6 142 16 C140.91332031 15.93039062 140.91332031 15.93039062 139.8046875 15.859375 C133.6340694 15.62900526 129.79371744 15.67396231 125 20 C122.09518072 22.90481928 120.80536685 25.24008986 119.890625 29.171875 C119.59671875 30.43515625 119.3028125 31.6984375 119 33 C111.44591256 33.05157491 103.89187199 33.08609141 96.33764648 33.10986328 C93.77870996 33.11979468 91.21978439 33.13334429 88.66088867 33.15087891 C48.63553435 33.41787166 48.63553435 33.41787166 36 30 C35.90203125 29.18015625 35.8040625 28.3603125 35.703125 27.515625 C35.55359375 26.43796875 35.4040625 25.3603125 35.25 24.25 C35.11078125 23.18265625 34.9715625 22.1153125 34.828125 21.015625 C33.88040737 17.56450232 32.74092996 16.23877485 30 14 C25.31389842 11.65694921 18.38283507 12.37713126 13.4296875 13.671875 C11.58881684 14.37127389 9.78800318 15.17476777 8 16 C0 3.54150198 0 3.54150198 0 0 Z " fill="#607A87" transform="translate(908,1614)"/>
<path d="M0 0 C0.97453125 0.10957031 1.9490625 0.21914062 2.953125 0.33203125 C6.97251512 0.78240484 10.99250444 1.22724506 15.01269531 1.67041016 C17.07983803 1.89847837 19.14688955 2.12737409 21.21386719 2.35693359 C24.68388313 2.7413185 28.15439322 3.12098969 31.625 3.5 C33.21876465 3.67752808 33.21876465 3.67752808 34.84472656 3.85864258 C37.84494383 4.18412952 40.84650626 4.48896815 43.84997559 4.78277588 C45.34208696 4.93352886 46.83335437 5.09278219 48.32385254 5.25872803 C68.12736246 7.44680341 87.9132956 7.23827851 107.80578613 7.1373291 C112.35227558 7.11652373 116.89878874 7.1076628 121.4453125 7.09765625 C130.29693813 7.07648465 139.14845137 7.04254996 148 7 C147.58282715 7.65661621 147.1656543 8.31323242 146.73583984 8.98974609 C146.19137207 9.86711426 145.6469043 10.74448242 145.0859375 11.6484375 C144.54501465 12.51130371 144.0040918 13.37416992 143.44677734 14.26318359 C141.29351578 18.33643066 140.55991657 22.46274503 140 27 C135.39801779 27.73292828 130.97736947 28.12948646 126.3190918 28.14526367 C125.02790939 28.15164352 123.73672699 28.15802338 122.40641785 28.16459656 C121.00401854 28.16612965 119.60161871 28.16724124 118.19921875 28.16796875 C116.72125723 28.17119513 115.243296 28.17456015 113.76533508 28.17805481 C110.65434029 28.18403892 107.54337318 28.18589643 104.43237305 28.18530273 C101.3174033 28.18522287 98.202585 28.19193536 95.08764648 28.20581055 C78.23651369 28.27967169 61.44627237 28.09244759 44.62109375 27.08984375 C43.93233343 27.04929556 43.24357311 27.00874737 42.53394127 26.96697044 C29.62239574 26.18800836 16.81061758 24.77816361 4 23 C3.96261719 22.09378906 3.92523437 21.18757813 3.88671875 20.25390625 C3.49279859 12.95479731 2.69699162 6.8011093 0 0 Z " fill="#617A87" transform="translate(911,1464)"/>
<path d="M0 0 C0.66 0.33 1.32 0.66 2 1 C2.5626964 19.94411205 -0.12115537 32.21218258 -13 47 C-13.66 47 -14.32 47 -15 47 C-15.77244683 30.47822052 -12.95180478 15.47028824 -2.125 2.3125 C-1.42375 1.549375 -0.7225 0.78625 0 0 Z " fill="#EFEDA6" transform="translate(987,893)"/>
<path d="M0 0 C3.125 1.9375 3.125 1.9375 5 5 C5.85447449 8.87361769 5.72438297 12.22526172 4.21875 15.9140625 C2.48813969 18.52233946 0.63836249 19.8461651 -2.3828125 20.57421875 C-7.10337082 20.89127117 -9.33110387 20.52173898 -13.125 17.5625 C-15.33374933 14.23359923 -15.73504949 11.0662324 -15.46875 7.125 C-15 5 -15 5 -13.125 1.9375 C-8.71974058 -0.79376084 -5.05077166 -1.00187438 0 0 Z " fill="#FEFEFB" transform="translate(895,753)"/>
<path d="M0 0 C2.20666187 6.66501952 -2.10091883 13.52957065 -5.03515625 19.46875 C-6 21 -6 21 -8 22 C-8.95142494 13.71907924 -6.92968812 8.64103063 -2 2 C-1.34 1.34 -0.68 0.68 0 0 Z " fill="#E8E6A1" transform="translate(1047,910)"/>
<path d="M0 0 C2.77194429 1.02707831 3.82810489 1.6944087 5.30078125 4.3125 C5.63464844 5.199375 5.96851563 6.08625 6.3125 7 C6.65925781 7.886875 7.00601563 8.77375 7.36328125 9.6875 C8 12 8 12 7 14 C6.01441551 12.42065361 5.03677459 10.83634827 4.0625 9.25 C3.51722656 8.36828125 2.97195313 7.4865625 2.41015625 6.578125 C1.17284288 4.31600083 0.46409487 2.51433675 0 0 Z " fill="#AD4D39" transform="translate(727,1049)"/>
<path d="M0 0 C0.66 0.33 1.32 0.66 2 1 C2 1.66 2 2.32 2 3 C0.46875 4.2890625 0.46875 4.2890625 -1.5 5.625 C-2.1496875 6.07101562 -2.799375 6.51703125 -3.46875 6.9765625 C-3.9740625 7.31429687 -4.479375 7.65203125 -5 8 C-3.8141763 4.62496331 -2.72426311 2.35277269 0 0 Z " fill="#DAD899" transform="translate(987,893)"/>
</svg>
