<?xml version="1.0" encoding="UTF-8"?>
<svg version="1.1" xmlns="http://www.w3.org/2000/svg" width="2000" height="2000">
<path d="M0 0 C660 0 1320 0 2000 0 C2000 660 2000 1320 2000 2000 C1340 2000 680 2000 0 2000 C0 1340 0 680 0 0 Z " fill="#AB3428" transform="translate(0,0)"/>
<path d="M0 0 C660 0 1320 0 2000 0 C2000 660 2000 1320 2000 2000 C1340 2000 680 2000 0 2000 C0 1340 0 680 0 0 Z M930.32070923 182.75076294 C928.16526494 182.98225105 926.00956188 183.1880106 923.8503418 183.38061523 C870.3767332 188.21844823 816.81131876 198.20194931 765.53515625 214.22119141 C763.3320017 214.89800795 761.12513831 215.54515205 758.90625 216.16796875 C722.93389859 226.2943319 687.89724183 240.3485817 654.21484375 256.46240234 C651.38096583 257.81779141 648.54180348 259.16141626 645.70057678 260.50131226 C619.96207521 272.65406887 595.18338072 286.16623985 570.99023438 301.14941406 C568.48368536 302.70065847 565.97098843 304.24067363 563.453125 305.7734375 C539.63969142 320.34544067 517.05094236 336.90848043 495 354 C494.38141113 354.47679199 493.76282227 354.95358398 493.12548828 355.44482422 C485.92422876 360.99786024 478.90245795 366.71123745 472.03173828 372.66918945 C468.64084692 375.60831034 465.20165922 378.45778285 461.6875 381.25 C451.47954121 389.53450068 442.05127984 398.84847831 432.83007812 408.20556641 C431.00993989 409.99025371 429.1277273 411.65998702 427.1875 413.3125 C419.82558103 419.65998131 413.04713216 426.64809867 406.7421875 434.0390625 C404.7456211 436.28631885 402.63987054 438.38894927 400.5 440.5 C397.10731601 443.85256779 393.90899316 447.29475682 390.8046875 450.9140625 C388.78348724 453.25025501 386.70621161 455.52964851 384.625 457.8125 C380.72636603 462.13260791 377.02496142 466.58071381 373.3671875 471.10546875 C371.31608095 473.61350497 369.22575668 476.08098093 367.11303711 478.53710938 C360.63472211 486.08412008 354.58791637 493.92765379 348.60546875 501.87109375 C347.07675459 503.8982208 345.53956025 505.91860437 344 507.9375 C324.58796168 533.48067364 307.25752462 560.35943855 291 588 C290.49436523 588.85142578 289.98873047 589.70285156 289.46777344 590.58007812 C254.42324041 649.67478087 227.36172177 714.76074271 209.77246094 781.12646484 C208.98779654 784.04539658 208.17330381 786.95458551 207.3515625 789.86328125 C202.06533062 808.72997251 197.88499038 827.80344653 194 847 C193.63261719 848.80500977 193.63261719 848.80500977 193.2578125 850.64648438 C189.88479675 867.60084884 187.83074464 884.7174506 185.8125 901.875 C185.68566833 902.9383255 185.55883667 904.001651 185.42816162 905.09719849 C181.80399925 935.74878686 180.6439742 966.12645979 180.68432617 996.95874023 C180.68895323 1000.76908182 180.68202914 1004.5791038 180.66381836 1008.3894043 C180.54862194 1032.73700821 181.28518779 1056.75849911 183.79170609 1080.98420715 C184.01105392 1083.10697581 184.22559531 1085.23019645 184.43954468 1087.35351562 C187.94240041 1121.95824947 193.84550784 1156.35154436 202.28320312 1190.09716797 C203.08472411 1193.34310957 203.82147563 1196.60005236 204.54736328 1199.86352539 C221.76747064 1276.38804781 254.86372742 1351.91384281 295 1419 C295.60166992 1420.00691895 296.20333984 1421.01383789 296.82324219 1422.05126953 C303.5515577 1433.28132851 310.37970358 1444.41840424 317.78027344 1455.21972656 C319.06010498 1457.08772728 320.33101065 1458.96161489 321.6015625 1460.8359375 C335.34090561 1481.03469223 350.06973099 1500.27421996 365.51904297 1519.18261719 C366.8427907 1520.80707781 368.15828809 1522.43825346 369.47265625 1524.0703125 C374.02334754 1529.70450171 378.75879243 1535.1134745 383.66015625 1540.4453125 C385.65834848 1542.62697815 387.62148889 1544.83011309 389.5625 1547.0625 C396.05606546 1554.5074483 402.66504162 1561.73961501 409.69799805 1568.67651367 C412.42580703 1571.37992443 415.03285938 1574.11998351 417.5 1577.0625 C420.78368919 1580.91864833 424.47938714 1584.26415937 428.23730469 1587.64379883 C432.02883356 1591.06713231 435.66340159 1594.61321545 439.25 1598.25 C443.04825788 1602.09202081 446.90512779 1605.79717583 451.01953125 1609.30078125 C453.32669952 1611.28030432 455.56646782 1613.3264212 457.8125 1615.375 C462.10959827 1619.25350727 466.53758754 1622.92865968 471.0390625 1626.56640625 C473.69764902 1628.75149781 476.30044215 1630.98384606 478.89428711 1633.24438477 C486.61582052 1639.96165046 494.6227454 1646.22880717 502.81542969 1652.35986328 C504.89944549 1653.92450545 506.9699376 1655.50559149 509.0390625 1657.08984375 C538.25373923 1679.24376712 569.66175259 1698.68344163 601.58886719 1716.64013672 C603.81776001 1717.89721783 606.03863521 1719.16727983 608.2578125 1720.44140625 C664.77734066 1752.67187967 727.17682658 1776.41768975 790 1793 C791.17546387 1793.31275879 792.35092773 1793.62551758 793.56201172 1793.94775391 C836.23843239 1805.22269948 879.56197999 1812.07947668 923.4375 1816.6875 C924.56639648 1816.80681885 925.69529297 1816.9261377 926.85839844 1817.04907227 C942.79175175 1818.66697444 958.56069394 1819.15169524 974.5625 1819.1328125 C976.60880546 1819.13348835 978.65511083 1819.13446071 980.70141602 1819.13571167 C984.96403782 1819.13717542 989.22663849 1819.13507704 993.48925781 1819.13037109 C998.90840844 1819.12467465 1004.32750951 1819.1279608 1009.74665833 1819.13394356 C1013.96439985 1819.13758513 1018.18212993 1819.13639419 1022.39987183 1819.13381577 C1024.39623012 1819.13315641 1026.39258952 1819.13393954 1028.38894653 1819.13629532 C1043.10261374 1819.14985463 1057.66932097 1818.67365551 1072.3125 1817.125 C1073.56003052 1816.99375732 1073.56003052 1816.99375732 1074.83276367 1816.85986328 C1076.62951409 1816.67007381 1078.42614319 1816.47913265 1080.22265625 1816.28710938 C1083.02178371 1815.9977481 1085.82254591 1815.73931781 1088.625 1815.484375 C1122.69489776 1812.22333207 1156.66933691 1805.69917533 1190 1798 C1191.20027832 1797.72333496 1192.40055664 1797.44666992 1193.63720703 1797.16162109 C1211.69003661 1792.94527863 1229.38964123 1787.7773217 1247 1782 C1248.07471558 1781.64841827 1248.07471558 1781.64841827 1249.17114258 1781.28973389 C1282.54675437 1770.35418474 1315.11032045 1757.73663424 1347 1743 C1348.0214209 1742.52916992 1349.0428418 1742.05833984 1350.09521484 1741.57324219 C1375.46816082 1729.80806558 1400.14493857 1716.59748746 1424 1702 C1424.94472168 1701.42459473 1425.88944336 1700.84918945 1426.86279297 1700.25634766 C1471.71454423 1672.86057385 1513.08210281 1641.25702409 1552 1606 C1552.96292969 1605.13117188 1553.92585938 1604.26234375 1554.91796875 1603.3671875 C1560.94770546 1597.90200351 1566.75948286 1592.27907682 1572.4765625 1586.48828125 C1574.6285972 1584.36622846 1576.81701193 1582.38515001 1579.125 1580.4375 C1582.92516929 1577.19008261 1586.1439392 1573.56144001 1589.44140625 1569.8125 C1592.40221957 1566.55786551 1595.49506783 1563.46571332 1598.625 1560.375 C1602.68812147 1556.35367661 1606.63249051 1552.30552842 1610.3359375 1547.9453125 C1612.30139014 1545.64767068 1614.33729871 1543.42126877 1616.375 1541.1875 C1620.19718989 1536.94775995 1623.84451955 1532.59812452 1627.43359375 1528.16015625 C1629.34423039 1525.79762313 1631.27844765 1523.45607521 1633.22265625 1521.12109375 C1664.88934019 1483.04811242 1692.98213458 1441.71529989 1716.75683594 1398.27148438 C1717.67072924 1396.60163691 1718.58863342 1394.93398297 1719.50878906 1393.26757812 C1747.4946424 1342.51329307 1768.845984 1289.29922668 1786 1234 C1786.4957251 1232.4226709 1786.4957251 1232.4226709 1787.00146484 1230.81347656 C1795.33501739 1204.16564365 1801.54728383 1176.64044161 1806.43505859 1149.16357422 C1807.03105242 1145.82611184 1807.65025808 1142.49337187 1808.26953125 1139.16015625 C1815.25332935 1100.88999483 1819.15096372 1061.82926686 1819.16796875 1022.921875 C1819.17119983 1021.13616919 1819.17456511 1019.35046362 1819.17805481 1017.5647583 C1819.18398851 1013.84362172 1819.18590093 1010.12250815 1819.18530273 1006.40136719 C1819.18522188 1002.65522389 1819.19210924 998.90920394 1819.20581055 995.16308594 C1819.28671169 972.67795648 1818.95498522 950.412085 1817 928 C1816.92429779 927.09290283 1816.84859558 926.18580566 1816.77059937 925.2512207 C1816.32613179 919.95196115 1815.81594937 914.66259469 1815.25 909.375 C1815.12694489 908.20939041 1815.12694489 908.20939041 1815.00140381 907.02023315 C1813.1748146 889.9247748 1810.46673062 873.01180344 1807.3828125 856.10229492 C1807.00956478 854.05252702 1806.64099741 852.0019664 1806.2734375 849.95117188 C1801.34044765 822.64354948 1795.10432196 795.54907985 1787 769 C1786.62004883 767.74558105 1786.24009766 766.49116211 1785.84863281 765.19873047 C1758.96348149 676.65459161 1718.15272695 593.42082427 1623.37255859 467.61083984 C1621.96681432 465.96105316 1620.57072891 464.30345255 1619.17578125 462.64453125 C1608.79313804 450.34571045 1597.7821519 438.66659727 1586.328125 427.36328125 C1584.36063802 425.36608389 1582.5433407 423.33860311 1580.75 421.1875 C1576.7629443 416.50871415 1572.20441707 412.44263038 1567.68945312 408.28515625 C1563.9482024 404.83624856 1560.30358339 401.33205512 1556.75 397.6875 C1552.68436497 393.56819322 1548.36044927 389.9474518 1543.83984375 386.33984375 C1540.84864741 383.87529546 1538.01276645 381.27467702 1535.1875 378.625 C1529.92222698 373.71604293 1524.38319698 369.27118955 1518.6875 364.875 C1515.48460792 362.39754929 1512.35555387 359.83986329 1509.23388672 357.26123047 C1500.82945182 350.32958849 1492.12837989 343.91175155 1483.24707031 337.60742188 C1481.07495024 336.05361499 1478.9215319 334.47743344 1476.7734375 332.890625 C1456.03654835 317.61081194 1434.20744512 304.02087162 1412 291 C1411.13165527 290.48663086 1410.26331055 289.97326172 1409.36865234 289.44433594 C1363.79477227 262.54450154 1314.97858956 241.18468841 1264.96176147 224.05410767 C1261.46321376 222.85526475 1257.97193534 221.63894783 1254.48852539 220.39672852 C1253.73394547 220.12795898 1252.97936554 219.85918945 1252.20191956 219.58227539 C1250.76284914 219.06860612 1249.3245058 218.55289305 1247.8870697 218.03466797 C1242.27681117 216.03379846 1236.62017853 214.46327906 1230.84765625 212.98828125 C1227.45608309 212.11714621 1224.08553843 211.19738375 1220.71533203 210.24853516 C1216.8143946 209.15056357 1212.90736076 208.07485027 1209 207 C1208.14970215 206.76522949 1207.2994043 206.53045898 1206.42333984 206.28857422 C1181.64884499 199.49388154 1156.49790107 194.70614075 1131.16455078 190.52294922 C1128.39869745 190.06588566 1125.63474914 189.59902114 1122.87109375 189.12890625 C1109.64044578 186.91427445 1096.33898499 185.39395346 1083 184 C1081.76495728 183.86897888 1080.52991455 183.73795776 1079.25744629 183.60296631 C1053.6257383 180.96086335 1028.16263538 180.56384438 1002.41046143 180.6774292 C998.25818214 180.69092736 994.10600869 180.68557856 989.95371723 180.68056107 C960.09187428 180.63930572 960.09187428 180.63930572 930.32070923 182.75076294 Z " fill="#3B8DA4" transform="translate(0,0)"/>
<path d="M0 0 C1.16144531 0.2784375 2.32289063 0.556875 3.51953125 0.84375 C33.00405121 8.66135986 58.20005095 22.69062646 80 44 C80.69996094 44.63808594 81.39992188 45.27617188 82.12109375 45.93359375 C90.42811441 53.68796439 98.67502465 63.92925714 104 74 C104 74.66 104 75.32 104 76 C147.89 76 191.78 76 237 76 C237 371.68 237 667.36 237 972 C178.59 972 120.18 972 60 972 C60 903.36 60 834.72 60 764 C-7.65 764 -75.3 764 -145 764 C-145 832.64 -145 901.28 -145 972 C-198.46 972 -251.92 972 -307 972 C-307 676.32 -307 380.64 -307 76 C-263.11 76 -219.22 76 -174 76 C-173.34 74.35 -172.68 72.7 -172 71 C-170.58879392 68.77355535 -169.16117028 66.63579733 -167.625 64.5 C-166.97168701 63.58903564 -166.97168701 63.58903564 -166.30517578 62.65966797 C-161.76897304 56.47422808 -156.6702404 50.88801981 -151.33837891 45.38525391 C-150.18428424 44.19073856 -149.04923142 42.97787918 -147.91796875 41.76171875 C-138.70861703 32.08705241 -127.5243165 24.62347738 -116 18 C-115.41492676 17.66226563 -114.82985352 17.32453125 -114.22705078 16.9765625 C-80.54255523 -2.28723931 -37.92881548 -9.19486436 0 0 Z " fill="#F4ED9D" transform="translate(1035,515)"/>
<path d="M0 0 C67.98 0 135.96 0 206 0 C206 179.85 206 359.7 206 545 C138.02 545 70.04 545 0 545 C0 365.15 0 185.3 0 0 Z " fill="#F4ED9D" transform="translate(495,943)"/>
<path d="M0 0 C67.65 0 135.3 0 205 0 C205 179.52 205 359.04 205 544 C137.35 544 69.7 544 0 544 C0 364.48 0 184.96 0 0 Z " fill="#F4ED9D" transform="translate(1299,943)"/>
<path d="M0 0 C1.00111816 0.17740723 1.00111816 0.17740723 2.02246094 0.35839844 C36.19127559 6.43732291 68.26747662 26.78258004 88.5 55.0625 C90.06052845 57.33946472 91.54537474 59.65418335 93 62 C93.38591309 62.61665527 93.77182617 63.23331055 94.16943359 63.86865234 C113.39226377 95.05727882 119.39028333 132.92496357 111.390625 168.78515625 C102.04752497 205.82985061 78.67826164 235.98261846 46.546875 256.20703125 C38.60116914 260.95087162 30.56569386 264.37283322 21.83398438 267.36376953 C20.1969441 267.9316778 18.57383467 268.53938304 16.953125 269.15234375 C-5.19407589 277.25870872 -32.31112326 278.11421029 -55 272 C-55.67353516 271.82839355 -56.34707031 271.65678711 -57.04101562 271.47998047 C-78.30110303 266.02855109 -97.51129938 256.58985609 -114 242 C-115.48113281 240.71802734 -115.48113281 240.71802734 -116.9921875 239.41015625 C-136.81721063 221.99457763 -149.59528931 199.85497885 -157.3125 174.8125 C-157.55524658 174.02955566 -157.79799316 173.24661133 -158.0480957 172.43994141 C-161.41283432 160.94484216 -162.34181456 149.56168445 -162.25 137.625 C-162.24323242 136.35003662 -162.23646484 135.07507324 -162.22949219 133.76147461 C-162.07659833 119.85257841 -160.37190448 107.2691136 -156 94 C-155.66355469 92.97777344 -155.32710937 91.95554687 -154.98046875 90.90234375 C-148.22283851 72.01440906 -137.75417118 55.51950662 -124 41 C-123.11699219 40.0409375 -122.23398437 39.081875 -121.32421875 38.09375 C-91.23739846 6.11581736 -42.84233213 -8.49039384 0 0 Z " fill="#AB3528" transform="translate(1024,538)"/>
<path d="M0 0 C25.74 0 51.48 0 78 0 C78 20.46 78 40.92 78 62 C98.79 62 119.58 62 141 62 C141 88.07 141 114.14 141 141 C120.21 141 99.42 141 78 141 C78 161.79 78 182.58 78 204 C52.26 204 26.52 204 0 204 C0 183.21 0 162.42 0 141 C-20.79 141 -41.58 141 -63 141 C-63 114.93 -63 88.86 -63 62 C-42.21 62 -21.42 62 0 62 C0 41.54 0 21.08 0 0 Z " fill="#F4ED9D" transform="translate(961,573)"/>
<path d="M0 0 C86.46 0 172.92 0 262 0 C262 14.52 262 29.04 262 44 C175.54 44 89.08 44 0 44 C0 29.48 0 14.96 0 0 Z " fill="#F5EE9E" transform="translate(1299,879)"/>
<path d="M0 0 C86.46 0 172.92 0 262 0 C262 14.52 262 29.04 262 44 C175.54 44 89.08 44 0 44 C0 29.48 0 14.96 0 0 Z " fill="#F4ED9D" transform="translate(439,879)"/>
<path d="M0 0 C32.01 0 64.02 0 97 0 C97 38.61 97 77.22 97 117 C64.99 117 32.98 117 0 117 C0 78.39 0 39.78 0 0 Z " fill="#AB3629" transform="translate(1019,1111)"/>
<path d="M0 0 C32.01 0 64.02 0 97 0 C97 38.61 97 77.22 97 117 C64.99 117 32.98 117 0 117 C0 78.39 0 39.78 0 0 Z " fill="#AB3629" transform="translate(886,1111)"/>
<path d="M0 0 C32.01 0 64.02 0 97 0 C97 38.61 97 77.22 97 117 C64.99 117 32.98 117 0 117 C0 78.39 0 39.78 0 0 Z " fill="#AB3629" transform="translate(753,1111)"/>
<path d="M0 0 C32.01 0 64.02 0 97 0 C97 38.61 97 77.22 97 117 C64.99 117 32.98 117 0 117 C0 78.39 0 39.78 0 0 Z " fill="#AC3629" transform="translate(569,1099)"/>
<path d="M0 0 C32.01 0 64.02 0 97 0 C97 38.61 97 77.22 97 117 C64.99 117 32.98 117 0 117 C0 78.39 0 39.78 0 0 Z " fill="#AB3629" transform="translate(1019,978)"/>
<path d="M0 0 C32.01 0 64.02 0 97 0 C97 38.61 97 77.22 97 117 C64.99 117 32.98 117 0 117 C0 78.39 0 39.78 0 0 Z " fill="#AB3629" transform="translate(886,978)"/>
<path d="M0 0 C32.01 0 64.02 0 97 0 C97 38.61 97 77.22 97 117 C64.99 117 32.98 117 0 117 C0 78.39 0 39.78 0 0 Z " fill="#AB3629" transform="translate(753,978)"/>
<path d="M0 0 C31.68 0 63.36 0 96 0 C96 38.61 96 77.22 96 117 C64.32 117 32.64 117 0 117 C0 78.39 0 39.78 0 0 Z " fill="#AB3528" transform="translate(570,1232)"/>
<path d="M0 0 C31.68 0 63.36 0 96 0 C96 38.61 96 77.22 96 117 C64.32 117 32.64 117 0 117 C0 78.39 0 39.78 0 0 Z " fill="#AB3428" transform="translate(1334,1228)"/>
<path d="M0 0 C31.68 0 63.36 0 96 0 C96 38.61 96 77.22 96 117 C64.32 117 32.64 117 0 117 C0 78.39 0 39.78 0 0 Z " fill="#AB3428" transform="translate(1152,1111)"/>
<path d="M0 0 C31.68 0 63.36 0 96 0 C96 38.61 96 77.22 96 117 C64.32 117 32.64 117 0 117 C0 78.39 0 39.78 0 0 Z " fill="#AB3528" transform="translate(1334,1095)"/>
<path d="M0 0 C31.68 0 63.36 0 96 0 C96 38.61 96 77.22 96 117 C64.32 117 32.64 117 0 117 C0 78.39 0 39.78 0 0 Z " fill="#AB3428" transform="translate(1152,978)"/>
<path d="M0 0 C31.68 0 63.36 0 96 0 C96 38.61 96 77.22 96 117 C64.32 117 32.64 117 0 117 C0 78.39 0 39.78 0 0 Z " fill="#AB3528" transform="translate(570,966)"/>
<path d="M0 0 C31.68 0 63.36 0 96 0 C96 38.61 96 77.22 96 117 C64.32 117 32.64 117 0 117 C0 78.39 0 39.78 0 0 Z " fill="#AB3528" transform="translate(1334,961)"/>
<path d="M0 0 C31.68 0 63.36 0 96 0 C96 38.61 96 77.22 96 117 C64.32 117 32.64 117 0 117 C0 78.39 0 39.78 0 0 Z " fill="#AB3528" transform="translate(1019,845)"/>
<path d="M0 0 C31.68 0 63.36 0 96 0 C96 38.61 96 77.22 96 117 C64.32 117 32.64 117 0 117 C0 78.39 0 39.78 0 0 Z " fill="#AB3529" transform="translate(886,845)"/>
<path d="M0 0 C31.68 0 63.36 0 96 0 C96 38.61 96 77.22 96 117 C64.32 117 32.64 117 0 117 C0 78.39 0 39.78 0 0 Z " fill="#AB3529" transform="translate(753,845)"/>
<path d="M0 0 C31.68 0 63.36 0 96 0 C96 38.28 96 76.56 96 116 C64.32 116 32.64 116 0 116 C0 77.72 0 39.44 0 0 Z " fill="#AB3428" transform="translate(1152,845)"/>
</svg>
