<?xml version="1.0" encoding="UTF-8"?>
<svg version="1.1" xmlns="http://www.w3.org/2000/svg" width="2000" height="2000">
<path d="M0 0 C660 0 1320 0 2000 0 C2000 660 2000 1320 2000 2000 C1340 2000 680 2000 0 2000 C0 1340 0 680 0 0 Z " fill="#AA3428" transform="translate(0,0)"/>
<path d="M0 0 C660 0 1320 0 2000 0 C2000 660 2000 1320 2000 2000 C1340 2000 680 2000 0 2000 C0 1340 0 680 0 0 Z M930.32070923 182.75076294 C928.16526494 182.98225105 926.00956188 183.1880106 923.8503418 183.38061523 C870.3767332 188.21844823 816.81131876 198.20194931 765.53515625 214.22119141 C763.3320017 214.89800795 761.12513831 215.54515205 758.90625 216.16796875 C722.93389859 226.2943319 687.89724183 240.3485817 654.21484375 256.46240234 C651.38096583 257.81779141 648.54180348 259.16141626 645.70057678 260.50131226 C619.96207521 272.65406887 595.18338072 286.16623985 570.99023438 301.14941406 C568.48368536 302.70065847 565.97098843 304.24067363 563.453125 305.7734375 C539.63969142 320.34544067 517.05094236 336.90848043 495 354 C494.38141113 354.47679199 493.76282227 354.95358398 493.12548828 355.44482422 C485.92422876 360.99786024 478.90245795 366.71123745 472.03173828 372.66918945 C468.64084692 375.60831034 465.20165922 378.45778285 461.6875 381.25 C451.47954121 389.53450068 442.05127984 398.84847831 432.83007812 408.20556641 C431.00993989 409.99025371 429.1277273 411.65998702 427.1875 413.3125 C419.82558103 419.65998131 413.04713216 426.64809867 406.7421875 434.0390625 C404.7456211 436.28631885 402.63987054 438.38894927 400.5 440.5 C397.10731601 443.85256779 393.90899316 447.29475682 390.8046875 450.9140625 C388.78348724 453.25025501 386.70621161 455.52964851 384.625 457.8125 C380.72636603 462.13260791 377.02496142 466.58071381 373.3671875 471.10546875 C371.31608095 473.61350497 369.22575668 476.08098093 367.11303711 478.53710938 C360.63472211 486.08412008 354.58791637 493.92765379 348.60546875 501.87109375 C347.07675459 503.8982208 345.53956025 505.91860437 344 507.9375 C324.58796168 533.48067364 307.25752462 560.35943855 291 588 C290.49436523 588.85142578 289.98873047 589.70285156 289.46777344 590.58007812 C254.42324041 649.67478087 227.36172177 714.76074271 209.77246094 781.12646484 C208.98779654 784.04539658 208.17330381 786.95458551 207.3515625 789.86328125 C202.06533062 808.72997251 197.88499038 827.80344653 194 847 C193.63261719 848.80500977 193.63261719 848.80500977 193.2578125 850.64648438 C189.88479675 867.60084884 187.83074464 884.7174506 185.8125 901.875 C185.68566833 902.9383255 185.55883667 904.001651 185.42816162 905.09719849 C181.80399925 935.74878686 180.6439742 966.12645979 180.68432617 996.95874023 C180.68895323 1000.76908182 180.68202914 1004.5791038 180.66381836 1008.3894043 C180.54862194 1032.73700821 181.28518779 1056.75849911 183.79170609 1080.98420715 C184.01105392 1083.10697581 184.22559531 1085.23019645 184.43954468 1087.35351562 C187.94240041 1121.95824947 193.84550784 1156.35154436 202.28320312 1190.09716797 C203.08472411 1193.34310957 203.82147563 1196.60005236 204.54736328 1199.86352539 C221.76747064 1276.38804781 254.86372742 1351.91384281 295 1419 C295.60166992 1420.00691895 296.20333984 1421.01383789 296.82324219 1422.05126953 C303.5515577 1433.28132851 310.37970358 1444.41840424 317.78027344 1455.21972656 C319.06010498 1457.08772728 320.33101065 1458.96161489 321.6015625 1460.8359375 C335.34090561 1481.03469223 350.06973099 1500.27421996 365.51904297 1519.18261719 C366.8427907 1520.80707781 368.15828809 1522.43825346 369.47265625 1524.0703125 C374.02334754 1529.70450171 378.75879243 1535.1134745 383.66015625 1540.4453125 C385.65834848 1542.62697815 387.62148889 1544.83011309 389.5625 1547.0625 C396.05606546 1554.5074483 402.66504162 1561.73961501 409.69799805 1568.67651367 C412.42580703 1571.37992443 415.03285938 1574.11998351 417.5 1577.0625 C420.78368919 1580.91864833 424.47938714 1584.26415937 428.23730469 1587.64379883 C432.02883356 1591.06713231 435.66340159 1594.61321545 439.25 1598.25 C443.04825788 1602.09202081 446.90512779 1605.79717583 451.01953125 1609.30078125 C453.32669952 1611.28030432 455.56646782 1613.3264212 457.8125 1615.375 C462.10959827 1619.25350727 466.53758754 1622.92865968 471.0390625 1626.56640625 C473.69764902 1628.75149781 476.30044215 1630.98384606 478.89428711 1633.24438477 C486.61582052 1639.96165046 494.6227454 1646.22880717 502.81542969 1652.35986328 C504.89944549 1653.92450545 506.9699376 1655.50559149 509.0390625 1657.08984375 C538.25373923 1679.24376712 569.66175259 1698.68344163 601.58886719 1716.64013672 C603.81776001 1717.89721783 606.03863521 1719.16727983 608.2578125 1720.44140625 C664.77734066 1752.67187967 727.17682658 1776.41768975 790 1793 C791.17546387 1793.31275879 792.35092773 1793.62551758 793.56201172 1793.94775391 C836.23843239 1805.22269948 879.56197999 1812.07947668 923.4375 1816.6875 C924.56639648 1816.80681885 925.69529297 1816.9261377 926.85839844 1817.04907227 C942.79175175 1818.66697444 958.56069394 1819.15169524 974.5625 1819.1328125 C976.60880546 1819.13348835 978.65511083 1819.13446071 980.70141602 1819.13571167 C984.96403782 1819.13717542 989.22663849 1819.13507704 993.48925781 1819.13037109 C998.90840844 1819.12467465 1004.32750951 1819.1279608 1009.74665833 1819.13394356 C1013.96439985 1819.13758513 1018.18212993 1819.13639419 1022.39987183 1819.13381577 C1024.39623012 1819.13315641 1026.39258952 1819.13393954 1028.38894653 1819.13629532 C1043.10261374 1819.14985463 1057.66932097 1818.67365551 1072.3125 1817.125 C1073.56003052 1816.99375732 1073.56003052 1816.99375732 1074.83276367 1816.85986328 C1076.62951409 1816.67007381 1078.42614319 1816.47913265 1080.22265625 1816.28710938 C1083.02178371 1815.9977481 1085.82254591 1815.73931781 1088.625 1815.484375 C1122.69489776 1812.22333207 1156.66933691 1805.69917533 1190 1798 C1191.20027832 1797.72333496 1192.40055664 1797.44666992 1193.63720703 1797.16162109 C1211.69003661 1792.94527863 1229.38964123 1787.7773217 1247 1782 C1248.07471558 1781.64841827 1248.07471558 1781.64841827 1249.17114258 1781.28973389 C1282.54675437 1770.35418474 1315.11032045 1757.73663424 1347 1743 C1348.0214209 1742.52916992 1349.0428418 1742.05833984 1350.09521484 1741.57324219 C1375.46816082 1729.80806558 1400.14493857 1716.59748746 1424 1702 C1424.94472168 1701.42459473 1425.88944336 1700.84918945 1426.86279297 1700.25634766 C1471.71454423 1672.86057385 1513.08210281 1641.25702409 1552 1606 C1552.96292969 1605.13117188 1553.92585938 1604.26234375 1554.91796875 1603.3671875 C1560.94770546 1597.90200351 1566.75948286 1592.27907682 1572.4765625 1586.48828125 C1574.6285972 1584.36622846 1576.81701193 1582.38515001 1579.125 1580.4375 C1582.92516929 1577.19008261 1586.1439392 1573.56144001 1589.44140625 1569.8125 C1592.40221957 1566.55786551 1595.49506783 1563.46571332 1598.625 1560.375 C1602.68812147 1556.35367661 1606.63249051 1552.30552842 1610.3359375 1547.9453125 C1612.30139014 1545.64767068 1614.33729871 1543.42126877 1616.375 1541.1875 C1620.19718989 1536.94775995 1623.84451955 1532.59812452 1627.43359375 1528.16015625 C1629.34423039 1525.79762313 1631.27844765 1523.45607521 1633.22265625 1521.12109375 C1664.88934019 1483.04811242 1692.98213458 1441.71529989 1716.75683594 1398.27148438 C1717.67072924 1396.60163691 1718.58863342 1394.93398297 1719.50878906 1393.26757812 C1747.4946424 1342.51329307 1768.845984 1289.29922668 1786 1234 C1786.4957251 1232.4226709 1786.4957251 1232.4226709 1787.00146484 1230.81347656 C1795.33501739 1204.16564365 1801.54728383 1176.64044161 1806.43505859 1149.16357422 C1807.03105242 1145.82611184 1807.65025808 1142.49337187 1808.26953125 1139.16015625 C1815.25332935 1100.88999483 1819.15096372 1061.82926686 1819.16796875 1022.921875 C1819.17119983 1021.13616919 1819.17456511 1019.35046362 1819.17805481 1017.5647583 C1819.18398851 1013.84362172 1819.18590093 1010.12250815 1819.18530273 1006.40136719 C1819.18522188 1002.65522389 1819.19210924 998.90920394 1819.20581055 995.16308594 C1819.28671169 972.67795648 1818.95498522 950.412085 1817 928 C1816.92429779 927.09290283 1816.84859558 926.18580566 1816.77059937 925.2512207 C1816.32613179 919.95196115 1815.81594937 914.66259469 1815.25 909.375 C1815.12694489 908.20939041 1815.12694489 908.20939041 1815.00140381 907.02023315 C1813.1748146 889.9247748 1810.46673062 873.01180344 1807.3828125 856.10229492 C1807.00956478 854.05252702 1806.64099741 852.0019664 1806.2734375 849.95117188 C1801.34044765 822.64354948 1795.10432196 795.54907985 1787 769 C1786.62004883 767.74558105 1786.24009766 766.49116211 1785.84863281 765.19873047 C1758.96348149 676.65459161 1718.15272695 593.42082427 1623.37255859 467.61083984 C1621.96681432 465.96105316 1620.57072891 464.30345255 1619.17578125 462.64453125 C1608.79313804 450.34571045 1597.7821519 438.66659727 1586.328125 427.36328125 C1584.36063802 425.36608389 1582.5433407 423.33860311 1580.75 421.1875 C1576.7629443 416.50871415 1572.20441707 412.44263038 1567.68945312 408.28515625 C1563.9482024 404.83624856 1560.30358339 401.33205512 1556.75 397.6875 C1552.68436497 393.56819322 1548.36044927 389.9474518 1543.83984375 386.33984375 C1540.84864741 383.87529546 1538.01276645 381.27467702 1535.1875 378.625 C1529.92222698 373.71604293 1524.38319698 369.27118955 1518.6875 364.875 C1515.48460792 362.39754929 1512.35555387 359.83986329 1509.23388672 357.26123047 C1500.82945182 350.32958849 1492.12837989 343.91175155 1483.24707031 337.60742188 C1481.07495024 336.05361499 1478.9215319 334.47743344 1476.7734375 332.890625 C1456.03654835 317.61081194 1434.20744512 304.02087162 1412 291 C1411.13165527 290.48663086 1410.26331055 289.97326172 1409.36865234 289.44433594 C1363.79477227 262.54450154 1314.97858956 241.18468841 1264.96176147 224.05410767 C1261.46321376 222.85526475 1257.97193534 221.63894783 1254.48852539 220.39672852 C1253.73394547 220.12795898 1252.97936554 219.85918945 1252.20191956 219.58227539 C1250.76284914 219.06860612 1249.3245058 218.55289305 1247.8870697 218.03466797 C1242.27681117 216.03379846 1236.62017853 214.46327906 1230.84765625 212.98828125 C1227.45608309 212.11714621 1224.08553843 211.19738375 1220.71533203 210.24853516 C1216.8143946 209.15056357 1212.90736076 208.07485027 1209 207 C1208.14970215 206.76522949 1207.2994043 206.53045898 1206.42333984 206.28857422 C1181.64884499 199.49388154 1156.49790107 194.70614075 1131.16455078 190.52294922 C1128.39869745 190.06588566 1125.63474914 189.59902114 1122.87109375 189.12890625 C1109.64044578 186.91427445 1096.33898499 185.39395346 1083 184 C1081.76495728 183.86897888 1080.52991455 183.73795776 1079.25744629 183.60296631 C1053.6257383 180.96086335 1028.16263538 180.56384438 1002.41046143 180.6774292 C998.25818214 180.69092736 994.10600869 180.68557856 989.95371723 180.68056107 C960.09187428 180.63930572 960.09187428 180.63930572 930.32070923 182.75076294 Z " fill="#3B8DA4" transform="translate(0,0)"/>
<path d="M0 0 C9.67593949 2.69959396 19.56398344 4.56141495 29.40332031 6.55957031 C30.47705902 6.7793454 31.55079773 6.99912048 32.65707397 7.22555542 C47.48251731 10.24901012 62.2061496 13.00398283 77.30688477 14.2043457 C79.27832031 14.43457031 79.27832031 14.43457031 81.05957031 14.91259766 C84.30924698 15.67710126 87.59587116 15.90989422 90.91503906 16.18847656 C92.07200035 16.28650826 92.07200035 16.28650826 93.25233459 16.38652039 C95.82291793 16.59826334 98.39408598 16.79980693 100.96582031 16.99707031 C101.85458862 17.06526978 102.74335693 17.13346924 103.65905762 17.20373535 C119.11901013 18.35275343 134.52852814 18.71435372 150.02832031 18.68457031 C151.03833099 18.68361359 152.04834167 18.68265686 153.08895874 18.68167114 C172.9188144 18.63785027 192.57908857 17.87459404 212.27832031 15.55957031 C213.86009363 15.37764701 215.44188096 15.19584543 217.02368164 15.01416016 C221.44371322 14.50236792 225.86150121 13.97333236 230.27832031 13.43457031 C231.83365479 13.24507813 231.83365479 13.24507813 233.42041016 13.05175781 C259.26038469 9.81529277 287.65190394 6.2087605 312.20751953 -2.6184082 C322.83114647 -5.89468813 332.09089917 -2.74549571 341.84082031 1.62207031 C343.11025726 2.17227014 344.38037537 2.72090067 345.65112305 3.26806641 C348.91374894 4.6823387 352.16091874 6.12860474 355.40283203 7.58966064 C357.18752143 8.39366531 358.97503704 9.19138777 360.76269531 9.98876953 C388.50191399 22.41093999 416.26612356 35.67966533 442.27832031 51.43457031 C443.15472168 51.9638916 444.03112305 52.49321289 444.93408203 53.03857422 C456.23475291 59.89130104 467.38336518 66.95300719 478.27832031 74.43457031 C478.94782715 74.89154297 479.61733398 75.34851563 480.30712891 75.81933594 C491.06958995 83.18876722 501.28026591 91.06213217 511.27832031 99.43457031 C511.88272949 99.93456543 512.48713867 100.43456055 513.10986328 100.94970703 C526.05293041 111.66084553 537.95443231 123.14470344 548.27832031 136.43457031 C549.02984375 137.3459375 549.78136719 138.25730469 550.55566406 139.19628906 C558.16587694 148.6319663 564.1977099 158.95204672 570.41210938 169.33789062 C578.95132906 183.50736505 587.86305094 197.45317913 596.91992188 211.29614258 C599.52586905 215.28030962 602.12228821 219.27052063 604.71354675 223.26425171 C611.80473652 234.19194816 618.9375843 245.0919143 626.09985352 255.97314453 C627.35038625 257.87405901 628.59972334 259.77576056 629.84790039 261.67822266 C636.03406128 271.10666862 642.22566087 280.508666 648.8392334 289.64413452 C653.04854549 295.46434908 657.00833378 301.44161432 660.96582031 307.43457031 C662.53959228 309.80812939 664.11569816 312.18013277 665.69238281 314.55175781 C666.08214798 315.13827118 666.47191315 315.72478455 666.87348938 316.32907104 C670.49045008 321.76577671 674.15599297 327.16863916 677.84082031 332.55957031 C678.73341553 333.86619629 678.73341553 333.86619629 679.64404297 335.19921875 C682.25433888 339.01776474 684.86723464 342.83452372 687.48144531 346.65039062 C689.39735673 349.44748769 691.31025596 352.24662777 693.22164917 355.04681396 C694.30230071 356.62820206 695.38607873 358.20745225 696.4699707 359.78662109 C699.6290765 364.41572312 702.75026172 369.06849543 705.73925781 373.80957031 C706.2179834 374.56496094 706.69670898 375.32035156 707.18994141 376.09863281 C709.68646793 381.45681266 708.9633445 387.10548808 707.34082031 392.62207031 C700.9166424 401.38231292 691.25754184 407.05972391 682.36035156 413.03320312 C679.13023189 415.20732214 675.92291281 417.41418487 672.71582031 419.62207031 C672.07443115 420.06268799 671.43304199 420.50330566 670.7722168 420.95727539 C663.75045814 425.78573775 656.76104169 430.66065285 649.76831055 435.53100586 C643.6653054 439.77979325 637.54847834 444.00722927 631.41503906 448.21191406 C625.51765166 452.25961173 619.64780168 456.34654724 613.77832031 460.43457031 C604.01917706 467.23090352 594.23120597 473.98343406 584.421875 480.70703125 C574.84260167 487.27496122 565.29910822 493.89292008 555.76831055 500.53100586 C549.66915318 504.77711451 543.55754812 509.00391687 537.42602539 513.203125 C533.46090926 515.92258324 529.51208479 518.66434011 525.57128906 521.41894531 C524.05825195 522.4756543 524.05825195 522.4756543 522.51464844 523.55371094 C520.54452389 524.93065257 518.57568177 526.30943175 516.60839844 527.69042969 C513.84313126 529.62243486 511.06514423 531.53380722 508.27832031 533.43457031 C507.31192627 534.0994043 506.34553223 534.76423828 505.34985352 535.44921875 C504.39812256 536.08375977 503.4463916 536.71830078 502.46582031 537.37207031 C501.61761719 537.943125 500.76941406 538.51417969 499.89550781 539.10253906 C495.22916758 541.4774973 490.31627335 541.6598422 485.27832031 540.43457031 C478.76037987 537.48743401 475.37045367 533.44389552 471.84082031 527.37207031 C471.35709961 526.57438232 470.87337891 525.77669434 470.375 524.95483398 C469.28649958 523.15611232 468.20609148 521.35247732 467.13232422 519.54492188 C465.02031363 516.00172792 462.87655232 512.47883182 460.72753906 508.95800781 C456.56102161 502.12694809 452.41463544 495.28396028 448.27832031 488.43457031 C448.18070669 494.11181553 448.41774722 499.63055596 449.10644531 505.27050781 C450.13943834 514.42668838 450.87891688 523.59965842 451.57519531 532.78613281 C451.6322508 533.53709669 451.6893063 534.28806057 451.74809074 535.06178093 C452.05043909 539.0474283 452.350647 543.0332332 452.64962769 547.01913452 C453.30560824 555.76108601 453.97302223 564.50216837 454.64160156 573.24316406 C454.70984697 574.13608721 454.77809238 575.02901035 454.84840584 575.94899178 C456.17457249 593.28001046 457.58908925 610.60300978 459.03269958 627.92458344 C461.47466846 657.22871865 463.76615722 686.54269345 466.0016098 715.86327362 C468.08895379 743.23564369 470.24740761 770.60029629 472.52483368 797.95750046 C474.7855147 825.11747164 476.90842355 852.28656382 478.96981335 879.46236515 C480.10480354 894.41781152 481.24664819 909.37102706 482.54394531 924.31347656 C482.68840591 925.98716057 482.68840591 925.98716057 482.83578491 927.69465637 C483.26558935 932.658067 483.70425002 937.62035325 484.16162109 942.58129883 C484.93305313 951.17795843 485.44762144 959.73496089 485.52832031 968.36816406 C485.54903091 969.61341354 485.54903091 969.61341354 485.57015991 970.88381958 C485.56362618 976.43871405 484.95148644 980.49131612 481.20288086 984.84863281 C473.24280291 991.40814903 461.89873069 994.42035408 452.34082031 997.99707031 C451.53652588 998.29937561 450.73223145 998.60168091 449.90356445 998.91314697 C424.13938451 1008.58579895 398.32898452 1017.55988727 371.69091797 1024.53320312 C368.2896837 1025.43156891 364.89861 1026.36131466 361.50878906 1027.30175781 C330.02598979 1036.00932313 297.73274767 1042.6087637 265.27832031 1046.43457031 C264.02760742 1046.58635742 262.77689453 1046.73814453 261.48828125 1046.89453125 C223.84175403 1051.45000429 186.41256383 1054.01010272 148.48223114 1053.8809967 C145.60039307 1053.8719033 142.71858123 1053.86798151 139.83673096 1053.86486816 C112.23359683 1053.82160467 84.88079156 1053.23734968 57.46655273 1049.71313477 C55.28853561 1049.43587073 53.10921779 1049.17388461 50.92871094 1048.91699219 C42.35573103 1047.90373546 33.81204258 1046.74029792 25.27832031 1045.43457031 C24.29025391 1045.28552246 23.3021875 1045.13647461 22.28417969 1044.98291016 C15.26189638 1043.90920635 8.26757294 1042.70471156 1.27832031 1041.43457031 C0.63334595 1041.3176886 -0.01162842 1041.20080688 -0.67614746 1041.0803833 C-28.18223657 1036.08200686 -55.39861477 1030.17232162 -82.11230469 1021.84863281 C-86.08457131 1020.61300434 -90.08157097 1019.49442219 -94.09301758 1018.39379883 C-114.7020531 1012.69793276 -134.75617759 1005.33037014 -154.65917969 997.55957031 C-155.3733606 997.2828952 -156.0875415 997.00622009 -156.82336426 996.72116089 C-158.86438655 995.92801705 -160.90101439 995.12455566 -162.93652344 994.31738281 C-164.10304443 993.85734863 -165.26956543 993.39731445 -166.47143555 992.92333984 C-172.64086535 990.09744163 -176.73142177 986.79291666 -180.72167969 981.43457031 C-181.6358364 978.69210016 -181.85367285 977.05507082 -181.86575317 974.22955322 C-181.86948378 973.39189297 -181.87321438 972.55423271 -181.87705803 971.69118881 C-181.87363962 970.78956135 -181.87022121 969.88793388 -181.86669922 968.95898438 C-181.86428286 968.0195612 -181.86186649 967.08013802 -181.85937691 966.11224747 C-181.78860676 956.71757721 -181.16273442 947.40379507 -180.40136719 938.04394531 C-180.26036917 936.2359329 -180.12006462 934.4278663 -179.98039246 932.61975098 C-179.60653841 927.80723441 -179.22256167 922.99557751 -178.83638382 918.18403625 C-178.51110252 914.11372604 -178.19212951 910.0429311 -177.87320805 905.97211838 C-175.79374435 879.43054693 -173.63182874 852.89566884 -171.42495728 826.3644104 C-169.11082511 798.54133667 -166.93547823 770.70816859 -164.78417969 742.87207031 C-164.09823133 733.99835309 -163.41217059 725.12464458 -162.72558594 716.25097656 C-162.64094652 715.15695778 -162.55630711 714.062939 -162.46910286 712.93576813 C-160.47814689 687.21172303 -158.43546077 661.49188036 -156.37963867 635.77294922 C-156.0951705 632.21354521 -155.81075963 628.65413662 -155.52636719 625.09472656 C-155.45549707 624.2080278 -155.38462696 623.32132904 -155.31160927 622.40776062 C-154.13562879 607.68915895 -152.97614334 592.96929284 -151.8219223 578.24897003 C-151.26895129 571.20017581 -150.71444307 564.1515023 -150.16003036 557.10282135 C-149.62250553 550.26608934 -149.08757411 543.42916053 -148.55447578 536.59208202 C-148.22417403 532.36400963 -147.89138749 528.1361355 -147.55791855 523.90831184 C-147.40286282 521.93575392 -147.24886424 519.96311259 -147.0959816 517.99038506 C-146.88625025 515.28576355 -146.67282499 512.58145775 -146.45849609 509.87719727 C-146.39826515 509.08877882 -146.33803421 508.30036037 -146.27597809 507.48805046 C-145.97441518 503.73200909 -145.48518335 500.12091949 -144.72167969 496.43457031 C-144.68343346 494.10155045 -144.67593685 491.76745523 -144.72167969 489.43457031 C-145.10275879 490.0463916 -145.48383789 490.65821289 -145.87646484 491.28857422 C-149.42286415 496.97955441 -152.97671902 502.66578968 -156.53848267 508.34716797 C-158.92332444 512.15322824 -161.29321171 515.96832084 -163.65917969 519.78613281 C-164.88791151 521.75255043 -166.11706029 523.71870758 -167.34667969 525.68457031 C-167.91338379 526.6057666 -168.48008789 527.52696289 -169.06396484 528.47607422 C-172.86116926 534.51507007 -176.54049347 539.47606498 -183.72167969 541.43457031 C-195.45814574 543.39453681 -204.80522479 534.11769123 -213.84667969 527.74707031 C-215.88159858 526.32225209 -217.9167557 524.89777405 -219.95214844 523.47363281 C-220.93747559 522.78301758 -221.92280273 522.09240234 -222.93798828 521.38085938 C-226.66502947 518.77500318 -230.40870489 516.19404091 -234.15917969 513.62207031 C-235.11546265 512.96561523 -235.11546265 512.96561523 -236.09106445 512.29589844 C-237.96752709 511.00819129 -239.84450527 509.72123958 -241.72167969 508.43457031 C-251.92076062 501.4438273 -262.08520498 494.40503899 -272.23168945 487.33813477 C-277.71662173 483.51963706 -283.20937869 479.71344333 -288.72167969 475.93457031 C-295.24248408 471.46433334 -301.73420353 466.95301931 -308.22167969 462.43457031 C-317.36513111 456.06700906 -326.5311933 449.73399365 -335.72167969 443.43457031 C-345.91070045 436.45072283 -356.06707266 429.42162984 -366.20092773 422.35791016 C-371.30899484 418.79955778 -376.42837122 415.25976498 -381.57226562 411.75341797 C-403.4714201 396.81065193 -403.4714201 396.81065193 -405.72167969 387.43457031 C-406.83382821 377.42523365 -400.04141953 369.73980992 -394.53417969 361.99707031 C-393.08770552 359.94059524 -391.6424327 357.88327476 -390.19824219 355.82519531 C-389.45606445 354.76880859 -388.71388672 353.71242188 -387.94921875 352.62402344 C-384.39077944 347.52894988 -380.89733675 342.39041615 -377.40917969 337.24707031 C-376.70156494 336.20413818 -375.9939502 335.16120605 -375.26489258 334.08666992 C-373.81110172 331.94299427 -372.35773582 329.79903036 -370.90478516 327.65478516 C-368.75383214 324.48199716 -366.59960394 321.31145964 -364.44433594 318.14160156 C-359.52942105 310.91090626 -354.62347869 303.6741627 -349.72167969 296.43457031 C-348.90455505 295.22788696 -348.90455505 295.22788696 -348.07092285 293.99682617 C-333.78884767 272.90259338 -319.52042816 251.80703027 -305.66650391 230.42822266 C-303.59080657 227.23311836 -301.5033731 224.04592867 -299.41308594 220.86035156 C-287.03006268 201.98802854 -274.89288104 182.97341396 -262.95751953 163.81494141 C-261.21555153 161.01939873 -259.46945137 158.22648765 -257.72167969 155.43457031 C-257.12299072 154.47454102 -256.52430176 153.51451172 -255.9074707 152.52539062 C-252.65680615 147.35425898 -249.3480419 142.33220834 -245.53417969 137.55957031 C-245.07277588 136.97788086 -244.61137207 136.39619141 -244.13598633 135.796875 C-238.979365 129.38336512 -233.41973378 123.36679101 -227.72167969 117.43457031 C-226.86574219 116.53738281 -226.00980469 115.64019531 -225.12792969 114.71582031 C-220.20492021 109.66817768 -215.05649336 105.09637424 -209.54589844 100.70019531 C-206.69941868 98.41671224 -203.93243424 96.0561811 -201.15917969 93.68457031 C-167.38612815 65.51119571 -127.84213344 44.10495549 -88.72167969 24.43457031 C-88.12657593 24.1353064 -87.53147217 23.83604248 -86.91833496 23.52770996 C-77.92253631 19.01411062 -68.85986935 14.65161089 -59.72167969 10.43457031 C-59.02743896 10.11389587 -58.33319824 9.79322144 -57.61791992 9.46282959 C-53.22169315 7.43955209 -48.81023451 5.45515744 -44.37854004 3.51077271 C-42.96416172 2.88701417 -41.55310925 2.25564696 -40.14587402 1.61593628 C-25.69858443 -4.92614623 -14.98303281 -4.23247034 0 0 Z " fill="#F4ED9D" transform="translate(848.7216796875,475.5654296875)"/>
<path d="M0 0 C5.7975717 0.40415764 11.43400857 1.23175219 17.13671875 2.3515625 C25.80965839 4.01607376 34.51937966 5.37766278 43.25317383 6.67993164 C45.80045989 7.06070024 48.34651564 7.44903477 50.89257812 7.83789062 C79.91603314 12.22453509 108.6841121 13.2737868 138 13.3125 C138.75966694 13.31365059 139.51933388 13.31480118 140.30202103 13.31598663 C182.42202134 13.36016146 225.25864705 10.9406408 266.26782227 0.55297852 C268.92811105 0.01454995 271.29482067 -0.1039623 274 0 C252.1696505 39.97625183 211.76488731 66.45309778 168.99609375 79.15429688 C132.75873453 89.38296476 94.90373646 84.9385041 62 67 C53.67292744 62.24410364 46.23940624 56.25590147 39 50 C38.50467773 49.57315918 38.00935547 49.14631836 37.49902344 48.70654297 C30.21781318 42.38460327 23.89507604 35.6521622 18 28 C17.17628906 26.96875 16.35257813 25.9375 15.50390625 24.875 C0 5.34467974 0 5.34467974 0 0 Z " fill="#AB3528" transform="translate(863,519)"/>
</svg>
