<?xml version="1.0" encoding="UTF-8"?>
<svg version="1.1" xmlns="http://www.w3.org/2000/svg" width="2000" height="2000">
<path d="M0 0 C660 0 1320 0 2000 0 C2000 660 2000 1320 2000 2000 C1340 2000 680 2000 0 2000 C0 1340 0 680 0 0 Z " fill="#AA3428" transform="translate(0,0)"/>
<path d="M0 0 C660 0 1320 0 2000 0 C2000 660 2000 1320 2000 2000 C1340 2000 680 2000 0 2000 C0 1340 0 680 0 0 Z M930.32070923 182.75076294 C928.16526494 182.98225105 926.00956188 183.1880106 923.8503418 183.38061523 C870.3767332 188.21844823 816.81131876 198.20194931 765.53515625 214.22119141 C763.3320017 214.89800795 761.12513831 215.54515205 758.90625 216.16796875 C722.93389859 226.2943319 687.89724183 240.3485817 654.21484375 256.46240234 C651.38096583 257.81779141 648.54180348 259.16141626 645.70057678 260.50131226 C619.96207521 272.65406887 595.18338072 286.16623985 570.99023438 301.14941406 C568.48368536 302.70065847 565.97098843 304.24067363 563.453125 305.7734375 C539.63969142 320.34544067 517.05094236 336.90848043 495 354 C494.38141113 354.47679199 493.76282227 354.95358398 493.12548828 355.44482422 C485.92422876 360.99786024 478.90245795 366.71123745 472.03173828 372.66918945 C468.64084692 375.60831034 465.20165922 378.45778285 461.6875 381.25 C451.47954121 389.53450068 442.05127984 398.84847831 432.83007812 408.20556641 C431.00993989 409.99025371 429.1277273 411.65998702 427.1875 413.3125 C419.82558103 419.65998131 413.04713216 426.64809867 406.7421875 434.0390625 C404.7456211 436.28631885 402.63987054 438.38894927 400.5 440.5 C397.10731601 443.85256779 393.90899316 447.29475682 390.8046875 450.9140625 C388.78348724 453.25025501 386.70621161 455.52964851 384.625 457.8125 C380.72636603 462.13260791 377.02496142 466.58071381 373.3671875 471.10546875 C371.31608095 473.61350497 369.22575668 476.08098093 367.11303711 478.53710938 C360.63472211 486.08412008 354.58791637 493.92765379 348.60546875 501.87109375 C347.07675459 503.8982208 345.53956025 505.91860437 344 507.9375 C324.58796168 533.48067364 307.25752462 560.35943855 291 588 C290.49436523 588.85142578 289.98873047 589.70285156 289.46777344 590.58007812 C254.42324041 649.67478087 227.36172177 714.76074271 209.77246094 781.12646484 C208.98779654 784.04539658 208.17330381 786.95458551 207.3515625 789.86328125 C202.06533062 808.72997251 197.88499038 827.80344653 194 847 C193.63261719 848.80500977 193.63261719 848.80500977 193.2578125 850.64648438 C189.88479675 867.60084884 187.83074464 884.7174506 185.8125 901.875 C185.68566833 902.9383255 185.55883667 904.001651 185.42816162 905.09719849 C181.80399925 935.74878686 180.6439742 966.12645979 180.68432617 996.95874023 C180.68895323 1000.76908182 180.68202914 1004.5791038 180.66381836 1008.3894043 C180.54862194 1032.73700821 181.28518779 1056.75849911 183.79170609 1080.98420715 C184.01105392 1083.10697581 184.22559531 1085.23019645 184.43954468 1087.35351562 C187.94240041 1121.95824947 193.84550784 1156.35154436 202.28320312 1190.09716797 C203.08472411 1193.34310957 203.82147563 1196.60005236 204.54736328 1199.86352539 C221.76747064 1276.38804781 254.86372742 1351.91384281 295 1419 C295.60166992 1420.00691895 296.20333984 1421.01383789 296.82324219 1422.05126953 C303.5515577 1433.28132851 310.37970358 1444.41840424 317.78027344 1455.21972656 C319.06010498 1457.08772728 320.33101065 1458.96161489 321.6015625 1460.8359375 C335.34090561 1481.03469223 350.06973099 1500.27421996 365.51904297 1519.18261719 C366.8427907 1520.80707781 368.15828809 1522.43825346 369.47265625 1524.0703125 C374.02334754 1529.70450171 378.75879243 1535.1134745 383.66015625 1540.4453125 C385.65834848 1542.62697815 387.62148889 1544.83011309 389.5625 1547.0625 C396.05606546 1554.5074483 402.66504162 1561.73961501 409.69799805 1568.67651367 C412.42580703 1571.37992443 415.03285938 1574.11998351 417.5 1577.0625 C420.78368919 1580.91864833 424.47938714 1584.26415937 428.23730469 1587.64379883 C432.02883356 1591.06713231 435.66340159 1594.61321545 439.25 1598.25 C443.04825788 1602.09202081 446.90512779 1605.79717583 451.01953125 1609.30078125 C453.32669952 1611.28030432 455.56646782 1613.3264212 457.8125 1615.375 C462.10959827 1619.25350727 466.53758754 1622.92865968 471.0390625 1626.56640625 C473.69764902 1628.75149781 476.30044215 1630.98384606 478.89428711 1633.24438477 C486.61582052 1639.96165046 494.6227454 1646.22880717 502.81542969 1652.35986328 C504.89944549 1653.92450545 506.9699376 1655.50559149 509.0390625 1657.08984375 C538.25373923 1679.24376712 569.66175259 1698.68344163 601.58886719 1716.64013672 C603.81776001 1717.89721783 606.03863521 1719.16727983 608.2578125 1720.44140625 C664.77734066 1752.67187967 727.17682658 1776.41768975 790 1793 C791.17546387 1793.31275879 792.35092773 1793.62551758 793.56201172 1793.94775391 C836.23843239 1805.22269948 879.56197999 1812.07947668 923.4375 1816.6875 C924.56639648 1816.80681885 925.69529297 1816.9261377 926.85839844 1817.04907227 C942.79175175 1818.66697444 958.56069394 1819.15169524 974.5625 1819.1328125 C976.60880546 1819.13348835 978.65511083 1819.13446071 980.70141602 1819.13571167 C984.96403782 1819.13717542 989.22663849 1819.13507704 993.48925781 1819.13037109 C998.90840844 1819.12467465 1004.32750951 1819.1279608 1009.74665833 1819.13394356 C1013.96439985 1819.13758513 1018.18212993 1819.13639419 1022.39987183 1819.13381577 C1024.39623012 1819.13315641 1026.39258952 1819.13393954 1028.38894653 1819.13629532 C1043.10261374 1819.14985463 1057.66932097 1818.67365551 1072.3125 1817.125 C1073.56003052 1816.99375732 1073.56003052 1816.99375732 1074.83276367 1816.85986328 C1076.62951409 1816.67007381 1078.42614319 1816.47913265 1080.22265625 1816.28710938 C1083.02178371 1815.9977481 1085.82254591 1815.73931781 1088.625 1815.484375 C1122.69489776 1812.22333207 1156.66933691 1805.69917533 1190 1798 C1191.20027832 1797.72333496 1192.40055664 1797.44666992 1193.63720703 1797.16162109 C1211.69003661 1792.94527863 1229.38964123 1787.7773217 1247 1782 C1248.07471558 1781.64841827 1248.07471558 1781.64841827 1249.17114258 1781.28973389 C1282.54675437 1770.35418474 1315.11032045 1757.73663424 1347 1743 C1348.0214209 1742.52916992 1349.0428418 1742.05833984 1350.09521484 1741.57324219 C1375.46816082 1729.80806558 1400.14493857 1716.59748746 1424 1702 C1424.94472168 1701.42459473 1425.88944336 1700.84918945 1426.86279297 1700.25634766 C1471.71454423 1672.86057385 1513.08210281 1641.25702409 1552 1606 C1552.96292969 1605.13117188 1553.92585938 1604.26234375 1554.91796875 1603.3671875 C1560.94770546 1597.90200351 1566.75948286 1592.27907682 1572.4765625 1586.48828125 C1574.6285972 1584.36622846 1576.81701193 1582.38515001 1579.125 1580.4375 C1582.92516929 1577.19008261 1586.1439392 1573.56144001 1589.44140625 1569.8125 C1592.40221957 1566.55786551 1595.49506783 1563.46571332 1598.625 1560.375 C1602.68812147 1556.35367661 1606.63249051 1552.30552842 1610.3359375 1547.9453125 C1612.30139014 1545.64767068 1614.33729871 1543.42126877 1616.375 1541.1875 C1620.19718989 1536.94775995 1623.84451955 1532.59812452 1627.43359375 1528.16015625 C1629.34423039 1525.79762313 1631.27844765 1523.45607521 1633.22265625 1521.12109375 C1664.88934019 1483.04811242 1692.98213458 1441.71529989 1716.75683594 1398.27148438 C1717.67072924 1396.60163691 1718.58863342 1394.93398297 1719.50878906 1393.26757812 C1747.4946424 1342.51329307 1768.845984 1289.29922668 1786 1234 C1786.4957251 1232.4226709 1786.4957251 1232.4226709 1787.00146484 1230.81347656 C1795.33501739 1204.16564365 1801.54728383 1176.64044161 1806.43505859 1149.16357422 C1807.03105242 1145.82611184 1807.65025808 1142.49337187 1808.26953125 1139.16015625 C1815.25332935 1100.88999483 1819.15096372 1061.82926686 1819.16796875 1022.921875 C1819.17119983 1021.13616919 1819.17456511 1019.35046362 1819.17805481 1017.5647583 C1819.18398851 1013.84362172 1819.18590093 1010.12250815 1819.18530273 1006.40136719 C1819.18522188 1002.65522389 1819.19210924 998.90920394 1819.20581055 995.16308594 C1819.28671169 972.67795648 1818.95498522 950.412085 1817 928 C1816.92429779 927.09290283 1816.84859558 926.18580566 1816.77059937 925.2512207 C1816.32613179 919.95196115 1815.81594937 914.66259469 1815.25 909.375 C1815.12694489 908.20939041 1815.12694489 908.20939041 1815.00140381 907.02023315 C1813.1748146 889.9247748 1810.46673062 873.01180344 1807.3828125 856.10229492 C1807.00956478 854.05252702 1806.64099741 852.0019664 1806.2734375 849.95117188 C1801.34044765 822.64354948 1795.10432196 795.54907985 1787 769 C1786.62004883 767.74558105 1786.24009766 766.49116211 1785.84863281 765.19873047 C1758.96348149 676.65459161 1718.15272695 593.42082427 1623.37255859 467.61083984 C1621.96681432 465.96105316 1620.57072891 464.30345255 1619.17578125 462.64453125 C1608.79313804 450.34571045 1597.7821519 438.66659727 1586.328125 427.36328125 C1584.36063802 425.36608389 1582.5433407 423.33860311 1580.75 421.1875 C1576.7629443 416.50871415 1572.20441707 412.44263038 1567.68945312 408.28515625 C1563.9482024 404.83624856 1560.30358339 401.33205512 1556.75 397.6875 C1552.68436497 393.56819322 1548.36044927 389.9474518 1543.83984375 386.33984375 C1540.84864741 383.87529546 1538.01276645 381.27467702 1535.1875 378.625 C1529.92222698 373.71604293 1524.38319698 369.27118955 1518.6875 364.875 C1515.48460792 362.39754929 1512.35555387 359.83986329 1509.23388672 357.26123047 C1500.82945182 350.32958849 1492.12837989 343.91175155 1483.24707031 337.60742188 C1481.07495024 336.05361499 1478.9215319 334.47743344 1476.7734375 332.890625 C1456.03654835 317.61081194 1434.20744512 304.02087162 1412 291 C1411.13165527 290.48663086 1410.26331055 289.97326172 1409.36865234 289.44433594 C1363.79477227 262.54450154 1314.97858956 241.18468841 1264.96176147 224.05410767 C1261.46321376 222.85526475 1257.97193534 221.63894783 1254.48852539 220.39672852 C1253.73394547 220.12795898 1252.97936554 219.85918945 1252.20191956 219.58227539 C1250.76284914 219.06860612 1249.3245058 218.55289305 1247.8870697 218.03466797 C1242.27681117 216.03379846 1236.62017853 214.46327906 1230.84765625 212.98828125 C1227.45608309 212.11714621 1224.08553843 211.19738375 1220.71533203 210.24853516 C1216.8143946 209.15056357 1212.90736076 208.07485027 1209 207 C1208.14970215 206.76522949 1207.2994043 206.53045898 1206.42333984 206.28857422 C1181.64884499 199.49388154 1156.49790107 194.70614075 1131.16455078 190.52294922 C1128.39869745 190.06588566 1125.63474914 189.59902114 1122.87109375 189.12890625 C1109.64044578 186.91427445 1096.33898499 185.39395346 1083 184 C1081.76495728 183.86897888 1080.52991455 183.73795776 1079.25744629 183.60296631 C1053.6257383 180.96086335 1028.16263538 180.56384438 1002.41046143 180.6774292 C998.25818214 180.69092736 994.10600869 180.68557856 989.95371723 180.68056107 C960.09187428 180.63930572 960.09187428 180.63930572 930.32070923 182.75076294 Z " fill="#3B8DA4" transform="translate(0,0)"/>
<path d="M0 0 C0.71520229 -0.00265183 1.43040458 -0.00530365 2.16727966 -0.00803584 C4.57625463 -0.01572689 6.98517861 -0.01628794 9.39416504 -0.01688576 C11.1338565 -0.02090051 12.87354703 -0.02533876 14.61323643 -0.03016531 C19.40389671 -0.04213531 24.19454693 -0.04778026 28.98521924 -0.05234647 C34.14835093 -0.05830098 39.31147056 -0.06991124 44.47459412 -0.08063698 C56.94917418 -0.10516496 69.42375824 -0.11978899 81.89835501 -0.13269705 C85.42157231 -0.13640877 88.94478922 -0.14038202 92.46800613 -0.14444971 C114.34500486 -0.16968669 136.22200421 -0.19174062 158.09901428 -0.20417786 C163.16696169 -0.20710757 168.23490908 -0.21006923 173.30285645 -0.21308327 C174.56247676 -0.21382932 175.82209708 -0.21457537 177.11988771 -0.21534403 C197.52316002 -0.22799656 217.92634517 -0.261218 238.32957673 -0.3028851 C259.27567175 -0.34531025 280.22172216 -0.36887359 301.16786003 -0.37409842 C312.92890141 -0.37751193 324.68980658 -0.38926016 336.45080566 -0.42220116 C346.46759265 -0.45021077 356.48421551 -0.46119694 366.50103861 -0.4500057 C371.61040652 -0.44482139 376.71943078 -0.44769128 381.8287487 -0.47247124 C386.51098017 -0.49498992 391.19262164 -0.49420343 395.87486362 -0.47526737 C397.56405276 -0.47247104 399.25328212 -0.47804541 400.94240665 -0.4930803 C413.87632192 -0.60111781 424.67744038 1.52460871 434.90002441 10.05888939 C444.07446924 19.42703651 447.40161842 30.21810464 447.32108402 43.00301647 C447.32634313 44.06841621 447.33160225 45.13381595 447.33702073 46.23150054 C447.35097731 49.80175131 447.34361055 53.37163431 447.33631897 56.94190025 C447.34192407 59.52736831 447.3488265 62.11283382 447.35691494 64.6982953 C447.37235122 70.31979897 447.37663303 75.94122518 447.3735466 81.56274796 C447.3689681 89.92232963 447.38146521 98.28182569 447.39717048 106.64139071 C447.42617402 122.44074701 447.43462254 138.24007411 447.43634165 154.0394539 C447.43772052 166.24022952 447.44389682 178.44099369 447.45344353 190.64176559 C447.45613617 194.15432029 447.45880561 197.666875 447.46146816 201.17942971 C447.4621313 202.05266929 447.46279445 202.92590886 447.46347769 203.82561025 C447.48193848 228.38587117 447.49377955 252.94612812 447.49244785 277.50639629 C447.49240112 278.43225291 447.49235438 279.35810953 447.49230623 280.31202241 C447.49205691 285.00460582 447.49175978 289.69718922 447.49145211 294.38977263 C447.49136235 295.78770925 447.49136235 295.78770925 447.49127079 297.21388701 C447.49114947 299.09853191 447.49102408 300.98317682 447.49089461 302.86782172 C447.48905616 332.1928674 447.51158031 361.51780903 447.5526123 390.84282494 C447.59869633 423.79200218 447.62451093 456.74111107 447.62172264 489.69032258 C447.62149875 493.20382035 447.62135263 496.71731811 447.62125969 500.23081589 C447.62122473 501.09592366 447.62118976 501.96103143 447.62115374 502.85235459 C447.62106144 516.77192058 447.64021579 530.6913962 447.66605648 544.61093533 C447.6914898 558.60035607 447.69445291 572.58964465 447.67472852 586.57907573 C447.66364427 594.8884442 447.66913118 603.19741108 447.69855554 611.50673697 C447.71867544 617.71324151 447.70738952 623.91931804 447.68393587 630.12580254 C447.67931733 632.63515428 447.68483048 635.14454948 447.7015161 637.65385 C447.86285531 663.63873802 447.86285531 663.63873802 439.09774595 673.12579042 C432.3418852 679.52064305 425.10541983 681.26134946 416.03204215 681.26351422 C415.00191112 681.26580404 415.00191112 681.26580404 413.95096936 681.26814012 C411.64024273 681.2720497 409.32958113 681.26882015 407.01885414 681.26564884 C405.34211978 681.26699499 403.66538571 681.26877859 401.98865223 681.27096108 C397.3563943 681.275706 392.72415594 681.2741846 388.09189703 681.2716833 C383.06165998 681.27005481 378.0314272 681.27418722 373.0011915 681.27759248 C364.17682025 681.28275528 355.3524545 681.28416216 346.52808189 681.28313637 C333.40609973 681.2816147 320.28412366 681.28576593 307.16214268 681.29101099 C282.3659736 681.30069515 257.56980617 681.30349624 232.77363564 681.30406805 C230.03785452 681.3041328 227.3020734 681.30420074 224.56629229 681.30427146 C223.88742118 681.30428846 223.20855007 681.30430547 222.50910711 681.30432299 C207.47194621 681.30473127 192.43478573 681.30692064 177.39762505 681.3094273 C171.20778388 681.31045564 165.0179427 681.31144567 158.82810152 681.31244355 C158.14419893 681.31255414 157.46029634 681.31266473 156.75566942 681.31277867 C117.55966565 681.3191036 78.36366216 681.32322769 39.16765785 681.32277012 C37.70050704 681.32275434 36.23335622 681.3227386 34.76620541 681.32272291 C28.14198267 681.32264953 21.51775992 681.32256136 14.89353718 681.32246903 C11.93956197 681.3224279 8.98558675 681.32238776 6.03161154 681.32234771 C4.55309311 681.32232732 3.07457468 681.3223063 1.59605626 681.32228465 C-45.16362686 681.3216043 -91.9233024 681.32892323 -138.6829834 681.34282494 C-150.46512538 681.34632586 -162.24726737 681.34979528 -174.02940941 681.35308933 C-174.75485145 681.35329221 -175.48029349 681.35349508 -176.22771862 681.3537041 C-198.58059258 681.35991747 -220.93346592 681.36368435 -243.28634071 681.36494732 C-243.98796128 681.36498727 -244.68958185 681.36502722 -245.41246365 681.36506838 C-260.81349005 681.36592159 -276.21451641 681.36618288 -291.61554283 681.36589801 C-297.12607146 681.36580152 -302.63660009 681.36574948 -308.14712873 681.36571928 C-309.51804324 681.36571136 -310.88895776 681.36570116 -312.25987227 681.36568865 C-334.11790702 681.36551222 -355.9759353 681.37121479 -377.8339682 681.37984247 C-400.4561281 681.38872639 -423.0782798 681.39032083 -445.70044087 681.38353034 C-458.74976994 681.37982487 -471.79907064 681.38169668 -484.84839672 681.39147268 C-493.55547051 681.39744637 -502.26252361 681.39620649 -510.96959643 681.38900218 C-515.93686649 681.38509849 -520.90408141 681.38440835 -525.87134771 681.39245953 C-530.38669881 681.39971447 -534.90194862 681.39783022 -539.41729514 681.38853567 C-541.04396431 681.38680876 -542.67064131 681.38846083 -544.29730251 681.39383687 C-546.5019861 681.40063749 -548.70631273 681.39513188 -550.91098249 681.38656205 C-552.74387055 681.38669438 -552.74387055 681.38669438 -554.61378666 681.38682939 C-563.63433008 680.73384599 -569.90982664 676.82088023 -575.87731934 670.26201439 C-580.59024818 663.52925889 -581.50688985 657.49581795 -581.43954945 649.50619507 C-581.44361017 648.56220449 -581.4476709 647.6182139 -581.45185468 646.64561754 C-581.46180051 643.48241183 -581.45037263 640.31964985 -581.43904114 637.15645409 C-581.44178169 634.86583375 -581.44583374 632.57521467 -581.45108479 630.28459871 C-581.46168051 623.99001355 -581.45353683 617.6955702 -581.44233429 611.4009912 C-581.43440729 605.31012434 -581.44056203 599.21928627 -581.44631087 593.12841975 C-581.4582342 579.90384853 -581.45315519 566.67932499 -581.44103259 553.4547564 C-581.43049938 541.88551434 -581.42595673 530.31628852 -581.42732811 518.7470417 C-581.42741214 517.97984575 -581.42749617 517.2126498 -581.42758275 516.42220549 C-581.42793499 513.30802969 -581.428319 510.19385389 -581.42874832 507.0796781 C-581.43271318 477.86882396 -581.41999514 448.65799856 -581.39922176 419.44715264 C-581.38084134 393.47901988 -581.37504225 367.51091467 -581.38049316 341.54277611 C-581.3808396 339.8745307 -581.38118569 338.20628529 -581.38153145 336.53803988 C-581.38170245 335.71330027 -581.38187344 334.88856066 -581.38204962 334.03882894 C-581.38290313 329.88744297 -581.38372692 325.736057 -581.38451862 321.58467102 C-581.3846757 320.76571347 -581.38483278 319.94675591 -581.38499462 319.10298146 C-581.38898099 297.4166815 -581.38351433 275.73038421 -581.37500733 254.04408586 C-581.37410027 251.71190387 -581.37319462 249.37972187 -581.3722921 247.04753987 C-581.37169099 245.50037204 -581.37108237 243.9532042 -581.37046619 242.40603637 C-581.36623937 231.60552725 -581.3656688 220.80502333 -581.36757169 210.00451365 C-581.37001041 196.09294631 -581.36597659 182.18140691 -581.35036168 168.26984723 C-581.34300217 161.55779823 -581.33906129 154.8457904 -581.34360504 148.13373756 C-581.34765705 141.99915258 -581.34258617 135.86464791 -581.32997897 129.73007517 C-581.32703129 127.50149317 -581.32751243 125.27290368 -581.33162204 123.04432352 C-581.33667308 120.03371327 -581.32961643 117.02337763 -581.31929493 114.01278687 C-581.32369141 113.1315203 -581.3280879 112.25025373 -581.33261761 111.34228212 C-581.29312479 105.36531984 -581.29312479 105.36531984 -579.06481934 103.13701439 C-576.32890399 102.94008671 -573.69421259 102.87012398 -570.95709133 102.88647461 C-570.1048513 102.88367693 -569.25261127 102.88087926 -568.37454578 102.8779968 C-565.48733334 102.87097729 -562.60032926 102.8783261 -559.71311951 102.88545799 C-557.63478238 102.88332164 -555.556446 102.88029785 -553.47811133 102.87645757 C-547.74218914 102.86837933 -542.00633173 102.87274243 -536.2704097 102.87897635 C-530.09365914 102.88349293 -523.91692129 102.87647889 -517.74017334 102.87067223 C-507.02827824 102.86202206 -496.3164021 102.86022604 -485.60450554 102.8626194 C-469.3931333 102.86603251 -453.18179846 102.85268683 -436.97043626 102.83584493 C-430.46775897 102.82916324 -423.96508113 102.82302471 -417.4624033 102.81689072 C-416.73988572 102.81620672 -416.01736814 102.81552273 -415.27295609 102.814818 C-398.06498912 102.79863079 -380.85701984 102.78780174 -363.64904785 102.77861595 C-362.8958949 102.77820992 -362.14274194 102.77780388 -361.36676617 102.77738555 C-343.79952418 102.76796022 -326.23228347 102.76109261 -308.66503906 102.75865746 C-307.53222495 102.75849761 -307.53222495 102.75849761 -306.3765257 102.75833454 C-302.5685914 102.75780139 -298.7606571 102.75728664 -294.9527228 102.75677316 C-294.20016454 102.75667095 -293.44760628 102.75656874 -292.67224322 102.75646344 C-291.15327789 102.75625788 -289.63431256 102.75605532 -288.11534722 102.75585577 C-263.01892572 102.75247501 -237.92254158 102.73556226 -212.82613953 102.70375423 C-209.28167686 102.6992808 -205.73721398 102.69499095 -202.19275093 102.69082832 C-201.49515975 102.69000787 -200.79756856 102.68918741 -200.07883825 102.68834209 C-188.85018574 102.6755914 -177.6215817 102.67758999 -166.39292666 102.68546277 C-155.10577484 102.69314619 -143.81870279 102.68643906 -132.53156077 102.66582371 C-126.41609286 102.65512684 -120.30080196 102.65101548 -114.18533516 102.6642952 C-108.58729436 102.67632936 -102.98958573 102.67002104 -97.39157385 102.64910321 C-95.36591771 102.64479408 -93.34023357 102.64725171 -91.314597 102.65714438 C-88.56047539 102.66961864 -85.80750069 102.6574536 -83.05343533 102.63923645 C-82.2674557 102.64871185 -81.48147607 102.65818726 -80.67167887 102.6679498 C-71.54569122 102.54632369 -63.68851725 98.23438534 -57.06481934 92.13701439 C-51.74668548 85.54648658 -48.56364227 77.94763476 -45.31481934 70.19951439 C-44.7702819 68.92176361 -44.22475934 67.64443229 -43.67834473 66.36748314 C-42.14406698 62.77606547 -40.62065122 59.18013481 -39.09954834 55.58312035 C-35.97922098 48.20664659 -32.84668073 40.83540219 -29.70605469 33.46755028 C-28.51783838 30.67350682 -27.33747184 27.87623714 -26.15759277 25.07866478 C-25.41734785 23.33756403 -24.67680175 21.5965913 -23.93591309 19.85576439 C-23.60407516 19.06318733 -23.27223724 18.27061028 -22.93034363 17.45401573 C-20.11973904 10.88456568 -17.13472188 5.2341986 -11.06481934 1.13701439 C-7.42241466 -0.1309464 -3.82741199 0.00698565 0 0 Z " fill="#F4ED9D" transform="translate(1067.0648193359375,677.8629856109619)"/>
<path d="M0 0 C2.27697503 -0.00647985 4.55394473 -0.01513504 6.83090413 -0.0257743 C13.07893196 -0.04857917 19.32658721 -0.04020654 25.57462764 -0.02663505 C31.62373316 -0.01833311 37.67275217 -0.03348445 43.72183516 -0.0478374 C56.85567819 -0.07801549 69.98940667 -0.07947583 83.12327289 -0.06848438 C94.61823868 -0.05889173 106.11316057 -0.05818548 117.60812759 -0.06637001 C119.15073348 -0.06743581 120.69333937 -0.06850136 122.23594526 -0.06956664 C124.5605862 -0.07118773 126.88522713 -0.07282003 129.20986803 -0.07447967 C150.81901854 -0.08973378 172.42815432 -0.09524306 194.03730583 -0.07988262 C194.85168191 -0.07930385 195.666058 -0.07872509 196.50511214 -0.07812878 C203.11818998 -0.07336419 209.7312676 -0.06830617 216.34434521 -0.06323105 C242.13840353 -0.04363984 267.9323053 -0.05284042 293.72634888 -0.08564758 C322.71545527 -0.12244043 351.70447001 -0.13951948 380.69359982 -0.12623531 C383.78524659 -0.12487784 386.87689338 -0.12357777 389.96854019 -0.12230873 C390.72976518 -0.12198077 391.49099016 -0.1216528 392.27528257 -0.1213149 C403.76051704 -0.11673998 415.24567317 -0.12736568 426.73089218 -0.14555931 C439.79432689 -0.16619784 452.85756621 -0.16558798 465.92098986 -0.13692691 C472.58576498 -0.12286054 479.25025531 -0.11898082 485.91503906 -0.14087677 C492.01820705 -0.16066273 498.1206895 -0.1526695 504.22381009 -0.12268243 C506.42962837 -0.11668254 508.6355024 -0.1207656 510.84127592 -0.13604566 C534.45108819 -0.28765518 534.45108819 -0.28765518 544.15693748 8.71438104 C547.68410427 12.43366998 551.92214966 17.29372179 551.92214966 22.64164734 C550.85686035 22.65566589 550.85686035 22.65566589 549.77005005 22.66996765 C546.50758292 22.7241253 543.24648042 22.80768303 539.98464966 22.89164734 C538.867677 22.90582703 537.75070435 22.92000671 536.59988403 22.93461609 C527.74811221 23.19419884 520.84859826 25.08731577 513.67214966 30.39164734 C512.76722778 31.03360046 512.76722778 31.03360046 511.84402466 31.68852234 C505.9804726 37.64741671 502.90245662 45.72152873 499.60964966 53.26664734 C499.10546509 54.40948181 498.60128052 55.55231628 498.08181763 56.7297821 C494.91408281 63.93719337 491.83963426 71.18300736 488.79324341 78.44242859 C488.44128403 79.28090332 488.08932465 80.11937805 487.72669983 80.98326111 C485.9865607 85.13319693 484.2532827 89.2858269 482.53030396 93.44291687 C471.30867595 120.43299943 471.30867595 120.43299943 460.82486421 125.69413745 C457.01741234 126.9369735 453.41125465 126.91395111 449.4513731 126.887743 C448.59635192 126.89005068 447.74133073 126.89235837 446.86039981 126.89473599 C443.98187285 126.90004955 441.10356751 126.89104059 438.22505188 126.88215637 C436.14596149 126.88302816 434.0668713 126.88477865 431.9877823 126.8873347 C426.26405943 126.89181747 420.54041108 126.88379176 414.81669772 126.87377858 C408.64835714 126.86515977 402.48002093 126.86806313 396.31167603 126.86958313 C385.62108919 126.87063298 374.93052919 126.86441564 364.23995018 126.85310745 C353.02670361 126.84127678 341.81346677 126.83357624 330.600214 126.83140182 C329.90322527 126.83126435 329.20623654 126.83112687 328.48812694 126.83098522 C324.94852915 126.83030856 321.40893135 126.82970579 317.86933354 126.82913147 C292.79293816 126.82492972 267.71655547 126.8114524 242.64016724 126.79252625 C218.27753772 126.77416 193.91491167 126.75999149 169.55227661 126.75151062 C168.42599787 126.75111604 168.42599787 126.75111604 167.27696603 126.75071349 C159.73665399 126.74807647 152.19634193 126.74552484 144.65602984 126.74303577 C129.2952988 126.73796323 113.93456799 126.73232073 98.57383728 126.72633362 C97.8675628 126.72605904 97.16128832 126.72578446 96.43361159 126.72550156 C49.26311889 126.70709764 2.09263364 126.67536537 -45.07785034 126.64164734 C-45.17075694 113.79330688 -45.2417202 100.94504707 -45.28509903 88.09643841 C-45.30592451 82.12953465 -45.33415016 76.16286167 -45.37960815 70.1960907 C-45.42324543 64.43187013 -45.44702531 58.66787077 -45.45735931 52.9034977 C-45.46471862 50.71038649 -45.47908929 48.51728663 -45.50077057 46.32427025 C-45.7526249 19.78079474 -45.7526249 19.78079474 -36.95285034 10.26664734 C-36.26964722 9.49578796 -35.58644409 8.72492859 -34.88253784 7.93070984 C-24.09637399 -0.87248239 -13.32178135 -0.06886083 0 0 Z " fill="#F5F3E6" transform="translate(530.0778503417969,640.3583526611328)"/>
<path d="M0 0 C0.93706322 -0.00320648 1.87412644 -0.00641296 2.83958551 -0.0097166 C5.98523746 -0.01802988 9.13069966 -0.01208758 12.27635479 -0.00622082 C14.55216033 -0.00924089 16.82796485 -0.01312965 19.10376757 -0.01781338 C25.36233216 -0.02812071 31.62083963 -0.02590459 37.87940896 -0.02163279 C43.93444689 -0.01942335 49.98946929 -0.02657198 56.044502 -0.03339304 C69.95932044 -0.04863719 83.87412068 -0.05033767 97.78894571 -0.04787002 C108.53431038 -0.0460376 119.27966908 -0.04779589 130.025033 -0.05209446 C131.56863274 -0.05269686 133.11223248 -0.05329806 134.65583223 -0.05389806 C136.98187721 -0.05480531 139.30792219 -0.05571398 141.63396717 -0.05663041 C163.26204376 -0.06506069 184.8901181 -0.06939515 206.51819611 -0.06522369 C207.33362067 -0.06506732 208.14904524 -0.06491094 208.98917964 -0.06474983 C213.12209944 -0.06394404 217.25501923 -0.06309827 221.38793901 -0.06223653 C222.61916053 -0.06197989 222.61916053 -0.06197989 223.87525521 -0.06171808 C225.5351416 -0.06137142 227.19502799 -0.06102289 228.85491439 -0.06067249 C254.68198741 -0.05531544 280.50902629 -0.06324493 306.33609295 -0.08170605 C335.35187504 -0.10242214 364.36763599 -0.11314948 393.38342589 -0.10913056 C396.47733032 -0.10873521 399.57123476 -0.10837367 402.6651392 -0.10803318 C403.42693853 -0.10794245 404.18873786 -0.10785172 404.97362202 -0.10775824 C416.47386245 -0.10659225 427.97408151 -0.11324067 439.4743166 -0.1238451 C452.55393088 -0.13589357 465.63349812 -0.13746016 478.71311311 -0.12505493 C485.38767806 -0.11900782 492.06217093 -0.1180978 498.73673534 -0.13005733 C504.84651803 -0.14087774 510.95613149 -0.13785848 517.06590613 -0.12379565 C519.27649267 -0.12113812 521.48709231 -0.12354822 523.69766603 -0.13153151 C526.70334678 -0.14163302 529.70843882 -0.13321909 532.71409607 -0.12025452 C533.57142368 -0.12756386 534.4287513 -0.13487321 535.31205854 -0.14240405 C548.21132418 -0.02715269 559.11745617 5.33528432 568.471591 14.02010059 C573.94047211 19.91124936 579.54580975 28.92131978 579.54580975 37.25447559 C580.35264629 37.25295671 581.15948283 37.25143783 581.99076897 37.24987292 C629.83976712 37.16030693 677.68875635 37.09170223 725.53782159 37.05021428 C731.28665958 37.04521161 737.0354974 37.04003431 742.78433514 37.03474903 C744.50102726 37.03317517 744.50102726 37.03317517 746.25240003 37.03156951 C764.76889129 37.01417739 783.28533274 36.98264626 801.80179448 36.94586441 C820.80980239 36.90842182 839.81778426 36.88623272 858.82582754 36.87812161 C870.54918376 36.87264074 882.27239917 36.85534703 893.99571203 36.82280973 C902.04131988 36.80162088 910.08685521 36.79528544 918.13248891 36.80047008 C922.77027894 36.80302506 927.40782337 36.79918491 932.04556942 36.77765369 C936.30060624 36.75804459 940.55523462 36.75729762 944.8102911 36.77088001 C946.34083878 36.77255619 947.87141301 36.76760421 949.40190924 36.75494286 C966.79737116 36.61952995 982.40948384 40.29295815 995.42080975 52.56697559 C1003.99359994 61.71335211 1010.66260271 74.15271256 1010.67461091 86.91521323 C1010.67788311 87.82955089 1010.6811553 88.74388855 1010.68452665 89.68593341 C1010.68230122 91.1824338 1010.68230122 91.1824338 1010.68003082 92.70916653 C1010.68238305 93.77869236 1010.68473528 94.84821818 1010.68715879 95.95015389 C1010.69385181 99.55840997 1010.69339048 103.16663008 1010.69298077 106.77489185 C1010.69627919 109.3782419 1010.70000471 111.98159143 1010.70412225 114.58494031 C1010.71344802 121.00514652 1010.71737025 127.42534584 1010.71964121 133.84555798 C1010.72260332 141.53433747 1010.73130074 149.22310782 1010.74005549 156.91188251 C1010.76089993 175.49603567 1010.77136945 194.08019041 1010.7801851 212.66435252 C1010.78439137 221.45507828 1010.78961336 230.24580336 1010.79486963 239.03652855 C1010.81275928 269.12531788 1010.82775577 299.21410741 1010.83518982 329.30290127 C1010.83566458 331.19187856 1010.83614047 333.08085586 1010.83661748 334.96983316 C1010.83697205 336.37498163 1010.83697205 336.37498163 1010.83733377 337.80851694 C1010.83853498 342.55466332 1010.83975042 347.30080969 1010.84097576 352.04695606 C1010.84121591 352.98884386 1010.84145606 353.93073166 1010.84170349 354.90116152 C1010.8495976 385.44402085 1010.87303201 415.98684136 1010.90553171 446.52968374 C1010.9398258 478.81779928 1010.95954054 511.1058921 1010.96283406 543.39402616 C1010.9632516 546.93818085 1010.96373117 550.48233553 1010.96425724 554.02649021 C1010.96438043 554.89916716 1010.96450362 555.77184411 1010.96463055 556.67096581 C1010.96696301 570.71738775 1010.98262547 584.7637646 1011.00309909 598.81017046 C1011.02335005 612.92773925 1011.02883782 627.04525386 1011.01932845 641.16283448 C1011.01411078 649.55007589 1011.02000354 657.93713702 1011.04186312 666.3243525 C1011.05695247 672.58718783 1011.05113679 678.84984019 1011.03719261 685.11267452 C1011.03480586 687.64635446 1011.03919499 690.18005167 1011.05102126 692.71370514 C1011.06610176 696.15769166 1011.056493 699.60077359 1011.04079437 703.04473782 C1011.05612768 704.52016771 1011.05612768 704.52016771 1011.07177076 706.02540427 C1010.96031474 717.22909944 1006.83633422 726.80578227 999.54580975 735.25447559 C987.7068696 746.28675448 974.69689761 747.5543326 959.18060207 747.5117445 C957.49165059 747.51443882 955.80270031 747.51800718 954.11375231 747.52236897 C949.46150977 747.53183165 944.80934549 747.52882479 940.15709909 747.52381342 C935.09992399 747.52054947 930.0427657 747.5288271 924.98559594 747.53563178 C916.11843626 747.54594609 907.25129842 747.54877308 898.38413334 747.54671955 C885.19830497 747.5436733 872.01250083 747.55198519 858.82667716 747.5624688 C833.90819159 747.58182672 808.98971261 747.58743893 784.07122126 747.58858292 C781.32275512 747.58871241 778.57428897 747.58884829 775.82582283 747.58898973 C774.8027658 747.58904075 774.8027658 747.58904075 773.75904094 747.58909279 C758.64482399 747.58990972 743.53060871 747.59428961 728.41639264 747.59930142 C722.19280146 747.60135814 715.96921026 747.6033382 709.74561906 747.60533392 C708.714138 747.60566569 708.714138 747.60566569 707.66181893 747.60600416 C668.25589465 747.61865232 628.84997147 747.62690239 589.44404507 747.62598705 C587.96934575 747.6259555 586.49464643 747.62592402 585.01994711 747.62589264 C578.36180249 747.62574587 571.70365787 747.62556953 565.04551326 747.62538487 C562.07647731 747.62530262 559.10744137 747.62522233 556.13840543 747.62514224 C554.65234954 747.62510145 553.16629365 747.62505941 551.68023777 747.62501612 C504.68798718 747.62365559 457.69576673 747.63829104 410.70352459 747.66609669 C398.86346603 747.67309872 387.02340745 747.68003764 375.18334866 747.68662548 C374.45431016 747.68703123 373.72527166 747.68743698 372.97414109 747.68785502 C350.50468502 747.70028488 328.03523142 747.70781611 305.56577206 747.71034145 C304.86032492 747.71042136 304.15487778 747.71050126 303.42805346 747.71058358 C287.94181264 747.71229013 272.45557199 747.71281252 256.9693311 747.71224283 C251.42807968 747.71204986 245.88682826 747.71194577 240.34557683 747.71188537 C238.96705448 747.71186954 237.58853212 747.71184913 236.21000976 747.71182412 C214.24532394 747.71147149 192.28066392 747.72286696 170.31598549 747.74013175 C147.57802735 747.75791352 124.84010015 747.7610772 102.10213676 747.7475075 C88.9916025 747.74010554 75.88118127 747.74381352 62.77065893 747.76339218 C54.01651127 747.77536254 45.26244576 747.77283394 36.50830192 747.75845118 C31.5182531 747.75066334 26.52842354 747.74920779 21.53838989 747.76536588 C16.99650227 747.77994425 12.45501611 747.77602692 7.91314624 747.75751815 C6.28252273 747.75408261 4.65186763 747.75730924 3.02127635 747.76812056 C-11.23121957 747.85627091 -23.65396679 745.50357395 -34.387784 735.44197559 C-44.91250793 724.2156034 -46.76992892 711.31623896 -46.71145916 696.43680286 C-46.71496523 695.29281902 -46.71847131 694.14883518 -46.72208363 692.97018516 C-46.73137227 689.14473367 -46.72648079 685.31943526 -46.72161579 681.49397755 C-46.72425078 678.72045367 -46.72987572 675.94693759 -46.73534644 673.17341805 C-46.74562966 667.14726372 -46.74849315 661.12114152 -46.74643421 655.09497929 C-46.74337996 646.13377768 -46.75171747 637.17261152 -46.76218346 628.21141681 C-46.78151116 611.27552841 -46.78715118 594.33965213 -46.78829758 577.403754 C-46.78921699 564.32678092 -46.79333534 551.2498126 -46.79969883 538.17284107 C-46.80149393 534.40747071 -46.80327355 530.64210034 -46.80504858 526.87672997 C-46.80549068 525.94063622 -46.80593278 525.00454248 -46.80638827 524.04008226 C-46.81869373 497.71579012 -46.82658967 471.39149962 -46.82570171 445.06720448 C-46.82567056 444.07502596 -46.8256394 443.08284744 -46.8256073 442.06060291 C-46.82544108 437.03190848 -46.825243 432.00321404 -46.82503788 426.97451961 C-46.82497805 425.47645979 -46.82497805 425.47645979 -46.824917 423.94813614 C-46.82483613 421.9285106 -46.82475253 419.90888507 -46.82466622 417.88925953 C-46.82344027 386.45596671 -46.83846311 355.02271701 -46.86581135 323.58943653 C-46.89652777 288.27036005 -46.9137442 252.9513119 -46.9118849 217.63222122 C-46.91173564 213.86685085 -46.91163823 210.10148049 -46.91157627 206.33611012 C-46.91155296 205.40898615 -46.91152965 204.48186218 -46.91150564 203.52664355 C-46.91144408 188.60465276 -46.92421737 173.68269941 -46.9414408 158.76071975 C-46.95838832 143.76787828 -46.96037794 128.77509162 -46.94722216 113.78224587 C-46.93982785 104.87508343 -46.94350538 95.96808745 -46.96310684 87.06094262 C-46.97509655 81.11002694 -46.97252704 75.15923196 -46.95816584 69.20832184 C-46.95039425 65.81848127 -46.95108493 62.42922612 -46.96508054 59.03936636 C-46.97917686 55.38333083 -46.9686332 51.72815457 -46.95196819 48.07214832 C-46.96190455 47.02606966 -46.97184091 45.97999099 -46.98207837 44.90221298 C-46.86054416 32.3011645 -41.93425927 22.11997622 -33.35262775 13.02791309 C-23.72605575 3.94559957 -13.06861619 -0.06647295 0 0 Z M-24.919034 25.22322559 C-29.44775017 31.21542001 -32.5839459 37.9689812 -32.57444477 45.53188038 C-32.57581944 46.37879444 -32.5771941 47.2257085 -32.57861042 48.09828663 C-32.57501514 49.01897938 -32.57141987 49.93967213 -32.56771564 50.88826466 C-32.56786167 51.86420582 -32.5680077 52.84014698 -32.56815815 53.84566212 C-32.56746165 57.07049758 -32.55968151 60.29527523 -32.5518465 63.52010059 C-32.54998139 65.75640805 -32.54855793 67.99271592 -32.54755878 70.22902393 C-32.54374096 76.11447242 -32.53391691 81.99989623 -32.5228548 87.88533497 C-32.51262492 93.89119095 -32.50805778 99.89705091 -32.50301838 105.90291309 C-32.49229401 117.6867781 -32.47522637 129.4706248 -32.45419025 141.25447559 C15.35911338 141.34007236 63.1724227 141.41967481 110.98578167 141.46619129 C111.69349908 141.46688158 112.4012165 141.46757186 113.13037989 141.46828307 C128.51119845 141.4832478 143.89201782 141.49709869 159.27283841 141.50980224 C166.81565195 141.51603889 174.35846527 141.52252167 181.9012785 141.5291338 C183.02717592 141.53011449 183.02717592 141.53011449 184.17581875 141.53111499 C208.50236219 141.55241955 232.82884754 141.58997445 257.15535579 141.6359617 C282.1552061 141.68313598 307.15502427 141.71390543 332.15491834 141.72405054 C335.6864416 141.72549131 339.21796475 141.72711949 342.74948788 141.72886181 C343.44453834 141.72919892 344.1395888 141.72953604 344.8557014 141.72988337 C356.04152535 141.73579064 367.22724987 141.75897733 378.41303329 141.78863576 C389.66010582 141.81808758 400.90708175 141.82890699 412.15420096 141.82198248 C418.24755603 141.81877587 424.34061939 141.82373653 430.43392277 141.85050297 C436.01300947 141.87483178 441.59160823 141.87606508 447.17071737 141.85897007 C449.1883884 141.8568572 451.20608985 141.86320262 453.22370099 141.87889151 C467.72187954 142.29681509 467.72187954 142.29681509 480.54580975 136.25447559 C486.11324974 130.63788043 488.8725203 123.58069939 491.846591 116.36385059 C492.32726528 115.22401722 492.80793957 114.08418385 493.30317974 112.90981007 C494.83205201 109.27899978 496.34576897 105.64211561 497.85830975 102.00447559 C499.85033428 97.24755575 501.84784188 92.4929484 503.846591 87.73885059 C504.33104687 86.5857439 504.81550274 85.43263721 505.31463909 84.2445879 C508.3237707 77.10048291 511.37365996 69.97715934 514.5262785 62.89510059 C514.87700924 62.09827869 515.22773998 61.30145679 515.58909893 60.48048878 C518.38872939 54.2586358 521.28823513 48.81652507 526.79580975 44.56697559 C527.502216 44.00623341 528.20862225 43.44549122 528.93643475 42.86775684 C536.64273091 38.10323541 543.66892064 37.74492011 552.54580975 37.56697559 C553.70209881 37.53281544 554.85838787 37.49865528 556.049716 37.46345997 C558.88165021 37.38154452 561.71329676 37.31221037 564.54580975 37.25447559 C561.62853403 27.70209373 556.26655303 22.01675975 547.54580975 17.25447559 C542.8401885 14.83792719 538.50249179 14.97169711 533.33771515 14.99441338 C531.93558185 14.98870487 531.93558185 14.98870487 530.50512263 14.98288104 C527.35528413 14.97252862 524.20562462 14.97647819 521.05577374 14.98032093 C518.78169379 14.97587051 516.50761539 14.97055711 514.23353928 14.96445221 C507.97046154 14.95023825 501.70743334 14.94860956 495.44434178 14.94904912 C489.38775482 14.94757276 483.33118884 14.93676931 477.27461242 14.92635781 C462.58602641 14.90160972 447.89745169 14.89283414 433.20884771 14.88782133 C432.06759996 14.88742956 432.06759996 14.88742956 430.90329671 14.88702989 C430.14094662 14.88676961 429.37859653 14.88650934 428.59314492 14.88624118 C420.14754184 14.8831597 411.70194189 14.87665523 403.25634098 14.8700285 C377.75012426 14.85037957 352.24391093 14.83397585 326.73768616 14.83115196 C325.92172956 14.8310579 325.10577296 14.83096384 324.2650904 14.83086693 C320.9583314 14.83048845 317.6515724 14.83012445 314.3448134 14.82976395 C311.85590398 14.82949223 309.36699456 14.82921555 306.87808514 14.82893848 C306.05565399 14.82885046 305.23322285 14.82876244 304.38586955 14.82867175 C278.54567599 14.82576642 252.70555724 14.80367225 226.86538982 14.76741505 C197.84009769 14.72668981 168.81485654 14.7029934 139.78953427 14.70269245 C136.69447529 14.70259563 133.59941632 14.7024289 130.50435734 14.70221233 C129.36121884 14.70214616 129.36121884 14.70214616 128.19498663 14.70207865 C115.92991485 14.70095871 103.66491799 14.68354859 91.39987034 14.66039301 C79.0723952 14.63755136 66.74502131 14.63332465 54.41753278 14.64794231 C47.73885418 14.65537676 41.06046695 14.65419272 34.38180065 14.63153172 C28.26814134 14.61098632 22.15494201 14.6135012 16.04128792 14.63440656 C13.8292922 14.63790989 11.61726359 14.63295598 9.40531103 14.61870212 C-4.2052735 14.53664633 -15.08077353 14.61744126 -24.919034 25.22322559 Z M532.92862225 57.75056934 C529.61227476 62.16742695 527.58907867 67.27209575 525.42080975 72.31697559 C524.92435955 73.44933643 524.42790936 74.58169727 523.91641521 75.74837208 C520.44505052 83.69478125 517.09686901 91.69298404 513.74893475 99.69197559 C513.33124828 100.68805332 512.91356182 101.68413105 512.48321819 102.71039295 C510.38459351 107.71604226 508.29455928 112.72491847 506.22110271 117.74104786 C494.55683381 145.79227966 494.55683381 145.79227966 481.73330975 151.56697559 C480.33987165 152.13538322 478.94445542 152.69900532 477.54580975 153.25447559 C476.88580975 153.58447559 476.22580975 153.91447559 475.54580975 154.25447559 C472.82835111 154.35454961 470.13636688 154.39294128 467.41852856 154.38755417 C466.56419135 154.38979719 465.70985414 154.39204022 464.82962793 154.39435121 C461.93540786 154.40072317 459.04123244 154.39992531 456.14700603 154.39923573 C454.06368043 154.40236715 451.98035546 154.40594141 449.89703131 154.40992314 C444.1476155 154.41965405 438.39820963 154.42317695 432.64878678 154.42576611 C426.45785528 154.42965009 420.26693264 154.43928774 414.07600689 154.44832325 C403.34118559 154.46328219 392.60636632 154.47482201 381.87153912 154.48427105 C365.63366167 154.4986683 349.39580183 154.52142689 333.15793691 154.54593616 C326.64656498 154.55572751 320.13519264 154.56524785 313.6238203 154.57476616 C312.90036643 154.57582492 312.17691255 154.57688369 311.43153582 154.57797454 C294.20286545 154.60313708 276.97419186 154.6256282 259.74551678 154.64729786 C258.61441437 154.64872352 258.61441437 154.64872352 257.46046142 154.65017798 C239.86210182 154.67233647 222.26374128 154.69321273 204.66537762 154.71187305 C203.90824962 154.71267681 203.15112162 154.71348056 202.37105035 154.71430866 C198.55324442 154.71835946 194.73543847 154.72240103 190.91763252 154.72644193 C190.16309595 154.72724092 189.40855939 154.72803991 188.63115808 154.72886311 C187.10819108 154.73047543 185.58522409 154.73208626 184.06225709 154.73369558 C158.92473474 154.76030025 133.78722841 154.7936503 108.64972501 154.83447372 C105.10301702 154.84022413 101.55630888 154.84588268 98.00960064 154.85147762 C96.96250592 154.85313033 96.96250592 154.85313033 95.89425777 154.85481642 C84.63820484 154.87235432 73.38215662 154.88249876 62.12609284 154.88973007 C50.823393 154.89710602 39.52072507 154.91162985 28.21804154 154.93315583 C22.08931369 154.94459052 15.96062672 154.9526786 9.83188725 154.95214748 C4.22997688 154.95172236 -1.3718413 154.96034276 -6.973728 154.97639728 C-9.00867944 154.98058025 -11.04364119 154.98132664 -13.07859486 154.97843318 C-15.82814498 154.97500139 -18.5773891 154.98365951 -21.32690907 154.99555588 C-22.13127779 154.99162035 -22.93564652 154.98768482 -23.76439005 154.98363003 C-28.07348739 154.85580185 -28.07348739 154.85580185 -31.45419025 157.25447559 C-31.65363616 160.24155999 -31.72540788 163.13618028 -31.71145916 166.12466145 C-31.71496523 167.05933219 -31.71847131 167.99400294 -31.72208363 168.95699704 C-31.73147158 172.12461425 -31.72645536 175.29205057 -31.72161579 178.45967579 C-31.72534836 180.73941591 -31.72994829 183.01915476 -31.73534644 185.29889154 C-31.74764104 191.59155313 -31.74730839 197.88416181 -31.74495769 204.17683268 C-31.74362498 210.25775831 -31.7535591 216.33867093 -31.76218346 222.41958889 C-31.78155924 236.40207602 -31.78715308 250.38454852 -31.78829758 264.36704749 C-31.78921572 275.16592642 -31.79332745 285.96479959 -31.79969883 296.76367664 C-31.80149387 299.86918655 -31.80327349 302.97469647 -31.80504858 306.08020639 C-31.80549068 306.85220162 -31.80593278 307.62419685 -31.80638827 308.41958587 C-31.81870321 330.14589266 -31.82658877 351.87219745 -31.82570171 373.59850788 C-31.82567056 374.41822825 -31.8256394 375.23794861 -31.8256073 376.08250899 C-31.82544108 380.23741602 -31.82524299 384.39232304 -31.82503788 388.54723006 C-31.82499799 389.37244199 -31.8249581 390.19765391 -31.824917 391.04787225 C-31.82483613 392.71665516 -31.82475253 394.38543806 -31.82466622 396.05422097 C-31.82344116 422.0080392 -31.83844277 447.96180514 -31.86581135 473.91560841 C-31.89653228 503.06063603 -31.91374373 532.20562931 -31.9118849 561.35067415 C-31.91173564 564.45869891 -31.91163823 567.56672366 -31.91157627 570.67474842 C-31.91155296 571.44004656 -31.91152965 572.20534469 -31.91150564 572.99383368 C-31.91144408 585.31205742 -31.92421877 597.63023581 -31.9414408 609.94844607 C-31.95839478 622.33116862 -31.96037308 634.71382481 -31.94722216 647.09655255 C-31.94048115 653.80555123 -31.940619 660.51436536 -31.95792866 667.22335911 C-31.97361117 673.36484033 -31.97084475 679.50602617 -31.95336039 685.64749998 C-31.95027983 687.86967739 -31.95396243 690.09187659 -31.96508054 692.31402832 C-31.9791972 695.33556302 -31.96861815 698.35606099 -31.95196819 701.37756062 C-31.96190455 702.23952616 -31.97184091 703.1014917 -31.98207837 703.98957741 C-31.88871155 712.00864898 -29.67937256 719.19299681 -24.14169025 725.12947559 C-17.21219335 731.4209246 -10.84880037 733.37820469 -1.55335307 733.38212609 C-0.86684751 733.38377687 -0.18034196 733.38542765 0.5269668 733.38712845 C2.83684842 733.39145647 5.14666638 733.38865118 7.45654964 733.38590336 C9.13267884 733.38755285 10.80880765 733.38963905 12.48493582 733.39212346 C17.11552615 733.39770179 21.74609804 733.39701557 26.37669066 733.39534587 C31.40515111 733.39461626 36.43360629 733.39963422 41.4620645 733.40392089 C51.44639824 733.41151076 61.43072663 733.41369445 71.41506295 733.41424994 C83.3695772 733.4151626 95.32408648 733.42182718 107.27859859 733.42859677 C135.48754604 733.444287 163.69649329 733.45034622 191.90544409 733.4550038 C206.25482495 733.45738643 220.60420534 733.46108977 234.95358584 733.46504089 C280.97283921 733.47770535 326.99209257 733.48848956 373.01134766 733.49188135 C375.21103236 733.49204359 377.41071706 733.49220915 379.61040176 733.49237574 C384.02195979 733.49270954 388.43351782 733.49304002 392.84507585 733.49337029 C398.01002189 733.4937572 403.17496794 733.4941468 408.33991399 733.49454136 C409.81816754 733.49465378 411.29642109 733.4947652 412.77467464 733.49487561 C460.25955739 733.49842569 507.744425 733.51350674 555.22930197 733.53681336 C589.34788473 733.55355272 623.46646463 733.56902904 657.58505154 733.57354832 C658.28656504 733.5736418 658.98807854 733.57373529 659.71085002 733.57383161 C675.11007708 733.57585056 690.50930409 733.57700668 705.90853127 733.57736019 C711.41854525 733.57749637 716.92855923 733.57770536 722.43857321 733.57795345 C723.80935067 733.57801501 725.18012814 733.57807333 726.5509056 733.57812839 C748.40140879 733.57904854 770.2518962 733.58902064 792.10239419 733.60358588 C814.71974333 733.61860199 837.33707494 733.62279479 859.95442852 733.61449292 C872.99890742 733.61002708 886.04332161 733.61393535 899.08779205 733.62973143 C907.79418443 733.63945097 916.50053128 733.63833224 925.20692321 733.6282952 C930.1721843 733.62288129 935.13732078 733.62226313 940.10257176 733.63480392 C944.61846116 733.64611494 949.13412416 733.64364926 953.6500056 733.63013685 C955.27461179 733.62769869 956.89923527 733.63030149 958.52382243 733.63853332 C969.46379838 733.69032785 978.80328944 733.20827176 987.68643475 726.13728809 C992.80429426 720.95491774 996.66763852 714.22862934 996.67461091 706.8741951 C996.6795192 705.52018112 996.6795192 705.52018112 996.68452665 704.13881332 C996.68304303 703.14391409 996.6815594 702.14901486 996.68003082 701.12396717 C996.68238305 700.0651909 996.68473528 699.00641463 996.68715879 697.91555423 C996.69386928 694.33182195 996.69338995 690.74812575 996.69298077 687.1643877 C996.69627812 684.58338776 996.70000341 682.00238834 996.70412225 679.42138958 C996.71345979 673.04870201 996.71737224 666.67602139 996.71964121 660.30332783 C996.72260032 652.67303368 996.73129605 645.04274879 996.74005549 637.41245949 C996.76091368 618.96696847 996.77137213 600.52147584 996.7801851 582.07597578 C996.78438994 573.35149641 996.78961217 564.62701774 996.79486963 555.90253896 C996.81276165 526.0437175 996.82775783 496.18489585 996.83518982 466.32606983 C996.83566458 464.45099942 996.83614047 462.57592901 996.83661748 460.70085859 C996.83685386 459.77098089 996.83709023 458.84110319 996.83733377 457.88304737 C996.83853499 453.17173308 996.83975043 448.46041879 996.84097576 443.7491045 C996.84133599 442.34663546 996.84133599 442.34663546 996.84170349 440.91583371 C996.84959627 410.60211718 996.87302674 380.28843978 996.90553171 349.97474034 C996.93982639 317.93352579 996.95954067 285.89233413 996.96283406 253.85110092 C996.96325161 250.3338766 996.96373117 246.81665229 996.96425724 243.29942799 C996.96438043 242.43337379 996.96450362 241.56731959 996.96463055 240.67502133 C996.96696312 226.7344903 996.98262639 212.79400469 997.00309909 198.85348985 C997.02335103 184.84097637 997.02883739 170.82851746 997.01932845 156.81599206 C997.0141109 148.49097035 997.02000291 140.16613028 997.04186312 131.8411347 C997.05695338 125.6245321 997.05113615 119.40811382 997.03719261 113.19151223 C997.03480599 110.67661489 997.03919433 108.16170015 997.05102126 105.64682949 C997.06610347 102.22814619 997.05649184 98.810374 997.04079437 95.39171314 C997.05101658 94.41554324 997.06123879 93.43937334 997.07177076 92.43362254 C996.95380474 80.66044371 992.36638637 70.95017891 984.54580975 62.25447559 C981.72006275 59.80040343 978.8287579 58.02817863 975.54580975 56.25447559 C974.87459801 55.88895979 974.20338628 55.52344399 973.5118348 55.14685196 C965.36077287 51.32714139 957.1201186 51.69900463 948.33165264 51.75327015 C946.58321579 51.74937361 944.83478211 51.74373034 943.08635587 51.73649925 C938.29948437 51.72177778 933.51294295 51.73190613 928.72608221 51.74623597 C923.55700703 51.75736042 918.3879776 51.74539838 913.21890545 51.73639393 C903.10053211 51.72247041 892.98228369 51.7300107 882.86391632 51.74506951 C871.08097436 51.76193775 859.29806344 51.7587184 847.51511314 51.75497543 C826.4936632 51.74909868 805.47227319 51.76326225 784.45083904 51.78792286 C764.05042558 51.81185225 743.65009215 51.8189233 723.24966717 51.80843067 C701.03265426 51.79702418 678.81567835 51.79508738 656.59866589 51.80952877 C654.2302953 51.81105461 651.86192471 51.81257497 649.49355412 51.81408978 C648.32827033 51.81484759 647.16298655 51.8156054 645.96239114 51.81638618 C637.74763614 51.82113036 629.53289765 51.81927669 621.31814289 51.81502438 C611.31051949 51.8101004 601.30297178 51.81607038 591.29536573 51.83591867 C586.18869571 51.84579705 581.08214101 51.85088979 575.97546482 51.84302616 C571.30185823 51.83597655 566.62848449 51.84275717 561.95490863 51.86062979 C560.26330858 51.86467886 558.57168735 51.86366672 556.88009516 51.85711093 C554.58157128 51.84896458 552.28383281 51.85926764 549.98535919 51.87415886 C548.07001695 51.87570255 548.07001695 51.87570255 546.11598092 51.87727743 C540.75031448 52.44417448 536.90130898 53.96169349 532.92862225 57.75056934 Z " fill="#010101" transform="translate(517.4541902542114,625.7455244064331)"/>
</svg>
