<?xml version="1.0" encoding="UTF-8"?>
<svg version="1.1" xmlns="http://www.w3.org/2000/svg" width="2000" height="2000">
<path d="M0 0 C660 0 1320 0 2000 0 C2000 660 2000 1320 2000 2000 C1340 2000 680 2000 0 2000 C0 1340 0 680 0 0 Z " fill="#AA3428" transform="translate(0,0)"/>
<path d="M0 0 C660 0 1320 0 2000 0 C2000 660 2000 1320 2000 2000 C1340 2000 680 2000 0 2000 C0 1340 0 680 0 0 Z M930.32070923 182.75076294 C928.16526494 182.98225105 926.00956188 183.1880106 923.8503418 183.38061523 C870.3767332 188.21844823 816.81131876 198.20194931 765.53515625 214.22119141 C763.3320017 214.89800795 761.12513831 215.54515205 758.90625 216.16796875 C722.93389859 226.2943319 687.89724183 240.3485817 654.21484375 256.46240234 C651.38096583 257.81779141 648.54180348 259.16141626 645.70057678 260.50131226 C619.96207521 272.65406887 595.18338072 286.16623985 570.99023438 301.14941406 C568.48368536 302.70065847 565.97098843 304.24067363 563.453125 305.7734375 C539.63969142 320.34544067 517.05094236 336.90848043 495 354 C494.38141113 354.47679199 493.76282227 354.95358398 493.12548828 355.44482422 C485.92422876 360.99786024 478.90245795 366.71123745 472.03173828 372.66918945 C468.64084692 375.60831034 465.20165922 378.45778285 461.6875 381.25 C451.47954121 389.53450068 442.05127984 398.84847831 432.83007812 408.20556641 C431.00993989 409.99025371 429.1277273 411.65998702 427.1875 413.3125 C419.82558103 419.65998131 413.04713216 426.64809867 406.7421875 434.0390625 C404.7456211 436.28631885 402.63987054 438.38894927 400.5 440.5 C397.10731601 443.85256779 393.90899316 447.29475682 390.8046875 450.9140625 C388.78348724 453.25025501 386.70621161 455.52964851 384.625 457.8125 C380.72636603 462.13260791 377.02496142 466.58071381 373.3671875 471.10546875 C371.31608095 473.61350497 369.22575668 476.08098093 367.11303711 478.53710938 C360.63472211 486.08412008 354.58791637 493.92765379 348.60546875 501.87109375 C347.07675459 503.8982208 345.53956025 505.91860437 344 507.9375 C324.58796168 533.48067364 307.25752462 560.35943855 291 588 C290.49436523 588.85142578 289.98873047 589.70285156 289.46777344 590.58007812 C254.42324041 649.67478087 227.36172177 714.76074271 209.77246094 781.12646484 C208.98779654 784.04539658 208.17330381 786.95458551 207.3515625 789.86328125 C202.06533062 808.72997251 197.88499038 827.80344653 194 847 C193.63261719 848.80500977 193.63261719 848.80500977 193.2578125 850.64648438 C189.88479675 867.60084884 187.83074464 884.7174506 185.8125 901.875 C185.68566833 902.9383255 185.55883667 904.001651 185.42816162 905.09719849 C181.80399925 935.74878686 180.6439742 966.12645979 180.68432617 996.95874023 C180.68895323 1000.76908182 180.68202914 1004.5791038 180.66381836 1008.3894043 C180.54862194 1032.73700821 181.28518779 1056.75849911 183.79170609 1080.98420715 C184.01105392 1083.10697581 184.22559531 1085.23019645 184.43954468 1087.35351562 C187.94240041 1121.95824947 193.84550784 1156.35154436 202.28320312 1190.09716797 C203.08472411 1193.34310957 203.82147563 1196.60005236 204.54736328 1199.86352539 C221.76747064 1276.38804781 254.86372742 1351.91384281 295 1419 C295.60166992 1420.00691895 296.20333984 1421.01383789 296.82324219 1422.05126953 C303.5515577 1433.28132851 310.37970358 1444.41840424 317.78027344 1455.21972656 C319.06010498 1457.08772728 320.33101065 1458.96161489 321.6015625 1460.8359375 C335.34090561 1481.03469223 350.06973099 1500.27421996 365.51904297 1519.18261719 C366.8427907 1520.80707781 368.15828809 1522.43825346 369.47265625 1524.0703125 C374.02334754 1529.70450171 378.75879243 1535.1134745 383.66015625 1540.4453125 C385.65834848 1542.62697815 387.62148889 1544.83011309 389.5625 1547.0625 C396.05606546 1554.5074483 402.66504162 1561.73961501 409.69799805 1568.67651367 C412.42580703 1571.37992443 415.03285938 1574.11998351 417.5 1577.0625 C420.78368919 1580.91864833 424.47938714 1584.26415937 428.23730469 1587.64379883 C432.02883356 1591.06713231 435.66340159 1594.61321545 439.25 1598.25 C443.04825788 1602.09202081 446.90512779 1605.79717583 451.01953125 1609.30078125 C453.32669952 1611.28030432 455.56646782 1613.3264212 457.8125 1615.375 C462.10959827 1619.25350727 466.53758754 1622.92865968 471.0390625 1626.56640625 C473.69764902 1628.75149781 476.30044215 1630.98384606 478.89428711 1633.24438477 C486.61582052 1639.96165046 494.6227454 1646.22880717 502.81542969 1652.35986328 C504.89944549 1653.92450545 506.9699376 1655.50559149 509.0390625 1657.08984375 C538.25373923 1679.24376712 569.66175259 1698.68344163 601.58886719 1716.64013672 C603.81776001 1717.89721783 606.03863521 1719.16727983 608.2578125 1720.44140625 C664.77734066 1752.67187967 727.17682658 1776.41768975 790 1793 C791.17546387 1793.31275879 792.35092773 1793.62551758 793.56201172 1793.94775391 C836.23843239 1805.22269948 879.56197999 1812.07947668 923.4375 1816.6875 C924.56639648 1816.80681885 925.69529297 1816.9261377 926.85839844 1817.04907227 C942.79175175 1818.66697444 958.56069394 1819.15169524 974.5625 1819.1328125 C976.60880546 1819.13348835 978.65511083 1819.13446071 980.70141602 1819.13571167 C984.96403782 1819.13717542 989.22663849 1819.13507704 993.48925781 1819.13037109 C998.90840844 1819.12467465 1004.32750951 1819.1279608 1009.74665833 1819.13394356 C1013.96439985 1819.13758513 1018.18212993 1819.13639419 1022.39987183 1819.13381577 C1024.39623012 1819.13315641 1026.39258952 1819.13393954 1028.38894653 1819.13629532 C1043.10261374 1819.14985463 1057.66932097 1818.67365551 1072.3125 1817.125 C1073.56003052 1816.99375732 1073.56003052 1816.99375732 1074.83276367 1816.85986328 C1076.62951409 1816.67007381 1078.42614319 1816.47913265 1080.22265625 1816.28710938 C1083.02178371 1815.9977481 1085.82254591 1815.73931781 1088.625 1815.484375 C1122.69489776 1812.22333207 1156.66933691 1805.69917533 1190 1798 C1191.20027832 1797.72333496 1192.40055664 1797.44666992 1193.63720703 1797.16162109 C1211.69003661 1792.94527863 1229.38964123 1787.7773217 1247 1782 C1248.07471558 1781.64841827 1248.07471558 1781.64841827 1249.17114258 1781.28973389 C1282.54675437 1770.35418474 1315.11032045 1757.73663424 1347 1743 C1348.0214209 1742.52916992 1349.0428418 1742.05833984 1350.09521484 1741.57324219 C1375.46816082 1729.80806558 1400.14493857 1716.59748746 1424 1702 C1424.94472168 1701.42459473 1425.88944336 1700.84918945 1426.86279297 1700.25634766 C1471.71454423 1672.86057385 1513.08210281 1641.25702409 1552 1606 C1552.96292969 1605.13117188 1553.92585938 1604.26234375 1554.91796875 1603.3671875 C1560.94770546 1597.90200351 1566.75948286 1592.27907682 1572.4765625 1586.48828125 C1574.6285972 1584.36622846 1576.81701193 1582.38515001 1579.125 1580.4375 C1582.92516929 1577.19008261 1586.1439392 1573.56144001 1589.44140625 1569.8125 C1592.40221957 1566.55786551 1595.49506783 1563.46571332 1598.625 1560.375 C1602.68812147 1556.35367661 1606.63249051 1552.30552842 1610.3359375 1547.9453125 C1612.30139014 1545.64767068 1614.33729871 1543.42126877 1616.375 1541.1875 C1620.19718989 1536.94775995 1623.84451955 1532.59812452 1627.43359375 1528.16015625 C1629.34423039 1525.79762313 1631.27844765 1523.45607521 1633.22265625 1521.12109375 C1664.88934019 1483.04811242 1692.98213458 1441.71529989 1716.75683594 1398.27148438 C1717.67072924 1396.60163691 1718.58863342 1394.93398297 1719.50878906 1393.26757812 C1747.4946424 1342.51329307 1768.845984 1289.29922668 1786 1234 C1786.4957251 1232.4226709 1786.4957251 1232.4226709 1787.00146484 1230.81347656 C1795.33501739 1204.16564365 1801.54728383 1176.64044161 1806.43505859 1149.16357422 C1807.03105242 1145.82611184 1807.65025808 1142.49337187 1808.26953125 1139.16015625 C1815.25332935 1100.88999483 1819.15096372 1061.82926686 1819.16796875 1022.921875 C1819.17119983 1021.13616919 1819.17456511 1019.35046362 1819.17805481 1017.5647583 C1819.18398851 1013.84362172 1819.18590093 1010.12250815 1819.18530273 1006.40136719 C1819.18522188 1002.65522389 1819.19210924 998.90920394 1819.20581055 995.16308594 C1819.28671169 972.67795648 1818.95498522 950.412085 1817 928 C1816.92429779 927.09290283 1816.84859558 926.18580566 1816.77059937 925.2512207 C1816.32613179 919.95196115 1815.81594937 914.66259469 1815.25 909.375 C1815.12694489 908.20939041 1815.12694489 908.20939041 1815.00140381 907.02023315 C1813.1748146 889.9247748 1810.46673062 873.01180344 1807.3828125 856.10229492 C1807.00956478 854.05252702 1806.64099741 852.0019664 1806.2734375 849.95117188 C1801.34044765 822.64354948 1795.10432196 795.54907985 1787 769 C1786.62004883 767.74558105 1786.24009766 766.49116211 1785.84863281 765.19873047 C1758.96348149 676.65459161 1718.15272695 593.42082427 1623.37255859 467.61083984 C1621.96681432 465.96105316 1620.57072891 464.30345255 1619.17578125 462.64453125 C1608.79313804 450.34571045 1597.7821519 438.66659727 1586.328125 427.36328125 C1584.36063802 425.36608389 1582.5433407 423.33860311 1580.75 421.1875 C1576.7629443 416.50871415 1572.20441707 412.44263038 1567.68945312 408.28515625 C1563.9482024 404.83624856 1560.30358339 401.33205512 1556.75 397.6875 C1552.68436497 393.56819322 1548.36044927 389.9474518 1543.83984375 386.33984375 C1540.84864741 383.87529546 1538.01276645 381.27467702 1535.1875 378.625 C1529.92222698 373.71604293 1524.38319698 369.27118955 1518.6875 364.875 C1515.48460792 362.39754929 1512.35555387 359.83986329 1509.23388672 357.26123047 C1500.82945182 350.32958849 1492.12837989 343.91175155 1483.24707031 337.60742188 C1481.07495024 336.05361499 1478.9215319 334.47743344 1476.7734375 332.890625 C1456.03654835 317.61081194 1434.20744512 304.02087162 1412 291 C1411.13165527 290.48663086 1410.26331055 289.97326172 1409.36865234 289.44433594 C1363.79477227 262.54450154 1314.97858956 241.18468841 1264.96176147 224.05410767 C1261.46321376 222.85526475 1257.97193534 221.63894783 1254.48852539 220.39672852 C1253.73394547 220.12795898 1252.97936554 219.85918945 1252.20191956 219.58227539 C1250.76284914 219.06860612 1249.3245058 218.55289305 1247.8870697 218.03466797 C1242.27681117 216.03379846 1236.62017853 214.46327906 1230.84765625 212.98828125 C1227.45608309 212.11714621 1224.08553843 211.19738375 1220.71533203 210.24853516 C1216.8143946 209.15056357 1212.90736076 208.07485027 1209 207 C1208.14970215 206.76522949 1207.2994043 206.53045898 1206.42333984 206.28857422 C1181.64884499 199.49388154 1156.49790107 194.70614075 1131.16455078 190.52294922 C1128.39869745 190.06588566 1125.63474914 189.59902114 1122.87109375 189.12890625 C1109.64044578 186.91427445 1096.33898499 185.39395346 1083 184 C1081.76495728 183.86897888 1080.52991455 183.73795776 1079.25744629 183.60296631 C1053.6257383 180.96086335 1028.16263538 180.56384438 1002.41046143 180.6774292 C998.25818214 180.69092736 994.10600869 180.68557856 989.95371723 180.68056107 C960.09187428 180.63930572 960.09187428 180.63930572 930.32070923 182.75076294 Z " fill="#3B8DA4" transform="translate(0,0)"/>
<path d="M0 0 C4.06768609 1.69072527 7.15679213 4.51423361 10.4375 7.375 C11.04932129 7.90375732 11.66114258 8.43251465 12.29150391 8.97729492 C17.67007886 13.65296436 22.90408294 18.47784564 28.12109375 23.33203125 C32.6913918 27.5674635 37.39164663 31.63526191 42.140625 35.66796875 C49.28110357 41.7416288 56.25766781 47.94727772 63.12109375 54.33203125 C67.6913918 58.5674635 72.39164663 62.63526191 77.140625 66.66796875 C84.28110357 72.7416288 91.25766781 78.94727772 98.12109375 85.33203125 C102.6913918 89.5674635 107.39164663 93.63526191 112.140625 97.66796875 C119.28110357 103.7416288 126.25766781 109.94727772 133.12109375 116.33203125 C137.6913918 120.5674635 142.39164663 124.63526191 147.140625 128.66796875 C154.28110357 134.7416288 161.25766781 140.94727772 168.12109375 147.33203125 C172.6913918 151.5674635 177.39164663 155.63526191 182.140625 159.66796875 C188.66627531 165.21916343 195.06258628 170.86145879 201.31958008 176.71411133 C204.57331665 179.7383702 207.90240919 182.60000498 211.375 185.375 C217.39669368 190.2064614 222.95437915 195.49211671 228.5703125 200.78125 C232.76808922 204.73316017 237.08290505 208.52345773 241.47753906 212.25439453 C249.17792447 218.79404337 256.72408916 225.45091217 264.12109375 232.33203125 C268.6913918 236.5674635 273.39164663 240.63526191 278.140625 244.66796875 C285.28110357 250.7416288 292.25766781 256.94727772 299.12109375 263.33203125 C303.6913918 267.5674635 308.39164663 271.63526191 313.140625 275.66796875 C320.28110357 281.7416288 327.25766781 287.94727772 334.12109375 294.33203125 C338.6913918 298.5674635 343.39164663 302.63526191 348.140625 306.66796875 C354.67843618 312.22900253 361.12043801 317.85918066 367.38549805 323.72729492 C367.87445557 324.18467041 368.36341309 324.6420459 368.8671875 325.11328125 C369.32939784 325.56700902 369.79160818 326.0207368 370.26782489 326.4882139 C371.95740989 328.06617554 371.95740989 328.06617554 374.02117085 329.13837779 C376.72275267 330.85489909 378.22495532 332.31195721 380 335 C381.23754731 341.37966402 381.0629808 347.71603497 380.98895264 354.19369507 C380.99530606 356.1938641 381.00516154 358.19402455 381.01821828 360.19416106 C381.04388675 365.69115159 381.01959145 371.18696476 380.98716116 376.68387794 C380.96086128 382.61176458 380.98064529 388.53951913 380.99468994 394.46742249 C381.01369944 405.40955812 380.99666441 416.35127568 380.96168054 427.29336242 C380.92959783 437.40292469 380.91406761 447.51235384 380.91477203 457.62196732 C380.91481791 458.62785365 380.91481791 458.62785365 380.91486471 459.65406092 C380.91502834 462.37623002 380.91529079 465.09839908 380.91568796 467.82056816 C380.91931251 493.35896728 380.87953135 518.89712912 380.8179693 544.43544588 C380.76348606 567.12073547 380.73852365 589.80585647 380.74121094 612.49121094 C380.74137258 613.94753938 380.74153402 615.40386783 380.74169526 616.86019628 C380.74177666 617.58017953 380.74185806 618.30016279 380.74194193 619.04196372 C380.74234512 622.66632916 380.74270745 626.2906946 380.74302292 629.91506004 C380.74308977 630.630104 380.74315663 631.34514797 380.74322551 632.08185993 C380.7446867 651.04022375 380.72652573 669.99856646 380.70171666 688.95691264 C380.70083557 689.63145099 380.69995449 690.30598933 380.6990467 691.00096824 C380.69549381 693.71340115 380.69194019 696.42583406 380.68828288 699.13826683 C380.67565024 708.57053125 380.66960675 718.00277903 380.66783692 727.43505134 C380.66544701 739.59257835 380.64898969 751.74996041 380.61011109 763.90742873 C380.59164514 769.76976035 380.57945483 775.631921 380.58448792 781.49428368 C380.58887192 786.86085401 380.57477173 792.22704636 380.54589382 797.59353788 C380.53864826 799.534916 380.53811185 801.47633318 380.54496297 803.41771273 C380.60992179 824.11704889 380.60992179 824.11704889 374.27943301 830.82247007 C367.77128111 836.92975912 361.75371768 838.44268952 353.05325317 838.36076355 C352.0558234 838.36332682 351.05839363 838.3658901 350.03073871 838.36853105 C346.69106331 838.37346947 343.35184073 838.35697465 340.01220703 838.34057617 C337.6172639 838.33972991 335.22232 838.34020501 332.82737732 838.34190369 C327.00076926 838.34267568 321.17430934 838.32967111 315.34773512 838.31059071 C308.56658346 838.28912774 301.78545273 838.2846537 295.00427185 838.2812262 C282.9116708 838.27466425 270.81913055 838.25471008 258.7265625 838.22631836 C246.9814484 838.19877113 235.23635083 838.1775408 223.49121094 838.16479492 C222.76694735 838.16400675 222.04268377 838.16321858 221.2964728 838.16240653 C217.6629674 838.15849135 214.02946188 838.15470024 210.39595628 838.15097082 C180.26392826 838.11988292 150.13197125 838.06683074 120 838 C120.00037703 836.8847825 120.00075405 835.76956499 120.0011425 834.62055302 C120.00894835 807.47871197 119.98234906 780.33707059 119.9197216 753.19529819 C119.89023096 740.06969104 119.87189973 726.94424579 119.87988281 713.81860352 C119.88681292 702.37762517 119.87276061 690.93689741 119.83356392 679.49598068 C119.81354274 673.43862377 119.80399384 667.38166035 119.81957626 661.32428169 C119.83391769 655.62039968 119.82016007 649.91726914 119.78504753 644.21348381 C119.77709272 642.12256585 119.77931756 640.03157994 119.79260826 637.94068909 C120.41783232 624.39949367 120.41783232 624.39949367 114.89537811 612.59401512 C105.28827443 604.51443014 95.14368713 605.29094444 83.17333984 605.36889648 C81.1651598 605.36375265 79.15698428 605.35646788 77.14881897 605.34721375 C71.7170578 605.32875322 66.28578964 605.34160375 60.85404921 605.36130404 C55.1603132 605.37773144 49.46660742 605.36887217 43.77285767 605.36378479 C34.21502843 605.35926915 24.65739525 605.37510275 15.09960938 605.40307617 C4.05794284 605.43514388 -6.98337054 605.43510342 -18.0250622 605.4178614 C-28.66110503 605.40198643 -39.29701869 605.40873498 -49.93305588 605.42579842 C-54.45362167 605.43266127 -58.97408368 605.43164434 -63.49464798 605.42425346 C-68.81851392 605.41658045 -74.14197884 605.42875023 -79.46577644 605.45610237 C-81.41683194 605.46297588 -83.36792497 605.4630953 -85.31897926 605.45588684 C-87.98731787 605.44716575 -90.6544263 605.46319252 -93.32266235 605.4853363 C-94.09018283 605.47709554 -94.8577033 605.46885477 -95.64848197 605.46036428 C-102.0224205 605.55764487 -107.17638769 607.56340791 -112.0234375 611.74609375 C-112.46945312 612.30425781 -112.91546875 612.86242188 -113.375 613.4375 C-113.83648438 613.99308594 -114.29796875 614.54867187 -114.7734375 615.12109375 C-118.0709526 620.1723828 -118.29229185 624.90257085 -118.2784729 630.8014679 C-118.2871615 632.13094705 -118.2871615 632.13094705 -118.29602563 633.48728436 C-118.31302923 636.45681044 -118.31590247 639.42618113 -118.31884766 642.39575195 C-118.32814557 644.5245451 -118.33831404 646.65333459 -118.34928894 648.78211975 C-118.37661831 654.5626233 -118.3917471 660.34310244 -118.40471697 666.12365365 C-118.42033462 672.16418528 -118.4471292 678.20466696 -118.4727478 684.24516296 C-118.51955976 695.68433513 -118.5562922 707.12351666 -118.58942068 718.56273574 C-118.62762496 731.58560939 -118.67703957 744.60843291 -118.72740483 757.63126433 C-118.83076065 784.42080574 -118.92000921 811.21037935 -119 838 C-149.65911434 838.11414254 -180.31817995 838.20258933 -210.97745612 838.25532665 C-214.59971719 838.26157994 -218.22197784 838.26805157 -221.84423828 838.2746582 C-222.56534395 838.27596976 -223.28644962 838.27728131 -224.02940698 838.2786326 C-235.6947972 838.30037 -247.36006381 838.33978226 -259.02538078 838.38576398 C-271.00129277 838.43257514 -282.97714017 838.46030522 -294.9531399 838.47044247 C-301.67730534 838.47667848 -308.40121338 838.49163625 -315.1252861 838.52865028 C-321.45688614 838.56263826 -327.78809127 838.573047 -334.11977386 838.56553841 C-336.44090294 838.56691167 -338.76204549 838.57682694 -341.08309555 838.59602737 C-344.25927765 838.62100848 -347.43398063 838.61488584 -350.61019897 838.60127258 C-351.52268005 838.61583679 -352.43516112 838.630401 -353.37529314 838.64540654 C-360.10193289 838.56780087 -365.40717217 836.7867551 -371 833 C-377.10506761 826.59650486 -378.14971005 821.64876109 -378.14260101 812.93731976 C-378.14585203 812.11425194 -378.14910305 811.29118413 -378.15245259 810.44317487 C-378.16216691 807.66732408 -378.16474631 804.89151228 -378.1673584 802.11564636 C-378.17280396 800.11252887 -378.17866733 798.10941247 -378.18491411 796.10629731 C-378.20078275 790.58768793 -378.21028626 785.069083 -378.21867895 779.55045784 C-378.2266777 774.82066701 -378.23836923 770.09088824 -378.25009376 765.3611054 C-378.29033399 749.09992018 -378.31727463 732.83872038 -378.34079656 716.57750424 C-378.34374035 714.54961357 -378.3467304 712.52172297 -378.34973454 710.49383238 C-378.38788115 684.6991813 -378.42139298 658.90452424 -378.4429937 633.10985362 C-378.44848782 626.55362298 -378.45418739 619.99739251 -378.45996094 613.44116211 C-378.46059336 612.71671542 -378.46122579 611.99226873 -378.46187738 611.24586911 C-378.48256506 587.74958099 -378.52854475 564.2534309 -378.58861362 540.75721291 C-378.65024826 516.60457461 -378.68920112 492.45201026 -378.69849694 468.2992921 C-378.69981371 464.88914194 -378.70137566 461.47899193 -378.70307922 458.06884193 C-378.70340468 457.39768876 -378.70373015 456.72653559 -378.70406547 456.03504445 C-378.70994497 445.22817968 -378.73952833 434.42150356 -378.77778544 423.61471038 C-378.81568057 412.75573292 -378.82736181 401.89697427 -378.81402284 391.03793832 C-378.80753909 385.15341846 -378.81252494 379.26948532 -378.84789658 373.38505554 C-378.88000495 368.00040885 -378.8799631 362.61676533 -378.85407954 357.23209397 C-378.85041891 355.2818845 -378.85866113 353.33160974 -378.87986106 351.38151207 C-379.04756591 334.96903057 -379.04756591 334.96903057 -374.60712433 330.43092823 C-372.75166368 329.0649069 -372.75166368 329.0649069 -371 328 C-370.154375 327.28714844 -369.30875 326.57429688 -368.4375 325.83984375 C-367.633125 325.21207031 -366.82875 324.58429688 -366 323.9375 C-359.85592734 318.99681812 -354.16666169 313.62140339 -348.4296875 308.21875 C-344.23191078 304.26683983 -339.91709495 300.47654227 -335.52246094 296.74560547 C-327.82207553 290.20595663 -320.27591084 283.54908783 -312.87890625 276.66796875 C-308.3086082 272.4325365 -303.60835337 268.36473809 -298.859375 264.33203125 C-291.71889643 258.2583712 -284.74233219 252.05272228 -277.87890625 245.66796875 C-273.3086082 241.4325365 -268.60835337 237.36473809 -263.859375 233.33203125 C-256.71889643 227.2583712 -249.74233219 221.05272228 -242.87890625 214.66796875 C-238.3086082 210.4325365 -233.60835337 206.36473809 -228.859375 202.33203125 C-221.71889643 196.2583712 -214.74233219 190.05272228 -207.87890625 183.66796875 C-203.3086082 179.4325365 -198.60835337 175.36473809 -193.859375 171.33203125 C-186.71889643 165.2583712 -179.74233219 159.05272228 -172.87890625 152.66796875 C-168.3086082 148.4325365 -163.60835337 144.36473809 -158.859375 140.33203125 C-151.71889643 134.2583712 -144.74233219 128.05272228 -137.87890625 121.66796875 C-133.3086082 117.4325365 -128.60835337 113.36473809 -123.859375 109.33203125 C-116.71889643 103.2583712 -109.74233219 97.05272228 -102.87890625 90.66796875 C-98.3086082 86.4325365 -93.60835337 82.36473809 -88.859375 78.33203125 C-81.71889643 72.2583712 -74.74233219 66.05272228 -67.87890625 59.66796875 C-63.3086082 55.4325365 -58.60835337 51.36473809 -53.859375 47.33203125 C-46.71889643 41.2583712 -39.74233219 35.05272228 -32.87890625 28.66796875 C-26.47344766 22.7318382 -19.79799713 17.10582496 -13.16381836 11.42871094 C-8.74917398 7.64935782 -4.35846391 3.84411103 0 0 Z " fill="#F4ED9D" transform="translate(999,673)"/>
<path d="M0 0 C1.32 0.66 2.64 1.32 4 2 C4 1.34 4 0.68 4 0 C7.73922129 1.5813062 10.29649737 3.93230398 13.25 6.6875 C14.23779303 7.60078875 15.22607617 8.51354769 16.21484375 9.42578125 C17.13394531 10.27527344 18.05304687 11.12476563 19 12 C22.66773412 15.28165684 26.39695554 18.4904562 30.1484375 21.67578125 C37.28717652 27.74586477 44.26035096 33.94977374 51.12109375 40.33203125 C55.6913918 44.5674635 60.39164663 48.63526191 65.140625 52.66796875 C71.72419453 58.26792438 78.1936397 63.9536087 84.51953125 69.84375 C87.97713632 73.06289955 91.48029051 76.21244243 95.0546875 79.30078125 C97.3366529 81.29406428 99.57228574 83.33493027 101.8125 85.375 C105.18940982 88.42858867 108.63217132 91.34429205 112.1875 94.1875 C118.25816662 99.09404731 123.89068915 104.43200617 129.5703125 109.78125 C133.76808922 113.73316017 138.08290505 117.52345773 142.47753906 121.25439453 C150.17792447 127.79404337 157.72408916 134.45091217 165.12109375 141.33203125 C169.6913918 145.5674635 174.39164663 149.63526191 179.140625 153.66796875 C186.28110357 159.7416288 193.25766781 165.94727772 200.12109375 172.33203125 C204.6913918 176.5674635 209.39164663 180.63526191 214.140625 184.66796875 C221.28110357 190.7416288 228.25766781 196.94727772 235.12109375 203.33203125 C239.6913918 207.5674635 244.39164663 211.63526191 249.140625 215.66796875 C255.72419453 221.26792438 262.1936397 226.9536087 268.51953125 232.84375 C271.97713632 236.06289955 275.48029051 239.21244243 279.0546875 242.30078125 C281.3366529 244.29406428 283.57228574 246.33493027 285.8125 248.375 C289.18940982 251.42858867 292.63217132 254.34429205 296.1875 257.1875 C302.25816662 262.09404731 307.89068915 267.43200617 313.5703125 272.78125 C317.76808922 276.73316017 322.08290505 280.52345773 326.47753906 284.25439453 C334.17792447 290.79404337 341.72408916 297.45091217 349.12109375 304.33203125 C353.6913918 308.5674635 358.39164663 312.63526191 363.140625 316.66796875 C370.28110357 322.7416288 377.25766781 328.94727772 384.12109375 335.33203125 C388.6913918 339.5674635 393.39164663 343.63526191 398.140625 347.66796875 C405.28110357 353.7416288 412.25766781 359.94727772 419.12109375 366.33203125 C423.6913918 370.5674635 428.39164663 374.63526191 433.140625 378.66796875 C440.28110357 384.7416288 447.25766781 390.94727772 454.12109375 397.33203125 C458.6913918 401.5674635 463.39164663 405.63526191 468.140625 409.66796875 C474.72419453 415.26792438 481.1936397 420.9536087 487.51953125 426.84375 C490.97713632 430.06289955 494.48029051 433.21244243 498.0546875 436.30078125 C500.3366529 438.29406428 502.57228574 440.33493027 504.8125 442.375 C508.18940982 445.42858867 511.63217132 448.34429205 515.1875 451.1875 C520.56439948 455.53185122 525.59600324 460.19577739 530.61010742 464.9519043 C534.63784075 468.76688039 538.76193259 472.41937638 543 476 C540.11600978 480.02322619 537.26265791 483.87099285 533.6875 487.3125 C530.85964389 490.04814341 528.39104539 492.92398106 525.9375 496 C522.15611396 500.70572485 518.14931406 505.11672702 514 509.5 C509.17949229 514.59627606 504.62090151 519.7954649 500.2421875 525.28125 C496.0405822 530.37587942 491.50542851 535.17455974 487 540 C484.18648214 538.71104283 482.0674293 537.33731495 479.828125 535.20703125 C479.25030273 534.66272461 478.67248047 534.11841797 478.07714844 533.55761719 C477.47418945 532.98172852 476.87123047 532.40583984 476.25 531.8125 C474.99036407 530.62547304 473.7299535 529.43926755 472.46875 528.25390625 C471.86675781 527.68687988 471.26476563 527.11985352 470.64453125 526.53564453 C468.12515402 524.1830788 465.5307256 521.9239597 462.921875 519.671875 C460.58894926 517.64241927 458.29488755 515.572353 456 513.5 C450.67665307 508.70092208 445.31136661 503.9592205 439.84765625 499.3203125 C432.7097858 493.25201893 425.73830738 487.04897817 418.87890625 480.66796875 C414.3086082 476.4325365 409.60835337 472.36473809 404.859375 468.33203125 C397.71889643 462.2583712 390.74233219 456.05272228 383.87890625 449.66796875 C379.3086082 445.4325365 374.60835337 441.36473809 369.859375 437.33203125 C362.71889643 431.2583712 355.74233219 425.05272228 348.87890625 418.66796875 C344.3086082 414.4325365 339.60835337 410.36473809 334.859375 406.33203125 C327.71889643 400.2583712 320.74233219 394.05272228 313.87890625 387.66796875 C309.3086082 383.4325365 304.60835337 379.36473809 299.859375 375.33203125 C293.27580547 369.73207562 286.8063603 364.0463913 280.48046875 358.15625 C277.02286368 354.93710045 273.51970949 351.78755757 269.9453125 348.69921875 C267.6633471 346.70593572 265.42771426 344.66506973 263.1875 342.625 C259.81059018 339.57141133 256.36782868 336.65570795 252.8125 333.8125 C246.74183338 328.90595269 241.10931085 323.56799383 235.4296875 318.21875 C231.23191078 314.26683983 226.91709495 310.47654227 222.52246094 306.74560547 C214.82207553 300.20595663 207.27591084 293.54908783 199.87890625 286.66796875 C195.3086082 282.4325365 190.60835337 278.36473809 185.859375 274.33203125 C178.71889643 268.2583712 171.74233219 262.05272228 164.87890625 255.66796875 C160.3086082 251.4325365 155.60835337 247.36473809 150.859375 243.33203125 C143.71889643 237.2583712 136.74233219 231.05272228 129.87890625 224.66796875 C125.3086082 220.4325365 120.60835337 216.36473809 115.859375 212.33203125 C108.71889643 206.2583712 101.74233219 200.05272228 94.87890625 193.66796875 C90.3086082 189.4325365 85.60835337 185.36473809 80.859375 181.33203125 C74.27580547 175.73207562 67.8063603 170.0463913 61.48046875 164.15625 C58.02286368 160.93710045 54.51970949 157.78755757 50.9453125 154.69921875 C48.6633471 152.70593572 46.42771426 150.66506973 44.1875 148.625 C40.81059018 145.57141133 37.36782868 142.65570795 33.8125 139.8125 C29.12304168 136.0222986 24.70466601 132.0048742 20.3125 127.875 C19.66861328 127.27067139 19.02472656 126.66634277 18.36132812 126.04370117 C15.70577314 123.54880864 13.05349103 121.05059091 10.40625 118.546875 C9.7153125 117.91265625 9.024375 117.2784375 8.3125 116.625 C7.75175781 116.10164062 7.19101562 115.57828125 6.61328125 115.0390625 C4.75934639 113.63901495 4.75934639 113.63901495 1 114 C-0.68110416 115.05872873 -0.68110416 115.05872873 -2.171875 116.59765625 C-2.74969727 117.1484082 -3.32751953 117.69916016 -3.92285156 118.26660156 C-4.52581055 118.85924805 -5.12876953 119.45189453 -5.75 120.0625 C-7.00966809 121.26770997 -8.27007892 122.47214415 -9.53125 123.67578125 C-10.13324219 124.25537598 -10.73523438 124.8349707 -11.35546875 125.43212891 C-13.86033954 127.82023464 -16.46926002 130.07700545 -19.08984375 132.3359375 C-21.36204511 134.31540126 -23.58459872 136.3458317 -25.8125 138.375 C-29.18940982 141.42858867 -32.63217132 144.34429205 -36.1875 147.1875 C-42.25816662 152.09404731 -47.89068915 157.43200617 -53.5703125 162.78125 C-57.76808922 166.73316017 -62.08290505 170.52345773 -66.47753906 174.25439453 C-74.17792447 180.79404337 -81.72408916 187.45091217 -89.12109375 194.33203125 C-93.6913918 198.5674635 -98.39164663 202.63526191 -103.140625 206.66796875 C-109.66627531 212.21916343 -116.06258628 217.86145879 -122.31958008 223.71411133 C-125.57331665 226.7383702 -128.90240919 229.60000498 -132.375 232.375 C-138.39669368 237.2064614 -143.95437915 242.49211671 -149.5703125 247.78125 C-153.76808922 251.73316017 -158.08290505 255.52345773 -162.47753906 259.25439453 C-170.17792447 265.79404337 -177.72408916 272.45091217 -185.12109375 279.33203125 C-189.6913918 283.5674635 -194.39164663 287.63526191 -199.140625 291.66796875 C-206.28110357 297.7416288 -213.25766781 303.94727772 -220.12109375 310.33203125 C-224.6913918 314.5674635 -229.39164663 318.63526191 -234.140625 322.66796875 C-241.28110357 328.7416288 -248.25766781 334.94727772 -255.12109375 341.33203125 C-259.6913918 345.5674635 -264.39164663 349.63526191 -269.140625 353.66796875 C-276.28110357 359.7416288 -283.25766781 365.94727772 -290.12109375 372.33203125 C-294.6913918 376.5674635 -299.39164663 380.63526191 -304.140625 384.66796875 C-311.28110357 390.7416288 -318.25766781 396.94727772 -325.12109375 403.33203125 C-329.6913918 407.5674635 -334.39164663 411.63526191 -339.140625 415.66796875 C-346.28110357 421.7416288 -353.25766781 427.94727772 -360.12109375 434.33203125 C-364.6913918 438.5674635 -369.39164663 442.63526191 -374.140625 446.66796875 C-380.66627531 452.21916343 -387.06258628 457.86145879 -393.31958008 463.71411133 C-396.57331665 466.7383702 -399.90240919 469.60000498 -403.375 472.375 C-409.39669368 477.2064614 -414.95437915 482.49211671 -420.5703125 487.78125 C-424.76808922 491.73316017 -429.08290505 495.52345773 -433.47753906 499.25439453 C-441.17651396 505.79284548 -448.72126531 512.44856687 -456.1171875 519.328125 C-463.84219083 526.48788418 -471.94877049 533.21291171 -480 540 C-484.4786639 536.34394784 -488.37267275 532.60251004 -492.1171875 528.203125 C-494.20299677 525.76246851 -496.34585592 523.38051176 -498.5 521 C-503.29907792 515.67665307 -508.0407795 510.31136661 -512.6796875 504.84765625 C-513.68196999 503.66899722 -514.68458512 502.49062098 -515.6875 501.3125 C-516.19506836 500.71606689 -516.70263672 500.11963379 -517.22558594 499.50512695 C-521.37593402 494.65938169 -525.67081809 489.9632673 -530.07885742 485.35083008 C-532.84152917 482.42155555 -535.072061 479.53780052 -537 476 C-531.39806832 470.26397953 -525.60098731 464.90689211 -519.49169922 459.71923828 C-511.80157156 453.18842635 -504.26600005 446.53986824 -496.87890625 439.66796875 C-492.3086082 435.4325365 -487.60835337 431.36473809 -482.859375 427.33203125 C-476.33372469 421.78083657 -469.93741372 416.13854121 -463.68041992 410.28588867 C-460.42668335 407.2616298 -457.09759081 404.39999502 -453.625 401.625 C-447.60330632 396.7935386 -442.04562085 391.50788329 -436.4296875 386.21875 C-432.23191078 382.26683983 -427.91709495 378.47654227 -423.52246094 374.74560547 C-415.82207553 368.20595663 -408.27591084 361.54908783 -400.87890625 354.66796875 C-396.3086082 350.4325365 -391.60835337 346.36473809 -386.859375 342.33203125 C-379.71889643 336.2583712 -372.74233219 330.05272228 -365.87890625 323.66796875 C-361.3086082 319.4325365 -356.60835337 315.36473809 -351.859375 311.33203125 C-344.71889643 305.2583712 -337.74233219 299.05272228 -330.87890625 292.66796875 C-326.3086082 288.4325365 -321.60835337 284.36473809 -316.859375 280.33203125 C-309.71889643 274.2583712 -302.74233219 268.05272228 -295.87890625 261.66796875 C-291.3086082 257.4325365 -286.60835337 253.36473809 -281.859375 249.33203125 C-274.71889643 243.2583712 -267.74233219 237.05272228 -260.87890625 230.66796875 C-256.3086082 226.4325365 -251.60835337 222.36473809 -246.859375 218.33203125 C-239.71889643 212.2583712 -232.74233219 206.05272228 -225.87890625 199.66796875 C-221.3086082 195.4325365 -216.60835337 191.36473809 -211.859375 187.33203125 C-204.71889643 181.2583712 -197.74233219 175.05272228 -190.87890625 168.66796875 C-186.3086082 164.4325365 -181.60835337 160.36473809 -176.859375 156.33203125 C-169.71889643 150.2583712 -162.74233219 144.05272228 -155.87890625 137.66796875 C-151.3086082 133.4325365 -146.60835337 129.36473809 -141.859375 125.33203125 C-134.71889643 119.2583712 -127.74233219 113.05272228 -120.87890625 106.66796875 C-116.3086082 102.4325365 -111.60835337 98.36473809 -106.859375 94.33203125 C-99.71889643 88.2583712 -92.74233219 82.05272228 -85.87890625 75.66796875 C-81.3086082 71.4325365 -76.60835337 67.36473809 -71.859375 63.33203125 C-65.33372469 57.78083657 -58.93741372 52.13854121 -52.68041992 46.28588867 C-49.42668335 43.2616298 -46.09759081 40.39999502 -42.625 37.625 C-36.60330632 32.7935386 -31.04562085 27.50788329 -25.4296875 22.21875 C-21.70323731 18.71056046 -17.8930488 15.32197545 -14 12 C-12.80316934 10.97290798 -11.60657928 9.94553557 -10.41015625 8.91796875 C-6.94313305 5.94176301 -3.47232973 2.97001236 0 0 Z " fill="#F4ED9D" transform="translate(997,489)"/>
<path d="M0 0 C44.88 0 89.76 0 136 0 C136 13.220625 136 26.44125 136 40.0625 C136.0309375 46.31006226 136.0309375 46.31006226 136.0625 52.68383789 C136.03515625 57.79382324 136.03515625 57.79382324 136.01220703 60.19065857 C136.00376886 61.85450772 136.0109597 63.51848301 136.03076172 65.18223572 C136.18083964 79.23830023 136.18083964 79.23830023 133.26220703 83.59262085 C131.25493575 85.36460389 129.31378716 86.66900959 127 88 C125.9329616 88.91926302 124.88916776 89.86646846 123.875 90.84375 C119.01266068 95.33612872 114.12794843 99.78911136 109.125 104.125 C105.84491419 107.01919336 102.63731943 109.99218892 99.41967773 112.95532227 C96.66526572 115.48740116 93.89257501 117.99035268 91.0625 120.4375 C87.47041409 123.54964124 83.98448008 126.76872086 80.5 130 C76.41698978 133.78631688 72.30230283 137.51767049 68.08984375 141.16015625 C65.35629481 143.56670121 62.67884343 146.03301444 60 148.5 C56.72144895 151.51926496 53.43419043 154.52202138 50.0625 157.4375 C46.47041409 160.54964124 42.98448008 163.76872086 39.5 167 C35.41698978 170.78631688 31.30230283 174.51767049 27.08984375 178.16015625 C23.8262522 181.03333684 20.63922412 183.98993154 17.44140625 186.93579102 C13.88535394 190.20552215 10.28320658 193.41229541 6.62109375 196.5625 C4.95850937 197.99353735 4.95850937 197.99353735 3.41015625 199.6875 C2 201 2 201 0 201 C0 134.67 0 68.34 0 0 Z " fill="#F4ED9D" transform="translate(621,558)"/>
</svg>
