<?xml version="1.0" encoding="UTF-8"?>
<svg version="1.1" xmlns="http://www.w3.org/2000/svg" width="225" height="400">
<path d="M0 0 C74.25 0 148.5 0 225 0 C225 132 225 264 225 400 C150.75 400 76.5 400 0 400 C0 268 0 136 0 0 Z " fill="#F9F9F9" transform="translate(0,0)"/>
<path d="M0 0 C74.25 0 148.5 0 225 0 C225 132 225 264 225 400 C150.75 400 76.5 400 0 400 C0 268 0 136 0 0 Z M155 4 C153.68 5.32 152.36 6.64 151 8 C150.4225 7.690625 149.845 7.38125 149.25 7.0625 C146.2353796 5.63452043 146.2353796 5.63452043 143 5 C141.22809091 6.35444301 141.22809091 6.35444301 140 8 C138.8553125 7.5359375 138.8553125 7.5359375 137.6875 7.0625 C135.81210323 6.32106407 133.91315348 5.63771783 132 5 C131.01 5.66 130.02 6.32 129 7 C129 7.66 129 8.32 129 9 C128.2575 8.525625 127.515 8.05125 126.75 7.5625 C123.5438329 5.69285272 123.5438329 5.69285272 120 5 C118.22809091 6.35444301 118.22809091 6.35444301 117 8 C116.4225 7.690625 115.845 7.38125 115.25 7.0625 C112.2353796 5.63452043 112.2353796 5.63452043 109 5 C107.22809091 6.35444301 107.22809091 6.35444301 106 8 C105.4225 7.690625 104.845 7.38125 104.25 7.0625 C101.2353796 5.63452043 101.2353796 5.63452043 98 5 C97.505 5.495 97.01 5.99 96.5 6.5 C96.005 6.995 95.51 7.49 95 8 C92.02667109 7.71225849 89.61190363 6.39923409 87 5 C86.01 5.66 85.02 6.32 84 7 C84 7.66 84 8.32 84 9 C83.2575 8.525625 82.515 8.05125 81.75 7.5625 C78.5438329 5.69285272 78.5438329 5.69285272 75 5 C73.22809091 6.35444301 73.22809091 6.35444301 72 8 C71.4225 7.690625 70.845 7.38125 70.25 7.0625 C67.2353796 5.63452043 67.2353796 5.63452043 64 5 C62.22809091 6.35444301 62.22809091 6.35444301 61 8 C60.4225 7.690625 59.845 7.38125 59.25 7.0625 C56.2353796 5.63452043 56.2353796 5.63452043 53 5 C52.505 5.495 52.01 5.99 51.5 6.5 C51.005 6.995 50.51 7.49 50 8 C47.02667109 7.71225849 44.61190363 6.39923409 42 5 C41.38125 5.7734375 41.38125 5.7734375 40.75 6.5625 C39 8 39 8 37.0625 7.8125 C34.96795522 6.9873763 32.98408958 6.06290513 31 5 C29.68 5.99 28.36 6.98 27 8 C26.4225 7.690625 25.845 7.38125 25.25 7.0625 C22.2353796 5.63452043 22.2353796 5.63452043 19 5 C17.22809091 6.35444301 17.22809091 6.35444301 16 8 C15.4225 7.690625 14.845 7.38125 14.25 7.0625 C11.24217147 5.58428639 11.24217147 5.58428639 8 5 C5.14811829 7.16360616 4.1055208 8.37958268 3.49860334 11.94799852 C3.49795393 13.10777444 3.49730453 14.26755036 3.49663544 15.46247101 C3.49082167 16.11253512 3.48500791 16.76259923 3.47901797 17.43236226 C3.46436982 19.62003606 3.47832425 21.80659628 3.49206543 23.9942627 C3.48745838 25.57466854 3.48110678 27.1550701 3.47315645 28.73546267 C3.45641292 33.08562163 3.46473216 37.43543092 3.47710133 41.78559136 C3.48612903 46.47414572 3.47219345 51.16263875 3.46118164 55.85118103 C3.4433674 65.03891413 3.44724932 74.22651675 3.4588322 83.41425502 C3.46785485 90.87933544 3.4690956 98.3443792 3.46473694 105.8094635 C3.46412401 106.87073 3.46351107 107.93199651 3.46287957 109.0254226 C3.46160071 111.18116455 3.46030385 113.33690649 3.4589892 115.49264842 C3.44757489 135.72118595 3.46071045 155.94965105 3.48219067 176.1781767 C3.50006241 193.54639237 3.49695854 210.91450111 3.47851562 228.28271484 C3.45712393 248.43739633 3.44867361 268.59201428 3.46096468 288.74670553 C3.46223892 290.89464918 3.4634964 293.04259283 3.46473694 295.1905365 C3.46535404 296.24744793 3.46597114 297.30435937 3.46660694 298.39329842 C3.47006495 305.85198188 3.4642218 313.31062513 3.45481873 320.76930237 C3.44361625 329.85527874 3.44660184 338.94111684 3.4679417 348.02707732 C3.47847576 352.66553843 3.482534 357.30376876 3.46934509 361.94222832 C3.4574639 366.18484303 3.46391259 370.42701209 3.4852553 374.66958612 C3.48973959 376.20788106 3.48741435 377.74621332 3.47775215 379.28448445 C3.46565669 381.36937434 3.47799023 383.45272086 3.49663544 385.53752899 C3.49728485 386.69730491 3.49793426 387.85708083 3.49860334 389.05200148 C4.1055208 392.62041732 5.14811829 393.83639384 8 396 C10.98263061 395.81358559 13.38707959 394.39977879 16 393 C17.65 394.32 19.3 395.64 21 397 C22.98 395.02 22.98 395.02 25 393 C27.49361571 394.20381448 29.68143083 395.45428722 32 397 C32.598125 396.360625 33.19625 395.72125 33.8125 395.0625 C36 393 36 393 39 392 C39.495 393.485 39.495 393.485 40 395 C41.8064655 396.0146239 41.8064655 396.0146239 44 396 C46.24755753 394.6483633 46.24755753 394.6483633 48 393 C48.5775 393.309375 49.155 393.61875 49.75 393.9375 C52.7646204 395.36547957 52.7646204 395.36547957 56 396 C57.77190909 394.64555699 57.77190909 394.64555699 59 393 C61.49361571 394.20381448 63.68143083 395.45428722 66 397 C67.98 395.02 67.98 395.02 70 393 C72.49361571 394.20381448 74.68143083 395.45428722 77 397 C78.32 395.68 79.64 394.36 81 393 C81.5775 393.309375 82.155 393.61875 82.75 393.9375 C85.7624662 395.38072364 85.7624662 395.38072364 89 396 C91.72981832 394.64599355 91.72981832 394.64599355 94 393 C94.5775 393.515625 95.155 394.03125 95.75 394.5625 C97.83907305 396.22178666 97.83907305 396.22178666 100 395.8125 C102.06348821 394.97420791 104.03678574 394.05172193 106 393 C107.65 394.32 109.3 395.64 111 397 C112.32 395.68 113.64 394.36 115 393 C117.49361571 394.20381448 119.68143083 395.45428722 122 397 C123.32 395.68 124.64 394.36 126 393 C126.556875 393.309375 127.11375 393.61875 127.6875 393.9375 C130.22648005 395.1040584 132.20646106 395.79048458 135 396 C137.30504044 394.66846734 137.30504044 394.66846734 139 393 C141.97 394.98 141.97 394.98 145 397 C146.32 395.68 147.64 394.36 149 393 C151.49361571 394.20381448 153.68143083 395.45428722 156 397 C157.32 395.68 158.64 394.36 160 393 C162.49361571 394.20381448 164.68143083 395.45428722 167 397 C168.32 395.68 169.64 394.36 171 393 C171.8353125 393.4640625 171.8353125 393.4640625 172.6875 393.9375 C175.22648005 395.1040584 177.20646106 395.79048458 180 396 C182.30504044 394.66846734 182.30504044 394.66846734 184 393 C186.97 394.98 186.97 394.98 190 397 C191.32 395.68 192.64 394.36 194 393 C196.49361571 394.20381448 198.68143083 395.45428722 201 397 C202.32 395.68 203.64 394.36 205 393 C207.49361571 394.20381448 209.68143083 395.45428722 212 397 C214.59540722 395.42500426 214.59540722 395.42500426 217 393 C217.74720211 389.96744805 217.74720211 389.96744805 217.62641239 386.50629425 C217.63338 385.85285339 217.64034761 385.19941253 217.64752635 384.52617043 C217.66483302 382.32679187 217.64637514 380.1291604 217.62818909 377.92980957 C217.63323204 376.34115182 217.64045892 374.75249975 217.64968723 373.1638608 C217.6686725 368.79082459 217.65634071 364.41834512 217.6389643 360.04532266 C217.62562662 355.33222217 217.64101441 350.61920512 217.65278625 345.90611267 C217.67119418 336.67022185 217.66262953 327.43454217 217.64469803 318.19865787 C217.63068941 310.69448087 217.62677548 303.19036131 217.6301403 295.68617249 C217.63085647 294.08594665 217.63085647 294.08594665 217.6315871 292.45339301 C217.6326134 290.28637706 217.63366876 288.11936112 217.63475286 285.95234519 C217.64332631 266.77759535 217.62662403 247.60294765 217.59692383 228.42822266 C217.56808489 209.80936391 217.56100206 191.1906523 217.57641602 172.57177734 C217.5931657 152.31161565 217.59722498 132.05152388 217.57970566 111.79136038 C217.57786121 109.63218277 217.57602648 107.47300514 217.57420158 105.31382751 C217.57328949 104.25138786 217.5723774 103.18894821 217.57143768 102.09431341 C217.5658246 94.59656014 217.56914663 87.09884091 217.57574654 79.60108948 C217.58346695 70.46752925 217.57677385 61.33411404 217.5515715 52.2005831 C217.53904637 47.53782377 217.53296627 42.87529054 217.54411316 38.21252251 C217.55411643 33.94769576 217.54578012 29.68332098 217.52253198 25.41854948 C217.51735081 23.87218235 217.51897367 22.32577509 217.52792663 20.7794252 C217.53905527 18.68363821 217.52576442 16.5893973 217.50615788 14.49370575 C217.50496639 13.3278543 217.50377491 12.16200286 217.50254732 10.96082258 C216.89972914 7.40924128 215.7552807 6.2314521 213 4 C212.4225 4.28875 211.845 4.5775 211.25 4.875 C209.16666667 5.91666667 207.08333333 6.95833333 205 8 C203.35 6.68 201.7 5.36 200 4 C198.68 5.32 197.36 6.64 196 8 C193.50638429 6.79618552 191.31856917 5.54571278 189 4 C187.02 5.32 185.04 6.64 183 8 C181.02 6.02 181.02 6.02 179 4 C176.50638429 5.20381448 174.31856917 6.45428722 172 8 C171.4225 7.484375 170.845 6.96875 170.25 6.4375 C168.16092695 4.77821334 168.16092695 4.77821334 166 5.1875 C163.93651179 6.02579209 161.96321426 6.94827807 160 8 C158.35 6.68 156.7 5.36 155 4 Z " fill="#193ADB" transform="translate(0,0)"/>
<path d="M0 0 C0.5775 0.309375 1.155 0.61875 1.75 0.9375 C4.7646204 2.36547957 4.7646204 2.36547957 8 3 C9.77190909 1.64555699 9.77190909 1.64555699 11 0 C13.49361571 1.20381448 15.68143083 2.45428722 18 4 C19.32 2.68 20.64 1.36 22 0 C24.49361571 1.20381448 26.68143083 2.45428722 29 4 C30.32 2.68 31.64 1.36 33 0 C33.5775 0.309375 34.155 0.61875 34.75 0.9375 C37.7624662 2.38072364 37.7624662 2.38072364 41 3 C43.72981832 1.64599355 43.72981832 1.64599355 46 0 C46.5775 0.515625 47.155 1.03125 47.75 1.5625 C49.83907305 3.22178666 49.83907305 3.22178666 52 2.8125 C54.06348821 1.97420791 56.03678574 1.05172193 58 0 C59.65 1.32 61.3 2.64 63 4 C64.32 2.68 65.64 1.36 67 0 C69.49361571 1.20381448 71.68143083 2.45428722 74 4 C75.32 2.68 76.64 1.36 78 0 C78.556875 0.309375 79.11375 0.61875 79.6875 0.9375 C82.22648005 2.1040584 84.20646106 2.79048458 87 3 C89.30504044 1.66846734 89.30504044 1.66846734 91 0 C92.98 1.32 94.96 2.64 97 4 C98.32 2.68 99.64 1.36 101 0 C103.49361571 1.20381448 105.68143083 2.45428722 108 4 C109.32 2.68 110.64 1.36 112 0 C114.49361571 1.20381448 116.68143083 2.45428722 119 4 C120.32 2.68 121.64 1.36 123 0 C123.556875 0.309375 124.11375 0.61875 124.6875 0.9375 C127.22648005 2.1040584 129.20646106 2.79048458 132 3 C134.30504044 1.66846734 134.30504044 1.66846734 136 0 C137.98 1.32 139.96 2.64 142 4 C143.32 2.68 144.64 1.36 146 0 C148.49361571 1.20381448 150.68143083 2.45428722 153 4 C154.32 2.68 155.64 1.36 157 0 C157.99 0.495 157.99 0.495 159 1 C157.40535893 3.93097665 155.69859506 6.01765408 153 8 C148.32582631 9.06722108 143.65728954 8.9376645 138.88818359 8.87402344 C137.44551561 8.88023918 136.00285794 8.88946269 134.56022644 8.90145874 C130.65293029 8.92478039 126.74699315 8.90426598 122.83978605 8.8744154 C118.74837827 8.84920949 114.65704244 8.85982151 110.56558228 8.86529541 C103.69746918 8.86887753 96.82989301 8.84435714 89.96191406 8.80273438 C82.02159625 8.75492044 74.08212623 8.74971102 66.14170396 8.7676847 C58.49990171 8.78415572 50.85840284 8.7723265 43.21663284 8.74695587 C39.96546544 8.7365533 36.71450476 8.73575666 33.46332932 8.74260712 C29.63641804 8.74926147 25.81040849 8.73104986 21.98368263 8.69359207 C20.57924155 8.68378303 19.17471179 8.68246413 17.77025795 8.69023514 C15.85392039 8.69940924 13.93750962 8.67476422 12.02133179 8.64837646 C10.94878332 8.6438937 9.87623486 8.63941093 8.77118492 8.63479233 C5.08605053 7.79064258 4.03605854 6.08415383 2 3 C-0.92879371 3.62759865 -3.36095629 4.58622659 -6 6 C-6.99 5.34 -7.98 4.68 -9 4 C-8.67 3.34 -8.34 2.68 -8 2 C-7.4225 2.226875 -6.845 2.45375 -6.25 2.6875 C-3.87827523 3.26505193 -3.87827523 3.26505193 -1.75 1.5625 C-1.1725 1.046875 -0.595 0.53125 0 0 Z " fill="#1C3CD5" transform="translate(48,392)"/>
<path d="M0 0 C0.5775 0.309375 1.155 0.61875 1.75 0.9375 C4.7646204 2.36547957 4.7646204 2.36547957 8 3 C9.77190909 1.64555699 9.77190909 1.64555699 11 0 C13.49361571 1.20381448 15.68143083 2.45428722 18 4 C19.32 2.68 20.64 1.36 22 0 C24.49361571 1.20381448 26.68143083 2.45428722 29 4 C30.32 2.68 31.64 1.36 33 0 C33.5775 0.309375 34.155 0.61875 34.75 0.9375 C37.7624662 2.38072364 37.7624662 2.38072364 41 3 C43.72981832 1.64599355 43.72981832 1.64599355 46 0 C48.31 1.32 50.62 2.64 53 4 C52.67 4.66 52.34 5.32 52 6 C49.69 5.34 47.38 4.68 45 4 C44.25459961 4.97247681 44.25459961 4.97247681 43.49414062 5.96459961 C40.14189823 8.70027354 37.23863845 8.59447618 33.09375 8.56640625 C32.33203491 8.57260483 31.57031982 8.57880341 30.78552246 8.58518982 C29.17847977 8.59227923 27.57136351 8.58912918 25.96435547 8.57641602 C23.50741371 8.56254186 21.05427678 8.59663462 18.59765625 8.63476562 C17.03385324 8.63571682 15.47004546 8.63385798 13.90625 8.62890625 C13.17386108 8.64216446 12.44147217 8.65542267 11.68688965 8.66908264 C7.75968493 8.59749117 6.30868062 8.31427047 3.50585938 5.46069336 C3.00892578 4.64866455 2.51199219 3.83663574 2 3 C-0.92879371 3.62759865 -3.36095629 4.58622659 -6 6 C-6.99 5.34 -7.98 4.68 -9 4 C-8.67 3.34 -8.34 2.68 -8 2 C-7.4225 2.226875 -6.845 2.45375 -6.25 2.6875 C-3.87827523 3.26505193 -3.87827523 3.26505193 -1.75 1.5625 C-1.1725 1.046875 -0.595 0.53125 0 0 Z " fill="#1F3DC8" transform="translate(48,392)"/>
<path d="M0 0 C2.49361571 1.20381448 4.68143083 2.45428722 7 4 C8.32 2.68 9.64 1.36 11 0 C13.49361571 1.20381448 15.68143083 2.45428722 18 4 C18.598125 3.34 19.19625 2.68 19.8125 2 C22 0 22 0 25 0 C25 1.32 25 2.64 25 4 C27.34533951 4.76956136 27.34533951 4.76956136 30 5 C31.02019573 4.0206121 32.02149805 3.02104551 33 2 C35.58142336 2.16133896 36.75481707 2.79859974 38.75 4.4375 C40 6 40 6 40 8 C25.15 8 10.3 8 -5 8 C-2.75 2.375 -2.75 2.375 0 0 Z " fill="#1E3DCD" transform="translate(14,392)"/>
<path d="M0 0 C2.64 0 5.28 0 8 0 C8 8.91 8 17.82 8 27 C6.35 27 4.7 27 3 27 C3 28.65 3 30.3 3 32 C2.01 32 1.02 32 0 32 C0 21.44 0 10.88 0 0 Z " fill="#8F9598" transform="translate(111,307)"/>
<path d="M0 0 C2.64 0 5.28 0 8 0 C8 8.91 8 17.82 8 27 C5.36 27 2.72 27 0 27 C0 18.09 0 9.18 0 0 Z " fill="#3F494F" transform="translate(59,307)"/>
<path d="M0 0 C2.31 0 4.62 0 7 0 C7 8.58 7 17.16 7 26 C4.69 26 2.38 26 0 26 C0 17.42 0 8.84 0 0 Z " fill="#2B373D" transform="translate(43,308)"/>
<path d="M0 0 C1.98 0 3.96 0 6 0 C6 8.91 6 17.82 6 27 C4.02 27 2.04 27 0 27 C0 18.09 0 9.18 0 0 Z " fill="#434D53" transform="translate(172,307)"/>
<path d="M0 0 C8 0 8 0 10 1 C11.32291057 3.64582114 11.15736021 6.01673298 11.0390625 8.92578125 C10.98693864 11.69355847 11.45861096 14.29305481 12 17 C10.68 16.67 9.36 16.34 8 16 C7.67 14.68 7.34 13.36 7 12 C5.68 11.67 4.36 11.34 3 11 C3 12.98 3 14.96 3 17 C2.01 17.33 1.02 17.66 0 18 C0 12.06 0 6.12 0 0 Z " fill="#454F54" transform="translate(61,33)"/>
<path d="M0 0 C8 0 8 0 10.5 1.1875 C12 3 12 3 12.4375 5.5 C12 8 12 8 10.875 9.8125 C8.22464043 11.49106106 6.06753576 11.20450238 3 11 C3 13.31 3 15.62 3 18 C2.01 18 1.02 18 0 18 C0 12.06 0 6.12 0 0 Z " fill="#3F4A4F" transform="translate(134,33)"/>
<path d="M0 0 C1.65 0 3.3 0 5 0 C5 8.58 5 17.16 5 26 C3.35 26 1.7 26 0 26 C0 17.42 0 8.84 0 0 Z " fill="#2E3A40" transform="translate(158,308)"/>
<path d="M0 0 C1.65 0 3.3 0 5 0 C5 8.58 5 17.16 5 26 C3.35 26 1.7 26 0 26 C0 17.42 0 8.84 0 0 Z " fill="#2F3A40" transform="translate(128,308)"/>
<path d="M0 0 C3.63 0 7.26 0 11 0 C11 0.99 11 1.98 11 3 C8.36 3 5.72 3 3 3 C3 4.65 3 6.3 3 8 C5.31 8 7.62 8 10 8 C10 8.66 10 9.32 10 10 C7.69 10 5.38 10 3 10 C3 11.65 3 13.3 3 15 C5.64 15 8.28 15 11 15 C11 15.99 11 16.98 11 18 C7.37 18 3.74 18 0 18 C0 12.06 0 6.12 0 0 Z " fill="#374248" transform="translate(77,33)"/>
<path d="M0 0 C3.63 0 7.26 0 11 0 C11 8.91 11 17.82 11 27 C9.68 27 8.36 27 7 27 C7 18.42 7 9.84 7 1 C4.69 1 2.38 1 0 1 C0 0.67 0 0.34 0 0 Z " fill="#A5AAAD" transform="translate(43,307)"/>
<path d="M0 0 C1.37478516 0.01740234 1.37478516 0.01740234 2.77734375 0.03515625 C3.69644531 0.04417969 4.61554688 0.05320313 5.5625 0.0625 C6.27277344 0.07410156 6.98304687 0.08570313 7.71484375 0.09765625 C7.71484375 1.08765625 7.71484375 2.07765625 7.71484375 3.09765625 C5.07484375 3.09765625 2.43484375 3.09765625 -0.28515625 3.09765625 C-0.28515625 4.74765625 -0.28515625 6.39765625 -0.28515625 8.09765625 C2.02484375 8.09765625 4.33484375 8.09765625 6.71484375 8.09765625 C6.71484375 8.75765625 6.71484375 9.41765625 6.71484375 10.09765625 C4.40484375 10.09765625 2.09484375 10.09765625 -0.28515625 10.09765625 C-0.28515625 11.74765625 -0.28515625 13.39765625 -0.28515625 15.09765625 C2.35484375 15.09765625 4.99484375 15.09765625 7.71484375 15.09765625 C7.71484375 16.08765625 7.71484375 17.07765625 7.71484375 18.09765625 C6.06909809 18.12453776 4.42322962 18.14399748 2.77734375 18.16015625 C1.86082031 18.17175781 0.94429688 18.18335937 0 18.1953125 C-2.28515625 18.09765625 -2.28515625 18.09765625 -3.28515625 17.09765625 C-3.38496839 14.42034245 -3.423955 11.7746145 -3.41015625 9.09765625 C-3.41402344 8.34742188 -3.41789062 7.5971875 -3.421875 6.82421875 C-3.40981995 0.1457188 -3.40981995 0.1457188 0 0 Z " fill="#3E494F" transform="translate(114.28515625,32.90234375)"/>
<path d="M0 0 C0.5775 0.309375 1.155 0.61875 1.75 0.9375 C4.7646204 2.36547957 4.7646204 2.36547957 8 3 C9.77190909 1.64555699 9.77190909 1.64555699 11 0 C13.49361571 1.20381448 15.68143083 2.45428722 18 4 C19.32 2.68 20.64 1.36 22 0 C25.875 1.75 25.875 1.75 27 4 C24.525 3.505 24.525 3.505 22 3 C21.5875 3.825 21.175 4.65 20.75 5.5 C16.89349876 9.00591022 13.86558107 8.69325297 8.796875 8.5078125 C6 8 6 8 3.25 5.5 C2.63125 4.2625 2.63125 4.2625 2 3 C-0.92879371 3.62759865 -3.36095629 4.58622659 -6 6 C-6.99 5.34 -7.98 4.68 -9 4 C-8.67 3.34 -8.34 2.68 -8 2 C-7.4225 2.226875 -6.845 2.45375 -6.25 2.6875 C-3.87827523 3.26505193 -3.87827523 3.26505193 -1.75 1.5625 C-1.1725 1.046875 -0.595 0.53125 0 0 Z " fill="#2C44A5" transform="translate(48,392)"/>
<path d="M0 0 C3.875 0.5 3.875 0.5 6.875 2.5 C6.875 3.16 6.875 3.82 6.875 4.5 C6.17632812 4.47679687 5.47765625 4.45359375 4.7578125 4.4296875 C3.39269531 4.40261719 3.39269531 4.40261719 2 4.375 C1.09507813 4.35179687 0.19015625 4.32859375 -0.7421875 4.3046875 C-3.31306994 4.25675164 -3.31306994 4.25675164 -5.125 6.5 C-4.80173447 10.09679066 -4.80173447 10.09679066 -4.125 13.5 C0.92509595 14.43786082 0.92509595 14.43786082 5.875 13.5 C5 17.375 5 17.375 3.875 18.5 C-0.41754017 18.9952931 -2.43867592 18.99236293 -6 16.4375 C-8.5803274 12.87057683 -9.27959256 10.9058879 -9.125 6.5 C-6.73071665 2.25207793 -4.90694262 0.13605201 0 0 Z " fill="#3E494E" transform="translate(100.125,32.5)"/>
<path d="M0 0 C1.32 0 2.64 0 4 0 C4 8.91 4 17.82 4 27 C2.68 27 1.36 27 0 27 C0 18.09 0 9.18 0 0 Z " fill="#465056" transform="translate(98,307)"/>
<path d="M0 0 C1.32 0 2.64 0 4 0 C4 8.91 4 17.82 4 27 C2.68 27 1.36 27 0 27 C0 18.09 0 9.18 0 0 Z " fill="#485257" transform="translate(185,307)"/>
<path d="M0 0 C1.32 0 2.64 0 4 0 C4 8.91 4 17.82 4 27 C2.68 27 1.36 27 0 27 C0 18.09 0 9.18 0 0 Z " fill="#414B51" transform="translate(72,307)"/>
<path d="M0 0 C1.32 0 2.64 0 4 0 C4 8.91 4 17.82 4 27 C2.68 27 1.36 27 0 27 C0 18.09 0 9.18 0 0 Z " fill="#424C51" transform="translate(33,307)"/>
<path d="M0 0 C1.32 0 2.64 0 4 0 C4 8.91 4 17.82 4 27 C2.68 27 1.36 27 0 27 C0 18.09 0 9.18 0 0 Z " fill="#424C51" transform="translate(148,307)"/>
<path d="M0 0 C1.32 0 2.64 0 4 0 C4 8.91 4 17.82 4 27 C2.68 27 1.36 27 0 27 C0 18.09 0 9.18 0 0 Z " fill="#424C51" transform="translate(85,307)"/>
<path d="M0 0 C3.48133831 1.39253532 4.47886033 2.63176216 6 6 C6.66 6.33 7.32 6.66 8 7 C7 8 7 8 4.86694336 8.11352539 C3.95050049 8.10828857 3.03405762 8.10305176 2.08984375 8.09765625 C1.10048828 8.09443359 0.11113281 8.09121094 -0.90820312 8.08789062 C-1.94912109 8.07951172 -2.99003906 8.07113281 -4.0625 8.0625 C-5.10728516 8.05798828 -6.15207031 8.05347656 -7.22851562 8.04882812 C-9.8190666 8.03699913 -12.40950559 8.02051689 -15 8 C-13.68 6.35 -12.36 4.7 -11 3 C-8.69 3.66 -6.38 4.32 -4 5 C-2.68 3.35 -1.36 1.7 0 0 Z " fill="#1C3CCE" transform="translate(104,392)"/>
<path d="M0 0 C2.49361571 1.20381448 4.68143083 2.45428722 7 4 C8.32 2.68 9.64 1.36 11 0 C14.875 1.75 14.875 1.75 16 4 C14.8553125 4.1546875 14.8553125 4.1546875 13.6875 4.3125 C10.97320592 4.72349025 10.97320592 4.72349025 9.75 6.53125 C7.07006517 8.78048102 4.73368499 8.28911936 1.3125 8.1875 C-0.45673828 8.14689453 -0.45673828 8.14689453 -2.26171875 8.10546875 C-3.16535156 8.07066406 -4.06898437 8.03585937 -5 8 C-3.7367158 4.64405806 -2.74084921 2.36709704 0 0 Z " fill="#1E3BBC" transform="translate(14,392)"/>
<path d="M0 0 C2.3828125 0.0234375 2.3828125 0.0234375 5.125 0.375 C6.03507813 0.48585938 6.94515625 0.59671875 7.8828125 0.7109375 C8.93082031 0.85402344 8.93082031 0.85402344 10 1 C10 3.64 10 6.28 10 9 C8.906875 8.979375 7.81375 8.95875 6.6875 8.9375 C3.05615809 8.81455548 3.05615809 8.81455548 0 10 C0 9.34 0 8.68 0 8 C-0.66 7.67 -1.32 7.34 -2 7 C-1.34 7 -0.68 7 0 7 C-0.66 5.35 -1.32 3.7 -2 2 C-1.34 1.34 -0.68 0.68 0 0 Z " fill="#E0E1E2" transform="translate(169,124)"/>
<path d="M0 0 C4.29 0 8.58 0 13 0 C13 0.99 13 1.98 13 3 C11.35 3 9.7 3 8 3 C8 7.95 8 12.9 8 18 C7.01 18 6.02 18 5 18 C5 13.05 5 8.1 5 3 C3.35 3 1.7 3 0 3 C0 2.01 0 1.02 0 0 Z " fill="#465156" transform="translate(148,33)"/>
<path d="M0 0 C3.63 0 7.26 0 11 0 C10.67 1.65 10.34 3.3 10 5 C10.33 5.99 10.66 6.98 11 8 C6.38 8 1.76 8 -3 8 C-3 7.34 -3 6.68 -3 6 C-1.34467377 4.98133771 0.32260138 3.98189187 2 3 C2.33 2.34 2.66 1.68 3 1 C2.01 0.67 1.02 0.34 0 0 Z " fill="#9EA3A6" transform="translate(185,234)"/>
<path d="M0 0 C0.99 0 1.98 0 3 0 C3 8.91 3 17.82 3 27 C2.01 27 1.02 27 0 27 C0 18.09 0 9.18 0 0 Z " fill="#303B41" transform="translate(141,307)"/>
<path d="M0 0 C0.99 0 1.98 0 3 0 C3 8.58 3 17.16 3 26 C2.01 26 1.02 26 0 26 C0 17.42 0 8.84 0 0 Z " fill="#303C42" transform="translate(115,308)"/>
<path d="M0 0 C0.99 0 1.98 0 3 0 C3 8.58 3 17.16 3 26 C2.01 26 1.02 26 0 26 C0 17.42 0 8.84 0 0 Z " fill="#2C383D" transform="translate(180,308)"/>
<path d="M0 0 C0.99 0 1.98 0 3 0 C3 8.58 3 17.16 3 26 C2.01 26 1.02 26 0 26 C0 17.42 0 8.84 0 0 Z " fill="#273339" transform="translate(121,308)"/>
<path d="M0 0 C2.49361571 1.20381448 4.68143083 2.45428722 7 4 C8.32 2.68 9.64 1.36 11 0 C11.99 0.33 12.98 0.66 14 1 C13.21625 1.598125 12.4325 2.19625 11.625 2.8125 C8.85425677 4.91085249 8.85425677 4.91085249 7 8 C4.3984375 8.29296875 4.3984375 8.29296875 1.375 8.1875 C-0.12933594 8.14689453 -0.12933594 8.14689453 -1.6640625 8.10546875 C-2.43492188 8.07066406 -3.20578125 8.03585937 -4 8 C-4.33 7.01 -4.66 6.02 -5 5 C-3.35 3.35 -1.7 1.7 0 0 Z " fill="#2541BC" transform="translate(115,392)"/>
<path d="M0 0 C2.49361571 1.20381448 4.68143083 2.45428722 7 4 C8.32 2.68 9.64 1.36 11 0 C11.99 0.33 12.98 0.66 14 1 C7 8 7 8 4.3984375 8.1953125 C3.40070313 8.17210937 2.40296875 8.14890625 1.375 8.125 C-0.12933594 8.09792969 -0.12933594 8.09792969 -1.6640625 8.0703125 C-2.43492187 8.04710937 -3.20578125 8.02390625 -4 8 C-4 4.09161134 -2.49432124 2.88405893 0 0 Z " fill="#2440C0" transform="translate(149,392)"/>
<path d="M0 0 C1.2065625 0.0309375 1.2065625 0.0309375 2.4375 0.0625 C1.91481534 2.82526177 1.32880413 5.3885876 0.4375 8.0625 C-1.04156892 8.08939216 -2.52077483 8.10884621 -4 8.125 C-5.23556641 8.14240234 -5.23556641 8.14240234 -6.49609375 8.16015625 C-8.5625 8.0625 -8.5625 8.0625 -9.5625 7.0625 C-9.60313832 5.39632885 -9.605221 3.72861905 -9.5625 2.0625 C-7.48696352 1.5090236 -5.71884036 1.0625 -3.5625 1.0625 C-2.5625 0.0625 -2.5625 0.0625 0 0 Z " fill="#EBECED" transform="translate(178.5625,287.9375)"/>
<path d="M0 0 C2.49361571 1.20381448 4.68143083 2.45428722 7 4 C8.32 2.68 9.64 1.36 11 0 C11.66 0.33 12.32 0.66 13 1 C11.31270796 3.79079527 9.61529823 6.02740266 7 8 C3.26133229 8.61029006 -0.24627417 8.42079133 -4 8 C-4 4.09161134 -2.49432124 2.88405893 0 0 Z " fill="#2441C4" transform="translate(194,392)"/>
<path d="M0 0 C2.97 0 5.94 0 9 0 C8.67 1.65 8.34 3.3 8 5 C9.65 5.33 11.3 5.66 13 6 C12.67 6.66 12.34 7.32 12 8 C8.37 8 4.74 8 1 8 C0.67 5.36 0.34 2.72 0 0 Z " fill="#9CA2A4" transform="translate(170,142)"/>
<path d="M0 0 C0.61875 0.165 1.2375 0.33 1.875 0.5 C5.16673441 1.27452574 7.7222975 0.69004263 11 0 C11 2.31 11 4.62 11 7 C9.34385343 7.38218767 7.67542976 7.71395102 6 8 C5.67 7.67 5.34 7.34 5 7 C5 7.33 5 7.66 5 8 C2.36 8 -0.28 8 -3 8 C-2.195625 7.38125 -1.39125 6.7625 -0.5625 6.125 C2.03874519 4.25835959 2.03874519 4.25835959 3 2 C2.01 2 1.02 2 0 2 C0 1.34 0 0.68 0 0 Z " fill="#7F868A" transform="translate(185,175)"/>
<path d="M0 0 C3.63 0 7.26 0 11 0 C11 2.31 11 4.62 11 7 C9.35 7.33 7.7 7.66 6 8 C5.67 7.34 5.34 6.68 5 6 C3.02 6.99 3.02 6.99 1 8 C1.66 6.02 2.32 4.04 3 2 C2.01 2 1.02 2 0 2 C0 1.34 0 0.68 0 0 Z " fill="#838A8D" transform="translate(185,250)"/>
<path d="M0 0 C2.31 0 4.62 0 7 0 C5.68 0.33 4.36 0.66 3 1 C3 3.31 3 5.62 3 8 C3.99 8.33 4.98 8.66 6 9 C5.01 9 4.02 9 3 9 C3 11.31 3 13.62 3 16 C2.01 16.33 1.02 16.66 0 17 C0 11.39 0 5.78 0 0 Z " fill="#384349" transform="translate(61,34)"/>
<path d="M0 0 C1.32 0.66 2.64 1.32 4 2 C4.125 4.375 4.125 4.375 4 7 C3.34 7.66 2.68 8.32 2 9 C1.01 8.67 0.02 8.34 -1 8 C-2.33106622 7.65772583 -3.66400079 7.32248257 -5 7 C-5 5.35 -5 3.7 -5 2 C-3.35 2 -1.7 2 0 2 C0 1.34 0 0.68 0 0 Z " fill="#4A5459" transform="translate(142,34)"/>
<path d="M0 0 C2.375 -0.125 2.375 -0.125 5 0 C5.66 0.66 6.32 1.32 7 2 C6.625 4.625 6.625 4.625 6 7 C3.625 7.625 3.625 7.625 1 8 C0.34 7.34 -0.32 6.68 -1 6 C-0.625 2.875 -0.625 2.875 0 0 Z " fill="#687075" transform="translate(126,362)"/>
<path d="M0 0 C2.625 0.375 2.625 0.375 5 1 C5.625 3.375 5.625 3.375 6 6 C5.34 6.66 4.68 7.32 4 8 C1.375 7.625 1.375 7.625 -1 7 C-1.625 4.625 -1.625 4.625 -2 2 C-1.34 1.34 -0.68 0.68 0 0 Z " fill="#697175" transform="translate(34,288)"/>
<path d="M0 0 C0.99 0.66 1.98 1.32 3 2 C3 2.66 3 3.32 3 4 C2.33613281 3.94199219 1.67226562 3.88398437 0.98828125 3.82421875 C-4.11748917 3.41689136 -4.11748917 3.41689136 -8.77734375 5.11328125 C-10.29461729 6.61568223 -10.29461729 6.61568223 -12 9 C-12.34982212 5.85160094 -12.24633224 4.37976221 -10.5 1.6875 C-6.79318812 -0.81459802 -4.43361723 -0.42224926 0 0 Z " fill="#3E494E" transform="translate(104,33)"/>
<path d="M0 0 C1.65 0.33 3.3 0.66 5 1 C5 1.99 5 2.98 5 4 C5.99 4.33 6.98 4.66 8 5 C7 6 7 6 4.49609375 6.09765625 C2.98208984 6.08025391 2.98208984 6.08025391 1.4375 6.0625 C0.42558594 6.05347656 -0.58632812 6.04445313 -1.62890625 6.03515625 C-2.41136719 6.02355469 -3.19382813 6.01195312 -4 6 C-2.68 4.02 -1.36 2.04 0 0 Z " fill="#1437E7" transform="translate(160,394)"/>
<path d="M0 0 C0.33 0 0.66 0 1 0 C1 4.62 1 9.24 1 14 C4.3 14 7.6 14 11 14 C11 14.99 11 15.98 11 17 C9.35425434 17.02688151 7.70838587 17.04634123 6.0625 17.0625 C5.14597656 17.07410156 4.22945313 17.08570312 3.28515625 17.09765625 C1 17 1 17 0 16 C-0.07319621 13.30345146 -0.09242537 10.63308542 -0.0625 7.9375 C-0.05798828 7.17888672 -0.05347656 6.42027344 -0.04882812 5.63867188 C-0.0370068 3.75908129 -0.01907078 1.87953101 0 0 Z " fill="#505A5F" transform="translate(111,34)"/>
<path d="M0 0 C2.475 0.99 2.475 0.99 5 2 C5 2.66 5 3.32 5 4 C5.99 4.33 6.98 4.66 8 5 C7 6 7 6 4.49609375 6.09765625 C2.98208984 6.08025391 2.98208984 6.08025391 1.4375 6.0625 C0.42558594 6.05347656 -0.58632812 6.04445313 -1.62890625 6.03515625 C-2.41136719 6.02355469 -3.19382812 6.01195312 -4 6 C-1.125 1.125 -1.125 1.125 0 0 Z " fill="#1236ED" transform="translate(70,394)"/>
<path d="M0 0 C0.66 0 1.32 0 2 0 C2 2.31 2 4.62 2 7 C-1.27275026 7 -3.846632 6.70074844 -7 6 C-6.67 4.68 -6.34 3.36 -6 2 C-4.35 2 -2.7 2 -1 2 C-0.67 1.34 -0.34 0.68 0 0 Z " fill="#848B8E" transform="translate(58,234)"/>
<path d="M0 0 C6.75 1.875 6.75 1.875 9 3 C7 5 7 5 4.3984375 5.1953125 C3.40070313 5.17210937 2.40296875 5.14890625 1.375 5.125 C-0.12933594 5.09792969 -0.12933594 5.09792969 -1.6640625 5.0703125 C-2.43492187 5.04710937 -3.20578125 5.02390625 -4 5 C-2.68 3.35 -1.36 1.7 0 0 Z " fill="#1236EF" transform="translate(138,395)"/>
<path d="M0 0 C0.99 0 1.98 0 3 0 C3 1.32 3 2.64 3 4 C3.66 4 4.32 4 5 4 C5 4.66 5 5.32 5 6 C5.99 6 6.98 6 8 6 C8 6.66 8 7.32 8 8 C5.36 8 2.72 8 0 8 C-0.79953138 4.71303767 -1.09658936 3.28976808 0 0 Z " fill="#888F92" transform="translate(175,192)"/>
<path d="M0 0 C2.125 0.375 2.125 0.375 4 1 C4 6.36363636 4 6.36363636 3 9 C2.01 9.33 1.02 9.66 0 10 C0 9.34 0 8.68 0 8 C-0.66 7.67 -1.32 7.34 -2 7 C-1.34 7 -0.68 7 0 7 C-0.66 5.35 -1.32 3.7 -2 2 C-1.34 1.34 -0.68 0.68 0 0 Z " fill="#6F777B" transform="translate(169,124)"/>
<path d="M0 0 C5.875 3.75 5.875 3.75 7 6 C5.948125 5.5875 4.89625 5.175 3.8125 4.75 C-0.02402192 3.53946058 -0.02402192 3.53946058 -2.9375 5.875 C-3.9584375 6.926875 -3.9584375 6.926875 -5 8 C-6.32 6.68 -7.64 5.36 -9 4 C-8.67 3.34 -8.34 2.68 -8 2 C-6.8553125 2.3403125 -6.8553125 2.3403125 -5.6875 2.6875 C-4.800625 2.790625 -3.91375 2.89375 -3 3 C-1.1645201 1.66621425 -1.1645201 1.66621425 0 0 Z " fill="#2D44A2" transform="translate(138,392)"/>
<path d="M0 0 C2.64 1.32 5.28 2.64 8 4 C7.67 4.66 7.34 5.32 7 6 C5.948125 5.5875 4.89625 5.175 3.8125 4.75 C-0.02402192 3.53946058 -0.02402192 3.53946058 -2.9375 5.875 C-3.9584375 6.926875 -3.9584375 6.926875 -5 8 C-5.66 6.68 -6.32 5.36 -7 4 C-6.030625 3.525625 -5.06125 3.05125 -4.0625 2.5625 C-1.19522563 1.29806053 -1.19522563 1.29806053 0 0 Z " fill="#2F459A" transform="translate(93,392)"/>
<path d="M0 0 C-0.99 0.495 -0.99 0.495 -2 1 C-1.34 2.65 -0.68 4.3 0 6 C-1.875 7.0625 -1.875 7.0625 -4 8 C-4.66 7.67 -5.32 7.34 -6 7 C-6 4.66666667 -6 2.33333333 -6 0 C-3.50907189 -1.24546405 -2.58919267 -0.7767578 0 0 Z " fill="#6A7277" transform="translate(174,251)"/>
<path d="M0 0 C2.125 0.9375 2.125 0.9375 4 2 C3.34 2 2.68 2 2 2 C2.66 3.65 3.32 5.3 4 7 C2.125 8.0625 2.125 8.0625 0 9 C-0.66 8.67 -1.32 8.34 -2 8 C-2 5.66666667 -2 3.33333333 -2 1 C-1.34 0.67 -0.68 0.34 0 0 Z " fill="#656E72" transform="translate(168,158)"/>
<path d="M0 0 C1.32 0.33 2.64 0.66 4 1 C4 3.33333333 4 5.66666667 4 8 C3.34 8 2.68 8 2 8 C1.67 8.66 1.34 9.32 1 10 C0.01 9.34 -0.98 8.68 -2 8 C-1.67 7.34 -1.34 6.68 -1 6 C-0.34 6.33 0.32 6.66 1 7 C1 6.34 1 5.68 1 5 C0.01 4.67 -0.98 4.34 -2 4 C-1.34 2.68 -0.68 1.36 0 0 Z " fill="#6C7478" transform="translate(165,141)"/>
<path d="M0 0 C3.63 0 7.26 0 11 0 C11 0.99 11 1.98 11 3 C8.36 3 5.72 3 3 3 C3 4.65 3 6.3 3 8 C2.67 8 2.34 8 2 8 C1.855625 7.236875 1.71125 6.47375 1.5625 5.6875 C1.0367406 2.91827092 1.0367406 2.91827092 0 0 Z " fill="#4A5459" transform="translate(77,33)"/>
<path d="M0 0 C0.66 0 1.32 0 2 0 C2 0.99 2 1.98 2 3 C2.66 3 3.32 3 4 3 C4 2.01 4 1.02 4 0 C4.66 0 5.32 0 6 0 C6 2.64 6 5.28 6 8 C5.34 8 4.68 8 4 8 C4 7.01 4 6.02 4 5 C3.34 5 2.68 5 2 5 C2 5.99 2 6.98 2 8 C1.34 8 0.68 8 0 8 C0 5.36 0 2.72 0 0 Z " fill="#787F83" transform="translate(84,362)"/>
<path d="M0 0 C2.0625 0.4375 2.0625 0.4375 4 1 C4 2.98 4 4.96 4 7 C2.0625 7.5625 2.0625 7.5625 0 8 C-1 7 -1 7 -1.125 4 C-1 1 -1 1 0 0 Z " fill="#8E9497" transform="translate(192,192)"/>
<path d="M0 0 C2.0625 0.4375 2.0625 0.4375 4 1 C4 2.98 4 4.96 4 7 C2.0625 7.5625 2.0625 7.5625 0 8 C-1 7 -1 7 -1.125 4 C-1 1 -1 1 0 0 Z " fill="#8F9598" transform="translate(192,125)"/>
<path d="M0 0 C2.0625 0.4375 2.0625 0.4375 4 1 C4.33 2.98 4.66 4.96 5 7 C3.125 8.0625 3.125 8.0625 1 9 C0.34 8.67 -0.32 8.34 -1 8 C-0.67 7.01 -0.34 6.02 0 5 C-0.31478446 3.66216607 -0.64587656 2.32796291 -1 1 C-0.67 0.67 -0.34 0.34 0 0 Z " fill="#666E72" transform="translate(165,233)"/>
<path d="M0 0 C1.32 0 2.64 0 4 0 C4 2.66666667 4 5.33333333 4 8 C3.01 8.33 2.02 8.66 1 9 C0.34 8.67 -0.32 8.34 -1 8 C-1 7.34 -1 6.68 -1 6 C-0.34 6 0.32 6 1 6 C1 5.34 1 4.68 1 4 C0.34 4 -0.32 4 -1 4 C-0.67 2.68 -0.34 1.36 0 0 Z " fill="#656D72" transform="translate(168,108)"/>
<path d="M0 0 C1.875 0.25 1.875 0.25 4 1 C4.66 2.32 5.32 3.64 6 5 C2.7 5 -0.6 5 -4 5 C-2.68 3.35 -1.36 1.7 0 0 Z " fill="#1236EF" transform="translate(48,395)"/>
<path d="M0 0 C0.66 0 1.32 0 2 0 C3.42944945 2.35438733 4.08661261 3.48032433 3.625 6.25 C3.41875 6.8275 3.2125 7.405 3 8 C1.35 7.67 -0.3 7.34 -2 7 C-1.125 1.125 -1.125 1.125 0 0 Z " fill="#7C8387" transform="translate(177,250)"/>
<path d="M0 0 C1.32 0 2.64 0 4 0 C4 2.66666667 4 5.33333333 4 8 C3.01 8.33 2.02 8.66 1 9 C0.34 8.01 -0.32 7.02 -1 6 C-0.34 6 0.32 6 1 6 C1 5.34 1 4.68 1 4 C0.34 4 -0.32 4 -1 4 C-0.67 2.68 -0.34 1.36 0 0 Z " fill="#626A6F" transform="translate(168,192)"/>
<path d="M0 0 C1.32 0.33 2.64 0.66 4 1 C4 1.66 4 2.32 4 3 C4.99 3.33 5.98 3.66 7 4 C6 5 6 5 3.71484375 5.09765625 C2.34005859 5.08025391 2.34005859 5.08025391 0.9375 5.0625 C0.01839844 5.05347656 -0.90070312 5.04445313 -1.84765625 5.03515625 C-2.55792969 5.02355469 -3.26820312 5.01195312 -4 5 C-2.68 3.35 -1.36 1.7 0 0 Z " fill="#1236ED" transform="translate(26,395)"/>
<path d="M0 0 C2.0625 0.4375 2.0625 0.4375 4 1 C3.34 1.66 2.68 2.32 2 3 C2.99 3.66 3.98 4.32 5 5 C4.67 5.99 4.34 6.98 4 8 C3.01 8.33 2.02 8.66 1 9 C0.34 8.67 -0.32 8.34 -1 8 C-1.04241723 5.66705225 -1.04092937 3.33297433 -1 1 C-0.67 0.67 -0.34 0.34 0 0 Z " fill="#687175" transform="translate(162,175)"/>
<path d="M0 0 C1.32 0.66 2.64 1.32 4 2 C3.67 3.98 3.34 5.96 3 8 C0 7 0 7 -2 5 C-1.46428571 1.46428571 -1.46428571 1.46428571 0 0 Z " fill="#7C8386" transform="translate(185,141)"/>
<path d="M0 0 C1.65 0.33 3.3 0.66 5 1 C4.67 2.98 4.34 4.96 4 7 C3.01 7 2.02 7 1 7 C1.33 6.34 1.66 5.68 2 5 C1.01 4.67 0.02 4.34 -1 4 C-0.67 2.68 -0.34 1.36 0 0 Z " fill="#798084" transform="translate(184,108)"/>
<path d="M0 0 C2.4375 0.8125 2.4375 0.8125 5 2 C5.33 2.99 5.66 3.98 6 5 C2.7 5 -0.6 5 -4 5 C-2.68 3.35 -1.36 1.7 0 0 Z " fill="#1236F0" transform="translate(93,395)"/>
<path d="M0 0 C1.32 0.66 2.64 1.32 4 2 C3.67 3.65 3.34 5.3 3 7 C2.01 7 1.02 7 0 7 C-0.66 6.34 -1.32 5.68 -2 5 C-1.46428571 1.46428571 -1.46428571 1.46428571 0 0 Z " fill="#7A8184" transform="translate(186,288)"/>
<path d="M0 0 C0.66 0 1.32 0 2 0 C2 0.66 2 1.32 2 2 C3.32 2.33 4.64 2.66 6 3 C5.67 4.32 5.34 5.64 5 7 C3.35 7 1.7 7 0 7 C0 4.69 0 2.38 0 0 Z " fill="#7A8185" transform="translate(39,234)"/>
<path d="M0 0 C2.0625 0.4375 2.0625 0.4375 4 1 C4 2.98 4 4.96 4 7 C2.68 7.33 1.36 7.66 0 8 C-0.38063221 5.6739143 -0.71269945 3.33944736 -1 1 C-0.67 0.67 -0.34 0.34 0 0 Z " fill="#788083" transform="translate(192,158)"/>
<path d="M0 0 C1.65 0 3.3 0 5 0 C5 2.31 5 4.62 5 7 C3.35 7.33 1.7 7.66 0 8 C0 7.34 0 6.68 0 6 C0.99 6 1.98 6 3 6 C3 5.34 3 4.68 3 4 C2.01 4 1.02 4 0 4 C0 2.68 0 1.36 0 0 Z " fill="#747B7F" transform="translate(174,108)"/>
<path d="M0 0 C2.0625 0.4375 2.0625 0.4375 4 1 C3.34 1.66 2.68 2.32 2 3 C2.99 3.66 3.98 4.32 5 5 C4.67 5.99 4.34 6.98 4 8 C3.01 8.33 2.02 8.66 1 9 C0.34 8.67 -0.32 8.34 -1 8 C-0.67 7.01 -0.34 6.02 0 5 C-0.31478446 3.66216607 -0.64587656 2.32796291 -1 1 C-0.67 0.67 -0.34 0.34 0 0 Z " fill="#5F686C" transform="translate(163,288)"/>
<path d="M0 0 C0.66 0 1.32 0 2 0 C2.33 2.31 2.66 4.62 3 7 C1.35 7.33 -0.3 7.66 -2 8 C-2.125 5.125 -2.125 5.125 -2 2 C-1.34 1.34 -0.68 0.68 0 0 Z " fill="#757D80" transform="translate(177,175)"/>
<path d="M0 0 C1.98 0.495 1.98 0.495 4 1 C4 2.65 4 4.3 4 6 C2.02 6.99 2.02 6.99 0 8 C0.33 7.01 0.66 6.02 1 5 C0.34 5 -0.32 5 -1 5 C-0.67 3.35 -0.34 1.7 0 0 Z " fill="#787F83" transform="translate(192,108)"/>
<path d="M0 0 C0.99 0 1.98 0 3 0 C3.33 1.98 3.66 3.96 4 6 C3.01 6.495 3.01 6.495 2 7 C0.68 6.01 -0.64 5.02 -2 4 C-1.34 2.68 -0.68 1.36 0 0 Z " fill="#7C8386" transform="translate(185,158)"/>
<path d="M0 0 C1.65 0 3.3 0 5 0 C5 1.98 5 3.96 5 6 C3.68 6.33 2.36 6.66 1 7 C0.67 4.69 0.34 2.38 0 0 Z " fill="#6C7478" transform="translate(191,142)"/>
<path d="M0 0 C0.99 0.33 1.98 0.66 3 1 C3.33 2.98 3.66 4.96 4 7 C2.35 6.67 0.7 6.34 -1 6 C-1.042721 4.33388095 -1.04063832 2.66617115 -1 1 C-0.67 0.67 -0.34 0.34 0 0 Z " fill="#6E767A" transform="translate(170,289)"/>
<path d="M0 0 C1.65 0 3.3 0 5 0 C5 3.76687864 4.76462683 4.91190305 3 8 C2.01 8 1.02 8 0 8 C0 7.34 0 6.68 0 6 C0.99 6 1.98 6 3 6 C3 5.34 3 4.68 3 4 C2.01 4 1.02 4 0 4 C0 2.68 0 1.36 0 0 Z " fill="#676F74" transform="translate(184,192)"/>
<path d="M0 0 C2.97 0 5.94 0 9 0 C9 0.66 9 1.32 9 2 C6.69 2 4.38 2 2 2 C2 3.65 2 5.3 2 7 C1.34 7 0.68 7 0 7 C0 4.69 0 2.38 0 0 Z " fill="#29353B" transform="translate(112,41)"/>
<path d="M0 0 C1.65 0 3.3 0 5 0 C5.5625 1.9375 5.5625 1.9375 6 4 C5 5 5 5 2.4375 5.0625 C1.2309375 5.0315625 1.2309375 5.0315625 0 5 C0 3.35 0 1.7 0 0 Z " fill="#EBECEC" transform="translate(137,36)"/>
<path d="M0 0 C0.99 0.33 1.98 0.66 3 1 C3.33 2.98 3.66 4.96 4 7 C2.35 6.67 0.7 6.34 -1 6 C-0.67 4.02 -0.34 2.04 0 0 Z " fill="#737B7E" transform="translate(172,234)"/>
<path d="M0 0 C0.66 0 1.32 0 2 0 C4.125 4.625 4.125 4.625 3 8 C3 7.34 3 6.68 3 6 C1.35 6.66 -0.3 7.32 -2 8 C-1.47731534 5.23723823 -0.89130413 2.6739124 0 0 Z " fill="#60686D" transform="translate(93,362)"/>
<path d="M0 0 C1.32 1.32 2.64 2.64 4 4 C4.66 2.68 5.32 1.36 6 0 C6 2.64 6 5.28 6 8 C4.68 7.01 3.36 6.02 2 5 C1.34 5.99 0.68 6.98 0 8 C0 5.36 0 2.72 0 0 Z " fill="#515A5F" transform="translate(99,362)"/>
<path d="M0 0 C2.50037734 2.17424117 3.43628586 3.73045798 4 7 C1.69 7 -0.62 7 -3 7 C-2.01 4.69 -1.02 2.38 0 0 Z " fill="#676F74" transform="translate(50,289)"/>
<path d="M0 0 C1.98 0 3.96 0 6 0 C6 0.66 6 1.32 6 2 C5.34 2 4.68 2 4 2 C4 3.98 4 5.96 4 8 C3.34 8 2.68 8 2 8 C2 6.02 2 4.04 2 2 C1.34 2 0.68 2 0 2 C0 1.34 0 0.68 0 0 Z " fill="#767E81" transform="translate(41,288)"/>
<path d="M0 0 C1.32 0.66 2.64 1.32 4 2 C3.67 3.32 3.34 4.64 3 6 C1.35 5.67 -0.3 5.34 -2 5 C-1.125 1.125 -1.125 1.125 0 0 Z " fill="#6E767A" transform="translate(45,252)"/>
<path d="M0 0 C1.32 0 2.64 0 4 0 C4 1.65 4 3.3 4 5 C2.35 5 0.7 5 -1 5 C-0.67 3.35 -0.34 1.7 0 0 Z " fill="#798184" transform="translate(63,236)"/>
<path d="M0 0 C1.32 0 2.64 0 4 0 C4 1.65 4 3.3 4 5 C2.35 4.67 0.7 4.34 -1 4 C-0.67 2.68 -0.34 1.36 0 0 Z " fill="#777E82" transform="translate(31,253)"/>
<path d="M0 0 C2.475 0.495 2.475 0.495 5 1 C4.67 2.32 4.34 3.64 4 5 C2.68 5 1.36 5 0 5 C0 3.35 0 1.7 0 0 Z " fill="#F4F4F4" transform="translate(64,36)"/>
<path d="M0 0 C1.65 0 3.3 0 5 0 C4.125 5.75 4.125 5.75 3 8 C2.34 8 1.68 8 1 8 C1.66 6.02 2.32 4.04 3 2 C2.01 2 1.02 2 0 2 C0 1.34 0 0.68 0 0 Z " fill="#727A7E" transform="translate(191,288)"/>
<path d="M0 0 C1.32 0 2.64 0 4 0 C4 2.64 4 5.28 4 8 C2.35 8 0.7 8 -1 8 C-1 7.34 -1 6.68 -1 6 C-0.01 5.34 0.98 4.68 2 4 C2.33 3.01 2.66 2.02 3 1 C2.01 0.67 1.02 0.34 0 0 Z " fill="#656E72" transform="translate(175,125)"/>
<path d="M0 0 C0.99 0.33 1.98 0.66 3 1 C3 2.32 3 3.64 3 5 C1.35 4.67 -0.3 4.34 -2 4 C-1.34 2.68 -0.68 1.36 0 0 Z " fill="#ECEDEE" transform="translate(128,363)"/>
<path d="M0 0 C1.65 0 3.3 0 5 0 C4.47731534 2.76276177 3.89130413 5.3260876 3 8 C2.34 8 1.68 8 1 8 C1.66 6.02 2.32 4.04 3 2 C2.01 2 1.02 2 0 2 C0 1.34 0 0.68 0 0 Z " fill="#6C7478" transform="translate(176,288)"/>
<path d="M0 0 C1.32 0 2.64 0 4 0 C2.95125002 2.62187494 2.35068687 3.79371361 -0.125 5.25 C-0.74375 5.4975 -1.3625 5.745 -2 6 C-1.34 4.02 -0.68 2.04 0 0 Z " fill="#E7E8E9" transform="translate(168,177)"/>
<path d="M0 0 C0 0.99 0 1.98 0 3 C0.66 3.33 1.32 3.66 2 4 C2 4.99 2 5.98 2 7 C-0.97 6.505 -0.97 6.505 -4 6 C-2.84826645 3.53199953 -1.95216435 1.95216435 0 0 Z " fill="#576065" transform="translate(177,159)"/>
<path d="M0 0 C0.66 1.32 1.32 2.64 2 4 C2.99 4 3.98 4 5 4 C5 4.66 5 5.32 5 6 C3.68 6.33 2.36 6.66 1 7 C0.01 5.35 -0.98 3.7 -2 2 C-1.34 2 -0.68 2 0 2 C0 1.34 0 0.68 0 0 Z " fill="#E8E9EA" transform="translate(172,108)"/>
<path d="M0 0 C1.32 0 2.64 0 4 0 C3.67 1.65 3.34 3.3 3 5 C2.01 4.67 1.02 4.34 0 4 C0 2.68 0 1.36 0 0 Z " fill="#F4F4F5" transform="translate(34,290)"/>
<path d="M0 0 C1.98 0 3.96 0 6 0 C6 0.66 6 1.32 6 2 C5.34 2 4.68 2 4 2 C4 3.98 4 5.96 4 8 C3.67 8 3.34 8 3 8 C3 6.02 3 4.04 3 2 C2.01 2 1.02 2 0 2 C0 1.34 0 0.68 0 0 Z " fill="#646C71" transform="translate(25,288)"/>
<path d="M0 0 C1.98 0 3.96 0 6 0 C6 0.66 6 1.32 6 2 C5.34 2 4.68 2 4 2 C4 3.98 4 5.96 4 8 C3.67 8 3.34 8 3 8 C3 6.02 3 4.04 3 2 C2.01 2 1.02 2 0 2 C0 1.34 0 0.68 0 0 Z " fill="#666E73" transform="translate(24,250)"/>
<path d="M0 0 C0.33 0.99 0.66 1.98 1 3 C1.99 3 2.98 3 4 3 C4 4.32 4 5.64 4 7 C2.68 7 1.36 7 0 7 C0 4.69 0 2.38 0 0 Z " fill="#A9ADB0" transform="translate(191,251)"/>
<path d="M0 0 C1.65 0 3.3 0 5 0 C5 1.65 5 3.3 5 5 C3.35 5 1.7 5 0 5 C0 3.35 0 1.7 0 0 Z " fill="#697175" transform="translate(37,253)"/>
<path d="M0 0 C0.66 0 1.32 0 2 0 C2 2.64 2 5.28 2 8 C1.34 8 0.68 8 0 8 C-0.38063221 5.6739143 -0.71269945 3.33944736 -1 1 C-0.67 0.67 -0.34 0.34 0 0 Z " fill="#858B8F" transform="translate(179,233)"/>
<path d="M0 0 C2.4375 0.375 2.4375 0.375 5 1 C5.33 1.66 5.66 2.32 6 3 C5.34 3 4.68 3 4 3 C3.67 4.32 3.34 5.64 3 7 C2.67 6.01 2.34 5.02 2 4 C1.34 3.34 0.68 2.68 0 2 C0 1.34 0 0.68 0 0 Z " fill="#D0D3D4" transform="translate(173,233)"/>
<path d="M0 0 C-0.66 1.32 -1.32 2.64 -2 4 C-3.32 3.67 -4.64 3.34 -6 3 C-6 2.34 -6 1.68 -6 1 C-4 0 -4 0 0 0 Z " fill="#71787C" transform="translate(172,163)"/>
<path d="M0 0 C0.33 0.66 0.66 1.32 1 2 C1.66 2 2.32 2 3 2 C3 3.65 3 5.3 3 7 C1.02 5.35 -0.96 3.7 -3 2 C-2.01 1.34 -1.02 0.68 0 0 Z " fill="#D4D6D7" transform="translate(188,125)"/>
<path d="M0 0 C0.66 0 1.32 0 2 0 C1.125 3.875 1.125 3.875 0 5 C-2.33297433 5.04092937 -4.66705225 5.04241723 -7 5 C-7 4.67 -7 4.34 -7 4 C-5.02 4 -3.04 4 -1 4 C-0.67 2.68 -0.34 1.36 0 0 Z " fill="#586266" transform="translate(104,46)"/>
</svg>
